%TF.GenerationSoftware,KiCad,Pcbnew,5.0.2-bee76a0~70~ubuntu16.04.1*%
%TF.CreationDate,2018-12-19T01:31:24+02:00*%
%TF.ProjectId,isolation-transformer,69736f6c-6174-4696-9f6e-2d7472616e73,rev?*%
%TF.SameCoordinates,Original*%
%TF.FileFunction,Legend,Top*%
%TF.FilePolarity,Positive*%
%FSLAX46Y46*%
G04 Gerber Fmt 4.6, Leading zero omitted, Abs format (unit mm)*
G04 Created by KiCad (PCBNEW 5.0.2-bee76a0~70~ubuntu16.04.1) date Wed 19 Dec 2018 01:31:24 AM EET*
%MOMM*%
%LPD*%
G01*
G04 APERTURE LIST*
%ADD10C,0.120000*%
%ADD11C,0.150000*%
G04 APERTURE END LIST*
D10*
X143340000Y-41003600D02*
X143340000Y-48623600D01*
X143340000Y-48623600D02*
X153500000Y-48623600D01*
X153500000Y-48623600D02*
X153500000Y-41003600D01*
X153500000Y-41003600D02*
X143340000Y-41003600D01*
X117710000Y-50557600D02*
X110090000Y-50557600D01*
X110090000Y-50557600D02*
X110090000Y-60717600D01*
X110090000Y-60717600D02*
X117710000Y-60717600D01*
X117710000Y-60717600D02*
X117710000Y-50557600D01*
X80137000Y-104521000D02*
X61264800Y-104521000D01*
X80137000Y-116840000D02*
X80137000Y-104521000D01*
X61264800Y-116840000D02*
X80137000Y-116840000D01*
X61264800Y-104495600D02*
X61264800Y-116840000D01*
X57485000Y-47545160D02*
G75*
G03X57485000Y-47545160I-1370000J0D01*
G01*
X56115000Y-46175160D02*
X56115000Y-46105160D01*
X56115000Y-51915560D02*
X56115000Y-51845560D01*
X57485000Y-53285560D02*
G75*
G03X57485000Y-53285560I-1370000J0D01*
G01*
X56115000Y-58262360D02*
X56115000Y-58332360D01*
X57485000Y-56892360D02*
G75*
G03X57485000Y-56892360I-1370000J0D01*
G01*
X96347000Y-47509600D02*
X96417000Y-47509600D01*
X96347000Y-47509600D02*
G75*
G03X96347000Y-47509600I-1370000J0D01*
G01*
X96147000Y-43572600D02*
X96077000Y-43572600D01*
X98887000Y-43572600D02*
G75*
G03X98887000Y-43572600I-1370000J0D01*
G01*
X101574000Y-53097600D02*
X104114000Y-53097600D01*
X101574000Y-55637600D02*
X104114000Y-55637600D01*
X101574000Y-58177600D02*
X104114000Y-58177600D01*
X85684000Y-50517600D02*
X101574000Y-50517600D01*
X85684000Y-60757600D02*
X101574000Y-60757600D01*
X85684000Y-60757600D02*
X85684000Y-50517600D01*
X101574000Y-60757600D02*
X101574000Y-50517600D01*
X98560000Y-65340400D02*
X98490000Y-65340400D01*
X101300000Y-65340400D02*
G75*
G03X101300000Y-65340400I-1370000J0D01*
G01*
X91765500Y-65312460D02*
X91695500Y-65312460D01*
X94505500Y-65312460D02*
G75*
G03X94505500Y-65312460I-1370000J0D01*
G01*
X49093500Y-65416600D02*
X49023500Y-65416600D01*
X51833500Y-65416600D02*
G75*
G03X51833500Y-65416600I-1370000J0D01*
G01*
X42880000Y-65416600D02*
X42950000Y-65416600D01*
X42880000Y-65416600D02*
G75*
G03X42880000Y-65416600I-1370000J0D01*
G01*
X87694000Y-43591860D02*
G75*
G03X89814000Y-43591859I1060000J-2119740D01*
G01*
X90089000Y-43174312D02*
X90089000Y-43624312D01*
X90314000Y-43399312D02*
X89864000Y-43399312D01*
X66755400Y-42816785D02*
X66255400Y-42816785D01*
X66505400Y-42566785D02*
X66505400Y-43066785D01*
X63970400Y-47767557D02*
G75*
G02X63970400Y-42975563I1060000J2395997D01*
G01*
X66090400Y-47767557D02*
G75*
G03X66090400Y-42975563I-1060000J2395997D01*
G01*
X109483500Y-63883100D02*
X109483500Y-66823100D01*
X109723500Y-63883100D02*
X109723500Y-66823100D01*
X109603500Y-63883100D02*
X109603500Y-66823100D01*
X115163500Y-65353100D02*
X114143500Y-65353100D01*
X107683500Y-65353100D02*
X108703500Y-65353100D01*
X114143500Y-63883100D02*
X108703500Y-63883100D01*
X114143500Y-66823100D02*
X114143500Y-63883100D01*
X108703500Y-66823100D02*
X114143500Y-66823100D01*
X108703500Y-63883100D02*
X108703500Y-66823100D01*
X76509000Y-63883100D02*
X76509000Y-66823100D01*
X76509000Y-66823100D02*
X81949000Y-66823100D01*
X81949000Y-66823100D02*
X81949000Y-63883100D01*
X81949000Y-63883100D02*
X76509000Y-63883100D01*
X75489000Y-65353100D02*
X76509000Y-65353100D01*
X82969000Y-65353100D02*
X81949000Y-65353100D01*
X77409000Y-63883100D02*
X77409000Y-66823100D01*
X77529000Y-63883100D02*
X77529000Y-66823100D01*
X77289000Y-63883100D02*
X77289000Y-66823100D01*
X64994500Y-66823100D02*
X64994500Y-63883100D01*
X64994500Y-63883100D02*
X59554500Y-63883100D01*
X59554500Y-63883100D02*
X59554500Y-66823100D01*
X59554500Y-66823100D02*
X64994500Y-66823100D01*
X66014500Y-65353100D02*
X64994500Y-65353100D01*
X58534500Y-65353100D02*
X59554500Y-65353100D01*
X64094500Y-66823100D02*
X64094500Y-63883100D01*
X63974500Y-66823100D02*
X63974500Y-63883100D01*
X64214500Y-66823100D02*
X64214500Y-63883100D01*
X27949500Y-63883100D02*
X27949500Y-66823100D01*
X28189500Y-63883100D02*
X28189500Y-66823100D01*
X28069500Y-63883100D02*
X28069500Y-66823100D01*
X33629500Y-65353100D02*
X32609500Y-65353100D01*
X26149500Y-65353100D02*
X27169500Y-65353100D01*
X32609500Y-63883100D02*
X27169500Y-63883100D01*
X32609500Y-66823100D02*
X32609500Y-63883100D01*
X27169500Y-66823100D02*
X32609500Y-66823100D01*
X27169500Y-63883100D02*
X27169500Y-66823100D01*
X107324000Y-47627960D02*
X107324000Y-42907960D01*
X107324000Y-42907960D02*
X101204000Y-42907960D01*
X101204000Y-42907960D02*
X101204000Y-47627960D01*
X101204000Y-47627960D02*
X107324000Y-47627960D01*
X105564000Y-47627960D02*
X105564000Y-47827960D01*
X105564000Y-47827960D02*
X105864000Y-47827960D01*
X105864000Y-47827960D02*
X105864000Y-47627960D01*
X105564000Y-47727960D02*
X105864000Y-47727960D01*
X104764000Y-47627960D02*
X104764000Y-47017960D01*
X104764000Y-47017960D02*
X106714000Y-47017960D01*
X106714000Y-47017960D02*
X106714000Y-43517960D01*
X106714000Y-43517960D02*
X101814000Y-43517960D01*
X101814000Y-43517960D02*
X101814000Y-47017960D01*
X101814000Y-47017960D02*
X103764000Y-47017960D01*
X103764000Y-47017960D02*
X103764000Y-47627960D01*
X107324000Y-46317960D02*
X106714000Y-46317960D01*
X107324000Y-45017960D02*
X106714000Y-45017960D01*
X101204000Y-46317960D02*
X101814000Y-46317960D01*
X101204000Y-45017960D02*
X101814000Y-45017960D01*
X104364000Y-43517960D02*
X104364000Y-44017960D01*
X104364000Y-44017960D02*
X104164000Y-44017960D01*
X104164000Y-44017960D02*
X104164000Y-43517960D01*
X104264000Y-43517960D02*
X104264000Y-44017960D01*
X106374000Y-47927960D02*
X107624000Y-47927960D01*
X107624000Y-47927960D02*
X107624000Y-46677960D01*
X42138600Y-104521000D02*
X23266400Y-104521000D01*
X42138600Y-116840000D02*
X42138600Y-104521000D01*
X23266400Y-116840000D02*
X42138600Y-116840000D01*
X23266400Y-104495600D02*
X23266400Y-116840000D01*
X61137800Y-104521000D02*
X42265600Y-104521000D01*
X61137800Y-116840000D02*
X61137800Y-104521000D01*
X42265600Y-116840000D02*
X61137800Y-116840000D01*
X42265600Y-104495600D02*
X42265600Y-116840000D01*
X80264000Y-104495600D02*
X80264000Y-116840000D01*
X80264000Y-116840000D02*
X99136200Y-116840000D01*
X99136200Y-116840000D02*
X99136200Y-104521000D01*
X99136200Y-104521000D02*
X80264000Y-104521000D01*
X118135400Y-104521000D02*
X99263200Y-104521000D01*
X118135400Y-116840000D02*
X118135400Y-104521000D01*
X99263200Y-116840000D02*
X118135400Y-116840000D01*
X99263200Y-104495600D02*
X99263200Y-116840000D01*
X118077000Y-99142600D02*
X105017000Y-99142600D01*
X105017000Y-99142600D02*
X105017000Y-69882600D01*
X105017000Y-69882600D02*
X118077000Y-69882600D01*
X118077000Y-69882600D02*
X118077000Y-99142600D01*
X118397000Y-98112600D02*
X118397000Y-95612600D01*
X86075500Y-98112600D02*
X86075500Y-95612600D01*
X85755500Y-69882600D02*
X85755500Y-99142600D01*
X72695500Y-69882600D02*
X85755500Y-69882600D01*
X72695500Y-99142600D02*
X72695500Y-69882600D01*
X85755500Y-99142600D02*
X72695500Y-99142600D01*
X68737500Y-99142600D02*
X55677500Y-99142600D01*
X55677500Y-99142600D02*
X55677500Y-69882600D01*
X55677500Y-69882600D02*
X68737500Y-69882600D01*
X68737500Y-69882600D02*
X68737500Y-99142600D01*
X69057500Y-98112600D02*
X69057500Y-95612600D01*
X36736000Y-98049100D02*
X36736000Y-95549100D01*
X36416000Y-69819100D02*
X36416000Y-99079100D01*
X23356000Y-69819100D02*
X36416000Y-69819100D01*
X23356000Y-99079100D02*
X23356000Y-69819100D01*
X36416000Y-99079100D02*
X23356000Y-99079100D01*
X96514816Y-73702045D02*
G75*
G03X100792500Y-72673600I1827684J1808445D01*
G01*
X96500759Y-70081725D02*
G75*
G02X100792500Y-71073600I1841741J-1811875D01*
G01*
X96492500Y-70093600D02*
X96492500Y-73693600D01*
X47026000Y-70093600D02*
X47026000Y-73693600D01*
X47034259Y-70081725D02*
G75*
G02X51326000Y-71073600I1841741J-1811875D01*
G01*
X47048316Y-73702045D02*
G75*
G03X51326000Y-72673600I1827684J1808445D01*
G01*
X44925184Y-70085155D02*
G75*
G03X40647500Y-71113600I-1827684J-1808445D01*
G01*
X44939241Y-73705475D02*
G75*
G02X40647500Y-72713600I-1841741J1811875D01*
G01*
X44947500Y-73693600D02*
X44947500Y-70093600D01*
X94414000Y-73693600D02*
X94414000Y-70093600D01*
X94405741Y-73705475D02*
G75*
G02X90114000Y-72713600I-1841741J1811875D01*
G01*
X94391684Y-70085155D02*
G75*
G03X90114000Y-71113600I-1827684J-1808445D01*
G01*
X83082000Y-42309600D02*
X72582000Y-42309600D01*
X83082000Y-60329600D02*
X83082000Y-42309600D01*
X72582000Y-60329600D02*
X83082000Y-60329600D01*
X72582000Y-42309600D02*
X72582000Y-60329600D01*
X80082000Y-42369600D02*
X78832000Y-42369600D01*
X80082000Y-60269600D02*
X80082000Y-42369600D01*
X75582000Y-60269600D02*
X80082000Y-60269600D01*
X75582000Y-42369600D02*
X75582000Y-60269600D01*
X76832000Y-42369600D02*
X75582000Y-42369600D01*
X78832000Y-42369600D02*
G75*
G02X76832000Y-42369600I-1000000J0D01*
G01*
X66055800Y-49974360D02*
G75*
G02X64055800Y-49974360I-1000000J0D01*
G01*
X64055800Y-49974360D02*
X62805800Y-49974360D01*
X62805800Y-49974360D02*
X62805800Y-60254360D01*
X62805800Y-60254360D02*
X67305800Y-60254360D01*
X67305800Y-60254360D02*
X67305800Y-49974360D01*
X67305800Y-49974360D02*
X66055800Y-49974360D01*
X59805800Y-49914360D02*
X59805800Y-60314360D01*
X59805800Y-60314360D02*
X70305800Y-60314360D01*
X70305800Y-60314360D02*
X70305800Y-49914360D01*
X70305800Y-49914360D02*
X59805800Y-49914360D01*
X47844000Y-42369600D02*
G75*
G02X45844000Y-42369600I-1000000J0D01*
G01*
X45844000Y-42369600D02*
X44594000Y-42369600D01*
X44594000Y-42369600D02*
X44594000Y-60269600D01*
X44594000Y-60269600D02*
X49094000Y-60269600D01*
X49094000Y-60269600D02*
X49094000Y-42369600D01*
X49094000Y-42369600D02*
X47844000Y-42369600D01*
X41594000Y-42309600D02*
X41594000Y-60329600D01*
X41594000Y-60329600D02*
X52094000Y-60329600D01*
X52094000Y-60329600D02*
X52094000Y-42309600D01*
X52094000Y-42309600D02*
X41594000Y-42309600D01*
X169429775Y-54857100D02*
X169429775Y-54357100D01*
X169679775Y-54607100D02*
X169179775Y-54607100D01*
X164479003Y-52072100D02*
G75*
G02X169270997Y-52072100I2395997J-1060000D01*
G01*
X164479003Y-54192100D02*
G75*
G03X169270997Y-54192100I2395997J1060000D01*
G01*
X132106997Y-52072100D02*
G75*
G03X127315003Y-52072100I-2395997J-1060000D01*
G01*
X132106997Y-54192100D02*
G75*
G02X127315003Y-54192100I-2395997J1060000D01*
G01*
X126906225Y-51657100D02*
X127406225Y-51657100D01*
X127156225Y-51407100D02*
X127156225Y-51907100D01*
X154862000Y-63790600D02*
X154862000Y-66730600D01*
X155102000Y-63790600D02*
X155102000Y-66730600D01*
X154982000Y-63790600D02*
X154982000Y-66730600D01*
X160542000Y-65260600D02*
X159522000Y-65260600D01*
X153062000Y-65260600D02*
X154082000Y-65260600D01*
X159522000Y-63790600D02*
X154082000Y-63790600D01*
X159522000Y-66730600D02*
X159522000Y-63790600D01*
X154082000Y-66730600D02*
X159522000Y-66730600D01*
X154082000Y-63790600D02*
X154082000Y-66730600D01*
X142440500Y-66730600D02*
X142440500Y-63790600D01*
X142440500Y-63790600D02*
X137000500Y-63790600D01*
X137000500Y-63790600D02*
X137000500Y-66730600D01*
X137000500Y-66730600D02*
X142440500Y-66730600D01*
X143460500Y-65260600D02*
X142440500Y-65260600D01*
X135980500Y-65260600D02*
X137000500Y-65260600D01*
X141540500Y-66730600D02*
X141540500Y-63790600D01*
X141420500Y-66730600D02*
X141420500Y-63790600D01*
X141660500Y-66730600D02*
X141660500Y-63790600D01*
X167190600Y-104579800D02*
X148318400Y-104579800D01*
X167190600Y-116898800D02*
X167190600Y-104579800D01*
X148318400Y-116898800D02*
X167190600Y-116898800D01*
X148318400Y-104554400D02*
X148318400Y-116898800D01*
X129268400Y-104554400D02*
X129268400Y-116898800D01*
X129268400Y-116898800D02*
X148140600Y-116898800D01*
X148140600Y-116898800D02*
X148140600Y-104579800D01*
X148140600Y-104579800D02*
X129268400Y-104579800D01*
X163585000Y-98083600D02*
X163585000Y-95583600D01*
X163265000Y-69853600D02*
X163265000Y-99113600D01*
X150205000Y-69853600D02*
X163265000Y-69853600D01*
X150205000Y-99113600D02*
X150205000Y-69853600D01*
X163265000Y-99113600D02*
X150205000Y-99113600D01*
X146247000Y-99113600D02*
X133187000Y-99113600D01*
X133187000Y-99113600D02*
X133187000Y-69853600D01*
X133187000Y-69853600D02*
X146247000Y-69853600D01*
X146247000Y-69853600D02*
X146247000Y-99113600D01*
X146567000Y-98083600D02*
X146567000Y-95583600D01*
X169659445Y-67659784D02*
G75*
G03X168631000Y-63382100I-1808445J1827684D01*
G01*
X166039125Y-67673841D02*
G75*
G02X167031000Y-63382100I1811875J1841741D01*
G01*
X166051000Y-67682100D02*
X169651000Y-67682100D01*
X130535000Y-62966100D02*
X126935000Y-62966100D01*
X130546875Y-62974359D02*
G75*
G02X129555000Y-67266100I-1811875J-1841741D01*
G01*
X126926555Y-62988416D02*
G75*
G03X127955000Y-67266100I1808445J-1827684D01*
G01*
X168395500Y-59609100D02*
G75*
G03X168395500Y-59609100I-1370000J0D01*
G01*
X168395500Y-59609100D02*
X168465500Y-59609100D01*
X158172000Y-47353600D02*
X158242000Y-47353600D01*
X158172000Y-47353600D02*
G75*
G03X158172000Y-47353600I-1370000J0D01*
G01*
X130930500Y-59609100D02*
G75*
G03X130930500Y-59609100I-1370000J0D01*
G01*
X128190500Y-59609100D02*
X128120500Y-59609100D01*
X138414000Y-47353600D02*
X138344000Y-47353600D01*
X141154000Y-47353600D02*
G75*
G03X141154000Y-47353600I-1370000J0D01*
G01*
X154532000Y-60875600D02*
G75*
G02X156532000Y-60875600I1000000J0D01*
G01*
X156532000Y-60875600D02*
X157782000Y-60875600D01*
X157782000Y-60875600D02*
X157782000Y-50595600D01*
X157782000Y-50595600D02*
X153282000Y-50595600D01*
X153282000Y-50595600D02*
X153282000Y-60875600D01*
X153282000Y-60875600D02*
X154532000Y-60875600D01*
X160782000Y-60935600D02*
X160782000Y-50535600D01*
X160782000Y-50535600D02*
X150282000Y-50535600D01*
X150282000Y-50535600D02*
X150282000Y-60935600D01*
X150282000Y-60935600D02*
X160782000Y-60935600D01*
X146304000Y-50662600D02*
X135804000Y-50662600D01*
X146304000Y-61062600D02*
X146304000Y-50662600D01*
X135804000Y-61062600D02*
X146304000Y-61062600D01*
X135804000Y-50662600D02*
X135804000Y-61062600D01*
X143304000Y-50722600D02*
X142054000Y-50722600D01*
X143304000Y-61002600D02*
X143304000Y-50722600D01*
X138804000Y-61002600D02*
X143304000Y-61002600D01*
X138804000Y-50722600D02*
X138804000Y-61002600D01*
X140054000Y-50722600D02*
X138804000Y-50722600D01*
X142054000Y-50722600D02*
G75*
G02X140054000Y-50722600I-1000000J0D01*
G01*
D11*
X147380476Y-49091980D02*
X147380476Y-49806266D01*
X147332857Y-49949123D01*
X147237619Y-50044361D01*
X147094761Y-50091980D01*
X146999523Y-50091980D01*
X148380476Y-50091980D02*
X147809047Y-50091980D01*
X148094761Y-50091980D02*
X148094761Y-49091980D01*
X147999523Y-49234838D01*
X147904285Y-49330076D01*
X147809047Y-49377695D01*
X148999523Y-49091980D02*
X149094761Y-49091980D01*
X149190000Y-49139600D01*
X149237619Y-49187219D01*
X149285238Y-49282457D01*
X149332857Y-49472933D01*
X149332857Y-49711028D01*
X149285238Y-49901504D01*
X149237619Y-49996742D01*
X149190000Y-50044361D01*
X149094761Y-50091980D01*
X148999523Y-50091980D01*
X148904285Y-50044361D01*
X148856666Y-49996742D01*
X148809047Y-49901504D01*
X148761428Y-49711028D01*
X148761428Y-49472933D01*
X148809047Y-49282457D01*
X148856666Y-49187219D01*
X148904285Y-49139600D01*
X148999523Y-49091980D01*
X108272380Y-55970933D02*
X108986666Y-55970933D01*
X109129523Y-56018552D01*
X109224761Y-56113790D01*
X109272380Y-56256647D01*
X109272380Y-56351885D01*
X108272380Y-55589980D02*
X108272380Y-54923314D01*
X109272380Y-55351885D01*
X62836466Y-103033580D02*
X62836466Y-103747866D01*
X62788847Y-103890723D01*
X62693609Y-103985961D01*
X62550752Y-104033580D01*
X62455514Y-104033580D01*
X63741228Y-103366914D02*
X63741228Y-104033580D01*
X63503133Y-102985961D02*
X63265038Y-103700247D01*
X63884085Y-103700247D01*
X54197380Y-46441826D02*
X53721190Y-46775160D01*
X54197380Y-47013255D02*
X53197380Y-47013255D01*
X53197380Y-46632302D01*
X53245000Y-46537064D01*
X53292619Y-46489445D01*
X53387857Y-46441826D01*
X53530714Y-46441826D01*
X53625952Y-46489445D01*
X53673571Y-46537064D01*
X53721190Y-46632302D01*
X53721190Y-47013255D01*
X53197380Y-46108493D02*
X53197380Y-45441826D01*
X54197380Y-45870398D01*
X54197380Y-52182226D02*
X53721190Y-52515560D01*
X54197380Y-52753655D02*
X53197380Y-52753655D01*
X53197380Y-52372702D01*
X53245000Y-52277464D01*
X53292619Y-52229845D01*
X53387857Y-52182226D01*
X53530714Y-52182226D01*
X53625952Y-52229845D01*
X53673571Y-52277464D01*
X53721190Y-52372702D01*
X53721190Y-52753655D01*
X53197380Y-51325083D02*
X53197380Y-51515560D01*
X53245000Y-51610798D01*
X53292619Y-51658417D01*
X53435476Y-51753655D01*
X53625952Y-51801274D01*
X54006904Y-51801274D01*
X54102142Y-51753655D01*
X54149761Y-51706036D01*
X54197380Y-51610798D01*
X54197380Y-51420321D01*
X54149761Y-51325083D01*
X54102142Y-51277464D01*
X54006904Y-51229845D01*
X53768809Y-51229845D01*
X53673571Y-51277464D01*
X53625952Y-51325083D01*
X53578333Y-51420321D01*
X53578333Y-51610798D01*
X53625952Y-51706036D01*
X53673571Y-51753655D01*
X53768809Y-51801274D01*
X58937380Y-58329026D02*
X58461190Y-58662360D01*
X58937380Y-58900455D02*
X57937380Y-58900455D01*
X57937380Y-58519502D01*
X57985000Y-58424264D01*
X58032619Y-58376645D01*
X58127857Y-58329026D01*
X58270714Y-58329026D01*
X58365952Y-58376645D01*
X58413571Y-58424264D01*
X58461190Y-58519502D01*
X58461190Y-58900455D01*
X58937380Y-57852836D02*
X58937380Y-57662360D01*
X58889761Y-57567121D01*
X58842142Y-57519502D01*
X58699285Y-57424264D01*
X58508809Y-57376645D01*
X58127857Y-57376645D01*
X58032619Y-57424264D01*
X57985000Y-57471883D01*
X57937380Y-57567121D01*
X57937380Y-57757598D01*
X57985000Y-57852836D01*
X58032619Y-57900455D01*
X58127857Y-57948074D01*
X58365952Y-57948074D01*
X58461190Y-57900455D01*
X58508809Y-57852836D01*
X58556428Y-57757598D01*
X58556428Y-57567121D01*
X58508809Y-57471883D01*
X58461190Y-57424264D01*
X58365952Y-57376645D01*
X96471493Y-49836500D02*
X96138160Y-49360310D01*
X95900064Y-49836500D02*
X95900064Y-48836500D01*
X96281017Y-48836500D01*
X96376255Y-48884120D01*
X96423874Y-48931739D01*
X96471493Y-49026977D01*
X96471493Y-49169834D01*
X96423874Y-49265072D01*
X96376255Y-49312691D01*
X96281017Y-49360310D01*
X95900064Y-49360310D01*
X97423874Y-49836500D02*
X96852445Y-49836500D01*
X97138160Y-49836500D02*
X97138160Y-48836500D01*
X97042921Y-48979358D01*
X96947683Y-49074596D01*
X96852445Y-49122215D01*
X95737433Y-42201260D02*
X95404100Y-41725070D01*
X95166004Y-42201260D02*
X95166004Y-41201260D01*
X95546957Y-41201260D01*
X95642195Y-41248880D01*
X95689814Y-41296499D01*
X95737433Y-41391737D01*
X95737433Y-41534594D01*
X95689814Y-41629832D01*
X95642195Y-41677451D01*
X95546957Y-41725070D01*
X95166004Y-41725070D01*
X96642195Y-41201260D02*
X96166004Y-41201260D01*
X96118385Y-41677451D01*
X96166004Y-41629832D01*
X96261242Y-41582213D01*
X96499338Y-41582213D01*
X96594576Y-41629832D01*
X96642195Y-41677451D01*
X96689814Y-41772689D01*
X96689814Y-42010784D01*
X96642195Y-42106022D01*
X96594576Y-42153641D01*
X96499338Y-42201260D01*
X96261242Y-42201260D01*
X96166004Y-42153641D01*
X96118385Y-42106022D01*
X87190380Y-56399504D02*
X87999904Y-56399504D01*
X88095142Y-56351885D01*
X88142761Y-56304266D01*
X88190380Y-56209028D01*
X88190380Y-56018552D01*
X88142761Y-55923314D01*
X88095142Y-55875695D01*
X87999904Y-55828076D01*
X87190380Y-55828076D01*
X87190380Y-55447123D02*
X87190380Y-54828076D01*
X87571333Y-55161409D01*
X87571333Y-55018552D01*
X87618952Y-54923314D01*
X87666571Y-54875695D01*
X87761809Y-54828076D01*
X87999904Y-54828076D01*
X88095142Y-54875695D01*
X88142761Y-54923314D01*
X88190380Y-55018552D01*
X88190380Y-55304266D01*
X88142761Y-55399504D01*
X88095142Y-55447123D01*
X98493333Y-68162780D02*
X98160000Y-67686590D01*
X97921904Y-68162780D02*
X97921904Y-67162780D01*
X98302857Y-67162780D01*
X98398095Y-67210400D01*
X98445714Y-67258019D01*
X98493333Y-67353257D01*
X98493333Y-67496114D01*
X98445714Y-67591352D01*
X98398095Y-67638971D01*
X98302857Y-67686590D01*
X97921904Y-67686590D01*
X98874285Y-67258019D02*
X98921904Y-67210400D01*
X99017142Y-67162780D01*
X99255238Y-67162780D01*
X99350476Y-67210400D01*
X99398095Y-67258019D01*
X99445714Y-67353257D01*
X99445714Y-67448495D01*
X99398095Y-67591352D01*
X98826666Y-68162780D01*
X99445714Y-68162780D01*
X91698833Y-68134840D02*
X91365500Y-67658650D01*
X91127404Y-68134840D02*
X91127404Y-67134840D01*
X91508357Y-67134840D01*
X91603595Y-67182460D01*
X91651214Y-67230079D01*
X91698833Y-67325317D01*
X91698833Y-67468174D01*
X91651214Y-67563412D01*
X91603595Y-67611031D01*
X91508357Y-67658650D01*
X91127404Y-67658650D01*
X92270261Y-67563412D02*
X92175023Y-67515793D01*
X92127404Y-67468174D01*
X92079785Y-67372936D01*
X92079785Y-67325317D01*
X92127404Y-67230079D01*
X92175023Y-67182460D01*
X92270261Y-67134840D01*
X92460738Y-67134840D01*
X92555976Y-67182460D01*
X92603595Y-67230079D01*
X92651214Y-67325317D01*
X92651214Y-67372936D01*
X92603595Y-67468174D01*
X92555976Y-67515793D01*
X92460738Y-67563412D01*
X92270261Y-67563412D01*
X92175023Y-67611031D01*
X92127404Y-67658650D01*
X92079785Y-67753888D01*
X92079785Y-67944364D01*
X92127404Y-68039602D01*
X92175023Y-68087221D01*
X92270261Y-68134840D01*
X92460738Y-68134840D01*
X92555976Y-68087221D01*
X92603595Y-68039602D01*
X92651214Y-67944364D01*
X92651214Y-67753888D01*
X92603595Y-67658650D01*
X92555976Y-67611031D01*
X92460738Y-67563412D01*
X52730153Y-65874060D02*
X52396820Y-65397870D01*
X52158724Y-65874060D02*
X52158724Y-64874060D01*
X52539677Y-64874060D01*
X52634915Y-64921680D01*
X52682534Y-64969299D01*
X52730153Y-65064537D01*
X52730153Y-65207394D01*
X52682534Y-65302632D01*
X52634915Y-65350251D01*
X52539677Y-65397870D01*
X52158724Y-65397870D01*
X53063486Y-64874060D02*
X53682534Y-64874060D01*
X53349200Y-65255013D01*
X53492058Y-65255013D01*
X53587296Y-65302632D01*
X53634915Y-65350251D01*
X53682534Y-65445489D01*
X53682534Y-65683584D01*
X53634915Y-65778822D01*
X53587296Y-65826441D01*
X53492058Y-65874060D01*
X53206343Y-65874060D01*
X53111105Y-65826441D01*
X53063486Y-65778822D01*
X38882073Y-65846120D02*
X38548740Y-65369930D01*
X38310644Y-65846120D02*
X38310644Y-64846120D01*
X38691597Y-64846120D01*
X38786835Y-64893740D01*
X38834454Y-64941359D01*
X38882073Y-65036597D01*
X38882073Y-65179454D01*
X38834454Y-65274692D01*
X38786835Y-65322311D01*
X38691597Y-65369930D01*
X38310644Y-65369930D01*
X39739216Y-65179454D02*
X39739216Y-65846120D01*
X39501120Y-64798501D02*
X39263025Y-65512787D01*
X39882073Y-65512787D01*
X92611142Y-45878266D02*
X92658761Y-45925885D01*
X92706380Y-46068742D01*
X92706380Y-46163980D01*
X92658761Y-46306838D01*
X92563523Y-46402076D01*
X92468285Y-46449695D01*
X92277809Y-46497314D01*
X92134952Y-46497314D01*
X91944476Y-46449695D01*
X91849238Y-46402076D01*
X91754000Y-46306838D01*
X91706380Y-46163980D01*
X91706380Y-46068742D01*
X91754000Y-45925885D01*
X91801619Y-45878266D01*
X92706380Y-44925885D02*
X92706380Y-45497314D01*
X92706380Y-45211600D02*
X91706380Y-45211600D01*
X91849238Y-45306838D01*
X91944476Y-45402076D01*
X91992095Y-45497314D01*
X69137542Y-45538226D02*
X69185161Y-45585845D01*
X69232780Y-45728702D01*
X69232780Y-45823940D01*
X69185161Y-45966798D01*
X69089923Y-46062036D01*
X68994685Y-46109655D01*
X68804209Y-46157274D01*
X68661352Y-46157274D01*
X68470876Y-46109655D01*
X68375638Y-46062036D01*
X68280400Y-45966798D01*
X68232780Y-45823940D01*
X68232780Y-45728702D01*
X68280400Y-45585845D01*
X68328019Y-45538226D01*
X68328019Y-45157274D02*
X68280400Y-45109655D01*
X68232780Y-45014417D01*
X68232780Y-44776321D01*
X68280400Y-44681083D01*
X68328019Y-44633464D01*
X68423257Y-44585845D01*
X68518495Y-44585845D01*
X68661352Y-44633464D01*
X69232780Y-45204893D01*
X69232780Y-44585845D01*
X110685404Y-63335480D02*
X110685404Y-62335480D01*
X110923500Y-62335480D01*
X111066357Y-62383100D01*
X111161595Y-62478338D01*
X111209214Y-62573576D01*
X111256833Y-62764052D01*
X111256833Y-62906909D01*
X111209214Y-63097385D01*
X111161595Y-63192623D01*
X111066357Y-63287861D01*
X110923500Y-63335480D01*
X110685404Y-63335480D01*
X112209214Y-63335480D02*
X111637785Y-63335480D01*
X111923500Y-63335480D02*
X111923500Y-62335480D01*
X111828261Y-62478338D01*
X111733023Y-62573576D01*
X111637785Y-62621195D01*
X106081595Y-63705480D02*
X106081595Y-62705480D01*
X106653023Y-63705480D02*
X106224452Y-63134052D01*
X106653023Y-62705480D02*
X106081595Y-63276909D01*
X78490904Y-63335480D02*
X78490904Y-62335480D01*
X78729000Y-62335480D01*
X78871857Y-62383100D01*
X78967095Y-62478338D01*
X79014714Y-62573576D01*
X79062333Y-62764052D01*
X79062333Y-62906909D01*
X79014714Y-63097385D01*
X78967095Y-63192623D01*
X78871857Y-63287861D01*
X78729000Y-63335480D01*
X78490904Y-63335480D01*
X79443285Y-62430719D02*
X79490904Y-62383100D01*
X79586142Y-62335480D01*
X79824238Y-62335480D01*
X79919476Y-62383100D01*
X79967095Y-62430719D01*
X80014714Y-62525957D01*
X80014714Y-62621195D01*
X79967095Y-62764052D01*
X79395666Y-63335480D01*
X80014714Y-63335480D01*
X73887095Y-63705480D02*
X73887095Y-62705480D01*
X74458523Y-63705480D02*
X74029952Y-63134052D01*
X74458523Y-62705480D02*
X73887095Y-63276909D01*
X61536404Y-68275480D02*
X61536404Y-67275480D01*
X61774500Y-67275480D01*
X61917357Y-67323100D01*
X62012595Y-67418338D01*
X62060214Y-67513576D01*
X62107833Y-67704052D01*
X62107833Y-67846909D01*
X62060214Y-68037385D01*
X62012595Y-68132623D01*
X61917357Y-68227861D01*
X61774500Y-68275480D01*
X61536404Y-68275480D01*
X62441166Y-67275480D02*
X63060214Y-67275480D01*
X62726880Y-67656433D01*
X62869738Y-67656433D01*
X62964976Y-67704052D01*
X63012595Y-67751671D01*
X63060214Y-67846909D01*
X63060214Y-68085004D01*
X63012595Y-68180242D01*
X62964976Y-68227861D01*
X62869738Y-68275480D01*
X62584023Y-68275480D01*
X62488785Y-68227861D01*
X62441166Y-68180242D01*
X67092595Y-67905480D02*
X67092595Y-66905480D01*
X67664023Y-67905480D02*
X67235452Y-67334052D01*
X67664023Y-66905480D02*
X67092595Y-67476909D01*
X29397784Y-65813100D02*
X29397784Y-64813100D01*
X29635880Y-64813100D01*
X29778737Y-64860720D01*
X29873975Y-64955958D01*
X29921594Y-65051196D01*
X29969213Y-65241672D01*
X29969213Y-65384529D01*
X29921594Y-65575005D01*
X29873975Y-65670243D01*
X29778737Y-65765481D01*
X29635880Y-65813100D01*
X29397784Y-65813100D01*
X30826356Y-65146434D02*
X30826356Y-65813100D01*
X30588260Y-64765481D02*
X30350165Y-65479767D01*
X30969213Y-65479767D01*
X24547595Y-63705480D02*
X24547595Y-62705480D01*
X25119023Y-63705480D02*
X24690452Y-63134052D01*
X25119023Y-62705480D02*
X24547595Y-63276909D01*
X103930666Y-48170340D02*
X103930666Y-48884626D01*
X103883047Y-49027483D01*
X103787809Y-49122721D01*
X103644952Y-49170340D01*
X103549714Y-49170340D01*
X104930666Y-49170340D02*
X104359238Y-49170340D01*
X104644952Y-49170340D02*
X104644952Y-48170340D01*
X104549714Y-48313198D01*
X104454476Y-48408436D01*
X104359238Y-48456055D01*
X24838066Y-103033580D02*
X24838066Y-103747866D01*
X24790447Y-103890723D01*
X24695209Y-103985961D01*
X24552352Y-104033580D01*
X24457114Y-104033580D01*
X25266638Y-103128819D02*
X25314257Y-103081200D01*
X25409495Y-103033580D01*
X25647590Y-103033580D01*
X25742828Y-103081200D01*
X25790447Y-103128819D01*
X25838066Y-103224057D01*
X25838066Y-103319295D01*
X25790447Y-103462152D01*
X25219019Y-104033580D01*
X25838066Y-104033580D01*
X43837266Y-103033580D02*
X43837266Y-103747866D01*
X43789647Y-103890723D01*
X43694409Y-103985961D01*
X43551552Y-104033580D01*
X43456314Y-104033580D01*
X44218219Y-103033580D02*
X44837266Y-103033580D01*
X44503933Y-103414533D01*
X44646790Y-103414533D01*
X44742028Y-103462152D01*
X44789647Y-103509771D01*
X44837266Y-103605009D01*
X44837266Y-103843104D01*
X44789647Y-103938342D01*
X44742028Y-103985961D01*
X44646790Y-104033580D01*
X44361076Y-104033580D01*
X44265838Y-103985961D01*
X44218219Y-103938342D01*
X81835666Y-103033580D02*
X81835666Y-103747866D01*
X81788047Y-103890723D01*
X81692809Y-103985961D01*
X81549952Y-104033580D01*
X81454714Y-104033580D01*
X82788047Y-103033580D02*
X82311857Y-103033580D01*
X82264238Y-103509771D01*
X82311857Y-103462152D01*
X82407095Y-103414533D01*
X82645190Y-103414533D01*
X82740428Y-103462152D01*
X82788047Y-103509771D01*
X82835666Y-103605009D01*
X82835666Y-103843104D01*
X82788047Y-103938342D01*
X82740428Y-103985961D01*
X82645190Y-104033580D01*
X82407095Y-104033580D01*
X82311857Y-103985961D01*
X82264238Y-103938342D01*
X100834866Y-103033580D02*
X100834866Y-103747866D01*
X100787247Y-103890723D01*
X100692009Y-103985961D01*
X100549152Y-104033580D01*
X100453914Y-104033580D01*
X101739628Y-103033580D02*
X101549152Y-103033580D01*
X101453914Y-103081200D01*
X101406295Y-103128819D01*
X101311057Y-103271676D01*
X101263438Y-103462152D01*
X101263438Y-103843104D01*
X101311057Y-103938342D01*
X101358676Y-103985961D01*
X101453914Y-104033580D01*
X101644390Y-104033580D01*
X101739628Y-103985961D01*
X101787247Y-103938342D01*
X101834866Y-103843104D01*
X101834866Y-103605009D01*
X101787247Y-103509771D01*
X101739628Y-103462152D01*
X101644390Y-103414533D01*
X101453914Y-103414533D01*
X101358676Y-103462152D01*
X101311057Y-103509771D01*
X101263438Y-103605009D01*
X110408904Y-100864980D02*
X110408904Y-99864980D01*
X110980333Y-100864980D02*
X110551761Y-100293552D01*
X110980333Y-99864980D02*
X110408904Y-100436409D01*
X111932714Y-100864980D02*
X111361285Y-100864980D01*
X111647000Y-100864980D02*
X111647000Y-99864980D01*
X111551761Y-100007838D01*
X111456523Y-100103076D01*
X111361285Y-100150695D01*
X78087404Y-100864980D02*
X78087404Y-99864980D01*
X78658833Y-100864980D02*
X78230261Y-100293552D01*
X78658833Y-99864980D02*
X78087404Y-100436409D01*
X79039785Y-99960219D02*
X79087404Y-99912600D01*
X79182642Y-99864980D01*
X79420738Y-99864980D01*
X79515976Y-99912600D01*
X79563595Y-99960219D01*
X79611214Y-100055457D01*
X79611214Y-100150695D01*
X79563595Y-100293552D01*
X78992166Y-100864980D01*
X79611214Y-100864980D01*
X61069404Y-100864980D02*
X61069404Y-99864980D01*
X61640833Y-100864980D02*
X61212261Y-100293552D01*
X61640833Y-99864980D02*
X61069404Y-100436409D01*
X61974166Y-99864980D02*
X62593214Y-99864980D01*
X62259880Y-100245933D01*
X62402738Y-100245933D01*
X62497976Y-100293552D01*
X62545595Y-100341171D01*
X62593214Y-100436409D01*
X62593214Y-100674504D01*
X62545595Y-100769742D01*
X62497976Y-100817361D01*
X62402738Y-100864980D01*
X62117023Y-100864980D01*
X62021785Y-100817361D01*
X61974166Y-100769742D01*
X28747904Y-100801480D02*
X28747904Y-99801480D01*
X29319333Y-100801480D02*
X28890761Y-100230052D01*
X29319333Y-99801480D02*
X28747904Y-100372909D01*
X30176476Y-100134814D02*
X30176476Y-100801480D01*
X29938380Y-99753861D02*
X29700285Y-100468147D01*
X30319333Y-100468147D01*
X103290119Y-71988838D02*
X103242500Y-72084076D01*
X103147261Y-72179314D01*
X103004404Y-72322171D01*
X102956785Y-72417409D01*
X102956785Y-72512647D01*
X103194880Y-72465028D02*
X103147261Y-72560266D01*
X103052023Y-72655504D01*
X102861547Y-72703123D01*
X102528214Y-72703123D01*
X102337738Y-72655504D01*
X102242500Y-72560266D01*
X102194880Y-72465028D01*
X102194880Y-72274552D01*
X102242500Y-72179314D01*
X102337738Y-72084076D01*
X102528214Y-72036457D01*
X102861547Y-72036457D01*
X103052023Y-72084076D01*
X103147261Y-72179314D01*
X103194880Y-72274552D01*
X103194880Y-72465028D01*
X103194880Y-71084076D02*
X103194880Y-71655504D01*
X103194880Y-71369790D02*
X102194880Y-71369790D01*
X102337738Y-71465028D01*
X102432976Y-71560266D01*
X102480595Y-71655504D01*
X53823619Y-71988838D02*
X53776000Y-72084076D01*
X53680761Y-72179314D01*
X53537904Y-72322171D01*
X53490285Y-72417409D01*
X53490285Y-72512647D01*
X53728380Y-72465028D02*
X53680761Y-72560266D01*
X53585523Y-72655504D01*
X53395047Y-72703123D01*
X53061714Y-72703123D01*
X52871238Y-72655504D01*
X52776000Y-72560266D01*
X52728380Y-72465028D01*
X52728380Y-72274552D01*
X52776000Y-72179314D01*
X52871238Y-72084076D01*
X53061714Y-72036457D01*
X53395047Y-72036457D01*
X53585523Y-72084076D01*
X53680761Y-72179314D01*
X53728380Y-72274552D01*
X53728380Y-72465028D01*
X52823619Y-71655504D02*
X52776000Y-71607885D01*
X52728380Y-71512647D01*
X52728380Y-71274552D01*
X52776000Y-71179314D01*
X52823619Y-71131695D01*
X52918857Y-71084076D01*
X53014095Y-71084076D01*
X53156952Y-71131695D01*
X53728380Y-71703123D01*
X53728380Y-71084076D01*
X39245119Y-71988838D02*
X39197500Y-72084076D01*
X39102261Y-72179314D01*
X38959404Y-72322171D01*
X38911785Y-72417409D01*
X38911785Y-72512647D01*
X39149880Y-72465028D02*
X39102261Y-72560266D01*
X39007023Y-72655504D01*
X38816547Y-72703123D01*
X38483214Y-72703123D01*
X38292738Y-72655504D01*
X38197500Y-72560266D01*
X38149880Y-72465028D01*
X38149880Y-72274552D01*
X38197500Y-72179314D01*
X38292738Y-72084076D01*
X38483214Y-72036457D01*
X38816547Y-72036457D01*
X39007023Y-72084076D01*
X39102261Y-72179314D01*
X39149880Y-72274552D01*
X39149880Y-72465028D01*
X38149880Y-71703123D02*
X38149880Y-71084076D01*
X38530833Y-71417409D01*
X38530833Y-71274552D01*
X38578452Y-71179314D01*
X38626071Y-71131695D01*
X38721309Y-71084076D01*
X38959404Y-71084076D01*
X39054642Y-71131695D01*
X39102261Y-71179314D01*
X39149880Y-71274552D01*
X39149880Y-71560266D01*
X39102261Y-71655504D01*
X39054642Y-71703123D01*
X88711619Y-71988838D02*
X88664000Y-72084076D01*
X88568761Y-72179314D01*
X88425904Y-72322171D01*
X88378285Y-72417409D01*
X88378285Y-72512647D01*
X88616380Y-72465028D02*
X88568761Y-72560266D01*
X88473523Y-72655504D01*
X88283047Y-72703123D01*
X87949714Y-72703123D01*
X87759238Y-72655504D01*
X87664000Y-72560266D01*
X87616380Y-72465028D01*
X87616380Y-72274552D01*
X87664000Y-72179314D01*
X87759238Y-72084076D01*
X87949714Y-72036457D01*
X88283047Y-72036457D01*
X88473523Y-72084076D01*
X88568761Y-72179314D01*
X88616380Y-72274552D01*
X88616380Y-72465028D01*
X87949714Y-71179314D02*
X88616380Y-71179314D01*
X87568761Y-71417409D02*
X88283047Y-71655504D01*
X88283047Y-71036457D01*
X77070095Y-40821980D02*
X77070095Y-41631504D01*
X77117714Y-41726742D01*
X77165333Y-41774361D01*
X77260571Y-41821980D01*
X77451047Y-41821980D01*
X77546285Y-41774361D01*
X77593904Y-41726742D01*
X77641523Y-41631504D01*
X77641523Y-40821980D01*
X78641523Y-41821980D02*
X78070095Y-41821980D01*
X78355809Y-41821980D02*
X78355809Y-40821980D01*
X78260571Y-40964838D01*
X78165333Y-41060076D01*
X78070095Y-41107695D01*
X64293895Y-60775980D02*
X64293895Y-61585504D01*
X64341514Y-61680742D01*
X64389133Y-61728361D01*
X64484371Y-61775980D01*
X64674847Y-61775980D01*
X64770085Y-61728361D01*
X64817704Y-61680742D01*
X64865323Y-61585504D01*
X64865323Y-60775980D01*
X65293895Y-60871219D02*
X65341514Y-60823600D01*
X65436752Y-60775980D01*
X65674847Y-60775980D01*
X65770085Y-60823600D01*
X65817704Y-60871219D01*
X65865323Y-60966457D01*
X65865323Y-61061695D01*
X65817704Y-61204552D01*
X65246276Y-61775980D01*
X65865323Y-61775980D01*
X46082095Y-40821980D02*
X46082095Y-41631504D01*
X46129714Y-41726742D01*
X46177333Y-41774361D01*
X46272571Y-41821980D01*
X46463047Y-41821980D01*
X46558285Y-41774361D01*
X46605904Y-41726742D01*
X46653523Y-41631504D01*
X46653523Y-40821980D01*
X47558285Y-41155314D02*
X47558285Y-41821980D01*
X47320190Y-40774361D02*
X47082095Y-41488647D01*
X47701142Y-41488647D01*
X166708333Y-57239242D02*
X166660714Y-57286861D01*
X166517857Y-57334480D01*
X166422619Y-57334480D01*
X166279761Y-57286861D01*
X166184523Y-57191623D01*
X166136904Y-57096385D01*
X166089285Y-56905909D01*
X166089285Y-56763052D01*
X166136904Y-56572576D01*
X166184523Y-56477338D01*
X166279761Y-56382100D01*
X166422619Y-56334480D01*
X166517857Y-56334480D01*
X166660714Y-56382100D01*
X166708333Y-56429719D01*
X167041666Y-56334480D02*
X167660714Y-56334480D01*
X167327380Y-56715433D01*
X167470238Y-56715433D01*
X167565476Y-56763052D01*
X167613095Y-56810671D01*
X167660714Y-56905909D01*
X167660714Y-57144004D01*
X167613095Y-57239242D01*
X167565476Y-57286861D01*
X167470238Y-57334480D01*
X167184523Y-57334480D01*
X167089285Y-57286861D01*
X167041666Y-57239242D01*
X129544333Y-49739242D02*
X129496714Y-49786861D01*
X129353857Y-49834480D01*
X129258619Y-49834480D01*
X129115761Y-49786861D01*
X129020523Y-49691623D01*
X128972904Y-49596385D01*
X128925285Y-49405909D01*
X128925285Y-49263052D01*
X128972904Y-49072576D01*
X129020523Y-48977338D01*
X129115761Y-48882100D01*
X129258619Y-48834480D01*
X129353857Y-48834480D01*
X129496714Y-48882100D01*
X129544333Y-48929719D01*
X130401476Y-49167814D02*
X130401476Y-49834480D01*
X130163380Y-48786861D02*
X129925285Y-49501147D01*
X130544333Y-49501147D01*
X156087904Y-68125980D02*
X156087904Y-67125980D01*
X156326000Y-67125980D01*
X156468857Y-67173600D01*
X156564095Y-67268838D01*
X156611714Y-67364076D01*
X156659333Y-67554552D01*
X156659333Y-67697409D01*
X156611714Y-67887885D01*
X156564095Y-67983123D01*
X156468857Y-68078361D01*
X156326000Y-68125980D01*
X156087904Y-68125980D01*
X157564095Y-67125980D02*
X157087904Y-67125980D01*
X157040285Y-67602171D01*
X157087904Y-67554552D01*
X157183142Y-67506933D01*
X157421238Y-67506933D01*
X157516476Y-67554552D01*
X157564095Y-67602171D01*
X157611714Y-67697409D01*
X157611714Y-67935504D01*
X157564095Y-68030742D01*
X157516476Y-68078361D01*
X157421238Y-68125980D01*
X157183142Y-68125980D01*
X157087904Y-68078361D01*
X157040285Y-68030742D01*
X151484095Y-67871980D02*
X151484095Y-66871980D01*
X152055523Y-67871980D02*
X151626952Y-67300552D01*
X152055523Y-66871980D02*
X151484095Y-67443409D01*
X138982404Y-68182980D02*
X138982404Y-67182980D01*
X139220500Y-67182980D01*
X139363357Y-67230600D01*
X139458595Y-67325838D01*
X139506214Y-67421076D01*
X139553833Y-67611552D01*
X139553833Y-67754409D01*
X139506214Y-67944885D01*
X139458595Y-68040123D01*
X139363357Y-68135361D01*
X139220500Y-68182980D01*
X138982404Y-68182980D01*
X140410976Y-67182980D02*
X140220500Y-67182980D01*
X140125261Y-67230600D01*
X140077642Y-67278219D01*
X139982404Y-67421076D01*
X139934785Y-67611552D01*
X139934785Y-67992504D01*
X139982404Y-68087742D01*
X140030023Y-68135361D01*
X140125261Y-68182980D01*
X140315738Y-68182980D01*
X140410976Y-68135361D01*
X140458595Y-68087742D01*
X140506214Y-67992504D01*
X140506214Y-67754409D01*
X140458595Y-67659171D01*
X140410976Y-67611552D01*
X140315738Y-67563933D01*
X140125261Y-67563933D01*
X140030023Y-67611552D01*
X139982404Y-67659171D01*
X139934785Y-67754409D01*
X144538595Y-67812980D02*
X144538595Y-66812980D01*
X145110023Y-67812980D02*
X144681452Y-67241552D01*
X145110023Y-66812980D02*
X144538595Y-67384409D01*
X149890066Y-103092380D02*
X149890066Y-103806666D01*
X149842447Y-103949523D01*
X149747209Y-104044761D01*
X149604352Y-104092380D01*
X149509114Y-104092380D01*
X150509114Y-103520952D02*
X150413876Y-103473333D01*
X150366257Y-103425714D01*
X150318638Y-103330476D01*
X150318638Y-103282857D01*
X150366257Y-103187619D01*
X150413876Y-103140000D01*
X150509114Y-103092380D01*
X150699590Y-103092380D01*
X150794828Y-103140000D01*
X150842447Y-103187619D01*
X150890066Y-103282857D01*
X150890066Y-103330476D01*
X150842447Y-103425714D01*
X150794828Y-103473333D01*
X150699590Y-103520952D01*
X150509114Y-103520952D01*
X150413876Y-103568571D01*
X150366257Y-103616190D01*
X150318638Y-103711428D01*
X150318638Y-103901904D01*
X150366257Y-103997142D01*
X150413876Y-104044761D01*
X150509114Y-104092380D01*
X150699590Y-104092380D01*
X150794828Y-104044761D01*
X150842447Y-103997142D01*
X150890066Y-103901904D01*
X150890066Y-103711428D01*
X150842447Y-103616190D01*
X150794828Y-103568571D01*
X150699590Y-103520952D01*
X130840066Y-103092380D02*
X130840066Y-103806666D01*
X130792447Y-103949523D01*
X130697209Y-104044761D01*
X130554352Y-104092380D01*
X130459114Y-104092380D01*
X131363876Y-104092380D02*
X131554352Y-104092380D01*
X131649590Y-104044761D01*
X131697209Y-103997142D01*
X131792447Y-103854285D01*
X131840066Y-103663809D01*
X131840066Y-103282857D01*
X131792447Y-103187619D01*
X131744828Y-103140000D01*
X131649590Y-103092380D01*
X131459114Y-103092380D01*
X131363876Y-103140000D01*
X131316257Y-103187619D01*
X131268638Y-103282857D01*
X131268638Y-103520952D01*
X131316257Y-103616190D01*
X131363876Y-103663809D01*
X131459114Y-103711428D01*
X131649590Y-103711428D01*
X131744828Y-103663809D01*
X131792447Y-103616190D01*
X131840066Y-103520952D01*
X155596904Y-100835980D02*
X155596904Y-99835980D01*
X156168333Y-100835980D02*
X155739761Y-100264552D01*
X156168333Y-99835980D02*
X155596904Y-100407409D01*
X157073095Y-99835980D02*
X156596904Y-99835980D01*
X156549285Y-100312171D01*
X156596904Y-100264552D01*
X156692142Y-100216933D01*
X156930238Y-100216933D01*
X157025476Y-100264552D01*
X157073095Y-100312171D01*
X157120714Y-100407409D01*
X157120714Y-100645504D01*
X157073095Y-100740742D01*
X157025476Y-100788361D01*
X156930238Y-100835980D01*
X156692142Y-100835980D01*
X156596904Y-100788361D01*
X156549285Y-100740742D01*
X138578904Y-100835980D02*
X138578904Y-99835980D01*
X139150333Y-100835980D02*
X138721761Y-100264552D01*
X139150333Y-99835980D02*
X138578904Y-100407409D01*
X140007476Y-99835980D02*
X139817000Y-99835980D01*
X139721761Y-99883600D01*
X139674142Y-99931219D01*
X139578904Y-100074076D01*
X139531285Y-100264552D01*
X139531285Y-100645504D01*
X139578904Y-100740742D01*
X139626523Y-100788361D01*
X139721761Y-100835980D01*
X139912238Y-100835980D01*
X140007476Y-100788361D01*
X140055095Y-100740742D01*
X140102714Y-100645504D01*
X140102714Y-100407409D01*
X140055095Y-100312171D01*
X140007476Y-100264552D01*
X139912238Y-100216933D01*
X139721761Y-100216933D01*
X139626523Y-100264552D01*
X139578904Y-100312171D01*
X139531285Y-100407409D01*
X168009761Y-69681719D02*
X167914523Y-69634100D01*
X167819285Y-69538861D01*
X167676428Y-69396004D01*
X167581190Y-69348385D01*
X167485952Y-69348385D01*
X167533571Y-69586480D02*
X167438333Y-69538861D01*
X167343095Y-69443623D01*
X167295476Y-69253147D01*
X167295476Y-68919814D01*
X167343095Y-68729338D01*
X167438333Y-68634100D01*
X167533571Y-68586480D01*
X167724047Y-68586480D01*
X167819285Y-68634100D01*
X167914523Y-68729338D01*
X167962142Y-68919814D01*
X167962142Y-69253147D01*
X167914523Y-69443623D01*
X167819285Y-69538861D01*
X167724047Y-69586480D01*
X167533571Y-69586480D01*
X168866904Y-68586480D02*
X168390714Y-68586480D01*
X168343095Y-69062671D01*
X168390714Y-69015052D01*
X168485952Y-68967433D01*
X168724047Y-68967433D01*
X168819285Y-69015052D01*
X168866904Y-69062671D01*
X168914523Y-69157909D01*
X168914523Y-69396004D01*
X168866904Y-69491242D01*
X168819285Y-69538861D01*
X168724047Y-69586480D01*
X168485952Y-69586480D01*
X168390714Y-69538861D01*
X168343095Y-69491242D01*
X128639761Y-69763719D02*
X128544523Y-69716100D01*
X128449285Y-69620861D01*
X128306428Y-69478004D01*
X128211190Y-69430385D01*
X128115952Y-69430385D01*
X128163571Y-69668480D02*
X128068333Y-69620861D01*
X127973095Y-69525623D01*
X127925476Y-69335147D01*
X127925476Y-69001814D01*
X127973095Y-68811338D01*
X128068333Y-68716100D01*
X128163571Y-68668480D01*
X128354047Y-68668480D01*
X128449285Y-68716100D01*
X128544523Y-68811338D01*
X128592142Y-69001814D01*
X128592142Y-69335147D01*
X128544523Y-69525623D01*
X128449285Y-69620861D01*
X128354047Y-69668480D01*
X128163571Y-69668480D01*
X129449285Y-68668480D02*
X129258809Y-68668480D01*
X129163571Y-68716100D01*
X129115952Y-68763719D01*
X129020714Y-68906576D01*
X128973095Y-69097052D01*
X128973095Y-69478004D01*
X129020714Y-69573242D01*
X129068333Y-69620861D01*
X129163571Y-69668480D01*
X129354047Y-69668480D01*
X129449285Y-69620861D01*
X129496904Y-69573242D01*
X129544523Y-69478004D01*
X129544523Y-69239909D01*
X129496904Y-69144671D01*
X129449285Y-69097052D01*
X129354047Y-69049433D01*
X129163571Y-69049433D01*
X129068333Y-69097052D01*
X129020714Y-69144671D01*
X128973095Y-69239909D01*
X167335142Y-62283980D02*
X167001809Y-61807790D01*
X166763714Y-62283980D02*
X166763714Y-61283980D01*
X167144666Y-61283980D01*
X167239904Y-61331600D01*
X167287523Y-61379219D01*
X167335142Y-61474457D01*
X167335142Y-61617314D01*
X167287523Y-61712552D01*
X167239904Y-61760171D01*
X167144666Y-61807790D01*
X166763714Y-61807790D01*
X168287523Y-62283980D02*
X167716095Y-62283980D01*
X168001809Y-62283980D02*
X168001809Y-61283980D01*
X167906571Y-61426838D01*
X167811333Y-61522076D01*
X167716095Y-61569695D01*
X168906571Y-61283980D02*
X169001809Y-61283980D01*
X169097047Y-61331600D01*
X169144666Y-61379219D01*
X169192285Y-61474457D01*
X169239904Y-61664933D01*
X169239904Y-61903028D01*
X169192285Y-62093504D01*
X169144666Y-62188742D01*
X169097047Y-62236361D01*
X169001809Y-62283980D01*
X168906571Y-62283980D01*
X168811333Y-62236361D01*
X168763714Y-62188742D01*
X168716095Y-62093504D01*
X168668476Y-61903028D01*
X168668476Y-61664933D01*
X168716095Y-61474457D01*
X168763714Y-61379219D01*
X168811333Y-61331600D01*
X168906571Y-61283980D01*
X157429142Y-45435980D02*
X157095809Y-44959790D01*
X156857714Y-45435980D02*
X156857714Y-44435980D01*
X157238666Y-44435980D01*
X157333904Y-44483600D01*
X157381523Y-44531219D01*
X157429142Y-44626457D01*
X157429142Y-44769314D01*
X157381523Y-44864552D01*
X157333904Y-44912171D01*
X157238666Y-44959790D01*
X156857714Y-44959790D01*
X158381523Y-45435980D02*
X157810095Y-45435980D01*
X158095809Y-45435980D02*
X158095809Y-44435980D01*
X158000571Y-44578838D01*
X157905333Y-44674076D01*
X157810095Y-44721695D01*
X159333904Y-45435980D02*
X158762476Y-45435980D01*
X159048190Y-45435980D02*
X159048190Y-44435980D01*
X158952952Y-44578838D01*
X158857714Y-44674076D01*
X158762476Y-44721695D01*
X127647642Y-62431480D02*
X127314309Y-61955290D01*
X127076214Y-62431480D02*
X127076214Y-61431480D01*
X127457166Y-61431480D01*
X127552404Y-61479100D01*
X127600023Y-61526719D01*
X127647642Y-61621957D01*
X127647642Y-61764814D01*
X127600023Y-61860052D01*
X127552404Y-61907671D01*
X127457166Y-61955290D01*
X127076214Y-61955290D01*
X128600023Y-62431480D02*
X128028595Y-62431480D01*
X128314309Y-62431480D02*
X128314309Y-61431480D01*
X128219071Y-61574338D01*
X128123833Y-61669576D01*
X128028595Y-61717195D01*
X128980976Y-61526719D02*
X129028595Y-61479100D01*
X129123833Y-61431480D01*
X129361928Y-61431480D01*
X129457166Y-61479100D01*
X129504785Y-61526719D01*
X129552404Y-61621957D01*
X129552404Y-61717195D01*
X129504785Y-61860052D01*
X128933357Y-62431480D01*
X129552404Y-62431480D01*
X137641142Y-45519980D02*
X137307809Y-45043790D01*
X137069714Y-45519980D02*
X137069714Y-44519980D01*
X137450666Y-44519980D01*
X137545904Y-44567600D01*
X137593523Y-44615219D01*
X137641142Y-44710457D01*
X137641142Y-44853314D01*
X137593523Y-44948552D01*
X137545904Y-44996171D01*
X137450666Y-45043790D01*
X137069714Y-45043790D01*
X138593523Y-45519980D02*
X138022095Y-45519980D01*
X138307809Y-45519980D02*
X138307809Y-44519980D01*
X138212571Y-44662838D01*
X138117333Y-44758076D01*
X138022095Y-44805695D01*
X138926857Y-44519980D02*
X139545904Y-44519980D01*
X139212571Y-44900933D01*
X139355428Y-44900933D01*
X139450666Y-44948552D01*
X139498285Y-44996171D01*
X139545904Y-45091409D01*
X139545904Y-45329504D01*
X139498285Y-45424742D01*
X139450666Y-45472361D01*
X139355428Y-45519980D01*
X139069714Y-45519980D01*
X138974476Y-45472361D01*
X138926857Y-45424742D01*
X154770095Y-61327980D02*
X154770095Y-62137504D01*
X154817714Y-62232742D01*
X154865333Y-62280361D01*
X154960571Y-62327980D01*
X155151047Y-62327980D01*
X155246285Y-62280361D01*
X155293904Y-62232742D01*
X155341523Y-62137504D01*
X155341523Y-61327980D01*
X156293904Y-61327980D02*
X155817714Y-61327980D01*
X155770095Y-61804171D01*
X155817714Y-61756552D01*
X155912952Y-61708933D01*
X156151047Y-61708933D01*
X156246285Y-61756552D01*
X156293904Y-61804171D01*
X156341523Y-61899409D01*
X156341523Y-62137504D01*
X156293904Y-62232742D01*
X156246285Y-62280361D01*
X156151047Y-62327980D01*
X155912952Y-62327980D01*
X155817714Y-62280361D01*
X155770095Y-62232742D01*
X140292095Y-49174980D02*
X140292095Y-49984504D01*
X140339714Y-50079742D01*
X140387333Y-50127361D01*
X140482571Y-50174980D01*
X140673047Y-50174980D01*
X140768285Y-50127361D01*
X140815904Y-50079742D01*
X140863523Y-49984504D01*
X140863523Y-49174980D01*
X141768285Y-49174980D02*
X141577809Y-49174980D01*
X141482571Y-49222600D01*
X141434952Y-49270219D01*
X141339714Y-49413076D01*
X141292095Y-49603552D01*
X141292095Y-49984504D01*
X141339714Y-50079742D01*
X141387333Y-50127361D01*
X141482571Y-50174980D01*
X141673047Y-50174980D01*
X141768285Y-50127361D01*
X141815904Y-50079742D01*
X141863523Y-49984504D01*
X141863523Y-49746409D01*
X141815904Y-49651171D01*
X141768285Y-49603552D01*
X141673047Y-49555933D01*
X141482571Y-49555933D01*
X141387333Y-49603552D01*
X141339714Y-49651171D01*
X141292095Y-49746409D01*
M02*
