M48
;DRILL file {KiCad 5.0.2-bee76a0~70~ubuntu16.04.1} date Wed 19 Dec 2018 01:31:34 AM EET
;FORMAT={-:-/ absolute / inch / decimal}
FMAT,2
INCH,TZ
T1C0.0157
T2C0.0295
T3C0.0315
T4C0.0433
T5C0.0551
T6C0.0598
T7C0.0630
T8C0.1260
%
G90
G05
T1
X0.9716Y-4.1877
X0.9716Y-4.3127
X1.0316Y-4.2277
X1.0543Y-3.8893
X1.0816Y-4.1827
X1.1143Y-3.7843
X1.1143Y-3.8543
X1.1193Y-3.3643
X1.1193Y-3.4543
X1.1193Y-3.5843
X1.1193Y-3.6493
X1.1366Y-4.2277
X1.1743Y-3.6193
X1.1743Y-3.8193
X1.1743Y-3.8893
X1.1793Y-3.4118
X1.1866Y-4.1827
X1.2343Y-3.3643
X1.2343Y-3.4543
X1.2343Y-3.5843
X1.2343Y-3.6493
X1.2343Y-3.7843
X1.2343Y-3.8543
X1.2943Y-3.8893
X1.3394Y-4.1802
X1.3394Y-4.3052
X1.4044Y-4.2302
X1.4143Y-3.3643
X1.4143Y-3.4543
X1.4143Y-3.5843
X1.4143Y-3.6493
X1.4694Y-4.1802
X1.5294Y-4.2302
X1.5944Y-4.1802
X1.5944Y-4.3052
X1.7243Y-4.1843
X1.7243Y-4.3043
X1.7693Y-4.2293
X1.8143Y-4.1843
X1.8593Y-4.2293
X1.9043Y-4.1843
X2.0593Y-4.2243
X2.0793Y-4.3093
X2.1043Y-4.1843
X2.1443Y-4.2243
X2.1843Y-4.1843
X2.2143Y-3.5943
X2.2143Y-3.6493
X2.2243Y-4.2243
X2.2643Y-4.1843
X2.3043Y-4.2243
X2.3443Y-4.1843
X2.3443Y-4.3093
X2.3893Y-3.3693
X2.3893Y-3.4443
X2.3893Y-3.5943
X2.3893Y-3.6493
X2.3893Y-3.7893
X2.3893Y-3.8493
X2.4493Y-3.4043
X2.4493Y-3.6193
X2.4493Y-3.8193
X2.4743Y-4.3093
X2.4793Y-4.2243
X2.5093Y-3.3693
X2.5093Y-3.4443
X2.5093Y-3.5943
X2.5093Y-3.6493
X2.5093Y-3.7893
X2.5093Y-3.8493
X2.5293Y-4.1843
X2.5793Y-4.2243
X2.6243Y-4.1843
X2.6743Y-3.6193
X2.6743Y-3.8143
X2.6743Y-4.2243
X2.7193Y-3.3693
X2.7193Y-3.4443
X2.7793Y-3.4043
X2.8393Y-3.3693
X2.8393Y-3.4443
X2.8843Y-4.2243
X2.8943Y-3.6193
X2.8943Y-3.8143
X2.9393Y-4.1893
X2.9943Y-4.2243
X3.0493Y-4.1893
X3.0593Y-3.3693
X3.0593Y-3.4443
X3.0593Y-3.5893
X3.0593Y-3.6493
X3.0593Y-3.7893
X3.0593Y-3.8493
X3.0943Y-4.3093
X3.0993Y-4.2243
X3.1193Y-3.4043
X3.1193Y-3.6193
X3.1193Y-3.8193
X3.1793Y-3.3693
X3.1793Y-3.4443
X3.1793Y-3.5893
X3.1793Y-3.6493
X3.1793Y-3.7893
X3.1793Y-3.8493
X3.2243Y-4.1843
X3.2243Y-4.3093
X3.2643Y-4.2243
X3.3043Y-4.1843
X3.3443Y-4.2243
X3.3543Y-3.5893
X3.3543Y-3.6493
X3.3843Y-4.1843
X3.4243Y-4.2243
X3.4643Y-4.1843
X3.4843Y-4.3143
X3.5043Y-4.2243
X3.6593Y-4.1893
X3.7043Y-4.2343
X3.7493Y-4.1893
X3.7943Y-4.2343
X3.8393Y-4.1893
X3.8393Y-4.3093
X3.9743Y-4.1843
X3.9743Y-4.3093
X4.0393Y-4.2343
X4.0993Y-4.1843
X4.1543Y-3.3643
X4.1543Y-3.4543
X4.1543Y-3.5843
X4.1543Y-3.6493
X4.1643Y-4.2343
X4.2293Y-4.1843
X4.2293Y-4.3093
X4.2743Y-3.8893
X4.3343Y-3.3643
X4.3343Y-3.4543
X4.3343Y-3.5843
X4.3343Y-3.6493
X4.3343Y-3.7843
X4.3343Y-3.8543
X4.3793Y-4.1793
X4.3893Y-3.4093
X4.3943Y-3.6143
X4.3943Y-3.8193
X4.3943Y-3.8893
X4.4293Y-4.2243
X4.4493Y-3.3643
X4.4493Y-3.4543
X4.4493Y-3.5843
X4.4493Y-3.6493
X4.4543Y-3.7843
X4.4543Y-3.8543
X4.4843Y-4.1793
X4.5143Y-3.8893
X4.5343Y-4.2243
X4.5943Y-4.1843
X4.5943Y-4.3093
X4.8143Y-1.7343
X4.8143Y-1.7743
X4.8143Y-1.8143
X4.8143Y-2.7943
X4.8143Y-2.8343
X4.8143Y-2.8743
X4.8143Y-3.6443
X4.8143Y-3.6843
X4.8143Y-3.7243
X4.8143Y-4.6243
X4.8143Y-4.6643
X4.8143Y-4.7043
X5.1893Y-4.1768
X5.2268Y-4.2268
X5.2343Y-3.5843
X5.2343Y-3.6543
X5.2343Y-3.7843
X5.2343Y-3.8543
X5.2623Y-4.1743
X5.3068Y-4.2268
X5.3143Y-3.9343
X5.3443Y-4.1763
X5.3843Y-3.9343
X5.4543Y-3.5843
X5.4543Y-3.6543
X5.4543Y-3.7843
X5.4543Y-3.8543
X5.4603Y-4.2243
X5.4603Y-4.2903
X5.4603Y-4.3563
X5.5443Y-3.5843
X5.5443Y-3.6543
X5.5443Y-3.7843
X5.5443Y-3.8543
X5.5743Y-4.1793
X5.6118Y-4.2293
X5.6143Y-3.9343
X5.6443Y-4.1793
X5.6793Y-4.2293
X5.6843Y-3.9343
X5.7093Y-4.1793
X5.7543Y-3.5843
X5.7543Y-3.6543
X5.7543Y-3.7843
X5.7543Y-3.8543
X5.7718Y-4.3143
X5.7743Y-4.1843
X5.8343Y-3.5843
X5.8343Y-3.6543
X5.9018Y-4.3143
X5.9043Y-4.1843
X5.9143Y-3.5843
X5.9143Y-3.6543
X5.9143Y-3.7843
X5.9143Y-3.8543
X5.9393Y-4.2293
X5.9793Y-4.1793
X5.9943Y-3.9443
X6.0168Y-4.2293
X6.0543Y-3.9443
X6.0543Y-4.1793
X6.0918Y-4.2293
X6.1243Y-3.5843
X6.1243Y-3.6543
X6.1243Y-3.7843
X6.1243Y-3.8543
X6.1293Y-4.1793
X6.1843Y-4.2193
X6.1843Y-4.3143
X6.2143Y-3.5843
X6.2143Y-3.6543
X6.2143Y-3.7843
X6.2143Y-3.8543
X6.2843Y-3.9443
X6.3243Y-4.1793
X6.3443Y-3.9443
X6.3643Y-4.2293
X6.4043Y-4.1793
X6.4243Y-3.5843
X6.4243Y-3.6543
X6.4443Y-4.2293
X6.4843Y-4.1793
X6.4943Y-3.6243
X6.5543Y-3.5843
X6.5543Y-3.6543
X6.5593Y-4.2093
X6.5593Y-4.3143
T2
X5.0183Y-2.5518
X5.0683Y-2.6018
X5.1183Y-2.5518
X1.6468Y-2.8305
X1.6968Y-2.7805
X1.6968Y-2.8805
X4.0655Y-1.8039
X4.1443Y-1.8039
X3.5943Y-2.8305
X3.6443Y-2.7805
X3.6443Y-2.8805
X6.5583Y-2.5918
X6.6083Y-2.5418
X6.6583Y-2.5918
X1.9243Y-2.7805
X1.9243Y-2.8805
X1.9743Y-2.8305
X3.8718Y-2.7805
X3.8718Y-2.8805
X3.9218Y-2.8305
T3
X6.5758Y-2.3468
X6.6758Y-2.3468
X2.2093Y-1.9979
X2.2093Y-2.0979
X1.6943Y-1.7205
X1.6943Y-1.8205
X1.6943Y-1.9205
X1.6943Y-2.0205
X1.6943Y-2.1205
X1.6943Y-2.2205
X1.6943Y-2.3205
X1.9943Y-1.7205
X1.9943Y-1.8205
X1.9943Y-1.9205
X1.9943Y-2.0205
X1.9943Y-2.1205
X1.9943Y-2.2205
X1.9943Y-2.3205
X1.8868Y-2.5755
X1.9868Y-2.5755
X3.7393Y-1.7155
X3.8393Y-1.7155
X3.5668Y-2.5714
X3.6668Y-2.5714
X5.4033Y-2.0493
X5.4033Y-2.1493
X5.4033Y-2.2493
X5.4033Y-2.3493
X5.7033Y-2.0493
X5.7033Y-2.1493
X5.7033Y-2.2493
X5.7033Y-2.3493
X2.9143Y-1.7205
X2.9143Y-1.8205
X2.9143Y-1.9205
X2.9143Y-2.0205
X2.9143Y-2.1205
X2.9143Y-2.2205
X2.9143Y-2.3205
X3.2143Y-1.7205
X3.2143Y-1.8205
X3.2143Y-1.9205
X3.2143Y-2.0205
X3.2143Y-2.1205
X3.2143Y-2.2205
X3.2143Y-2.3205
X5.4033Y-1.8643
X5.5033Y-1.8643
X6.1733Y-1.8643
X6.2733Y-1.8643
X2.4113Y-2.0199
X2.4113Y-2.1199
X2.4113Y-2.2199
X2.4113Y-2.3199
X2.7113Y-2.0199
X2.7113Y-2.1199
X2.7113Y-2.2199
X2.7113Y-2.3199
X2.2093Y-2.2399
X2.2093Y-2.3399
X5.0008Y-2.3468
X5.1008Y-2.3468
X1.6343Y-2.5755
X1.7343Y-2.5755
X6.4715Y-2.0918
X6.6683Y-2.0918
X3.7393Y-1.8705
X3.8393Y-1.8705
X3.4943Y-1.7505
X3.4943Y-1.8489
X3.8343Y-2.5725
X3.9343Y-2.5725
X2.5603Y-1.6879
X2.5603Y-1.8847
X5.9733Y-2.0443
X5.9733Y-2.1443
X5.9733Y-2.2443
X5.9733Y-2.3443
X6.2733Y-2.0443
X6.2733Y-2.1443
X6.2733Y-2.2443
X6.2733Y-2.3443
X5.0083Y-2.0918
X5.2052Y-2.0918
X2.2093Y-1.7719
X2.2093Y-1.8719
T4
X4.1443Y-2.0905
X4.1443Y-2.1905
X4.1443Y-2.2905
X2.2518Y-2.573
X2.6518Y-2.573
X5.9733Y-2.5693
X6.3733Y-2.5693
X0.9768Y-2.573
X1.3768Y-2.573
X4.1868Y-2.573
X4.5868Y-2.573
X2.9193Y-2.573
X3.3193Y-2.573
X5.3008Y-2.5693
X5.7008Y-2.5693
T5
X4.244Y-2.8312
X4.244Y-3.4218
X4.244Y-3.6186
X4.244Y-3.8155
X4.5393Y-2.8312
X4.5393Y-3.4218
X4.5393Y-3.6186
X4.5393Y-3.8155
X5.353Y-2.8301
X5.353Y-3.4206
X5.353Y-3.6175
X5.353Y-3.8143
X5.6483Y-2.8301
X5.6483Y-3.4206
X5.6483Y-3.6175
X5.6483Y-3.8143
X1.029Y-2.8287
X1.029Y-3.4193
X1.029Y-3.6161
X1.029Y-3.813
X1.3243Y-2.8287
X1.3243Y-3.4193
X1.3243Y-3.6161
X1.3243Y-3.813
X2.9715Y-2.8312
X2.9715Y-3.4218
X2.9715Y-3.6186
X2.9715Y-3.8155
X3.2668Y-2.8312
X3.2668Y-3.4218
X3.2668Y-3.6186
X3.2668Y-3.8155
X6.023Y-2.8301
X6.023Y-3.4206
X6.023Y-3.6175
X6.023Y-3.8143
X6.3183Y-2.8301
X6.3183Y-3.4206
X6.3183Y-3.6175
X6.3183Y-3.8143
X2.3015Y-2.8312
X2.3015Y-3.4218
X2.3015Y-3.6186
X2.3015Y-3.8155
X2.5968Y-2.8312
X2.5968Y-3.4218
X2.5968Y-3.6186
X2.5968Y-3.8155
T6
X5.7433Y-1.7643
X5.9433Y-1.7643
X4.4843Y-2.0905
X4.4843Y-2.2905
T7
X3.344Y-4.312
X3.7188Y-4.312
X2.596Y-4.312
X2.9708Y-4.312
X1.848Y-4.312
X2.2228Y-4.312
X6.0233Y-4.3143
X6.3981Y-4.3143
X4.092Y-4.312
X4.4668Y-4.312
X1.1Y-4.312
X1.4748Y-4.312
X5.2733Y-4.3143
X5.6481Y-4.3143
T8
X1.0443Y-1.7639
X6.5733Y-1.7643
X5.1033Y-1.7643
X4.5118Y-1.7639
T0
M30
