%TF.GenerationSoftware,KiCad,Pcbnew,5.0.2-bee76a0~70~ubuntu16.04.1*%
%TF.CreationDate,2018-12-19T01:31:24+02:00*%
%TF.ProjectId,isolation-transformer,69736f6c-6174-4696-9f6e-2d7472616e73,rev?*%
%TF.SameCoordinates,Original*%
%TF.FileFunction,Copper,L1,Top*%
%TF.FilePolarity,Positive*%
%FSLAX46Y46*%
G04 Gerber Fmt 4.6, Leading zero omitted, Abs format (unit mm)*
G04 Created by KiCad (PCBNEW 5.0.2-bee76a0~70~ubuntu16.04.1) date Wed 19 Dec 2018 01:31:24 AM EET*
%MOMM*%
%LPD*%
G01*
G04 APERTURE LIST*
%ADD10R,3.000000X3.000000*%
%ADD11C,3.000000*%
%ADD12R,5.000000X3.000000*%
%ADD13C,1.600000*%
%ADD14O,1.600000X1.600000*%
%ADD15C,6.400000*%
%ADD16O,2.000000X1.905000*%
%ADD17R,2.000000X1.905000*%
%ADD18R,1.600000X1.600000*%
%ADD19O,2.200000X2.200000*%
%ADD20R,2.200000X2.200000*%
%ADD21C,0.100000*%
%ADD22C,1.200000*%
%ADD23O,1.200000X1.750000*%
%ADD24R,2.500000X2.500000*%
%ADD25C,2.500000*%
%ADD26R,1.800000X1.100000*%
%ADD27C,1.100000*%
%ADD28O,2.400000X1.600000*%
%ADD29R,2.400000X1.600000*%
%ADD30R,1.100000X1.800000*%
%ADD31C,0.800000*%
%ADD32C,0.800000*%
%ADD33C,0.500000*%
%ADD34C,2.500000*%
%ADD35C,3.000000*%
%ADD36C,0.250000*%
%ADD37C,0.254000*%
G04 APERTURE END LIST*
D10*
X150960000Y-44813600D03*
D11*
X145880000Y-44813600D03*
D10*
X113900000Y-58177600D03*
D11*
X113900000Y-53097600D03*
D12*
X75458400Y-109524800D03*
X65938400Y-109524800D03*
D13*
X56115000Y-47545160D03*
D14*
X56115000Y-45005160D03*
D15*
X26524000Y-44801960D03*
X114598500Y-44801960D03*
D14*
X56115000Y-50745560D03*
D13*
X56115000Y-53285560D03*
D14*
X56115000Y-59432360D03*
D13*
X56115000Y-56892360D03*
D14*
X97517000Y-47509600D03*
D13*
X94977000Y-47509600D03*
D14*
X94977000Y-43572600D03*
D13*
X97517000Y-43572600D03*
D16*
X105264000Y-53097600D03*
X105264000Y-55637600D03*
D17*
X105264000Y-58177600D03*
D14*
X97390000Y-65340400D03*
D13*
X99930000Y-65340400D03*
D14*
X90595500Y-65312460D03*
D13*
X93135500Y-65312460D03*
D14*
X47923500Y-65416600D03*
D13*
X50463500Y-65416600D03*
D14*
X44050000Y-65416600D03*
D13*
X41510000Y-65416600D03*
D18*
X88754000Y-44461600D03*
D13*
X88754000Y-46961600D03*
X65030400Y-47871560D03*
D18*
X65030400Y-42871560D03*
D19*
X116503500Y-65353100D03*
D20*
X106343500Y-65353100D03*
X74149000Y-65353100D03*
D19*
X84309000Y-65353100D03*
D20*
X67354500Y-65353100D03*
D19*
X57194500Y-65353100D03*
X34969500Y-65353100D03*
D20*
X24809500Y-65353100D03*
D21*
G36*
X105638505Y-44944164D02*
X105662773Y-44947764D01*
X105686572Y-44953725D01*
X105709671Y-44961990D01*
X105731850Y-44972480D01*
X105752893Y-44985092D01*
X105772599Y-44999707D01*
X105790777Y-45016183D01*
X105807253Y-45034361D01*
X105821868Y-45054067D01*
X105834480Y-45075110D01*
X105844970Y-45097289D01*
X105853235Y-45120388D01*
X105859196Y-45144187D01*
X105862796Y-45168455D01*
X105864000Y-45192959D01*
X105864000Y-46442961D01*
X105862796Y-46467465D01*
X105859196Y-46491733D01*
X105853235Y-46515532D01*
X105844970Y-46538631D01*
X105834480Y-46560810D01*
X105821868Y-46581853D01*
X105807253Y-46601559D01*
X105790777Y-46619737D01*
X105772599Y-46636213D01*
X105752893Y-46650828D01*
X105731850Y-46663440D01*
X105709671Y-46673930D01*
X105686572Y-46682195D01*
X105662773Y-46688156D01*
X105638505Y-46691756D01*
X105614001Y-46692960D01*
X104913999Y-46692960D01*
X104889495Y-46691756D01*
X104865227Y-46688156D01*
X104841428Y-46682195D01*
X104818329Y-46673930D01*
X104796150Y-46663440D01*
X104775107Y-46650828D01*
X104755401Y-46636213D01*
X104737223Y-46619737D01*
X104720747Y-46601559D01*
X104706132Y-46581853D01*
X104693520Y-46560810D01*
X104683030Y-46538631D01*
X104674765Y-46515532D01*
X104668804Y-46491733D01*
X104665204Y-46467465D01*
X104664000Y-46442961D01*
X104664000Y-45192959D01*
X104665204Y-45168455D01*
X104668804Y-45144187D01*
X104674765Y-45120388D01*
X104683030Y-45097289D01*
X104693520Y-45075110D01*
X104706132Y-45054067D01*
X104720747Y-45034361D01*
X104737223Y-45016183D01*
X104755401Y-44999707D01*
X104775107Y-44985092D01*
X104796150Y-44972480D01*
X104818329Y-44961990D01*
X104841428Y-44953725D01*
X104865227Y-44947764D01*
X104889495Y-44944164D01*
X104913999Y-44942960D01*
X105614001Y-44942960D01*
X105638505Y-44944164D01*
X105638505Y-44944164D01*
G37*
D22*
X105264000Y-45817960D03*
D23*
X103264000Y-45817960D03*
D12*
X37460000Y-109524800D03*
X27940000Y-109524800D03*
X56459200Y-109524800D03*
X46939200Y-109524800D03*
X84937600Y-109524800D03*
X94457600Y-109524800D03*
X113456800Y-109524800D03*
X103936800Y-109524800D03*
D24*
X115297000Y-96912600D03*
X115297000Y-91912600D03*
D25*
X115297000Y-71912600D03*
X107797000Y-71912600D03*
D24*
X107797000Y-91912600D03*
X107797000Y-96912600D03*
X115297000Y-86912600D03*
X107797000Y-86912600D03*
X75475500Y-86912600D03*
D25*
X82975500Y-86912600D03*
D21*
G36*
X84225500Y-88162600D02*
X81725500Y-88162600D01*
X81725500Y-85662600D01*
X84225500Y-85662600D01*
X84225500Y-88162600D01*
X84225500Y-88162600D01*
G37*
D24*
X75475500Y-96912600D03*
X75475500Y-91912600D03*
D25*
X75475500Y-71912600D03*
X82975500Y-71912600D03*
X82975500Y-91912600D03*
D21*
G36*
X84225500Y-93162600D02*
X81725500Y-93162600D01*
X81725500Y-90662600D01*
X84225500Y-90662600D01*
X84225500Y-93162600D01*
X84225500Y-93162600D01*
G37*
D24*
X82975500Y-96912600D03*
X65957500Y-96912600D03*
X65957500Y-91912600D03*
D25*
X65957500Y-71912600D03*
X58457500Y-71912600D03*
D24*
X58457500Y-91912600D03*
X58457500Y-96912600D03*
X65957500Y-86912600D03*
X58457500Y-86912600D03*
X26136000Y-86849100D03*
X33636000Y-86849100D03*
X26136000Y-96849100D03*
X26136000Y-91849100D03*
D25*
X26136000Y-71849100D03*
X33636000Y-71849100D03*
D24*
X33636000Y-91849100D03*
X33636000Y-96849100D03*
D26*
X97942500Y-70623600D03*
D21*
G36*
X98594455Y-72614924D02*
X98621150Y-72618884D01*
X98647328Y-72625441D01*
X98672738Y-72634533D01*
X98697134Y-72646072D01*
X98720282Y-72659946D01*
X98741958Y-72676022D01*
X98761954Y-72694146D01*
X98780078Y-72714142D01*
X98796154Y-72735818D01*
X98810028Y-72758966D01*
X98821567Y-72783362D01*
X98830659Y-72808772D01*
X98837216Y-72834950D01*
X98841176Y-72861645D01*
X98842500Y-72888600D01*
X98842500Y-73438600D01*
X98841176Y-73465555D01*
X98837216Y-73492250D01*
X98830659Y-73518428D01*
X98821567Y-73543838D01*
X98810028Y-73568234D01*
X98796154Y-73591382D01*
X98780078Y-73613058D01*
X98761954Y-73633054D01*
X98741958Y-73651178D01*
X98720282Y-73667254D01*
X98697134Y-73681128D01*
X98672738Y-73692667D01*
X98647328Y-73701759D01*
X98621150Y-73708316D01*
X98594455Y-73712276D01*
X98567500Y-73713600D01*
X97317500Y-73713600D01*
X97290545Y-73712276D01*
X97263850Y-73708316D01*
X97237672Y-73701759D01*
X97212262Y-73692667D01*
X97187866Y-73681128D01*
X97164718Y-73667254D01*
X97143042Y-73651178D01*
X97123046Y-73633054D01*
X97104922Y-73613058D01*
X97088846Y-73591382D01*
X97074972Y-73568234D01*
X97063433Y-73543838D01*
X97054341Y-73518428D01*
X97047784Y-73492250D01*
X97043824Y-73465555D01*
X97042500Y-73438600D01*
X97042500Y-72888600D01*
X97043824Y-72861645D01*
X97047784Y-72834950D01*
X97054341Y-72808772D01*
X97063433Y-72783362D01*
X97074972Y-72758966D01*
X97088846Y-72735818D01*
X97104922Y-72714142D01*
X97123046Y-72694146D01*
X97143042Y-72676022D01*
X97164718Y-72659946D01*
X97187866Y-72646072D01*
X97212262Y-72634533D01*
X97237672Y-72625441D01*
X97263850Y-72618884D01*
X97290545Y-72614924D01*
X97317500Y-72613600D01*
X98567500Y-72613600D01*
X98594455Y-72614924D01*
X98594455Y-72614924D01*
G37*
D27*
X97942500Y-73163600D03*
D21*
G36*
X100664455Y-71344924D02*
X100691150Y-71348884D01*
X100717328Y-71355441D01*
X100742738Y-71364533D01*
X100767134Y-71376072D01*
X100790282Y-71389946D01*
X100811958Y-71406022D01*
X100831954Y-71424146D01*
X100850078Y-71444142D01*
X100866154Y-71465818D01*
X100880028Y-71488966D01*
X100891567Y-71513362D01*
X100900659Y-71538772D01*
X100907216Y-71564950D01*
X100911176Y-71591645D01*
X100912500Y-71618600D01*
X100912500Y-72168600D01*
X100911176Y-72195555D01*
X100907216Y-72222250D01*
X100900659Y-72248428D01*
X100891567Y-72273838D01*
X100880028Y-72298234D01*
X100866154Y-72321382D01*
X100850078Y-72343058D01*
X100831954Y-72363054D01*
X100811958Y-72381178D01*
X100790282Y-72397254D01*
X100767134Y-72411128D01*
X100742738Y-72422667D01*
X100717328Y-72431759D01*
X100691150Y-72438316D01*
X100664455Y-72442276D01*
X100637500Y-72443600D01*
X99387500Y-72443600D01*
X99360545Y-72442276D01*
X99333850Y-72438316D01*
X99307672Y-72431759D01*
X99282262Y-72422667D01*
X99257866Y-72411128D01*
X99234718Y-72397254D01*
X99213042Y-72381178D01*
X99193046Y-72363054D01*
X99174922Y-72343058D01*
X99158846Y-72321382D01*
X99144972Y-72298234D01*
X99133433Y-72273838D01*
X99124341Y-72248428D01*
X99117784Y-72222250D01*
X99113824Y-72195555D01*
X99112500Y-72168600D01*
X99112500Y-71618600D01*
X99113824Y-71591645D01*
X99117784Y-71564950D01*
X99124341Y-71538772D01*
X99133433Y-71513362D01*
X99144972Y-71488966D01*
X99158846Y-71465818D01*
X99174922Y-71444142D01*
X99193046Y-71424146D01*
X99213042Y-71406022D01*
X99234718Y-71389946D01*
X99257866Y-71376072D01*
X99282262Y-71364533D01*
X99307672Y-71355441D01*
X99333850Y-71348884D01*
X99360545Y-71344924D01*
X99387500Y-71343600D01*
X100637500Y-71343600D01*
X100664455Y-71344924D01*
X100664455Y-71344924D01*
G37*
D27*
X100012500Y-71893600D03*
D21*
G36*
X51197955Y-71344924D02*
X51224650Y-71348884D01*
X51250828Y-71355441D01*
X51276238Y-71364533D01*
X51300634Y-71376072D01*
X51323782Y-71389946D01*
X51345458Y-71406022D01*
X51365454Y-71424146D01*
X51383578Y-71444142D01*
X51399654Y-71465818D01*
X51413528Y-71488966D01*
X51425067Y-71513362D01*
X51434159Y-71538772D01*
X51440716Y-71564950D01*
X51444676Y-71591645D01*
X51446000Y-71618600D01*
X51446000Y-72168600D01*
X51444676Y-72195555D01*
X51440716Y-72222250D01*
X51434159Y-72248428D01*
X51425067Y-72273838D01*
X51413528Y-72298234D01*
X51399654Y-72321382D01*
X51383578Y-72343058D01*
X51365454Y-72363054D01*
X51345458Y-72381178D01*
X51323782Y-72397254D01*
X51300634Y-72411128D01*
X51276238Y-72422667D01*
X51250828Y-72431759D01*
X51224650Y-72438316D01*
X51197955Y-72442276D01*
X51171000Y-72443600D01*
X49921000Y-72443600D01*
X49894045Y-72442276D01*
X49867350Y-72438316D01*
X49841172Y-72431759D01*
X49815762Y-72422667D01*
X49791366Y-72411128D01*
X49768218Y-72397254D01*
X49746542Y-72381178D01*
X49726546Y-72363054D01*
X49708422Y-72343058D01*
X49692346Y-72321382D01*
X49678472Y-72298234D01*
X49666933Y-72273838D01*
X49657841Y-72248428D01*
X49651284Y-72222250D01*
X49647324Y-72195555D01*
X49646000Y-72168600D01*
X49646000Y-71618600D01*
X49647324Y-71591645D01*
X49651284Y-71564950D01*
X49657841Y-71538772D01*
X49666933Y-71513362D01*
X49678472Y-71488966D01*
X49692346Y-71465818D01*
X49708422Y-71444142D01*
X49726546Y-71424146D01*
X49746542Y-71406022D01*
X49768218Y-71389946D01*
X49791366Y-71376072D01*
X49815762Y-71364533D01*
X49841172Y-71355441D01*
X49867350Y-71348884D01*
X49894045Y-71344924D01*
X49921000Y-71343600D01*
X51171000Y-71343600D01*
X51197955Y-71344924D01*
X51197955Y-71344924D01*
G37*
D27*
X50546000Y-71893600D03*
D21*
G36*
X49127955Y-72614924D02*
X49154650Y-72618884D01*
X49180828Y-72625441D01*
X49206238Y-72634533D01*
X49230634Y-72646072D01*
X49253782Y-72659946D01*
X49275458Y-72676022D01*
X49295454Y-72694146D01*
X49313578Y-72714142D01*
X49329654Y-72735818D01*
X49343528Y-72758966D01*
X49355067Y-72783362D01*
X49364159Y-72808772D01*
X49370716Y-72834950D01*
X49374676Y-72861645D01*
X49376000Y-72888600D01*
X49376000Y-73438600D01*
X49374676Y-73465555D01*
X49370716Y-73492250D01*
X49364159Y-73518428D01*
X49355067Y-73543838D01*
X49343528Y-73568234D01*
X49329654Y-73591382D01*
X49313578Y-73613058D01*
X49295454Y-73633054D01*
X49275458Y-73651178D01*
X49253782Y-73667254D01*
X49230634Y-73681128D01*
X49206238Y-73692667D01*
X49180828Y-73701759D01*
X49154650Y-73708316D01*
X49127955Y-73712276D01*
X49101000Y-73713600D01*
X47851000Y-73713600D01*
X47824045Y-73712276D01*
X47797350Y-73708316D01*
X47771172Y-73701759D01*
X47745762Y-73692667D01*
X47721366Y-73681128D01*
X47698218Y-73667254D01*
X47676542Y-73651178D01*
X47656546Y-73633054D01*
X47638422Y-73613058D01*
X47622346Y-73591382D01*
X47608472Y-73568234D01*
X47596933Y-73543838D01*
X47587841Y-73518428D01*
X47581284Y-73492250D01*
X47577324Y-73465555D01*
X47576000Y-73438600D01*
X47576000Y-72888600D01*
X47577324Y-72861645D01*
X47581284Y-72834950D01*
X47587841Y-72808772D01*
X47596933Y-72783362D01*
X47608472Y-72758966D01*
X47622346Y-72735818D01*
X47638422Y-72714142D01*
X47656546Y-72694146D01*
X47676542Y-72676022D01*
X47698218Y-72659946D01*
X47721366Y-72646072D01*
X47745762Y-72634533D01*
X47771172Y-72625441D01*
X47797350Y-72618884D01*
X47824045Y-72614924D01*
X47851000Y-72613600D01*
X49101000Y-72613600D01*
X49127955Y-72614924D01*
X49127955Y-72614924D01*
G37*
D27*
X48476000Y-73163600D03*
D26*
X48476000Y-70623600D03*
X43497500Y-73163600D03*
D21*
G36*
X44149455Y-70074924D02*
X44176150Y-70078884D01*
X44202328Y-70085441D01*
X44227738Y-70094533D01*
X44252134Y-70106072D01*
X44275282Y-70119946D01*
X44296958Y-70136022D01*
X44316954Y-70154146D01*
X44335078Y-70174142D01*
X44351154Y-70195818D01*
X44365028Y-70218966D01*
X44376567Y-70243362D01*
X44385659Y-70268772D01*
X44392216Y-70294950D01*
X44396176Y-70321645D01*
X44397500Y-70348600D01*
X44397500Y-70898600D01*
X44396176Y-70925555D01*
X44392216Y-70952250D01*
X44385659Y-70978428D01*
X44376567Y-71003838D01*
X44365028Y-71028234D01*
X44351154Y-71051382D01*
X44335078Y-71073058D01*
X44316954Y-71093054D01*
X44296958Y-71111178D01*
X44275282Y-71127254D01*
X44252134Y-71141128D01*
X44227738Y-71152667D01*
X44202328Y-71161759D01*
X44176150Y-71168316D01*
X44149455Y-71172276D01*
X44122500Y-71173600D01*
X42872500Y-71173600D01*
X42845545Y-71172276D01*
X42818850Y-71168316D01*
X42792672Y-71161759D01*
X42767262Y-71152667D01*
X42742866Y-71141128D01*
X42719718Y-71127254D01*
X42698042Y-71111178D01*
X42678046Y-71093054D01*
X42659922Y-71073058D01*
X42643846Y-71051382D01*
X42629972Y-71028234D01*
X42618433Y-71003838D01*
X42609341Y-70978428D01*
X42602784Y-70952250D01*
X42598824Y-70925555D01*
X42597500Y-70898600D01*
X42597500Y-70348600D01*
X42598824Y-70321645D01*
X42602784Y-70294950D01*
X42609341Y-70268772D01*
X42618433Y-70243362D01*
X42629972Y-70218966D01*
X42643846Y-70195818D01*
X42659922Y-70174142D01*
X42678046Y-70154146D01*
X42698042Y-70136022D01*
X42719718Y-70119946D01*
X42742866Y-70106072D01*
X42767262Y-70094533D01*
X42792672Y-70085441D01*
X42818850Y-70078884D01*
X42845545Y-70074924D01*
X42872500Y-70073600D01*
X44122500Y-70073600D01*
X44149455Y-70074924D01*
X44149455Y-70074924D01*
G37*
D27*
X43497500Y-70623600D03*
D21*
G36*
X42079455Y-71344924D02*
X42106150Y-71348884D01*
X42132328Y-71355441D01*
X42157738Y-71364533D01*
X42182134Y-71376072D01*
X42205282Y-71389946D01*
X42226958Y-71406022D01*
X42246954Y-71424146D01*
X42265078Y-71444142D01*
X42281154Y-71465818D01*
X42295028Y-71488966D01*
X42306567Y-71513362D01*
X42315659Y-71538772D01*
X42322216Y-71564950D01*
X42326176Y-71591645D01*
X42327500Y-71618600D01*
X42327500Y-72168600D01*
X42326176Y-72195555D01*
X42322216Y-72222250D01*
X42315659Y-72248428D01*
X42306567Y-72273838D01*
X42295028Y-72298234D01*
X42281154Y-72321382D01*
X42265078Y-72343058D01*
X42246954Y-72363054D01*
X42226958Y-72381178D01*
X42205282Y-72397254D01*
X42182134Y-72411128D01*
X42157738Y-72422667D01*
X42132328Y-72431759D01*
X42106150Y-72438316D01*
X42079455Y-72442276D01*
X42052500Y-72443600D01*
X40802500Y-72443600D01*
X40775545Y-72442276D01*
X40748850Y-72438316D01*
X40722672Y-72431759D01*
X40697262Y-72422667D01*
X40672866Y-72411128D01*
X40649718Y-72397254D01*
X40628042Y-72381178D01*
X40608046Y-72363054D01*
X40589922Y-72343058D01*
X40573846Y-72321382D01*
X40559972Y-72298234D01*
X40548433Y-72273838D01*
X40539341Y-72248428D01*
X40532784Y-72222250D01*
X40528824Y-72195555D01*
X40527500Y-72168600D01*
X40527500Y-71618600D01*
X40528824Y-71591645D01*
X40532784Y-71564950D01*
X40539341Y-71538772D01*
X40548433Y-71513362D01*
X40559972Y-71488966D01*
X40573846Y-71465818D01*
X40589922Y-71444142D01*
X40608046Y-71424146D01*
X40628042Y-71406022D01*
X40649718Y-71389946D01*
X40672866Y-71376072D01*
X40697262Y-71364533D01*
X40722672Y-71355441D01*
X40748850Y-71348884D01*
X40775545Y-71344924D01*
X40802500Y-71343600D01*
X42052500Y-71343600D01*
X42079455Y-71344924D01*
X42079455Y-71344924D01*
G37*
D27*
X41427500Y-71893600D03*
D21*
G36*
X91545955Y-71344924D02*
X91572650Y-71348884D01*
X91598828Y-71355441D01*
X91624238Y-71364533D01*
X91648634Y-71376072D01*
X91671782Y-71389946D01*
X91693458Y-71406022D01*
X91713454Y-71424146D01*
X91731578Y-71444142D01*
X91747654Y-71465818D01*
X91761528Y-71488966D01*
X91773067Y-71513362D01*
X91782159Y-71538772D01*
X91788716Y-71564950D01*
X91792676Y-71591645D01*
X91794000Y-71618600D01*
X91794000Y-72168600D01*
X91792676Y-72195555D01*
X91788716Y-72222250D01*
X91782159Y-72248428D01*
X91773067Y-72273838D01*
X91761528Y-72298234D01*
X91747654Y-72321382D01*
X91731578Y-72343058D01*
X91713454Y-72363054D01*
X91693458Y-72381178D01*
X91671782Y-72397254D01*
X91648634Y-72411128D01*
X91624238Y-72422667D01*
X91598828Y-72431759D01*
X91572650Y-72438316D01*
X91545955Y-72442276D01*
X91519000Y-72443600D01*
X90269000Y-72443600D01*
X90242045Y-72442276D01*
X90215350Y-72438316D01*
X90189172Y-72431759D01*
X90163762Y-72422667D01*
X90139366Y-72411128D01*
X90116218Y-72397254D01*
X90094542Y-72381178D01*
X90074546Y-72363054D01*
X90056422Y-72343058D01*
X90040346Y-72321382D01*
X90026472Y-72298234D01*
X90014933Y-72273838D01*
X90005841Y-72248428D01*
X89999284Y-72222250D01*
X89995324Y-72195555D01*
X89994000Y-72168600D01*
X89994000Y-71618600D01*
X89995324Y-71591645D01*
X89999284Y-71564950D01*
X90005841Y-71538772D01*
X90014933Y-71513362D01*
X90026472Y-71488966D01*
X90040346Y-71465818D01*
X90056422Y-71444142D01*
X90074546Y-71424146D01*
X90094542Y-71406022D01*
X90116218Y-71389946D01*
X90139366Y-71376072D01*
X90163762Y-71364533D01*
X90189172Y-71355441D01*
X90215350Y-71348884D01*
X90242045Y-71344924D01*
X90269000Y-71343600D01*
X91519000Y-71343600D01*
X91545955Y-71344924D01*
X91545955Y-71344924D01*
G37*
D27*
X90894000Y-71893600D03*
D21*
G36*
X93615955Y-70074924D02*
X93642650Y-70078884D01*
X93668828Y-70085441D01*
X93694238Y-70094533D01*
X93718634Y-70106072D01*
X93741782Y-70119946D01*
X93763458Y-70136022D01*
X93783454Y-70154146D01*
X93801578Y-70174142D01*
X93817654Y-70195818D01*
X93831528Y-70218966D01*
X93843067Y-70243362D01*
X93852159Y-70268772D01*
X93858716Y-70294950D01*
X93862676Y-70321645D01*
X93864000Y-70348600D01*
X93864000Y-70898600D01*
X93862676Y-70925555D01*
X93858716Y-70952250D01*
X93852159Y-70978428D01*
X93843067Y-71003838D01*
X93831528Y-71028234D01*
X93817654Y-71051382D01*
X93801578Y-71073058D01*
X93783454Y-71093054D01*
X93763458Y-71111178D01*
X93741782Y-71127254D01*
X93718634Y-71141128D01*
X93694238Y-71152667D01*
X93668828Y-71161759D01*
X93642650Y-71168316D01*
X93615955Y-71172276D01*
X93589000Y-71173600D01*
X92339000Y-71173600D01*
X92312045Y-71172276D01*
X92285350Y-71168316D01*
X92259172Y-71161759D01*
X92233762Y-71152667D01*
X92209366Y-71141128D01*
X92186218Y-71127254D01*
X92164542Y-71111178D01*
X92144546Y-71093054D01*
X92126422Y-71073058D01*
X92110346Y-71051382D01*
X92096472Y-71028234D01*
X92084933Y-71003838D01*
X92075841Y-70978428D01*
X92069284Y-70952250D01*
X92065324Y-70925555D01*
X92064000Y-70898600D01*
X92064000Y-70348600D01*
X92065324Y-70321645D01*
X92069284Y-70294950D01*
X92075841Y-70268772D01*
X92084933Y-70243362D01*
X92096472Y-70218966D01*
X92110346Y-70195818D01*
X92126422Y-70174142D01*
X92144546Y-70154146D01*
X92164542Y-70136022D01*
X92186218Y-70119946D01*
X92209366Y-70106072D01*
X92233762Y-70094533D01*
X92259172Y-70085441D01*
X92285350Y-70078884D01*
X92312045Y-70074924D01*
X92339000Y-70073600D01*
X93589000Y-70073600D01*
X93615955Y-70074924D01*
X93615955Y-70074924D01*
G37*
D27*
X92964000Y-70623600D03*
D26*
X92964000Y-73163600D03*
D28*
X81642000Y-43699600D03*
X74022000Y-58939600D03*
X81642000Y-46239600D03*
X74022000Y-56399600D03*
X81642000Y-48779600D03*
X74022000Y-53859600D03*
X81642000Y-51319600D03*
X74022000Y-51319600D03*
X81642000Y-53859600D03*
X74022000Y-48779600D03*
X81642000Y-56399600D03*
X74022000Y-46239600D03*
X81642000Y-58939600D03*
D29*
X74022000Y-43699600D03*
X61245800Y-51304360D03*
D28*
X68865800Y-58924360D03*
X61245800Y-53844360D03*
X68865800Y-56384360D03*
X61245800Y-56384360D03*
X68865800Y-53844360D03*
X61245800Y-58924360D03*
X68865800Y-51304360D03*
D29*
X43034000Y-43699600D03*
D28*
X50654000Y-58939600D03*
X43034000Y-46239600D03*
X50654000Y-56399600D03*
X43034000Y-48779600D03*
X50654000Y-53859600D03*
X43034000Y-51319600D03*
X50654000Y-51319600D03*
X43034000Y-53859600D03*
X50654000Y-48779600D03*
X43034000Y-56399600D03*
X50654000Y-46239600D03*
X43034000Y-58939600D03*
X50654000Y-43699600D03*
D13*
X164375000Y-53132100D03*
D18*
X169375000Y-53132100D03*
X127211000Y-53132100D03*
D13*
X132211000Y-53132100D03*
D19*
X161882000Y-65260600D03*
D20*
X151722000Y-65260600D03*
X144800500Y-65260600D03*
D19*
X134640500Y-65260600D03*
D12*
X162512000Y-109583600D03*
X152992000Y-109583600D03*
X133942000Y-109583600D03*
X143462000Y-109583600D03*
D24*
X152985000Y-86883600D03*
X160485000Y-86883600D03*
X152985000Y-96883600D03*
X152985000Y-91883600D03*
D25*
X152985000Y-71883600D03*
X160485000Y-71883600D03*
D24*
X160485000Y-91883600D03*
X160485000Y-96883600D03*
X143467000Y-96883600D03*
X143467000Y-91883600D03*
D25*
X143467000Y-71883600D03*
X135967000Y-71883600D03*
D24*
X135967000Y-91883600D03*
X135967000Y-96883600D03*
X143467000Y-86883600D03*
X135967000Y-86883600D03*
D30*
X166581000Y-66232100D03*
D21*
G36*
X169422955Y-65333424D02*
X169449650Y-65337384D01*
X169475828Y-65343941D01*
X169501238Y-65353033D01*
X169525634Y-65364572D01*
X169548782Y-65378446D01*
X169570458Y-65394522D01*
X169590454Y-65412646D01*
X169608578Y-65432642D01*
X169624654Y-65454318D01*
X169638528Y-65477466D01*
X169650067Y-65501862D01*
X169659159Y-65527272D01*
X169665716Y-65553450D01*
X169669676Y-65580145D01*
X169671000Y-65607100D01*
X169671000Y-66857100D01*
X169669676Y-66884055D01*
X169665716Y-66910750D01*
X169659159Y-66936928D01*
X169650067Y-66962338D01*
X169638528Y-66986734D01*
X169624654Y-67009882D01*
X169608578Y-67031558D01*
X169590454Y-67051554D01*
X169570458Y-67069678D01*
X169548782Y-67085754D01*
X169525634Y-67099628D01*
X169501238Y-67111167D01*
X169475828Y-67120259D01*
X169449650Y-67126816D01*
X169422955Y-67130776D01*
X169396000Y-67132100D01*
X168846000Y-67132100D01*
X168819045Y-67130776D01*
X168792350Y-67126816D01*
X168766172Y-67120259D01*
X168740762Y-67111167D01*
X168716366Y-67099628D01*
X168693218Y-67085754D01*
X168671542Y-67069678D01*
X168651546Y-67051554D01*
X168633422Y-67031558D01*
X168617346Y-67009882D01*
X168603472Y-66986734D01*
X168591933Y-66962338D01*
X168582841Y-66936928D01*
X168576284Y-66910750D01*
X168572324Y-66884055D01*
X168571000Y-66857100D01*
X168571000Y-65607100D01*
X168572324Y-65580145D01*
X168576284Y-65553450D01*
X168582841Y-65527272D01*
X168591933Y-65501862D01*
X168603472Y-65477466D01*
X168617346Y-65454318D01*
X168633422Y-65432642D01*
X168651546Y-65412646D01*
X168671542Y-65394522D01*
X168693218Y-65378446D01*
X168716366Y-65364572D01*
X168740762Y-65353033D01*
X168766172Y-65343941D01*
X168792350Y-65337384D01*
X168819045Y-65333424D01*
X168846000Y-65332100D01*
X169396000Y-65332100D01*
X169422955Y-65333424D01*
X169422955Y-65333424D01*
G37*
D27*
X169121000Y-66232100D03*
D21*
G36*
X168152955Y-63263424D02*
X168179650Y-63267384D01*
X168205828Y-63273941D01*
X168231238Y-63283033D01*
X168255634Y-63294572D01*
X168278782Y-63308446D01*
X168300458Y-63324522D01*
X168320454Y-63342646D01*
X168338578Y-63362642D01*
X168354654Y-63384318D01*
X168368528Y-63407466D01*
X168380067Y-63431862D01*
X168389159Y-63457272D01*
X168395716Y-63483450D01*
X168399676Y-63510145D01*
X168401000Y-63537100D01*
X168401000Y-64787100D01*
X168399676Y-64814055D01*
X168395716Y-64840750D01*
X168389159Y-64866928D01*
X168380067Y-64892338D01*
X168368528Y-64916734D01*
X168354654Y-64939882D01*
X168338578Y-64961558D01*
X168320454Y-64981554D01*
X168300458Y-64999678D01*
X168278782Y-65015754D01*
X168255634Y-65029628D01*
X168231238Y-65041167D01*
X168205828Y-65050259D01*
X168179650Y-65056816D01*
X168152955Y-65060776D01*
X168126000Y-65062100D01*
X167576000Y-65062100D01*
X167549045Y-65060776D01*
X167522350Y-65056816D01*
X167496172Y-65050259D01*
X167470762Y-65041167D01*
X167446366Y-65029628D01*
X167423218Y-65015754D01*
X167401542Y-64999678D01*
X167381546Y-64981554D01*
X167363422Y-64961558D01*
X167347346Y-64939882D01*
X167333472Y-64916734D01*
X167321933Y-64892338D01*
X167312841Y-64866928D01*
X167306284Y-64840750D01*
X167302324Y-64814055D01*
X167301000Y-64787100D01*
X167301000Y-63537100D01*
X167302324Y-63510145D01*
X167306284Y-63483450D01*
X167312841Y-63457272D01*
X167321933Y-63431862D01*
X167333472Y-63407466D01*
X167347346Y-63384318D01*
X167363422Y-63362642D01*
X167381546Y-63342646D01*
X167401542Y-63324522D01*
X167423218Y-63308446D01*
X167446366Y-63294572D01*
X167470762Y-63283033D01*
X167496172Y-63273941D01*
X167522350Y-63267384D01*
X167549045Y-63263424D01*
X167576000Y-63262100D01*
X168126000Y-63262100D01*
X168152955Y-63263424D01*
X168152955Y-63263424D01*
G37*
D27*
X167851000Y-64162100D03*
D21*
G36*
X129036955Y-65587424D02*
X129063650Y-65591384D01*
X129089828Y-65597941D01*
X129115238Y-65607033D01*
X129139634Y-65618572D01*
X129162782Y-65632446D01*
X129184458Y-65648522D01*
X129204454Y-65666646D01*
X129222578Y-65686642D01*
X129238654Y-65708318D01*
X129252528Y-65731466D01*
X129264067Y-65755862D01*
X129273159Y-65781272D01*
X129279716Y-65807450D01*
X129283676Y-65834145D01*
X129285000Y-65861100D01*
X129285000Y-67111100D01*
X129283676Y-67138055D01*
X129279716Y-67164750D01*
X129273159Y-67190928D01*
X129264067Y-67216338D01*
X129252528Y-67240734D01*
X129238654Y-67263882D01*
X129222578Y-67285558D01*
X129204454Y-67305554D01*
X129184458Y-67323678D01*
X129162782Y-67339754D01*
X129139634Y-67353628D01*
X129115238Y-67365167D01*
X129089828Y-67374259D01*
X129063650Y-67380816D01*
X129036955Y-67384776D01*
X129010000Y-67386100D01*
X128460000Y-67386100D01*
X128433045Y-67384776D01*
X128406350Y-67380816D01*
X128380172Y-67374259D01*
X128354762Y-67365167D01*
X128330366Y-67353628D01*
X128307218Y-67339754D01*
X128285542Y-67323678D01*
X128265546Y-67305554D01*
X128247422Y-67285558D01*
X128231346Y-67263882D01*
X128217472Y-67240734D01*
X128205933Y-67216338D01*
X128196841Y-67190928D01*
X128190284Y-67164750D01*
X128186324Y-67138055D01*
X128185000Y-67111100D01*
X128185000Y-65861100D01*
X128186324Y-65834145D01*
X128190284Y-65807450D01*
X128196841Y-65781272D01*
X128205933Y-65755862D01*
X128217472Y-65731466D01*
X128231346Y-65708318D01*
X128247422Y-65686642D01*
X128265546Y-65666646D01*
X128285542Y-65648522D01*
X128307218Y-65632446D01*
X128330366Y-65618572D01*
X128354762Y-65607033D01*
X128380172Y-65597941D01*
X128406350Y-65591384D01*
X128433045Y-65587424D01*
X128460000Y-65586100D01*
X129010000Y-65586100D01*
X129036955Y-65587424D01*
X129036955Y-65587424D01*
G37*
D27*
X128735000Y-66486100D03*
D21*
G36*
X127766955Y-63517424D02*
X127793650Y-63521384D01*
X127819828Y-63527941D01*
X127845238Y-63537033D01*
X127869634Y-63548572D01*
X127892782Y-63562446D01*
X127914458Y-63578522D01*
X127934454Y-63596646D01*
X127952578Y-63616642D01*
X127968654Y-63638318D01*
X127982528Y-63661466D01*
X127994067Y-63685862D01*
X128003159Y-63711272D01*
X128009716Y-63737450D01*
X128013676Y-63764145D01*
X128015000Y-63791100D01*
X128015000Y-65041100D01*
X128013676Y-65068055D01*
X128009716Y-65094750D01*
X128003159Y-65120928D01*
X127994067Y-65146338D01*
X127982528Y-65170734D01*
X127968654Y-65193882D01*
X127952578Y-65215558D01*
X127934454Y-65235554D01*
X127914458Y-65253678D01*
X127892782Y-65269754D01*
X127869634Y-65283628D01*
X127845238Y-65295167D01*
X127819828Y-65304259D01*
X127793650Y-65310816D01*
X127766955Y-65314776D01*
X127740000Y-65316100D01*
X127190000Y-65316100D01*
X127163045Y-65314776D01*
X127136350Y-65310816D01*
X127110172Y-65304259D01*
X127084762Y-65295167D01*
X127060366Y-65283628D01*
X127037218Y-65269754D01*
X127015542Y-65253678D01*
X126995546Y-65235554D01*
X126977422Y-65215558D01*
X126961346Y-65193882D01*
X126947472Y-65170734D01*
X126935933Y-65146338D01*
X126926841Y-65120928D01*
X126920284Y-65094750D01*
X126916324Y-65068055D01*
X126915000Y-65041100D01*
X126915000Y-63791100D01*
X126916324Y-63764145D01*
X126920284Y-63737450D01*
X126926841Y-63711272D01*
X126935933Y-63685862D01*
X126947472Y-63661466D01*
X126961346Y-63638318D01*
X126977422Y-63616642D01*
X126995546Y-63596646D01*
X127015542Y-63578522D01*
X127037218Y-63562446D01*
X127060366Y-63548572D01*
X127084762Y-63537033D01*
X127110172Y-63527941D01*
X127136350Y-63521384D01*
X127163045Y-63517424D01*
X127190000Y-63516100D01*
X127740000Y-63516100D01*
X127766955Y-63517424D01*
X127766955Y-63517424D01*
G37*
D27*
X127465000Y-64416100D03*
D30*
X130005000Y-64416100D03*
D13*
X167025500Y-59609100D03*
D14*
X169565500Y-59609100D03*
X159342000Y-47353600D03*
D13*
X156802000Y-47353600D03*
X129560500Y-59609100D03*
D14*
X127020500Y-59609100D03*
X137244000Y-47353600D03*
D13*
X139784000Y-47353600D03*
D29*
X159342000Y-59545600D03*
D28*
X151722000Y-51925600D03*
X159342000Y-57005600D03*
X151722000Y-54465600D03*
X159342000Y-54465600D03*
X151722000Y-57005600D03*
X159342000Y-51925600D03*
X151722000Y-59545600D03*
X144864000Y-52052600D03*
X137244000Y-59672600D03*
X144864000Y-54592600D03*
X137244000Y-57132600D03*
X144864000Y-57132600D03*
X137244000Y-54592600D03*
X144864000Y-59672600D03*
D29*
X137244000Y-52052600D03*
D15*
X129624000Y-44813600D03*
X166962000Y-44813600D03*
D31*
X122282000Y-44051600D03*
X122282000Y-45067600D03*
X122282000Y-46083600D03*
X122282000Y-70975600D03*
X122282000Y-71991600D03*
X122282000Y-73007600D03*
X122282000Y-92565600D03*
X122282000Y-93581600D03*
X122282000Y-94597600D03*
X122282000Y-117457600D03*
X122282000Y-118473600D03*
X122282000Y-119489600D03*
X60687000Y-85580600D03*
X60687000Y-87485600D03*
X63735000Y-85580600D03*
X63735000Y-87485600D03*
X62211000Y-86469600D03*
X80753000Y-87485600D03*
X77705000Y-87485600D03*
X77705000Y-85580600D03*
X79229000Y-86469600D03*
X80753000Y-85580600D03*
X69069000Y-85580600D03*
X69069000Y-87485600D03*
X72117000Y-85580600D03*
X72117000Y-87485600D03*
X70593000Y-86469600D03*
X110090000Y-85453600D03*
X110090000Y-87739600D03*
X113011000Y-85453600D03*
X113011000Y-87739600D03*
X111487000Y-86596600D03*
X105518000Y-85453600D03*
X105518000Y-87739600D03*
X97517000Y-109456600D03*
X92945000Y-106408600D03*
X97517000Y-106408600D03*
X95231000Y-106408600D03*
X94088000Y-107551600D03*
X96374000Y-107551600D03*
X31350000Y-87739600D03*
X31350000Y-85453600D03*
X28429000Y-87739600D03*
X28429000Y-85453600D03*
X29953000Y-86660100D03*
X35922000Y-87739600D03*
X35922000Y-85453600D03*
X43796000Y-106281600D03*
X44939000Y-107424600D03*
X47225000Y-107424600D03*
X48368000Y-106281600D03*
X46082000Y-106281600D03*
X43796000Y-109329600D03*
X28302000Y-96121600D03*
X28302000Y-97899600D03*
X31350000Y-96121600D03*
X31350000Y-97899600D03*
X29826000Y-97010600D03*
X26778000Y-98788600D03*
X32874000Y-98788600D03*
X29826000Y-98788600D03*
X24677493Y-109541668D03*
X30138493Y-106239668D03*
X24677493Y-106366668D03*
X27471493Y-106239668D03*
X28868493Y-107382668D03*
X26201493Y-107382668D03*
X110090000Y-92692600D03*
X110090000Y-91041600D03*
X113011000Y-91041600D03*
X113011000Y-92692600D03*
X111614000Y-91803600D03*
X105518000Y-91041600D03*
X105518000Y-92692600D03*
X107423000Y-109456600D03*
X100946000Y-109456600D03*
X100946000Y-106281600D03*
X107423000Y-106281600D03*
X104121000Y-106281600D03*
X102597000Y-107551600D03*
X105772000Y-107551600D03*
X77705000Y-91168600D03*
X77705000Y-92692600D03*
X80753000Y-92692600D03*
X80753000Y-91168600D03*
X79229000Y-91930600D03*
X81896000Y-109456600D03*
X73514000Y-91930600D03*
X88500000Y-109583600D03*
X81896000Y-106281600D03*
X83928000Y-106281600D03*
X82912000Y-107297600D03*
X84944000Y-107297600D03*
X85960000Y-106281600D03*
X86976000Y-107297600D03*
X87992000Y-106281600D03*
X89008000Y-107297600D03*
X85198000Y-91168600D03*
X85198000Y-92692600D03*
X60687000Y-91295600D03*
X60687000Y-92692600D03*
X63735000Y-91295600D03*
X63735000Y-92692600D03*
X62211000Y-91930600D03*
X67926000Y-91930600D03*
X56242000Y-91295600D03*
X56242000Y-92692600D03*
X59544000Y-109456600D03*
X52813000Y-109456600D03*
X59544000Y-106281600D03*
X58528000Y-107297600D03*
X56496000Y-107297600D03*
X57512000Y-106281600D03*
X54464000Y-107297600D03*
X55480000Y-106281600D03*
X53448000Y-106281600D03*
X52305000Y-107297600D03*
X34020832Y-109351330D03*
X40497832Y-109351330D03*
X40497832Y-106176330D03*
X34020832Y-106176330D03*
X37322832Y-106176330D03*
X38846832Y-107446330D03*
X35671832Y-107446330D03*
X31350000Y-91041600D03*
X31350000Y-92692600D03*
X28429000Y-92692600D03*
X28429000Y-91041600D03*
X29826000Y-91930600D03*
X35922000Y-92692600D03*
X35922000Y-91041600D03*
X110090000Y-96121600D03*
X110090000Y-97899600D03*
X113138000Y-96121600D03*
X113138000Y-97899600D03*
X111614000Y-97010600D03*
X108566000Y-98788600D03*
X114662000Y-98788600D03*
X116694000Y-109456600D03*
X111614000Y-98788600D03*
X111233000Y-106154600D03*
X116694000Y-106281600D03*
X113900000Y-106154600D03*
X112503000Y-107297600D03*
X115170000Y-107297600D03*
X77705000Y-96248600D03*
X80753000Y-96248600D03*
X77705000Y-97772600D03*
X80753000Y-97772600D03*
X79229000Y-97010600D03*
X78594000Y-109456600D03*
X73514000Y-96883600D03*
X73260000Y-107297600D03*
X78721000Y-107297600D03*
X76054000Y-107297600D03*
X74657000Y-106408600D03*
X77451000Y-106408600D03*
X60687000Y-96248600D03*
X63735000Y-96248600D03*
X60687000Y-97772600D03*
X63735000Y-97772600D03*
X62211000Y-97010600D03*
X67926000Y-96883600D03*
X62846000Y-109456600D03*
X67926000Y-107297600D03*
X62973000Y-107297600D03*
X65513000Y-107297600D03*
X64243000Y-106281600D03*
X66656000Y-106281600D03*
X155556000Y-91041600D03*
X157842000Y-91041600D03*
X157842000Y-92819600D03*
X155556000Y-92819600D03*
X146158000Y-91041600D03*
X146158000Y-92819600D03*
X150222000Y-91041600D03*
X150222000Y-92819600D03*
X148190000Y-91041600D03*
X148190000Y-92819600D03*
X140824000Y-91041600D03*
X140824000Y-92819600D03*
X138538000Y-91041600D03*
X138538000Y-92819600D03*
X132950000Y-91041600D03*
X132950000Y-92819600D03*
X163176000Y-91041600D03*
X163176000Y-92819600D03*
X166478000Y-91041600D03*
X164954000Y-92057600D03*
X166478000Y-92819600D03*
X160636000Y-106154600D03*
X162668000Y-106154600D03*
X164700000Y-106154600D03*
X166605000Y-106916600D03*
X161652000Y-107424600D03*
X163684000Y-107424600D03*
X166605000Y-109583600D03*
X150222000Y-96121600D03*
X150222000Y-97899600D03*
X155556000Y-96121600D03*
X155556000Y-97899600D03*
X157842000Y-96121600D03*
X157842000Y-97899600D03*
X159620000Y-100185600D03*
X161144000Y-100185600D03*
X153778000Y-100185600D03*
X152254000Y-100185600D03*
X149968000Y-106281600D03*
X151873000Y-106154600D03*
X153778000Y-106154600D03*
X155683000Y-106154600D03*
X157080000Y-107170600D03*
X152825500Y-107424600D03*
X154730500Y-107424600D03*
X150857000Y-107424600D03*
X149904500Y-109583600D03*
X157080000Y-109583600D03*
X132950000Y-96121600D03*
X132950000Y-97899600D03*
X138538000Y-96121600D03*
X138538000Y-97899600D03*
X140824000Y-96121600D03*
X140824000Y-97899600D03*
X146158000Y-96121600D03*
X146158000Y-97899600D03*
X134982000Y-99931600D03*
X136760000Y-99931600D03*
X142602000Y-99931600D03*
X144380000Y-99931600D03*
X146666000Y-106281600D03*
X145015000Y-106154600D03*
X143364000Y-106154600D03*
X141586000Y-106154600D03*
X131807000Y-106091100D03*
X138690400Y-110650400D03*
X138690400Y-107297600D03*
X138690400Y-108974000D03*
X133661200Y-106027600D03*
X135744000Y-106078400D03*
X132759500Y-107361100D03*
X134791500Y-107361100D03*
X142538500Y-107424600D03*
X144253000Y-107424600D03*
X146602500Y-109583600D03*
D32*
X57194500Y-70649600D02*
X58457500Y-71912600D01*
X57194500Y-65353100D02*
X57194500Y-70649600D01*
X33636000Y-66686600D02*
X34969500Y-65353100D01*
X33636000Y-71849100D02*
X33636000Y-66686600D01*
D33*
X99930000Y-71576100D02*
X99930000Y-65340400D01*
X99612500Y-71893600D02*
X99930000Y-71576100D01*
X50463500Y-71576100D02*
X50463500Y-65416600D01*
X50146000Y-71893600D02*
X50463500Y-71576100D01*
X41510000Y-71576100D02*
X41510000Y-65416600D01*
X41827500Y-71893600D02*
X41510000Y-71576100D01*
X91294000Y-71893600D02*
X90976500Y-71576100D01*
X91294000Y-67153960D02*
X93135500Y-65312460D01*
X91294000Y-71893600D02*
X91294000Y-67153960D01*
X43434000Y-53859600D02*
X46513800Y-50779800D01*
X43034000Y-53859600D02*
X43434000Y-53859600D01*
X50254000Y-46239600D02*
X50654000Y-46239600D01*
X46513800Y-49979800D02*
X50254000Y-46239600D01*
X46513800Y-50779800D02*
X46513800Y-49979800D01*
X56115000Y-56892360D02*
X53448000Y-54225360D01*
X53448000Y-54225360D02*
X53448000Y-47087960D01*
X52599640Y-46239600D02*
X50654000Y-46239600D01*
X53448000Y-47087960D02*
X52599640Y-46239600D01*
D32*
X82975500Y-66686600D02*
X84309000Y-65353100D01*
X82975500Y-71912600D02*
X82975500Y-66686600D01*
D33*
X50254000Y-58939600D02*
X50654000Y-58939600D01*
X47923500Y-61270100D02*
X50254000Y-58939600D01*
X47923500Y-65416600D02*
X47923500Y-61270100D01*
X43434000Y-56399600D02*
X43034000Y-56399600D01*
D34*
X56496000Y-109488000D02*
X56459200Y-109524800D01*
D35*
X55459200Y-109524800D02*
X56459200Y-109524800D01*
D36*
X38295800Y-109524800D02*
X37460000Y-109524800D01*
X76458400Y-109524800D02*
X75458400Y-109524800D01*
X64502200Y-108088600D02*
X65938400Y-109524800D01*
D33*
X169565500Y-62847600D02*
X167851000Y-64562100D01*
X169565500Y-59609100D02*
X169565500Y-62847600D01*
X128735000Y-62454970D02*
X128735000Y-66086100D01*
X127020500Y-60740470D02*
X128735000Y-62454970D01*
X127020500Y-59609100D02*
X127020500Y-60740470D01*
X161882000Y-54465600D02*
X167025500Y-59609100D01*
X159342000Y-54465600D02*
X161882000Y-54465600D01*
X132037000Y-57132600D02*
X129560500Y-59609100D01*
X137244000Y-57132600D02*
X132037000Y-57132600D01*
D37*
G36*
X117329000Y-111032460D02*
X110598000Y-111032460D01*
X110598000Y-102205960D01*
X110588333Y-102157359D01*
X110560803Y-102116157D01*
X106534000Y-98089354D01*
X106534000Y-95665460D01*
X117329000Y-95665460D01*
X117329000Y-111032460D01*
X117329000Y-111032460D01*
G37*
X117329000Y-111032460D02*
X110598000Y-111032460D01*
X110598000Y-102205960D01*
X110588333Y-102157359D01*
X110560803Y-102116157D01*
X106534000Y-98089354D01*
X106534000Y-95665460D01*
X117329000Y-95665460D01*
X117329000Y-111032460D01*
G36*
X118599000Y-74900960D02*
X22587000Y-74900960D01*
X22587000Y-73182420D01*
X24982285Y-73182420D01*
X25111533Y-73475223D01*
X25811806Y-73743488D01*
X26561435Y-73723350D01*
X27160467Y-73475223D01*
X27289715Y-73182420D01*
X26136000Y-72028705D01*
X24982285Y-73182420D01*
X22587000Y-73182420D01*
X22587000Y-71524906D01*
X24241612Y-71524906D01*
X24261750Y-72274535D01*
X24509877Y-72873567D01*
X24802680Y-73002815D01*
X25956395Y-71849100D01*
X26315605Y-71849100D01*
X27469320Y-73002815D01*
X27762123Y-72873567D01*
X28030388Y-72173294D01*
X28011607Y-71474150D01*
X31751000Y-71474150D01*
X31751000Y-72224050D01*
X32037974Y-72916867D01*
X32568233Y-73447126D01*
X33261050Y-73734100D01*
X34010950Y-73734100D01*
X34703767Y-73447126D01*
X35234026Y-72916867D01*
X35521000Y-72224050D01*
X35521000Y-71618600D01*
X39880060Y-71618600D01*
X39880060Y-72168600D01*
X39950277Y-72521603D01*
X40150236Y-72820864D01*
X40449497Y-73020823D01*
X40802500Y-73091040D01*
X41950060Y-73091040D01*
X41950060Y-73713600D01*
X41999343Y-73961365D01*
X42139691Y-74171409D01*
X42349735Y-74311757D01*
X42597500Y-74361040D01*
X44397500Y-74361040D01*
X44645265Y-74311757D01*
X44855309Y-74171409D01*
X44995657Y-73961365D01*
X45044940Y-73713600D01*
X45044940Y-72613600D01*
X44995657Y-72365835D01*
X44855309Y-72155791D01*
X44645265Y-72015443D01*
X44397500Y-71966160D01*
X42974940Y-71966160D01*
X42974940Y-71821040D01*
X44122500Y-71821040D01*
X44475503Y-71750823D01*
X44774764Y-71550864D01*
X44974723Y-71251603D01*
X45044940Y-70898600D01*
X45044940Y-70348600D01*
X44974723Y-69995597D01*
X44774764Y-69696336D01*
X44475503Y-69496377D01*
X44122500Y-69426160D01*
X42872500Y-69426160D01*
X42519497Y-69496377D01*
X42395000Y-69579563D01*
X42395000Y-66560996D01*
X42726534Y-66229462D01*
X42780394Y-66099432D01*
X43015423Y-66451177D01*
X43490091Y-66768340D01*
X43908667Y-66851600D01*
X44191333Y-66851600D01*
X44609909Y-66768340D01*
X45084577Y-66451177D01*
X45401740Y-65976509D01*
X45513113Y-65416600D01*
X45401740Y-64856691D01*
X45084577Y-64382023D01*
X44609909Y-64064860D01*
X44191333Y-63981600D01*
X43908667Y-63981600D01*
X43490091Y-64064860D01*
X43015423Y-64382023D01*
X42780394Y-64733768D01*
X42726534Y-64603738D01*
X42322862Y-64200066D01*
X41795439Y-63981600D01*
X41224561Y-63981600D01*
X40697138Y-64200066D01*
X40293466Y-64603738D01*
X40075000Y-65131161D01*
X40075000Y-65702039D01*
X40293466Y-66229462D01*
X40625001Y-66560997D01*
X40625000Y-70731467D01*
X40449497Y-70766377D01*
X40150236Y-70966336D01*
X39950277Y-71265597D01*
X39880060Y-71618600D01*
X35521000Y-71618600D01*
X35521000Y-71474150D01*
X35234026Y-70781333D01*
X34703767Y-70251074D01*
X34671000Y-70237501D01*
X34671000Y-67115310D01*
X34714869Y-67071441D01*
X34798620Y-67088100D01*
X35140380Y-67088100D01*
X35646463Y-66987434D01*
X36220365Y-66603965D01*
X36603834Y-66030063D01*
X36738490Y-65353100D01*
X36603834Y-64676137D01*
X36220365Y-64102235D01*
X35646463Y-63718766D01*
X35140380Y-63618100D01*
X34798620Y-63618100D01*
X34292537Y-63718766D01*
X33718635Y-64102235D01*
X33335166Y-64676137D01*
X33200510Y-65353100D01*
X33251159Y-65607731D01*
X32976225Y-65882665D01*
X32889808Y-65940407D01*
X32832066Y-66026824D01*
X32661052Y-66282764D01*
X32580724Y-66686600D01*
X32601001Y-66788539D01*
X32601000Y-70237501D01*
X32568233Y-70251074D01*
X32037974Y-70781333D01*
X31751000Y-71474150D01*
X28011607Y-71474150D01*
X28010250Y-71423665D01*
X27762123Y-70824633D01*
X27469320Y-70695385D01*
X26315605Y-71849100D01*
X25956395Y-71849100D01*
X24802680Y-70695385D01*
X24509877Y-70824633D01*
X24241612Y-71524906D01*
X22587000Y-71524906D01*
X22587000Y-70515780D01*
X24982285Y-70515780D01*
X26136000Y-71669495D01*
X27289715Y-70515780D01*
X27160467Y-70222977D01*
X26460194Y-69954712D01*
X25710565Y-69974850D01*
X25111533Y-70222977D01*
X24982285Y-70515780D01*
X22587000Y-70515780D01*
X22587000Y-65638850D01*
X23074500Y-65638850D01*
X23074500Y-66579410D01*
X23171173Y-66812799D01*
X23349802Y-66991427D01*
X23583191Y-67088100D01*
X24523750Y-67088100D01*
X24682500Y-66929350D01*
X24682500Y-65480100D01*
X24936500Y-65480100D01*
X24936500Y-66929350D01*
X25095250Y-67088100D01*
X26035809Y-67088100D01*
X26269198Y-66991427D01*
X26447827Y-66812799D01*
X26544500Y-66579410D01*
X26544500Y-65638850D01*
X26385750Y-65480100D01*
X24936500Y-65480100D01*
X24682500Y-65480100D01*
X23233250Y-65480100D01*
X23074500Y-65638850D01*
X22587000Y-65638850D01*
X22587000Y-64126790D01*
X23074500Y-64126790D01*
X23074500Y-65067350D01*
X23233250Y-65226100D01*
X24682500Y-65226100D01*
X24682500Y-63776850D01*
X24936500Y-63776850D01*
X24936500Y-65226100D01*
X26385750Y-65226100D01*
X26544500Y-65067350D01*
X26544500Y-64126790D01*
X26447827Y-63893401D01*
X26269198Y-63714773D01*
X26035809Y-63618100D01*
X25095250Y-63618100D01*
X24936500Y-63776850D01*
X24682500Y-63776850D01*
X24523750Y-63618100D01*
X23583191Y-63618100D01*
X23349802Y-63714773D01*
X23171173Y-63893401D01*
X23074500Y-64126790D01*
X22587000Y-64126790D01*
X22587000Y-63407460D01*
X47038500Y-63407460D01*
X47038500Y-64282079D01*
X46888923Y-64382023D01*
X46571760Y-64856691D01*
X46460387Y-65416600D01*
X46571760Y-65976509D01*
X46888923Y-66451177D01*
X47363591Y-66768340D01*
X47782167Y-66851600D01*
X48064833Y-66851600D01*
X48483409Y-66768340D01*
X48958077Y-66451177D01*
X49193106Y-66099432D01*
X49246966Y-66229462D01*
X49578501Y-66560997D01*
X49578500Y-69466439D01*
X49376000Y-69426160D01*
X47576000Y-69426160D01*
X47328235Y-69475443D01*
X47118191Y-69615791D01*
X46977843Y-69825835D01*
X46928560Y-70073600D01*
X46928560Y-71173600D01*
X46977843Y-71421365D01*
X47118191Y-71631409D01*
X47328235Y-71771757D01*
X47576000Y-71821040D01*
X48998560Y-71821040D01*
X48998560Y-71966160D01*
X47851000Y-71966160D01*
X47497997Y-72036377D01*
X47198736Y-72236336D01*
X46998777Y-72535597D01*
X46928560Y-72888600D01*
X46928560Y-73438600D01*
X46998777Y-73791603D01*
X47198736Y-74090864D01*
X47497997Y-74290823D01*
X47851000Y-74361040D01*
X49101000Y-74361040D01*
X49454003Y-74290823D01*
X49753264Y-74090864D01*
X49953223Y-73791603D01*
X50023440Y-73438600D01*
X50023440Y-73091040D01*
X51171000Y-73091040D01*
X51524003Y-73020823D01*
X51823264Y-72820864D01*
X52023223Y-72521603D01*
X52093440Y-72168600D01*
X52093440Y-71618600D01*
X52023223Y-71265597D01*
X51823264Y-70966336D01*
X51524003Y-70766377D01*
X51348500Y-70731467D01*
X51348500Y-66560996D01*
X51680034Y-66229462D01*
X51898500Y-65702039D01*
X51898500Y-65353100D01*
X55425510Y-65353100D01*
X55560166Y-66030063D01*
X55943635Y-66603965D01*
X56159500Y-66748202D01*
X56159501Y-70547661D01*
X56139224Y-70649600D01*
X56219552Y-71053436D01*
X56338057Y-71230791D01*
X56448308Y-71395793D01*
X56534725Y-71453535D01*
X56586073Y-71504883D01*
X56572500Y-71537650D01*
X56572500Y-72287550D01*
X56859474Y-72980367D01*
X57389733Y-73510626D01*
X58082550Y-73797600D01*
X58832450Y-73797600D01*
X59525267Y-73510626D01*
X59789973Y-73245920D01*
X64803785Y-73245920D01*
X64933033Y-73538723D01*
X65633306Y-73806988D01*
X66382935Y-73786850D01*
X66981967Y-73538723D01*
X67111215Y-73245920D01*
X74321785Y-73245920D01*
X74451033Y-73538723D01*
X75151306Y-73806988D01*
X75900935Y-73786850D01*
X76499967Y-73538723D01*
X76629215Y-73245920D01*
X75475500Y-72092205D01*
X74321785Y-73245920D01*
X67111215Y-73245920D01*
X65957500Y-72092205D01*
X64803785Y-73245920D01*
X59789973Y-73245920D01*
X60055526Y-72980367D01*
X60342500Y-72287550D01*
X60342500Y-71588406D01*
X64063112Y-71588406D01*
X64083250Y-72338035D01*
X64331377Y-72937067D01*
X64624180Y-73066315D01*
X65777895Y-71912600D01*
X66137105Y-71912600D01*
X67290820Y-73066315D01*
X67583623Y-72937067D01*
X67851888Y-72236794D01*
X67834470Y-71588406D01*
X73581112Y-71588406D01*
X73601250Y-72338035D01*
X73849377Y-72937067D01*
X74142180Y-73066315D01*
X75295895Y-71912600D01*
X75655105Y-71912600D01*
X76808820Y-73066315D01*
X77101623Y-72937067D01*
X77369888Y-72236794D01*
X77351107Y-71537650D01*
X81090500Y-71537650D01*
X81090500Y-72287550D01*
X81377474Y-72980367D01*
X81907733Y-73510626D01*
X82600550Y-73797600D01*
X83350450Y-73797600D01*
X84043267Y-73510626D01*
X84573526Y-72980367D01*
X84860500Y-72287550D01*
X84860500Y-71537650D01*
X84573526Y-70844833D01*
X84043267Y-70314574D01*
X84010500Y-70301001D01*
X84010500Y-67115310D01*
X84054369Y-67071441D01*
X84138120Y-67088100D01*
X84479880Y-67088100D01*
X84985963Y-66987434D01*
X85559865Y-66603965D01*
X85943334Y-66030063D01*
X86077990Y-65353100D01*
X86069907Y-65312460D01*
X89132387Y-65312460D01*
X89243760Y-65872369D01*
X89560923Y-66347037D01*
X90035591Y-66664200D01*
X90454167Y-66747460D01*
X90501235Y-66747460D01*
X90460348Y-66808651D01*
X90391663Y-67153960D01*
X90409001Y-67241125D01*
X90409000Y-70696160D01*
X90269000Y-70696160D01*
X89915997Y-70766377D01*
X89616736Y-70966336D01*
X89416777Y-71265597D01*
X89346560Y-71618600D01*
X89346560Y-72168600D01*
X89416777Y-72521603D01*
X89616736Y-72820864D01*
X89915997Y-73020823D01*
X90269000Y-73091040D01*
X91416560Y-73091040D01*
X91416560Y-73713600D01*
X91465843Y-73961365D01*
X91606191Y-74171409D01*
X91816235Y-74311757D01*
X92064000Y-74361040D01*
X93864000Y-74361040D01*
X94111765Y-74311757D01*
X94321809Y-74171409D01*
X94462157Y-73961365D01*
X94511440Y-73713600D01*
X94511440Y-72613600D01*
X94462157Y-72365835D01*
X94321809Y-72155791D01*
X94111765Y-72015443D01*
X93864000Y-71966160D01*
X92441440Y-71966160D01*
X92441440Y-71821040D01*
X93589000Y-71821040D01*
X93942003Y-71750823D01*
X94241264Y-71550864D01*
X94441223Y-71251603D01*
X94511440Y-70898600D01*
X94511440Y-70348600D01*
X94441223Y-69995597D01*
X94241264Y-69696336D01*
X93942003Y-69496377D01*
X93589000Y-69426160D01*
X92339000Y-69426160D01*
X92179000Y-69457986D01*
X92179000Y-67520538D01*
X92952079Y-66747460D01*
X93420939Y-66747460D01*
X93948362Y-66528994D01*
X94352034Y-66125322D01*
X94570500Y-65597899D01*
X94570500Y-65340400D01*
X95926887Y-65340400D01*
X96038260Y-65900309D01*
X96355423Y-66374977D01*
X96830091Y-66692140D01*
X97248667Y-66775400D01*
X97531333Y-66775400D01*
X97949909Y-66692140D01*
X98424577Y-66374977D01*
X98659606Y-66023232D01*
X98713466Y-66153262D01*
X99045001Y-66484797D01*
X99045000Y-69466439D01*
X98842500Y-69426160D01*
X97042500Y-69426160D01*
X96794735Y-69475443D01*
X96584691Y-69615791D01*
X96444343Y-69825835D01*
X96395060Y-70073600D01*
X96395060Y-71173600D01*
X96444343Y-71421365D01*
X96584691Y-71631409D01*
X96794735Y-71771757D01*
X97042500Y-71821040D01*
X98465060Y-71821040D01*
X98465060Y-71966160D01*
X97317500Y-71966160D01*
X96964497Y-72036377D01*
X96665236Y-72236336D01*
X96465277Y-72535597D01*
X96395060Y-72888600D01*
X96395060Y-73438600D01*
X96465277Y-73791603D01*
X96665236Y-74090864D01*
X96964497Y-74290823D01*
X97317500Y-74361040D01*
X98567500Y-74361040D01*
X98920503Y-74290823D01*
X99219764Y-74090864D01*
X99419723Y-73791603D01*
X99489940Y-73438600D01*
X99489940Y-73245920D01*
X106643285Y-73245920D01*
X106772533Y-73538723D01*
X107472806Y-73806988D01*
X108222435Y-73786850D01*
X108821467Y-73538723D01*
X108950715Y-73245920D01*
X107797000Y-72092205D01*
X106643285Y-73245920D01*
X99489940Y-73245920D01*
X99489940Y-73091040D01*
X100637500Y-73091040D01*
X100990503Y-73020823D01*
X101289764Y-72820864D01*
X101489723Y-72521603D01*
X101559940Y-72168600D01*
X101559940Y-71618600D01*
X101553935Y-71588406D01*
X105902612Y-71588406D01*
X105922750Y-72338035D01*
X106170877Y-72937067D01*
X106463680Y-73066315D01*
X107617395Y-71912600D01*
X107976605Y-71912600D01*
X109130320Y-73066315D01*
X109423123Y-72937067D01*
X109691388Y-72236794D01*
X109672607Y-71537650D01*
X113412000Y-71537650D01*
X113412000Y-72287550D01*
X113698974Y-72980367D01*
X114229233Y-73510626D01*
X114922050Y-73797600D01*
X115671950Y-73797600D01*
X116364767Y-73510626D01*
X116895026Y-72980367D01*
X117182000Y-72287550D01*
X117182000Y-71537650D01*
X116895026Y-70844833D01*
X116364767Y-70314574D01*
X115671950Y-70027600D01*
X114922050Y-70027600D01*
X114229233Y-70314574D01*
X113698974Y-70844833D01*
X113412000Y-71537650D01*
X109672607Y-71537650D01*
X109671250Y-71487165D01*
X109423123Y-70888133D01*
X109130320Y-70758885D01*
X107976605Y-71912600D01*
X107617395Y-71912600D01*
X106463680Y-70758885D01*
X106170877Y-70888133D01*
X105902612Y-71588406D01*
X101553935Y-71588406D01*
X101489723Y-71265597D01*
X101289764Y-70966336D01*
X100990503Y-70766377D01*
X100815000Y-70731467D01*
X100815000Y-70579280D01*
X106643285Y-70579280D01*
X107797000Y-71732995D01*
X108950715Y-70579280D01*
X108821467Y-70286477D01*
X108121194Y-70018212D01*
X107371565Y-70038350D01*
X106772533Y-70286477D01*
X106643285Y-70579280D01*
X100815000Y-70579280D01*
X100815000Y-66484796D01*
X101146534Y-66153262D01*
X101359610Y-65638850D01*
X104608500Y-65638850D01*
X104608500Y-66579410D01*
X104705173Y-66812799D01*
X104883802Y-66991427D01*
X105117191Y-67088100D01*
X106057750Y-67088100D01*
X106216500Y-66929350D01*
X106216500Y-65480100D01*
X106470500Y-65480100D01*
X106470500Y-66929350D01*
X106629250Y-67088100D01*
X107569809Y-67088100D01*
X107803198Y-66991427D01*
X107981827Y-66812799D01*
X108078500Y-66579410D01*
X108078500Y-65638850D01*
X107919750Y-65480100D01*
X106470500Y-65480100D01*
X106216500Y-65480100D01*
X104767250Y-65480100D01*
X104608500Y-65638850D01*
X101359610Y-65638850D01*
X101365000Y-65625839D01*
X101365000Y-65353100D01*
X114734510Y-65353100D01*
X114869166Y-66030063D01*
X115252635Y-66603965D01*
X115826537Y-66987434D01*
X116332620Y-67088100D01*
X116674380Y-67088100D01*
X117180463Y-66987434D01*
X117754365Y-66603965D01*
X118137834Y-66030063D01*
X118272490Y-65353100D01*
X118137834Y-64676137D01*
X117754365Y-64102235D01*
X117180463Y-63718766D01*
X116674380Y-63618100D01*
X116332620Y-63618100D01*
X115826537Y-63718766D01*
X115252635Y-64102235D01*
X114869166Y-64676137D01*
X114734510Y-65353100D01*
X101365000Y-65353100D01*
X101365000Y-65054961D01*
X101146534Y-64527538D01*
X100745786Y-64126790D01*
X104608500Y-64126790D01*
X104608500Y-65067350D01*
X104767250Y-65226100D01*
X106216500Y-65226100D01*
X106216500Y-63776850D01*
X106470500Y-63776850D01*
X106470500Y-65226100D01*
X107919750Y-65226100D01*
X108078500Y-65067350D01*
X108078500Y-64126790D01*
X107981827Y-63893401D01*
X107803198Y-63714773D01*
X107569809Y-63618100D01*
X106629250Y-63618100D01*
X106470500Y-63776850D01*
X106216500Y-63776850D01*
X106057750Y-63618100D01*
X105117191Y-63618100D01*
X104883802Y-63714773D01*
X104705173Y-63893401D01*
X104608500Y-64126790D01*
X100745786Y-64126790D01*
X100742862Y-64123866D01*
X100215439Y-63905400D01*
X99644561Y-63905400D01*
X99117138Y-64123866D01*
X98713466Y-64527538D01*
X98659606Y-64657568D01*
X98424577Y-64305823D01*
X97949909Y-63988660D01*
X97531333Y-63905400D01*
X97248667Y-63905400D01*
X96830091Y-63988660D01*
X96355423Y-64305823D01*
X96038260Y-64780491D01*
X95926887Y-65340400D01*
X94570500Y-65340400D01*
X94570500Y-65027021D01*
X94352034Y-64499598D01*
X93948362Y-64095926D01*
X93420939Y-63877460D01*
X92850061Y-63877460D01*
X92322638Y-64095926D01*
X91918966Y-64499598D01*
X91865106Y-64629628D01*
X91630077Y-64277883D01*
X91155409Y-63960720D01*
X90736833Y-63877460D01*
X90454167Y-63877460D01*
X90035591Y-63960720D01*
X89560923Y-64277883D01*
X89243760Y-64752551D01*
X89132387Y-65312460D01*
X86069907Y-65312460D01*
X85943334Y-64676137D01*
X85559865Y-64102235D01*
X84985963Y-63718766D01*
X84479880Y-63618100D01*
X84138120Y-63618100D01*
X83632037Y-63718766D01*
X83058135Y-64102235D01*
X82674666Y-64676137D01*
X82540010Y-65353100D01*
X82590659Y-65607731D01*
X82315725Y-65882665D01*
X82229308Y-65940407D01*
X82171566Y-66026824D01*
X82000552Y-66282764D01*
X81920224Y-66686600D01*
X81940501Y-66788539D01*
X81940500Y-70301001D01*
X81907733Y-70314574D01*
X81377474Y-70844833D01*
X81090500Y-71537650D01*
X77351107Y-71537650D01*
X77349750Y-71487165D01*
X77101623Y-70888133D01*
X76808820Y-70758885D01*
X75655105Y-71912600D01*
X75295895Y-71912600D01*
X74142180Y-70758885D01*
X73849377Y-70888133D01*
X73581112Y-71588406D01*
X67834470Y-71588406D01*
X67831750Y-71487165D01*
X67583623Y-70888133D01*
X67290820Y-70758885D01*
X66137105Y-71912600D01*
X65777895Y-71912600D01*
X64624180Y-70758885D01*
X64331377Y-70888133D01*
X64063112Y-71588406D01*
X60342500Y-71588406D01*
X60342500Y-71537650D01*
X60055526Y-70844833D01*
X59789973Y-70579280D01*
X64803785Y-70579280D01*
X65957500Y-71732995D01*
X67111215Y-70579280D01*
X74321785Y-70579280D01*
X75475500Y-71732995D01*
X76629215Y-70579280D01*
X76499967Y-70286477D01*
X75799694Y-70018212D01*
X75050065Y-70038350D01*
X74451033Y-70286477D01*
X74321785Y-70579280D01*
X67111215Y-70579280D01*
X66981967Y-70286477D01*
X66281694Y-70018212D01*
X65532065Y-70038350D01*
X64933033Y-70286477D01*
X64803785Y-70579280D01*
X59789973Y-70579280D01*
X59525267Y-70314574D01*
X58832450Y-70027600D01*
X58229500Y-70027600D01*
X58229500Y-66748201D01*
X58445365Y-66603965D01*
X58828834Y-66030063D01*
X58906650Y-65638850D01*
X65619500Y-65638850D01*
X65619500Y-66579410D01*
X65716173Y-66812799D01*
X65894802Y-66991427D01*
X66128191Y-67088100D01*
X67068750Y-67088100D01*
X67227500Y-66929350D01*
X67227500Y-65480100D01*
X67481500Y-65480100D01*
X67481500Y-66929350D01*
X67640250Y-67088100D01*
X68580809Y-67088100D01*
X68814198Y-66991427D01*
X68992827Y-66812799D01*
X69089500Y-66579410D01*
X69089500Y-65638850D01*
X72414000Y-65638850D01*
X72414000Y-66579410D01*
X72510673Y-66812799D01*
X72689302Y-66991427D01*
X72922691Y-67088100D01*
X73863250Y-67088100D01*
X74022000Y-66929350D01*
X74022000Y-65480100D01*
X74276000Y-65480100D01*
X74276000Y-66929350D01*
X74434750Y-67088100D01*
X75375309Y-67088100D01*
X75608698Y-66991427D01*
X75787327Y-66812799D01*
X75884000Y-66579410D01*
X75884000Y-65638850D01*
X75725250Y-65480100D01*
X74276000Y-65480100D01*
X74022000Y-65480100D01*
X72572750Y-65480100D01*
X72414000Y-65638850D01*
X69089500Y-65638850D01*
X68930750Y-65480100D01*
X67481500Y-65480100D01*
X67227500Y-65480100D01*
X65778250Y-65480100D01*
X65619500Y-65638850D01*
X58906650Y-65638850D01*
X58963490Y-65353100D01*
X58828834Y-64676137D01*
X58461773Y-64126790D01*
X65619500Y-64126790D01*
X65619500Y-65067350D01*
X65778250Y-65226100D01*
X67227500Y-65226100D01*
X67227500Y-63776850D01*
X67481500Y-63776850D01*
X67481500Y-65226100D01*
X68930750Y-65226100D01*
X69089500Y-65067350D01*
X69089500Y-64126790D01*
X72414000Y-64126790D01*
X72414000Y-65067350D01*
X72572750Y-65226100D01*
X74022000Y-65226100D01*
X74022000Y-63776850D01*
X74276000Y-63776850D01*
X74276000Y-65226100D01*
X75725250Y-65226100D01*
X75884000Y-65067350D01*
X75884000Y-64126790D01*
X75787327Y-63893401D01*
X75608698Y-63714773D01*
X75375309Y-63618100D01*
X74434750Y-63618100D01*
X74276000Y-63776850D01*
X74022000Y-63776850D01*
X73863250Y-63618100D01*
X72922691Y-63618100D01*
X72689302Y-63714773D01*
X72510673Y-63893401D01*
X72414000Y-64126790D01*
X69089500Y-64126790D01*
X68992827Y-63893401D01*
X68814198Y-63714773D01*
X68580809Y-63618100D01*
X67640250Y-63618100D01*
X67481500Y-63776850D01*
X67227500Y-63776850D01*
X67068750Y-63618100D01*
X66128191Y-63618100D01*
X65894802Y-63714773D01*
X65716173Y-63893401D01*
X65619500Y-64126790D01*
X58461773Y-64126790D01*
X58445365Y-64102235D01*
X57871463Y-63718766D01*
X57365380Y-63618100D01*
X57023620Y-63618100D01*
X56517537Y-63718766D01*
X55943635Y-64102235D01*
X55560166Y-64676137D01*
X55425510Y-65353100D01*
X51898500Y-65353100D01*
X51898500Y-65131161D01*
X51680034Y-64603738D01*
X51276362Y-64200066D01*
X50748939Y-63981600D01*
X50178061Y-63981600D01*
X49650638Y-64200066D01*
X49246966Y-64603738D01*
X49193106Y-64733768D01*
X48958077Y-64382023D01*
X48808500Y-64282079D01*
X48808500Y-63407460D01*
X98152000Y-63407460D01*
X98200601Y-63397793D01*
X98241803Y-63370263D01*
X103148716Y-58463350D01*
X103629000Y-58463350D01*
X103629000Y-59256409D01*
X103725673Y-59489798D01*
X103904301Y-59668427D01*
X104137690Y-59765100D01*
X104978250Y-59765100D01*
X105137000Y-59606350D01*
X105137000Y-58304600D01*
X105391000Y-58304600D01*
X105391000Y-59606350D01*
X105549750Y-59765100D01*
X106390310Y-59765100D01*
X106623699Y-59668427D01*
X106802327Y-59489798D01*
X106899000Y-59256409D01*
X106899000Y-58463350D01*
X111765000Y-58463350D01*
X111765000Y-59803909D01*
X111861673Y-60037298D01*
X112040301Y-60215927D01*
X112273690Y-60312600D01*
X113614250Y-60312600D01*
X113773000Y-60153850D01*
X113773000Y-58304600D01*
X114027000Y-58304600D01*
X114027000Y-60153850D01*
X114185750Y-60312600D01*
X115526310Y-60312600D01*
X115759699Y-60215927D01*
X115938327Y-60037298D01*
X116035000Y-59803909D01*
X116035000Y-58463350D01*
X115876250Y-58304600D01*
X114027000Y-58304600D01*
X113773000Y-58304600D01*
X111923750Y-58304600D01*
X111765000Y-58463350D01*
X106899000Y-58463350D01*
X106740250Y-58304600D01*
X105391000Y-58304600D01*
X105137000Y-58304600D01*
X103787750Y-58304600D01*
X103629000Y-58463350D01*
X103148716Y-58463350D01*
X103538606Y-58073460D01*
X106788000Y-58073460D01*
X106836601Y-58063793D01*
X106877803Y-58036263D01*
X108362775Y-56551291D01*
X111765000Y-56551291D01*
X111765000Y-57891850D01*
X111923750Y-58050600D01*
X113773000Y-58050600D01*
X113773000Y-56201350D01*
X114027000Y-56201350D01*
X114027000Y-58050600D01*
X115876250Y-58050600D01*
X116035000Y-57891850D01*
X116035000Y-56551291D01*
X115938327Y-56317902D01*
X115759699Y-56139273D01*
X115526310Y-56042600D01*
X114185750Y-56042600D01*
X114027000Y-56201350D01*
X113773000Y-56201350D01*
X113614250Y-56042600D01*
X112273690Y-56042600D01*
X112040301Y-56139273D01*
X111861673Y-56317902D01*
X111765000Y-56551291D01*
X108362775Y-56551291D01*
X109126606Y-55787460D01*
X118599000Y-55787460D01*
X118599000Y-74900960D01*
X118599000Y-74900960D01*
G37*
X118599000Y-74900960D02*
X22587000Y-74900960D01*
X22587000Y-73182420D01*
X24982285Y-73182420D01*
X25111533Y-73475223D01*
X25811806Y-73743488D01*
X26561435Y-73723350D01*
X27160467Y-73475223D01*
X27289715Y-73182420D01*
X26136000Y-72028705D01*
X24982285Y-73182420D01*
X22587000Y-73182420D01*
X22587000Y-71524906D01*
X24241612Y-71524906D01*
X24261750Y-72274535D01*
X24509877Y-72873567D01*
X24802680Y-73002815D01*
X25956395Y-71849100D01*
X26315605Y-71849100D01*
X27469320Y-73002815D01*
X27762123Y-72873567D01*
X28030388Y-72173294D01*
X28011607Y-71474150D01*
X31751000Y-71474150D01*
X31751000Y-72224050D01*
X32037974Y-72916867D01*
X32568233Y-73447126D01*
X33261050Y-73734100D01*
X34010950Y-73734100D01*
X34703767Y-73447126D01*
X35234026Y-72916867D01*
X35521000Y-72224050D01*
X35521000Y-71618600D01*
X39880060Y-71618600D01*
X39880060Y-72168600D01*
X39950277Y-72521603D01*
X40150236Y-72820864D01*
X40449497Y-73020823D01*
X40802500Y-73091040D01*
X41950060Y-73091040D01*
X41950060Y-73713600D01*
X41999343Y-73961365D01*
X42139691Y-74171409D01*
X42349735Y-74311757D01*
X42597500Y-74361040D01*
X44397500Y-74361040D01*
X44645265Y-74311757D01*
X44855309Y-74171409D01*
X44995657Y-73961365D01*
X45044940Y-73713600D01*
X45044940Y-72613600D01*
X44995657Y-72365835D01*
X44855309Y-72155791D01*
X44645265Y-72015443D01*
X44397500Y-71966160D01*
X42974940Y-71966160D01*
X42974940Y-71821040D01*
X44122500Y-71821040D01*
X44475503Y-71750823D01*
X44774764Y-71550864D01*
X44974723Y-71251603D01*
X45044940Y-70898600D01*
X45044940Y-70348600D01*
X44974723Y-69995597D01*
X44774764Y-69696336D01*
X44475503Y-69496377D01*
X44122500Y-69426160D01*
X42872500Y-69426160D01*
X42519497Y-69496377D01*
X42395000Y-69579563D01*
X42395000Y-66560996D01*
X42726534Y-66229462D01*
X42780394Y-66099432D01*
X43015423Y-66451177D01*
X43490091Y-66768340D01*
X43908667Y-66851600D01*
X44191333Y-66851600D01*
X44609909Y-66768340D01*
X45084577Y-66451177D01*
X45401740Y-65976509D01*
X45513113Y-65416600D01*
X45401740Y-64856691D01*
X45084577Y-64382023D01*
X44609909Y-64064860D01*
X44191333Y-63981600D01*
X43908667Y-63981600D01*
X43490091Y-64064860D01*
X43015423Y-64382023D01*
X42780394Y-64733768D01*
X42726534Y-64603738D01*
X42322862Y-64200066D01*
X41795439Y-63981600D01*
X41224561Y-63981600D01*
X40697138Y-64200066D01*
X40293466Y-64603738D01*
X40075000Y-65131161D01*
X40075000Y-65702039D01*
X40293466Y-66229462D01*
X40625001Y-66560997D01*
X40625000Y-70731467D01*
X40449497Y-70766377D01*
X40150236Y-70966336D01*
X39950277Y-71265597D01*
X39880060Y-71618600D01*
X35521000Y-71618600D01*
X35521000Y-71474150D01*
X35234026Y-70781333D01*
X34703767Y-70251074D01*
X34671000Y-70237501D01*
X34671000Y-67115310D01*
X34714869Y-67071441D01*
X34798620Y-67088100D01*
X35140380Y-67088100D01*
X35646463Y-66987434D01*
X36220365Y-66603965D01*
X36603834Y-66030063D01*
X36738490Y-65353100D01*
X36603834Y-64676137D01*
X36220365Y-64102235D01*
X35646463Y-63718766D01*
X35140380Y-63618100D01*
X34798620Y-63618100D01*
X34292537Y-63718766D01*
X33718635Y-64102235D01*
X33335166Y-64676137D01*
X33200510Y-65353100D01*
X33251159Y-65607731D01*
X32976225Y-65882665D01*
X32889808Y-65940407D01*
X32832066Y-66026824D01*
X32661052Y-66282764D01*
X32580724Y-66686600D01*
X32601001Y-66788539D01*
X32601000Y-70237501D01*
X32568233Y-70251074D01*
X32037974Y-70781333D01*
X31751000Y-71474150D01*
X28011607Y-71474150D01*
X28010250Y-71423665D01*
X27762123Y-70824633D01*
X27469320Y-70695385D01*
X26315605Y-71849100D01*
X25956395Y-71849100D01*
X24802680Y-70695385D01*
X24509877Y-70824633D01*
X24241612Y-71524906D01*
X22587000Y-71524906D01*
X22587000Y-70515780D01*
X24982285Y-70515780D01*
X26136000Y-71669495D01*
X27289715Y-70515780D01*
X27160467Y-70222977D01*
X26460194Y-69954712D01*
X25710565Y-69974850D01*
X25111533Y-70222977D01*
X24982285Y-70515780D01*
X22587000Y-70515780D01*
X22587000Y-65638850D01*
X23074500Y-65638850D01*
X23074500Y-66579410D01*
X23171173Y-66812799D01*
X23349802Y-66991427D01*
X23583191Y-67088100D01*
X24523750Y-67088100D01*
X24682500Y-66929350D01*
X24682500Y-65480100D01*
X24936500Y-65480100D01*
X24936500Y-66929350D01*
X25095250Y-67088100D01*
X26035809Y-67088100D01*
X26269198Y-66991427D01*
X26447827Y-66812799D01*
X26544500Y-66579410D01*
X26544500Y-65638850D01*
X26385750Y-65480100D01*
X24936500Y-65480100D01*
X24682500Y-65480100D01*
X23233250Y-65480100D01*
X23074500Y-65638850D01*
X22587000Y-65638850D01*
X22587000Y-64126790D01*
X23074500Y-64126790D01*
X23074500Y-65067350D01*
X23233250Y-65226100D01*
X24682500Y-65226100D01*
X24682500Y-63776850D01*
X24936500Y-63776850D01*
X24936500Y-65226100D01*
X26385750Y-65226100D01*
X26544500Y-65067350D01*
X26544500Y-64126790D01*
X26447827Y-63893401D01*
X26269198Y-63714773D01*
X26035809Y-63618100D01*
X25095250Y-63618100D01*
X24936500Y-63776850D01*
X24682500Y-63776850D01*
X24523750Y-63618100D01*
X23583191Y-63618100D01*
X23349802Y-63714773D01*
X23171173Y-63893401D01*
X23074500Y-64126790D01*
X22587000Y-64126790D01*
X22587000Y-63407460D01*
X47038500Y-63407460D01*
X47038500Y-64282079D01*
X46888923Y-64382023D01*
X46571760Y-64856691D01*
X46460387Y-65416600D01*
X46571760Y-65976509D01*
X46888923Y-66451177D01*
X47363591Y-66768340D01*
X47782167Y-66851600D01*
X48064833Y-66851600D01*
X48483409Y-66768340D01*
X48958077Y-66451177D01*
X49193106Y-66099432D01*
X49246966Y-66229462D01*
X49578501Y-66560997D01*
X49578500Y-69466439D01*
X49376000Y-69426160D01*
X47576000Y-69426160D01*
X47328235Y-69475443D01*
X47118191Y-69615791D01*
X46977843Y-69825835D01*
X46928560Y-70073600D01*
X46928560Y-71173600D01*
X46977843Y-71421365D01*
X47118191Y-71631409D01*
X47328235Y-71771757D01*
X47576000Y-71821040D01*
X48998560Y-71821040D01*
X48998560Y-71966160D01*
X47851000Y-71966160D01*
X47497997Y-72036377D01*
X47198736Y-72236336D01*
X46998777Y-72535597D01*
X46928560Y-72888600D01*
X46928560Y-73438600D01*
X46998777Y-73791603D01*
X47198736Y-74090864D01*
X47497997Y-74290823D01*
X47851000Y-74361040D01*
X49101000Y-74361040D01*
X49454003Y-74290823D01*
X49753264Y-74090864D01*
X49953223Y-73791603D01*
X50023440Y-73438600D01*
X50023440Y-73091040D01*
X51171000Y-73091040D01*
X51524003Y-73020823D01*
X51823264Y-72820864D01*
X52023223Y-72521603D01*
X52093440Y-72168600D01*
X52093440Y-71618600D01*
X52023223Y-71265597D01*
X51823264Y-70966336D01*
X51524003Y-70766377D01*
X51348500Y-70731467D01*
X51348500Y-66560996D01*
X51680034Y-66229462D01*
X51898500Y-65702039D01*
X51898500Y-65353100D01*
X55425510Y-65353100D01*
X55560166Y-66030063D01*
X55943635Y-66603965D01*
X56159500Y-66748202D01*
X56159501Y-70547661D01*
X56139224Y-70649600D01*
X56219552Y-71053436D01*
X56338057Y-71230791D01*
X56448308Y-71395793D01*
X56534725Y-71453535D01*
X56586073Y-71504883D01*
X56572500Y-71537650D01*
X56572500Y-72287550D01*
X56859474Y-72980367D01*
X57389733Y-73510626D01*
X58082550Y-73797600D01*
X58832450Y-73797600D01*
X59525267Y-73510626D01*
X59789973Y-73245920D01*
X64803785Y-73245920D01*
X64933033Y-73538723D01*
X65633306Y-73806988D01*
X66382935Y-73786850D01*
X66981967Y-73538723D01*
X67111215Y-73245920D01*
X74321785Y-73245920D01*
X74451033Y-73538723D01*
X75151306Y-73806988D01*
X75900935Y-73786850D01*
X76499967Y-73538723D01*
X76629215Y-73245920D01*
X75475500Y-72092205D01*
X74321785Y-73245920D01*
X67111215Y-73245920D01*
X65957500Y-72092205D01*
X64803785Y-73245920D01*
X59789973Y-73245920D01*
X60055526Y-72980367D01*
X60342500Y-72287550D01*
X60342500Y-71588406D01*
X64063112Y-71588406D01*
X64083250Y-72338035D01*
X64331377Y-72937067D01*
X64624180Y-73066315D01*
X65777895Y-71912600D01*
X66137105Y-71912600D01*
X67290820Y-73066315D01*
X67583623Y-72937067D01*
X67851888Y-72236794D01*
X67834470Y-71588406D01*
X73581112Y-71588406D01*
X73601250Y-72338035D01*
X73849377Y-72937067D01*
X74142180Y-73066315D01*
X75295895Y-71912600D01*
X75655105Y-71912600D01*
X76808820Y-73066315D01*
X77101623Y-72937067D01*
X77369888Y-72236794D01*
X77351107Y-71537650D01*
X81090500Y-71537650D01*
X81090500Y-72287550D01*
X81377474Y-72980367D01*
X81907733Y-73510626D01*
X82600550Y-73797600D01*
X83350450Y-73797600D01*
X84043267Y-73510626D01*
X84573526Y-72980367D01*
X84860500Y-72287550D01*
X84860500Y-71537650D01*
X84573526Y-70844833D01*
X84043267Y-70314574D01*
X84010500Y-70301001D01*
X84010500Y-67115310D01*
X84054369Y-67071441D01*
X84138120Y-67088100D01*
X84479880Y-67088100D01*
X84985963Y-66987434D01*
X85559865Y-66603965D01*
X85943334Y-66030063D01*
X86077990Y-65353100D01*
X86069907Y-65312460D01*
X89132387Y-65312460D01*
X89243760Y-65872369D01*
X89560923Y-66347037D01*
X90035591Y-66664200D01*
X90454167Y-66747460D01*
X90501235Y-66747460D01*
X90460348Y-66808651D01*
X90391663Y-67153960D01*
X90409001Y-67241125D01*
X90409000Y-70696160D01*
X90269000Y-70696160D01*
X89915997Y-70766377D01*
X89616736Y-70966336D01*
X89416777Y-71265597D01*
X89346560Y-71618600D01*
X89346560Y-72168600D01*
X89416777Y-72521603D01*
X89616736Y-72820864D01*
X89915997Y-73020823D01*
X90269000Y-73091040D01*
X91416560Y-73091040D01*
X91416560Y-73713600D01*
X91465843Y-73961365D01*
X91606191Y-74171409D01*
X91816235Y-74311757D01*
X92064000Y-74361040D01*
X93864000Y-74361040D01*
X94111765Y-74311757D01*
X94321809Y-74171409D01*
X94462157Y-73961365D01*
X94511440Y-73713600D01*
X94511440Y-72613600D01*
X94462157Y-72365835D01*
X94321809Y-72155791D01*
X94111765Y-72015443D01*
X93864000Y-71966160D01*
X92441440Y-71966160D01*
X92441440Y-71821040D01*
X93589000Y-71821040D01*
X93942003Y-71750823D01*
X94241264Y-71550864D01*
X94441223Y-71251603D01*
X94511440Y-70898600D01*
X94511440Y-70348600D01*
X94441223Y-69995597D01*
X94241264Y-69696336D01*
X93942003Y-69496377D01*
X93589000Y-69426160D01*
X92339000Y-69426160D01*
X92179000Y-69457986D01*
X92179000Y-67520538D01*
X92952079Y-66747460D01*
X93420939Y-66747460D01*
X93948362Y-66528994D01*
X94352034Y-66125322D01*
X94570500Y-65597899D01*
X94570500Y-65340400D01*
X95926887Y-65340400D01*
X96038260Y-65900309D01*
X96355423Y-66374977D01*
X96830091Y-66692140D01*
X97248667Y-66775400D01*
X97531333Y-66775400D01*
X97949909Y-66692140D01*
X98424577Y-66374977D01*
X98659606Y-66023232D01*
X98713466Y-66153262D01*
X99045001Y-66484797D01*
X99045000Y-69466439D01*
X98842500Y-69426160D01*
X97042500Y-69426160D01*
X96794735Y-69475443D01*
X96584691Y-69615791D01*
X96444343Y-69825835D01*
X96395060Y-70073600D01*
X96395060Y-71173600D01*
X96444343Y-71421365D01*
X96584691Y-71631409D01*
X96794735Y-71771757D01*
X97042500Y-71821040D01*
X98465060Y-71821040D01*
X98465060Y-71966160D01*
X97317500Y-71966160D01*
X96964497Y-72036377D01*
X96665236Y-72236336D01*
X96465277Y-72535597D01*
X96395060Y-72888600D01*
X96395060Y-73438600D01*
X96465277Y-73791603D01*
X96665236Y-74090864D01*
X96964497Y-74290823D01*
X97317500Y-74361040D01*
X98567500Y-74361040D01*
X98920503Y-74290823D01*
X99219764Y-74090864D01*
X99419723Y-73791603D01*
X99489940Y-73438600D01*
X99489940Y-73245920D01*
X106643285Y-73245920D01*
X106772533Y-73538723D01*
X107472806Y-73806988D01*
X108222435Y-73786850D01*
X108821467Y-73538723D01*
X108950715Y-73245920D01*
X107797000Y-72092205D01*
X106643285Y-73245920D01*
X99489940Y-73245920D01*
X99489940Y-73091040D01*
X100637500Y-73091040D01*
X100990503Y-73020823D01*
X101289764Y-72820864D01*
X101489723Y-72521603D01*
X101559940Y-72168600D01*
X101559940Y-71618600D01*
X101553935Y-71588406D01*
X105902612Y-71588406D01*
X105922750Y-72338035D01*
X106170877Y-72937067D01*
X106463680Y-73066315D01*
X107617395Y-71912600D01*
X107976605Y-71912600D01*
X109130320Y-73066315D01*
X109423123Y-72937067D01*
X109691388Y-72236794D01*
X109672607Y-71537650D01*
X113412000Y-71537650D01*
X113412000Y-72287550D01*
X113698974Y-72980367D01*
X114229233Y-73510626D01*
X114922050Y-73797600D01*
X115671950Y-73797600D01*
X116364767Y-73510626D01*
X116895026Y-72980367D01*
X117182000Y-72287550D01*
X117182000Y-71537650D01*
X116895026Y-70844833D01*
X116364767Y-70314574D01*
X115671950Y-70027600D01*
X114922050Y-70027600D01*
X114229233Y-70314574D01*
X113698974Y-70844833D01*
X113412000Y-71537650D01*
X109672607Y-71537650D01*
X109671250Y-71487165D01*
X109423123Y-70888133D01*
X109130320Y-70758885D01*
X107976605Y-71912600D01*
X107617395Y-71912600D01*
X106463680Y-70758885D01*
X106170877Y-70888133D01*
X105902612Y-71588406D01*
X101553935Y-71588406D01*
X101489723Y-71265597D01*
X101289764Y-70966336D01*
X100990503Y-70766377D01*
X100815000Y-70731467D01*
X100815000Y-70579280D01*
X106643285Y-70579280D01*
X107797000Y-71732995D01*
X108950715Y-70579280D01*
X108821467Y-70286477D01*
X108121194Y-70018212D01*
X107371565Y-70038350D01*
X106772533Y-70286477D01*
X106643285Y-70579280D01*
X100815000Y-70579280D01*
X100815000Y-66484796D01*
X101146534Y-66153262D01*
X101359610Y-65638850D01*
X104608500Y-65638850D01*
X104608500Y-66579410D01*
X104705173Y-66812799D01*
X104883802Y-66991427D01*
X105117191Y-67088100D01*
X106057750Y-67088100D01*
X106216500Y-66929350D01*
X106216500Y-65480100D01*
X106470500Y-65480100D01*
X106470500Y-66929350D01*
X106629250Y-67088100D01*
X107569809Y-67088100D01*
X107803198Y-66991427D01*
X107981827Y-66812799D01*
X108078500Y-66579410D01*
X108078500Y-65638850D01*
X107919750Y-65480100D01*
X106470500Y-65480100D01*
X106216500Y-65480100D01*
X104767250Y-65480100D01*
X104608500Y-65638850D01*
X101359610Y-65638850D01*
X101365000Y-65625839D01*
X101365000Y-65353100D01*
X114734510Y-65353100D01*
X114869166Y-66030063D01*
X115252635Y-66603965D01*
X115826537Y-66987434D01*
X116332620Y-67088100D01*
X116674380Y-67088100D01*
X117180463Y-66987434D01*
X117754365Y-66603965D01*
X118137834Y-66030063D01*
X118272490Y-65353100D01*
X118137834Y-64676137D01*
X117754365Y-64102235D01*
X117180463Y-63718766D01*
X116674380Y-63618100D01*
X116332620Y-63618100D01*
X115826537Y-63718766D01*
X115252635Y-64102235D01*
X114869166Y-64676137D01*
X114734510Y-65353100D01*
X101365000Y-65353100D01*
X101365000Y-65054961D01*
X101146534Y-64527538D01*
X100745786Y-64126790D01*
X104608500Y-64126790D01*
X104608500Y-65067350D01*
X104767250Y-65226100D01*
X106216500Y-65226100D01*
X106216500Y-63776850D01*
X106470500Y-63776850D01*
X106470500Y-65226100D01*
X107919750Y-65226100D01*
X108078500Y-65067350D01*
X108078500Y-64126790D01*
X107981827Y-63893401D01*
X107803198Y-63714773D01*
X107569809Y-63618100D01*
X106629250Y-63618100D01*
X106470500Y-63776850D01*
X106216500Y-63776850D01*
X106057750Y-63618100D01*
X105117191Y-63618100D01*
X104883802Y-63714773D01*
X104705173Y-63893401D01*
X104608500Y-64126790D01*
X100745786Y-64126790D01*
X100742862Y-64123866D01*
X100215439Y-63905400D01*
X99644561Y-63905400D01*
X99117138Y-64123866D01*
X98713466Y-64527538D01*
X98659606Y-64657568D01*
X98424577Y-64305823D01*
X97949909Y-63988660D01*
X97531333Y-63905400D01*
X97248667Y-63905400D01*
X96830091Y-63988660D01*
X96355423Y-64305823D01*
X96038260Y-64780491D01*
X95926887Y-65340400D01*
X94570500Y-65340400D01*
X94570500Y-65027021D01*
X94352034Y-64499598D01*
X93948362Y-64095926D01*
X93420939Y-63877460D01*
X92850061Y-63877460D01*
X92322638Y-64095926D01*
X91918966Y-64499598D01*
X91865106Y-64629628D01*
X91630077Y-64277883D01*
X91155409Y-63960720D01*
X90736833Y-63877460D01*
X90454167Y-63877460D01*
X90035591Y-63960720D01*
X89560923Y-64277883D01*
X89243760Y-64752551D01*
X89132387Y-65312460D01*
X86069907Y-65312460D01*
X85943334Y-64676137D01*
X85559865Y-64102235D01*
X84985963Y-63718766D01*
X84479880Y-63618100D01*
X84138120Y-63618100D01*
X83632037Y-63718766D01*
X83058135Y-64102235D01*
X82674666Y-64676137D01*
X82540010Y-65353100D01*
X82590659Y-65607731D01*
X82315725Y-65882665D01*
X82229308Y-65940407D01*
X82171566Y-66026824D01*
X82000552Y-66282764D01*
X81920224Y-66686600D01*
X81940501Y-66788539D01*
X81940500Y-70301001D01*
X81907733Y-70314574D01*
X81377474Y-70844833D01*
X81090500Y-71537650D01*
X77351107Y-71537650D01*
X77349750Y-71487165D01*
X77101623Y-70888133D01*
X76808820Y-70758885D01*
X75655105Y-71912600D01*
X75295895Y-71912600D01*
X74142180Y-70758885D01*
X73849377Y-70888133D01*
X73581112Y-71588406D01*
X67834470Y-71588406D01*
X67831750Y-71487165D01*
X67583623Y-70888133D01*
X67290820Y-70758885D01*
X66137105Y-71912600D01*
X65777895Y-71912600D01*
X64624180Y-70758885D01*
X64331377Y-70888133D01*
X64063112Y-71588406D01*
X60342500Y-71588406D01*
X60342500Y-71537650D01*
X60055526Y-70844833D01*
X59789973Y-70579280D01*
X64803785Y-70579280D01*
X65957500Y-71732995D01*
X67111215Y-70579280D01*
X74321785Y-70579280D01*
X75475500Y-71732995D01*
X76629215Y-70579280D01*
X76499967Y-70286477D01*
X75799694Y-70018212D01*
X75050065Y-70038350D01*
X74451033Y-70286477D01*
X74321785Y-70579280D01*
X67111215Y-70579280D01*
X66981967Y-70286477D01*
X66281694Y-70018212D01*
X65532065Y-70038350D01*
X64933033Y-70286477D01*
X64803785Y-70579280D01*
X59789973Y-70579280D01*
X59525267Y-70314574D01*
X58832450Y-70027600D01*
X58229500Y-70027600D01*
X58229500Y-66748201D01*
X58445365Y-66603965D01*
X58828834Y-66030063D01*
X58906650Y-65638850D01*
X65619500Y-65638850D01*
X65619500Y-66579410D01*
X65716173Y-66812799D01*
X65894802Y-66991427D01*
X66128191Y-67088100D01*
X67068750Y-67088100D01*
X67227500Y-66929350D01*
X67227500Y-65480100D01*
X67481500Y-65480100D01*
X67481500Y-66929350D01*
X67640250Y-67088100D01*
X68580809Y-67088100D01*
X68814198Y-66991427D01*
X68992827Y-66812799D01*
X69089500Y-66579410D01*
X69089500Y-65638850D01*
X72414000Y-65638850D01*
X72414000Y-66579410D01*
X72510673Y-66812799D01*
X72689302Y-66991427D01*
X72922691Y-67088100D01*
X73863250Y-67088100D01*
X74022000Y-66929350D01*
X74022000Y-65480100D01*
X74276000Y-65480100D01*
X74276000Y-66929350D01*
X74434750Y-67088100D01*
X75375309Y-67088100D01*
X75608698Y-66991427D01*
X75787327Y-66812799D01*
X75884000Y-66579410D01*
X75884000Y-65638850D01*
X75725250Y-65480100D01*
X74276000Y-65480100D01*
X74022000Y-65480100D01*
X72572750Y-65480100D01*
X72414000Y-65638850D01*
X69089500Y-65638850D01*
X68930750Y-65480100D01*
X67481500Y-65480100D01*
X67227500Y-65480100D01*
X65778250Y-65480100D01*
X65619500Y-65638850D01*
X58906650Y-65638850D01*
X58963490Y-65353100D01*
X58828834Y-64676137D01*
X58461773Y-64126790D01*
X65619500Y-64126790D01*
X65619500Y-65067350D01*
X65778250Y-65226100D01*
X67227500Y-65226100D01*
X67227500Y-63776850D01*
X67481500Y-63776850D01*
X67481500Y-65226100D01*
X68930750Y-65226100D01*
X69089500Y-65067350D01*
X69089500Y-64126790D01*
X72414000Y-64126790D01*
X72414000Y-65067350D01*
X72572750Y-65226100D01*
X74022000Y-65226100D01*
X74022000Y-63776850D01*
X74276000Y-63776850D01*
X74276000Y-65226100D01*
X75725250Y-65226100D01*
X75884000Y-65067350D01*
X75884000Y-64126790D01*
X75787327Y-63893401D01*
X75608698Y-63714773D01*
X75375309Y-63618100D01*
X74434750Y-63618100D01*
X74276000Y-63776850D01*
X74022000Y-63776850D01*
X73863250Y-63618100D01*
X72922691Y-63618100D01*
X72689302Y-63714773D01*
X72510673Y-63893401D01*
X72414000Y-64126790D01*
X69089500Y-64126790D01*
X68992827Y-63893401D01*
X68814198Y-63714773D01*
X68580809Y-63618100D01*
X67640250Y-63618100D01*
X67481500Y-63776850D01*
X67227500Y-63776850D01*
X67068750Y-63618100D01*
X66128191Y-63618100D01*
X65894802Y-63714773D01*
X65716173Y-63893401D01*
X65619500Y-64126790D01*
X58461773Y-64126790D01*
X58445365Y-64102235D01*
X57871463Y-63718766D01*
X57365380Y-63618100D01*
X57023620Y-63618100D01*
X56517537Y-63718766D01*
X55943635Y-64102235D01*
X55560166Y-64676137D01*
X55425510Y-65353100D01*
X51898500Y-65353100D01*
X51898500Y-65131161D01*
X51680034Y-64603738D01*
X51276362Y-64200066D01*
X50748939Y-63981600D01*
X50178061Y-63981600D01*
X49650638Y-64200066D01*
X49246966Y-64603738D01*
X49193106Y-64733768D01*
X48958077Y-64382023D01*
X48808500Y-64282079D01*
X48808500Y-63407460D01*
X98152000Y-63407460D01*
X98200601Y-63397793D01*
X98241803Y-63370263D01*
X103148716Y-58463350D01*
X103629000Y-58463350D01*
X103629000Y-59256409D01*
X103725673Y-59489798D01*
X103904301Y-59668427D01*
X104137690Y-59765100D01*
X104978250Y-59765100D01*
X105137000Y-59606350D01*
X105137000Y-58304600D01*
X105391000Y-58304600D01*
X105391000Y-59606350D01*
X105549750Y-59765100D01*
X106390310Y-59765100D01*
X106623699Y-59668427D01*
X106802327Y-59489798D01*
X106899000Y-59256409D01*
X106899000Y-58463350D01*
X111765000Y-58463350D01*
X111765000Y-59803909D01*
X111861673Y-60037298D01*
X112040301Y-60215927D01*
X112273690Y-60312600D01*
X113614250Y-60312600D01*
X113773000Y-60153850D01*
X113773000Y-58304600D01*
X114027000Y-58304600D01*
X114027000Y-60153850D01*
X114185750Y-60312600D01*
X115526310Y-60312600D01*
X115759699Y-60215927D01*
X115938327Y-60037298D01*
X116035000Y-59803909D01*
X116035000Y-58463350D01*
X115876250Y-58304600D01*
X114027000Y-58304600D01*
X113773000Y-58304600D01*
X111923750Y-58304600D01*
X111765000Y-58463350D01*
X106899000Y-58463350D01*
X106740250Y-58304600D01*
X105391000Y-58304600D01*
X105137000Y-58304600D01*
X103787750Y-58304600D01*
X103629000Y-58463350D01*
X103148716Y-58463350D01*
X103538606Y-58073460D01*
X106788000Y-58073460D01*
X106836601Y-58063793D01*
X106877803Y-58036263D01*
X108362775Y-56551291D01*
X111765000Y-56551291D01*
X111765000Y-57891850D01*
X111923750Y-58050600D01*
X113773000Y-58050600D01*
X113773000Y-56201350D01*
X114027000Y-56201350D01*
X114027000Y-58050600D01*
X115876250Y-58050600D01*
X116035000Y-57891850D01*
X116035000Y-56551291D01*
X115938327Y-56317902D01*
X115759699Y-56139273D01*
X115526310Y-56042600D01*
X114185750Y-56042600D01*
X114027000Y-56201350D01*
X113773000Y-56201350D01*
X113614250Y-56042600D01*
X112273690Y-56042600D01*
X112040301Y-56139273D01*
X111861673Y-56317902D01*
X111765000Y-56551291D01*
X108362775Y-56551291D01*
X109126606Y-55787460D01*
X118599000Y-55787460D01*
X118599000Y-74900960D01*
G36*
X110090000Y-49183460D02*
X110099667Y-49232061D01*
X110127197Y-49273263D01*
X110168399Y-49300793D01*
X110217000Y-49310460D01*
X118599000Y-49310460D01*
X118599000Y-54199960D01*
X115754295Y-54199960D01*
X116035000Y-53522278D01*
X116035000Y-52672922D01*
X115709966Y-51888220D01*
X115109380Y-51287634D01*
X114324678Y-50962600D01*
X113475322Y-50962600D01*
X112690620Y-51287634D01*
X112090034Y-51888220D01*
X111765000Y-52672922D01*
X111765000Y-53522278D01*
X112045705Y-54199960D01*
X106409599Y-54199960D01*
X106639973Y-53964524D01*
X106854563Y-53470580D01*
X106734594Y-53224600D01*
X105391000Y-53224600D01*
X105391000Y-53244600D01*
X105137000Y-53244600D01*
X105137000Y-53224600D01*
X103793406Y-53224600D01*
X103673437Y-53470580D01*
X103888027Y-53964524D01*
X104118401Y-54199960D01*
X103867000Y-54199960D01*
X103818399Y-54209627D01*
X103777197Y-54237157D01*
X96829394Y-61184960D01*
X49260218Y-61184960D01*
X50077562Y-60367617D01*
X50112667Y-60374600D01*
X51195333Y-60374600D01*
X51613909Y-60291340D01*
X52088577Y-59974177D01*
X52405740Y-59499509D01*
X52517113Y-58939600D01*
X52405740Y-58379691D01*
X52088577Y-57905023D01*
X51736242Y-57669600D01*
X52088577Y-57434177D01*
X52405740Y-56959509D01*
X52517113Y-56399600D01*
X52405740Y-55839691D01*
X52088577Y-55365023D01*
X51736242Y-55129600D01*
X52088577Y-54894177D01*
X52405740Y-54419509D01*
X52517113Y-53859600D01*
X52405740Y-53299691D01*
X52088577Y-52825023D01*
X51736242Y-52589600D01*
X52088577Y-52354177D01*
X52405740Y-51879509D01*
X52517113Y-51319600D01*
X52405740Y-50759691D01*
X52088577Y-50285023D01*
X51736242Y-50049600D01*
X52088577Y-49814177D01*
X52405740Y-49339509D01*
X52517113Y-48779600D01*
X52405740Y-48219691D01*
X52088577Y-47745023D01*
X51736242Y-47509600D01*
X52088577Y-47274177D01*
X52188521Y-47124600D01*
X52233062Y-47124600D01*
X52563001Y-47454540D01*
X52563000Y-54138199D01*
X52545663Y-54225360D01*
X52563000Y-54312521D01*
X52563000Y-54312524D01*
X52614348Y-54570669D01*
X52809951Y-54863409D01*
X52883847Y-54912785D01*
X54680000Y-56708939D01*
X54680000Y-57177799D01*
X54898466Y-57705222D01*
X55302138Y-58108894D01*
X55432168Y-58162754D01*
X55080423Y-58397783D01*
X54763260Y-58872451D01*
X54651887Y-59432360D01*
X54763260Y-59992269D01*
X55080423Y-60466937D01*
X55555091Y-60784100D01*
X55973667Y-60867360D01*
X56256333Y-60867360D01*
X56674909Y-60784100D01*
X57149577Y-60466937D01*
X57466740Y-59992269D01*
X57578113Y-59432360D01*
X57546494Y-59273399D01*
X59453896Y-59273399D01*
X59471433Y-59356179D01*
X59741300Y-59849256D01*
X60179317Y-60201526D01*
X60718800Y-60359360D01*
X61118800Y-60359360D01*
X61118800Y-59051360D01*
X61372800Y-59051360D01*
X61372800Y-60359360D01*
X61772800Y-60359360D01*
X62312283Y-60201526D01*
X62750300Y-59849256D01*
X63020167Y-59356179D01*
X63037704Y-59273399D01*
X62915715Y-59051360D01*
X61372800Y-59051360D01*
X61118800Y-59051360D01*
X59575885Y-59051360D01*
X59453896Y-59273399D01*
X57546494Y-59273399D01*
X57466740Y-58872451D01*
X57149577Y-58397783D01*
X56797832Y-58162754D01*
X56927862Y-58108894D01*
X57331534Y-57705222D01*
X57550000Y-57177799D01*
X57550000Y-56606921D01*
X57331534Y-56079498D01*
X56927862Y-55675826D01*
X56400439Y-55457360D01*
X55931579Y-55457360D01*
X54333000Y-53858782D01*
X54333000Y-50745560D01*
X54651887Y-50745560D01*
X54763260Y-51305469D01*
X55080423Y-51780137D01*
X55432168Y-52015166D01*
X55302138Y-52069026D01*
X54898466Y-52472698D01*
X54680000Y-53000121D01*
X54680000Y-53570999D01*
X54898466Y-54098422D01*
X55302138Y-54502094D01*
X55829561Y-54720560D01*
X56400439Y-54720560D01*
X56927862Y-54502094D01*
X57331534Y-54098422D01*
X57436770Y-53844360D01*
X59382687Y-53844360D01*
X59494060Y-54404269D01*
X59811223Y-54878937D01*
X60163558Y-55114360D01*
X59811223Y-55349783D01*
X59494060Y-55824451D01*
X59382687Y-56384360D01*
X59494060Y-56944269D01*
X59811223Y-57418937D01*
X60167299Y-57656859D01*
X59741300Y-57999464D01*
X59471433Y-58492541D01*
X59453896Y-58575321D01*
X59575885Y-58797360D01*
X61118800Y-58797360D01*
X61118800Y-58777360D01*
X61372800Y-58777360D01*
X61372800Y-58797360D01*
X62915715Y-58797360D01*
X63037704Y-58575321D01*
X63020167Y-58492541D01*
X62750300Y-57999464D01*
X62324301Y-57656859D01*
X62680377Y-57418937D01*
X62997540Y-56944269D01*
X63108913Y-56384360D01*
X62997540Y-55824451D01*
X62680377Y-55349783D01*
X62328042Y-55114360D01*
X62680377Y-54878937D01*
X62997540Y-54404269D01*
X63108913Y-53844360D01*
X67002687Y-53844360D01*
X67114060Y-54404269D01*
X67431223Y-54878937D01*
X67783558Y-55114360D01*
X67431223Y-55349783D01*
X67114060Y-55824451D01*
X67002687Y-56384360D01*
X67114060Y-56944269D01*
X67431223Y-57418937D01*
X67783558Y-57654360D01*
X67431223Y-57889783D01*
X67114060Y-58364451D01*
X67002687Y-58924360D01*
X67114060Y-59484269D01*
X67431223Y-59958937D01*
X67905891Y-60276100D01*
X68324467Y-60359360D01*
X69407133Y-60359360D01*
X69825709Y-60276100D01*
X70300377Y-59958937D01*
X70617540Y-59484269D01*
X70728913Y-58924360D01*
X70617540Y-58364451D01*
X70300377Y-57889783D01*
X69948042Y-57654360D01*
X70300377Y-57418937D01*
X70617540Y-56944269D01*
X70728913Y-56384360D01*
X70617540Y-55824451D01*
X70300377Y-55349783D01*
X69948042Y-55114360D01*
X70300377Y-54878937D01*
X70617540Y-54404269D01*
X70728913Y-53844360D01*
X70617540Y-53284451D01*
X70300377Y-52809783D01*
X69944301Y-52571861D01*
X70370300Y-52229256D01*
X70640167Y-51736179D01*
X70657704Y-51653399D01*
X70535715Y-51431360D01*
X68992800Y-51431360D01*
X68992800Y-51451360D01*
X68738800Y-51451360D01*
X68738800Y-51431360D01*
X67195885Y-51431360D01*
X67073896Y-51653399D01*
X67091433Y-51736179D01*
X67361300Y-52229256D01*
X67787299Y-52571861D01*
X67431223Y-52809783D01*
X67114060Y-53284451D01*
X67002687Y-53844360D01*
X63108913Y-53844360D01*
X62997540Y-53284451D01*
X62680377Y-52809783D01*
X62559694Y-52729145D01*
X62693565Y-52702517D01*
X62903609Y-52562169D01*
X63043957Y-52352125D01*
X63093240Y-52104360D01*
X63093240Y-50955321D01*
X67073896Y-50955321D01*
X67195885Y-51177360D01*
X68738800Y-51177360D01*
X68738800Y-49869360D01*
X68992800Y-49869360D01*
X68992800Y-51177360D01*
X70535715Y-51177360D01*
X70657704Y-50955321D01*
X70640167Y-50872541D01*
X70370300Y-50379464D01*
X69932283Y-50027194D01*
X69392800Y-49869360D01*
X68992800Y-49869360D01*
X68738800Y-49869360D01*
X68338800Y-49869360D01*
X67799317Y-50027194D01*
X67361300Y-50379464D01*
X67091433Y-50872541D01*
X67073896Y-50955321D01*
X63093240Y-50955321D01*
X63093240Y-50504360D01*
X63043957Y-50256595D01*
X62903609Y-50046551D01*
X62693565Y-49906203D01*
X62445800Y-49856920D01*
X60045800Y-49856920D01*
X59798035Y-49906203D01*
X59587991Y-50046551D01*
X59447643Y-50256595D01*
X59398360Y-50504360D01*
X59398360Y-52104360D01*
X59447643Y-52352125D01*
X59587991Y-52562169D01*
X59798035Y-52702517D01*
X59931906Y-52729145D01*
X59811223Y-52809783D01*
X59494060Y-53284451D01*
X59382687Y-53844360D01*
X57436770Y-53844360D01*
X57550000Y-53570999D01*
X57550000Y-53000121D01*
X57331534Y-52472698D01*
X56927862Y-52069026D01*
X56797832Y-52015166D01*
X57149577Y-51780137D01*
X57466740Y-51305469D01*
X57578113Y-50745560D01*
X57466740Y-50185651D01*
X57149577Y-49710983D01*
X56674909Y-49393820D01*
X56256333Y-49310560D01*
X55973667Y-49310560D01*
X55555091Y-49393820D01*
X55080423Y-49710983D01*
X54763260Y-50185651D01*
X54651887Y-50745560D01*
X54333000Y-50745560D01*
X54333000Y-47175119D01*
X54350337Y-47087959D01*
X54333000Y-47000799D01*
X54333000Y-47000795D01*
X54281652Y-46742650D01*
X54192417Y-46609101D01*
X54135424Y-46523805D01*
X54135423Y-46523804D01*
X54086049Y-46449911D01*
X54012156Y-46400537D01*
X53287065Y-45675447D01*
X53237689Y-45601551D01*
X52944950Y-45405948D01*
X52686805Y-45354600D01*
X52686801Y-45354600D01*
X52599640Y-45337263D01*
X52512479Y-45354600D01*
X52188521Y-45354600D01*
X52088577Y-45205023D01*
X51789461Y-45005160D01*
X54651887Y-45005160D01*
X54763260Y-45565069D01*
X55080423Y-46039737D01*
X55432168Y-46274766D01*
X55302138Y-46328626D01*
X54898466Y-46732298D01*
X54680000Y-47259721D01*
X54680000Y-47830599D01*
X54898466Y-48358022D01*
X55302138Y-48761694D01*
X55829561Y-48980160D01*
X56400439Y-48980160D01*
X56927862Y-48761694D01*
X57331534Y-48358022D01*
X57550000Y-47830599D01*
X57550000Y-47586121D01*
X63595400Y-47586121D01*
X63595400Y-48156999D01*
X63813866Y-48684422D01*
X64217538Y-49088094D01*
X64744961Y-49306560D01*
X65315839Y-49306560D01*
X65843262Y-49088094D01*
X66246934Y-48684422D01*
X66465400Y-48156999D01*
X66465400Y-47586121D01*
X66246934Y-47058698D01*
X65843262Y-46655026D01*
X65315839Y-46436560D01*
X64744961Y-46436560D01*
X64217538Y-46655026D01*
X63813866Y-47058698D01*
X63595400Y-47586121D01*
X57550000Y-47586121D01*
X57550000Y-47259721D01*
X57331534Y-46732298D01*
X56927862Y-46328626D01*
X56797832Y-46274766D01*
X56850461Y-46239600D01*
X72158887Y-46239600D01*
X72270260Y-46799509D01*
X72587423Y-47274177D01*
X72939758Y-47509600D01*
X72587423Y-47745023D01*
X72270260Y-48219691D01*
X72158887Y-48779600D01*
X72270260Y-49339509D01*
X72587423Y-49814177D01*
X72939758Y-50049600D01*
X72587423Y-50285023D01*
X72270260Y-50759691D01*
X72158887Y-51319600D01*
X72270260Y-51879509D01*
X72587423Y-52354177D01*
X72939758Y-52589600D01*
X72587423Y-52825023D01*
X72270260Y-53299691D01*
X72158887Y-53859600D01*
X72270260Y-54419509D01*
X72587423Y-54894177D01*
X72939758Y-55129600D01*
X72587423Y-55365023D01*
X72270260Y-55839691D01*
X72158887Y-56399600D01*
X72270260Y-56959509D01*
X72587423Y-57434177D01*
X72939758Y-57669600D01*
X72587423Y-57905023D01*
X72270260Y-58379691D01*
X72158887Y-58939600D01*
X72270260Y-59499509D01*
X72587423Y-59974177D01*
X73062091Y-60291340D01*
X73480667Y-60374600D01*
X74563333Y-60374600D01*
X74981909Y-60291340D01*
X75456577Y-59974177D01*
X75773740Y-59499509D01*
X75885113Y-58939600D01*
X75773740Y-58379691D01*
X75456577Y-57905023D01*
X75104242Y-57669600D01*
X75456577Y-57434177D01*
X75773740Y-56959509D01*
X75885113Y-56399600D01*
X75773740Y-55839691D01*
X75456577Y-55365023D01*
X75104242Y-55129600D01*
X75456577Y-54894177D01*
X75773740Y-54419509D01*
X75885113Y-53859600D01*
X75773740Y-53299691D01*
X75456577Y-52825023D01*
X75104242Y-52589600D01*
X75456577Y-52354177D01*
X75773740Y-51879509D01*
X75885113Y-51319600D01*
X75773740Y-50759691D01*
X75456577Y-50285023D01*
X75104242Y-50049600D01*
X75456577Y-49814177D01*
X75773740Y-49339509D01*
X75885113Y-48779600D01*
X75773740Y-48219691D01*
X75456577Y-47745023D01*
X75104242Y-47509600D01*
X75456577Y-47274177D01*
X75773740Y-46799509D01*
X75885113Y-46239600D01*
X79778887Y-46239600D01*
X79890260Y-46799509D01*
X80207423Y-47274177D01*
X80559758Y-47509600D01*
X80207423Y-47745023D01*
X79890260Y-48219691D01*
X79778887Y-48779600D01*
X79890260Y-49339509D01*
X80207423Y-49814177D01*
X80559758Y-50049600D01*
X80207423Y-50285023D01*
X79890260Y-50759691D01*
X79778887Y-51319600D01*
X79890260Y-51879509D01*
X80207423Y-52354177D01*
X80559758Y-52589600D01*
X80207423Y-52825023D01*
X79890260Y-53299691D01*
X79778887Y-53859600D01*
X79890260Y-54419509D01*
X80207423Y-54894177D01*
X80559758Y-55129600D01*
X80207423Y-55365023D01*
X79890260Y-55839691D01*
X79778887Y-56399600D01*
X79890260Y-56959509D01*
X80207423Y-57434177D01*
X80559758Y-57669600D01*
X80207423Y-57905023D01*
X79890260Y-58379691D01*
X79778887Y-58939600D01*
X79890260Y-59499509D01*
X80207423Y-59974177D01*
X80682091Y-60291340D01*
X81100667Y-60374600D01*
X82183333Y-60374600D01*
X82601909Y-60291340D01*
X83076577Y-59974177D01*
X83393740Y-59499509D01*
X83505113Y-58939600D01*
X83393740Y-58379691D01*
X83076577Y-57905023D01*
X82724242Y-57669600D01*
X83076577Y-57434177D01*
X83393740Y-56959509D01*
X83505113Y-56399600D01*
X83393740Y-55839691D01*
X83076577Y-55365023D01*
X82724242Y-55129600D01*
X83076577Y-54894177D01*
X83393740Y-54419509D01*
X83505113Y-53859600D01*
X83393740Y-53299691D01*
X83076577Y-52825023D01*
X82926314Y-52724620D01*
X103673437Y-52724620D01*
X103793406Y-52970600D01*
X105137000Y-52970600D01*
X105137000Y-51672028D01*
X105391000Y-51672028D01*
X105391000Y-52970600D01*
X106734594Y-52970600D01*
X106854563Y-52724620D01*
X106639973Y-52230676D01*
X106207091Y-51788282D01*
X105637864Y-51545220D01*
X105391000Y-51672028D01*
X105137000Y-51672028D01*
X104890136Y-51545220D01*
X104320909Y-51788282D01*
X103888027Y-52230676D01*
X103673437Y-52724620D01*
X82926314Y-52724620D01*
X82724242Y-52589600D01*
X83076577Y-52354177D01*
X83393740Y-51879509D01*
X83505113Y-51319600D01*
X83393740Y-50759691D01*
X83076577Y-50285023D01*
X82724242Y-50049600D01*
X83076577Y-49814177D01*
X83393740Y-49339509D01*
X83505113Y-48779600D01*
X83452948Y-48517345D01*
X94148861Y-48517345D01*
X94222995Y-48763464D01*
X94760223Y-48956565D01*
X95330454Y-48929378D01*
X95731005Y-48763464D01*
X95805139Y-48517345D01*
X94977000Y-47689205D01*
X94148861Y-48517345D01*
X83452948Y-48517345D01*
X83393740Y-48219691D01*
X83076577Y-47745023D01*
X82724242Y-47509600D01*
X83076577Y-47274177D01*
X83393740Y-46799509D01*
X83505113Y-46239600D01*
X83393740Y-45679691D01*
X83076577Y-45205023D01*
X82720501Y-44967101D01*
X83146500Y-44624496D01*
X83416367Y-44131419D01*
X83433904Y-44048639D01*
X83311915Y-43826600D01*
X81769000Y-43826600D01*
X81769000Y-43846600D01*
X81515000Y-43846600D01*
X81515000Y-43826600D01*
X79972085Y-43826600D01*
X79850096Y-44048639D01*
X79867633Y-44131419D01*
X80137500Y-44624496D01*
X80563499Y-44967101D01*
X80207423Y-45205023D01*
X79890260Y-45679691D01*
X79778887Y-46239600D01*
X75885113Y-46239600D01*
X75773740Y-45679691D01*
X75456577Y-45205023D01*
X75335894Y-45124385D01*
X75469765Y-45097757D01*
X75679809Y-44957409D01*
X75820157Y-44747365D01*
X75869440Y-44499600D01*
X75869440Y-43661600D01*
X87306560Y-43661600D01*
X87306560Y-45261600D01*
X87355843Y-45509365D01*
X87496191Y-45719409D01*
X87706235Y-45859757D01*
X87806503Y-45879701D01*
X87537466Y-46148738D01*
X87319000Y-46676161D01*
X87319000Y-47247039D01*
X87537466Y-47774462D01*
X87941138Y-48178134D01*
X88468561Y-48396600D01*
X89039439Y-48396600D01*
X89566862Y-48178134D01*
X89970534Y-47774462D01*
X90170035Y-47292823D01*
X93530035Y-47292823D01*
X93557222Y-47863054D01*
X93723136Y-48263605D01*
X93969255Y-48337739D01*
X94797395Y-47509600D01*
X95156605Y-47509600D01*
X95984745Y-48337739D01*
X96230864Y-48263605D01*
X96253280Y-48201241D01*
X96482423Y-48544177D01*
X96957091Y-48861340D01*
X97375667Y-48944600D01*
X97658333Y-48944600D01*
X98076909Y-48861340D01*
X98551577Y-48544177D01*
X98868740Y-48069509D01*
X98980113Y-47509600D01*
X98868740Y-46949691D01*
X98551577Y-46475023D01*
X98076909Y-46157860D01*
X97658333Y-46074600D01*
X97375667Y-46074600D01*
X96957091Y-46157860D01*
X96482423Y-46475023D01*
X96255389Y-46814803D01*
X96230864Y-46755595D01*
X95984745Y-46681461D01*
X95156605Y-47509600D01*
X94797395Y-47509600D01*
X93969255Y-46681461D01*
X93723136Y-46755595D01*
X93530035Y-47292823D01*
X90170035Y-47292823D01*
X90189000Y-47247039D01*
X90189000Y-46676161D01*
X90116801Y-46501855D01*
X94148861Y-46501855D01*
X94977000Y-47329995D01*
X95805139Y-46501855D01*
X95731005Y-46255736D01*
X95193777Y-46062635D01*
X94623546Y-46089822D01*
X94222995Y-46255736D01*
X94148861Y-46501855D01*
X90116801Y-46501855D01*
X89970534Y-46148738D01*
X89701497Y-45879701D01*
X89801765Y-45859757D01*
X90011809Y-45719409D01*
X90152157Y-45509365D01*
X90169669Y-45421324D01*
X102029000Y-45421324D01*
X102029000Y-46214595D01*
X102100656Y-46574832D01*
X102373615Y-46983345D01*
X102782127Y-47256304D01*
X103264000Y-47352155D01*
X103745872Y-47256304D01*
X104154385Y-46983345D01*
X104185428Y-46936886D01*
X104279414Y-47077546D01*
X104570564Y-47272087D01*
X104913999Y-47340400D01*
X105614001Y-47340400D01*
X105957436Y-47272087D01*
X106248586Y-47077546D01*
X106443127Y-46786396D01*
X106511440Y-46442961D01*
X106511440Y-45192959D01*
X106443127Y-44849524D01*
X106248586Y-44558374D01*
X105957436Y-44363833D01*
X105614001Y-44295520D01*
X104913999Y-44295520D01*
X104570564Y-44363833D01*
X104279414Y-44558374D01*
X104185428Y-44699034D01*
X104154385Y-44652575D01*
X103745873Y-44379616D01*
X103264000Y-44283765D01*
X102782128Y-44379616D01*
X102373616Y-44652575D01*
X102100656Y-45061087D01*
X102029000Y-45421324D01*
X90169669Y-45421324D01*
X90201440Y-45261600D01*
X90201440Y-43661600D01*
X90183737Y-43572600D01*
X93513887Y-43572600D01*
X93625260Y-44132509D01*
X93942423Y-44607177D01*
X94417091Y-44924340D01*
X94835667Y-45007600D01*
X95118333Y-45007600D01*
X95536909Y-44924340D01*
X96011577Y-44607177D01*
X96246606Y-44255432D01*
X96300466Y-44385462D01*
X96704138Y-44789134D01*
X97231561Y-45007600D01*
X97802439Y-45007600D01*
X98329862Y-44789134D01*
X98733534Y-44385462D01*
X98952000Y-43858039D01*
X98952000Y-43287161D01*
X98733534Y-42759738D01*
X98329862Y-42356066D01*
X97802439Y-42137600D01*
X97231561Y-42137600D01*
X96704138Y-42356066D01*
X96300466Y-42759738D01*
X96246606Y-42889768D01*
X96011577Y-42538023D01*
X95536909Y-42220860D01*
X95118333Y-42137600D01*
X94835667Y-42137600D01*
X94417091Y-42220860D01*
X93942423Y-42538023D01*
X93625260Y-43012691D01*
X93513887Y-43572600D01*
X90183737Y-43572600D01*
X90152157Y-43413835D01*
X90011809Y-43203791D01*
X89801765Y-43063443D01*
X89554000Y-43014160D01*
X87954000Y-43014160D01*
X87706235Y-43063443D01*
X87496191Y-43203791D01*
X87355843Y-43413835D01*
X87306560Y-43661600D01*
X75869440Y-43661600D01*
X75869440Y-43350561D01*
X79850096Y-43350561D01*
X79972085Y-43572600D01*
X81515000Y-43572600D01*
X81515000Y-42264600D01*
X81769000Y-42264600D01*
X81769000Y-43572600D01*
X83311915Y-43572600D01*
X83433904Y-43350561D01*
X83416367Y-43267781D01*
X83146500Y-42774704D01*
X82708483Y-42422434D01*
X82169000Y-42264600D01*
X81769000Y-42264600D01*
X81515000Y-42264600D01*
X81115000Y-42264600D01*
X80575517Y-42422434D01*
X80137500Y-42774704D01*
X79867633Y-43267781D01*
X79850096Y-43350561D01*
X75869440Y-43350561D01*
X75869440Y-42899600D01*
X75820157Y-42651835D01*
X75679809Y-42441791D01*
X75469765Y-42301443D01*
X75222000Y-42252160D01*
X72822000Y-42252160D01*
X72574235Y-42301443D01*
X72364191Y-42441791D01*
X72223843Y-42651835D01*
X72174560Y-42899600D01*
X72174560Y-44499600D01*
X72223843Y-44747365D01*
X72364191Y-44957409D01*
X72574235Y-45097757D01*
X72708106Y-45124385D01*
X72587423Y-45205023D01*
X72270260Y-45679691D01*
X72158887Y-46239600D01*
X56850461Y-46239600D01*
X57149577Y-46039737D01*
X57466740Y-45565069D01*
X57578113Y-45005160D01*
X57466740Y-44445251D01*
X57149577Y-43970583D01*
X56674909Y-43653420D01*
X56256333Y-43570160D01*
X55973667Y-43570160D01*
X55555091Y-43653420D01*
X55080423Y-43970583D01*
X54763260Y-44445251D01*
X54651887Y-45005160D01*
X51789461Y-45005160D01*
X51732501Y-44967101D01*
X52158500Y-44624496D01*
X52428367Y-44131419D01*
X52445904Y-44048639D01*
X52323915Y-43826600D01*
X50781000Y-43826600D01*
X50781000Y-43846600D01*
X50527000Y-43846600D01*
X50527000Y-43826600D01*
X48984085Y-43826600D01*
X48862096Y-44048639D01*
X48879633Y-44131419D01*
X49149500Y-44624496D01*
X49575499Y-44967101D01*
X49219423Y-45205023D01*
X48902260Y-45679691D01*
X48790887Y-46239600D01*
X48825983Y-46416038D01*
X45949645Y-49292377D01*
X45875752Y-49341751D01*
X45826378Y-49415644D01*
X45826376Y-49415646D01*
X45680148Y-49634491D01*
X45664933Y-49710983D01*
X45628800Y-49892635D01*
X45628800Y-49892639D01*
X45611463Y-49979800D01*
X45628800Y-50066961D01*
X45628800Y-50413221D01*
X44868130Y-51173892D01*
X44785740Y-50759691D01*
X44468577Y-50285023D01*
X44116242Y-50049600D01*
X44468577Y-49814177D01*
X44785740Y-49339509D01*
X44897113Y-48779600D01*
X44785740Y-48219691D01*
X44468577Y-47745023D01*
X44116242Y-47509600D01*
X44468577Y-47274177D01*
X44785740Y-46799509D01*
X44897113Y-46239600D01*
X44785740Y-45679691D01*
X44468577Y-45205023D01*
X44347894Y-45124385D01*
X44481765Y-45097757D01*
X44691809Y-44957409D01*
X44832157Y-44747365D01*
X44881440Y-44499600D01*
X44881440Y-43350561D01*
X48862096Y-43350561D01*
X48984085Y-43572600D01*
X50527000Y-43572600D01*
X50527000Y-42264600D01*
X50781000Y-42264600D01*
X50781000Y-43572600D01*
X52323915Y-43572600D01*
X52445904Y-43350561D01*
X52428367Y-43267781D01*
X52367905Y-43157310D01*
X63595400Y-43157310D01*
X63595400Y-43797869D01*
X63692073Y-44031258D01*
X63870701Y-44209887D01*
X64104090Y-44306560D01*
X64744650Y-44306560D01*
X64903400Y-44147810D01*
X64903400Y-42998560D01*
X65157400Y-42998560D01*
X65157400Y-44147810D01*
X65316150Y-44306560D01*
X65956710Y-44306560D01*
X66190099Y-44209887D01*
X66368727Y-44031258D01*
X66465400Y-43797869D01*
X66465400Y-43157310D01*
X66306650Y-42998560D01*
X65157400Y-42998560D01*
X64903400Y-42998560D01*
X63754150Y-42998560D01*
X63595400Y-43157310D01*
X52367905Y-43157310D01*
X52158500Y-42774704D01*
X51720483Y-42422434D01*
X51181000Y-42264600D01*
X50781000Y-42264600D01*
X50527000Y-42264600D01*
X50127000Y-42264600D01*
X49587517Y-42422434D01*
X49149500Y-42774704D01*
X48879633Y-43267781D01*
X48862096Y-43350561D01*
X44881440Y-43350561D01*
X44881440Y-42899600D01*
X44832157Y-42651835D01*
X44691809Y-42441791D01*
X44481765Y-42301443D01*
X44234000Y-42252160D01*
X41834000Y-42252160D01*
X41586235Y-42301443D01*
X41376191Y-42441791D01*
X41235843Y-42651835D01*
X41186560Y-42899600D01*
X41186560Y-44499600D01*
X41235843Y-44747365D01*
X41376191Y-44957409D01*
X41586235Y-45097757D01*
X41720106Y-45124385D01*
X41599423Y-45205023D01*
X41282260Y-45679691D01*
X41170887Y-46239600D01*
X41282260Y-46799509D01*
X41599423Y-47274177D01*
X41951758Y-47509600D01*
X41599423Y-47745023D01*
X41282260Y-48219691D01*
X41170887Y-48779600D01*
X41282260Y-49339509D01*
X41599423Y-49814177D01*
X41951758Y-50049600D01*
X41599423Y-50285023D01*
X41282260Y-50759691D01*
X41170887Y-51319600D01*
X41282260Y-51879509D01*
X41599423Y-52354177D01*
X41951758Y-52589600D01*
X41599423Y-52825023D01*
X41282260Y-53299691D01*
X41170887Y-53859600D01*
X41282260Y-54419509D01*
X41599423Y-54894177D01*
X41951758Y-55129600D01*
X41599423Y-55365023D01*
X41282260Y-55839691D01*
X41170887Y-56399600D01*
X41282260Y-56959509D01*
X41599423Y-57434177D01*
X41951758Y-57669600D01*
X41599423Y-57905023D01*
X41282260Y-58379691D01*
X41170887Y-58939600D01*
X41282260Y-59499509D01*
X41599423Y-59974177D01*
X42074091Y-60291340D01*
X42492667Y-60374600D01*
X43575333Y-60374600D01*
X43993909Y-60291340D01*
X44468577Y-59974177D01*
X44785740Y-59499509D01*
X44897113Y-58939600D01*
X44785740Y-58379691D01*
X44468577Y-57905023D01*
X44116242Y-57669600D01*
X44468577Y-57434177D01*
X44785740Y-56959509D01*
X44897113Y-56399600D01*
X44785740Y-55839691D01*
X44468577Y-55365023D01*
X44116242Y-55129600D01*
X44468577Y-54894177D01*
X44785740Y-54419509D01*
X44897113Y-53859600D01*
X44862017Y-53683161D01*
X47077956Y-51467223D01*
X47151849Y-51417849D01*
X47217498Y-51319600D01*
X47347452Y-51125110D01*
X47379777Y-50962600D01*
X47398800Y-50866965D01*
X47398800Y-50866961D01*
X47416137Y-50779800D01*
X47398800Y-50692639D01*
X47398800Y-50346378D01*
X48819870Y-48925308D01*
X48902260Y-49339509D01*
X49219423Y-49814177D01*
X49571758Y-50049600D01*
X49219423Y-50285023D01*
X48902260Y-50759691D01*
X48790887Y-51319600D01*
X48902260Y-51879509D01*
X49219423Y-52354177D01*
X49571758Y-52589600D01*
X49219423Y-52825023D01*
X48902260Y-53299691D01*
X48790887Y-53859600D01*
X48902260Y-54419509D01*
X49219423Y-54894177D01*
X49571758Y-55129600D01*
X49219423Y-55365023D01*
X48902260Y-55839691D01*
X48790887Y-56399600D01*
X48902260Y-56959509D01*
X49219423Y-57434177D01*
X49571758Y-57669600D01*
X49219423Y-57905023D01*
X48902260Y-58379691D01*
X48790887Y-58939600D01*
X48825983Y-59116038D01*
X47359345Y-60582677D01*
X47285452Y-60632051D01*
X47236078Y-60705944D01*
X47236076Y-60705946D01*
X47089848Y-60924791D01*
X47038098Y-61184960D01*
X22587000Y-61184960D01*
X22587000Y-49373960D01*
X30969000Y-49373960D01*
X31017601Y-49364293D01*
X31058803Y-49336763D01*
X31086333Y-49295561D01*
X31096000Y-49246960D01*
X31096000Y-41945251D01*
X63595400Y-41945251D01*
X63595400Y-42585810D01*
X63754150Y-42744560D01*
X64903400Y-42744560D01*
X64903400Y-41595310D01*
X65157400Y-41595310D01*
X65157400Y-42744560D01*
X66306650Y-42744560D01*
X66465400Y-42585810D01*
X66465400Y-41945251D01*
X66368727Y-41711862D01*
X66190099Y-41533233D01*
X65956710Y-41436560D01*
X65316150Y-41436560D01*
X65157400Y-41595310D01*
X64903400Y-41595310D01*
X64744650Y-41436560D01*
X64104090Y-41436560D01*
X63870701Y-41533233D01*
X63692073Y-41711862D01*
X63595400Y-41945251D01*
X31096000Y-41945251D01*
X31096000Y-40864960D01*
X110090000Y-40864960D01*
X110090000Y-49183460D01*
X110090000Y-49183460D01*
G37*
X110090000Y-49183460D02*
X110099667Y-49232061D01*
X110127197Y-49273263D01*
X110168399Y-49300793D01*
X110217000Y-49310460D01*
X118599000Y-49310460D01*
X118599000Y-54199960D01*
X115754295Y-54199960D01*
X116035000Y-53522278D01*
X116035000Y-52672922D01*
X115709966Y-51888220D01*
X115109380Y-51287634D01*
X114324678Y-50962600D01*
X113475322Y-50962600D01*
X112690620Y-51287634D01*
X112090034Y-51888220D01*
X111765000Y-52672922D01*
X111765000Y-53522278D01*
X112045705Y-54199960D01*
X106409599Y-54199960D01*
X106639973Y-53964524D01*
X106854563Y-53470580D01*
X106734594Y-53224600D01*
X105391000Y-53224600D01*
X105391000Y-53244600D01*
X105137000Y-53244600D01*
X105137000Y-53224600D01*
X103793406Y-53224600D01*
X103673437Y-53470580D01*
X103888027Y-53964524D01*
X104118401Y-54199960D01*
X103867000Y-54199960D01*
X103818399Y-54209627D01*
X103777197Y-54237157D01*
X96829394Y-61184960D01*
X49260218Y-61184960D01*
X50077562Y-60367617D01*
X50112667Y-60374600D01*
X51195333Y-60374600D01*
X51613909Y-60291340D01*
X52088577Y-59974177D01*
X52405740Y-59499509D01*
X52517113Y-58939600D01*
X52405740Y-58379691D01*
X52088577Y-57905023D01*
X51736242Y-57669600D01*
X52088577Y-57434177D01*
X52405740Y-56959509D01*
X52517113Y-56399600D01*
X52405740Y-55839691D01*
X52088577Y-55365023D01*
X51736242Y-55129600D01*
X52088577Y-54894177D01*
X52405740Y-54419509D01*
X52517113Y-53859600D01*
X52405740Y-53299691D01*
X52088577Y-52825023D01*
X51736242Y-52589600D01*
X52088577Y-52354177D01*
X52405740Y-51879509D01*
X52517113Y-51319600D01*
X52405740Y-50759691D01*
X52088577Y-50285023D01*
X51736242Y-50049600D01*
X52088577Y-49814177D01*
X52405740Y-49339509D01*
X52517113Y-48779600D01*
X52405740Y-48219691D01*
X52088577Y-47745023D01*
X51736242Y-47509600D01*
X52088577Y-47274177D01*
X52188521Y-47124600D01*
X52233062Y-47124600D01*
X52563001Y-47454540D01*
X52563000Y-54138199D01*
X52545663Y-54225360D01*
X52563000Y-54312521D01*
X52563000Y-54312524D01*
X52614348Y-54570669D01*
X52809951Y-54863409D01*
X52883847Y-54912785D01*
X54680000Y-56708939D01*
X54680000Y-57177799D01*
X54898466Y-57705222D01*
X55302138Y-58108894D01*
X55432168Y-58162754D01*
X55080423Y-58397783D01*
X54763260Y-58872451D01*
X54651887Y-59432360D01*
X54763260Y-59992269D01*
X55080423Y-60466937D01*
X55555091Y-60784100D01*
X55973667Y-60867360D01*
X56256333Y-60867360D01*
X56674909Y-60784100D01*
X57149577Y-60466937D01*
X57466740Y-59992269D01*
X57578113Y-59432360D01*
X57546494Y-59273399D01*
X59453896Y-59273399D01*
X59471433Y-59356179D01*
X59741300Y-59849256D01*
X60179317Y-60201526D01*
X60718800Y-60359360D01*
X61118800Y-60359360D01*
X61118800Y-59051360D01*
X61372800Y-59051360D01*
X61372800Y-60359360D01*
X61772800Y-60359360D01*
X62312283Y-60201526D01*
X62750300Y-59849256D01*
X63020167Y-59356179D01*
X63037704Y-59273399D01*
X62915715Y-59051360D01*
X61372800Y-59051360D01*
X61118800Y-59051360D01*
X59575885Y-59051360D01*
X59453896Y-59273399D01*
X57546494Y-59273399D01*
X57466740Y-58872451D01*
X57149577Y-58397783D01*
X56797832Y-58162754D01*
X56927862Y-58108894D01*
X57331534Y-57705222D01*
X57550000Y-57177799D01*
X57550000Y-56606921D01*
X57331534Y-56079498D01*
X56927862Y-55675826D01*
X56400439Y-55457360D01*
X55931579Y-55457360D01*
X54333000Y-53858782D01*
X54333000Y-50745560D01*
X54651887Y-50745560D01*
X54763260Y-51305469D01*
X55080423Y-51780137D01*
X55432168Y-52015166D01*
X55302138Y-52069026D01*
X54898466Y-52472698D01*
X54680000Y-53000121D01*
X54680000Y-53570999D01*
X54898466Y-54098422D01*
X55302138Y-54502094D01*
X55829561Y-54720560D01*
X56400439Y-54720560D01*
X56927862Y-54502094D01*
X57331534Y-54098422D01*
X57436770Y-53844360D01*
X59382687Y-53844360D01*
X59494060Y-54404269D01*
X59811223Y-54878937D01*
X60163558Y-55114360D01*
X59811223Y-55349783D01*
X59494060Y-55824451D01*
X59382687Y-56384360D01*
X59494060Y-56944269D01*
X59811223Y-57418937D01*
X60167299Y-57656859D01*
X59741300Y-57999464D01*
X59471433Y-58492541D01*
X59453896Y-58575321D01*
X59575885Y-58797360D01*
X61118800Y-58797360D01*
X61118800Y-58777360D01*
X61372800Y-58777360D01*
X61372800Y-58797360D01*
X62915715Y-58797360D01*
X63037704Y-58575321D01*
X63020167Y-58492541D01*
X62750300Y-57999464D01*
X62324301Y-57656859D01*
X62680377Y-57418937D01*
X62997540Y-56944269D01*
X63108913Y-56384360D01*
X62997540Y-55824451D01*
X62680377Y-55349783D01*
X62328042Y-55114360D01*
X62680377Y-54878937D01*
X62997540Y-54404269D01*
X63108913Y-53844360D01*
X67002687Y-53844360D01*
X67114060Y-54404269D01*
X67431223Y-54878937D01*
X67783558Y-55114360D01*
X67431223Y-55349783D01*
X67114060Y-55824451D01*
X67002687Y-56384360D01*
X67114060Y-56944269D01*
X67431223Y-57418937D01*
X67783558Y-57654360D01*
X67431223Y-57889783D01*
X67114060Y-58364451D01*
X67002687Y-58924360D01*
X67114060Y-59484269D01*
X67431223Y-59958937D01*
X67905891Y-60276100D01*
X68324467Y-60359360D01*
X69407133Y-60359360D01*
X69825709Y-60276100D01*
X70300377Y-59958937D01*
X70617540Y-59484269D01*
X70728913Y-58924360D01*
X70617540Y-58364451D01*
X70300377Y-57889783D01*
X69948042Y-57654360D01*
X70300377Y-57418937D01*
X70617540Y-56944269D01*
X70728913Y-56384360D01*
X70617540Y-55824451D01*
X70300377Y-55349783D01*
X69948042Y-55114360D01*
X70300377Y-54878937D01*
X70617540Y-54404269D01*
X70728913Y-53844360D01*
X70617540Y-53284451D01*
X70300377Y-52809783D01*
X69944301Y-52571861D01*
X70370300Y-52229256D01*
X70640167Y-51736179D01*
X70657704Y-51653399D01*
X70535715Y-51431360D01*
X68992800Y-51431360D01*
X68992800Y-51451360D01*
X68738800Y-51451360D01*
X68738800Y-51431360D01*
X67195885Y-51431360D01*
X67073896Y-51653399D01*
X67091433Y-51736179D01*
X67361300Y-52229256D01*
X67787299Y-52571861D01*
X67431223Y-52809783D01*
X67114060Y-53284451D01*
X67002687Y-53844360D01*
X63108913Y-53844360D01*
X62997540Y-53284451D01*
X62680377Y-52809783D01*
X62559694Y-52729145D01*
X62693565Y-52702517D01*
X62903609Y-52562169D01*
X63043957Y-52352125D01*
X63093240Y-52104360D01*
X63093240Y-50955321D01*
X67073896Y-50955321D01*
X67195885Y-51177360D01*
X68738800Y-51177360D01*
X68738800Y-49869360D01*
X68992800Y-49869360D01*
X68992800Y-51177360D01*
X70535715Y-51177360D01*
X70657704Y-50955321D01*
X70640167Y-50872541D01*
X70370300Y-50379464D01*
X69932283Y-50027194D01*
X69392800Y-49869360D01*
X68992800Y-49869360D01*
X68738800Y-49869360D01*
X68338800Y-49869360D01*
X67799317Y-50027194D01*
X67361300Y-50379464D01*
X67091433Y-50872541D01*
X67073896Y-50955321D01*
X63093240Y-50955321D01*
X63093240Y-50504360D01*
X63043957Y-50256595D01*
X62903609Y-50046551D01*
X62693565Y-49906203D01*
X62445800Y-49856920D01*
X60045800Y-49856920D01*
X59798035Y-49906203D01*
X59587991Y-50046551D01*
X59447643Y-50256595D01*
X59398360Y-50504360D01*
X59398360Y-52104360D01*
X59447643Y-52352125D01*
X59587991Y-52562169D01*
X59798035Y-52702517D01*
X59931906Y-52729145D01*
X59811223Y-52809783D01*
X59494060Y-53284451D01*
X59382687Y-53844360D01*
X57436770Y-53844360D01*
X57550000Y-53570999D01*
X57550000Y-53000121D01*
X57331534Y-52472698D01*
X56927862Y-52069026D01*
X56797832Y-52015166D01*
X57149577Y-51780137D01*
X57466740Y-51305469D01*
X57578113Y-50745560D01*
X57466740Y-50185651D01*
X57149577Y-49710983D01*
X56674909Y-49393820D01*
X56256333Y-49310560D01*
X55973667Y-49310560D01*
X55555091Y-49393820D01*
X55080423Y-49710983D01*
X54763260Y-50185651D01*
X54651887Y-50745560D01*
X54333000Y-50745560D01*
X54333000Y-47175119D01*
X54350337Y-47087959D01*
X54333000Y-47000799D01*
X54333000Y-47000795D01*
X54281652Y-46742650D01*
X54192417Y-46609101D01*
X54135424Y-46523805D01*
X54135423Y-46523804D01*
X54086049Y-46449911D01*
X54012156Y-46400537D01*
X53287065Y-45675447D01*
X53237689Y-45601551D01*
X52944950Y-45405948D01*
X52686805Y-45354600D01*
X52686801Y-45354600D01*
X52599640Y-45337263D01*
X52512479Y-45354600D01*
X52188521Y-45354600D01*
X52088577Y-45205023D01*
X51789461Y-45005160D01*
X54651887Y-45005160D01*
X54763260Y-45565069D01*
X55080423Y-46039737D01*
X55432168Y-46274766D01*
X55302138Y-46328626D01*
X54898466Y-46732298D01*
X54680000Y-47259721D01*
X54680000Y-47830599D01*
X54898466Y-48358022D01*
X55302138Y-48761694D01*
X55829561Y-48980160D01*
X56400439Y-48980160D01*
X56927862Y-48761694D01*
X57331534Y-48358022D01*
X57550000Y-47830599D01*
X57550000Y-47586121D01*
X63595400Y-47586121D01*
X63595400Y-48156999D01*
X63813866Y-48684422D01*
X64217538Y-49088094D01*
X64744961Y-49306560D01*
X65315839Y-49306560D01*
X65843262Y-49088094D01*
X66246934Y-48684422D01*
X66465400Y-48156999D01*
X66465400Y-47586121D01*
X66246934Y-47058698D01*
X65843262Y-46655026D01*
X65315839Y-46436560D01*
X64744961Y-46436560D01*
X64217538Y-46655026D01*
X63813866Y-47058698D01*
X63595400Y-47586121D01*
X57550000Y-47586121D01*
X57550000Y-47259721D01*
X57331534Y-46732298D01*
X56927862Y-46328626D01*
X56797832Y-46274766D01*
X56850461Y-46239600D01*
X72158887Y-46239600D01*
X72270260Y-46799509D01*
X72587423Y-47274177D01*
X72939758Y-47509600D01*
X72587423Y-47745023D01*
X72270260Y-48219691D01*
X72158887Y-48779600D01*
X72270260Y-49339509D01*
X72587423Y-49814177D01*
X72939758Y-50049600D01*
X72587423Y-50285023D01*
X72270260Y-50759691D01*
X72158887Y-51319600D01*
X72270260Y-51879509D01*
X72587423Y-52354177D01*
X72939758Y-52589600D01*
X72587423Y-52825023D01*
X72270260Y-53299691D01*
X72158887Y-53859600D01*
X72270260Y-54419509D01*
X72587423Y-54894177D01*
X72939758Y-55129600D01*
X72587423Y-55365023D01*
X72270260Y-55839691D01*
X72158887Y-56399600D01*
X72270260Y-56959509D01*
X72587423Y-57434177D01*
X72939758Y-57669600D01*
X72587423Y-57905023D01*
X72270260Y-58379691D01*
X72158887Y-58939600D01*
X72270260Y-59499509D01*
X72587423Y-59974177D01*
X73062091Y-60291340D01*
X73480667Y-60374600D01*
X74563333Y-60374600D01*
X74981909Y-60291340D01*
X75456577Y-59974177D01*
X75773740Y-59499509D01*
X75885113Y-58939600D01*
X75773740Y-58379691D01*
X75456577Y-57905023D01*
X75104242Y-57669600D01*
X75456577Y-57434177D01*
X75773740Y-56959509D01*
X75885113Y-56399600D01*
X75773740Y-55839691D01*
X75456577Y-55365023D01*
X75104242Y-55129600D01*
X75456577Y-54894177D01*
X75773740Y-54419509D01*
X75885113Y-53859600D01*
X75773740Y-53299691D01*
X75456577Y-52825023D01*
X75104242Y-52589600D01*
X75456577Y-52354177D01*
X75773740Y-51879509D01*
X75885113Y-51319600D01*
X75773740Y-50759691D01*
X75456577Y-50285023D01*
X75104242Y-50049600D01*
X75456577Y-49814177D01*
X75773740Y-49339509D01*
X75885113Y-48779600D01*
X75773740Y-48219691D01*
X75456577Y-47745023D01*
X75104242Y-47509600D01*
X75456577Y-47274177D01*
X75773740Y-46799509D01*
X75885113Y-46239600D01*
X79778887Y-46239600D01*
X79890260Y-46799509D01*
X80207423Y-47274177D01*
X80559758Y-47509600D01*
X80207423Y-47745023D01*
X79890260Y-48219691D01*
X79778887Y-48779600D01*
X79890260Y-49339509D01*
X80207423Y-49814177D01*
X80559758Y-50049600D01*
X80207423Y-50285023D01*
X79890260Y-50759691D01*
X79778887Y-51319600D01*
X79890260Y-51879509D01*
X80207423Y-52354177D01*
X80559758Y-52589600D01*
X80207423Y-52825023D01*
X79890260Y-53299691D01*
X79778887Y-53859600D01*
X79890260Y-54419509D01*
X80207423Y-54894177D01*
X80559758Y-55129600D01*
X80207423Y-55365023D01*
X79890260Y-55839691D01*
X79778887Y-56399600D01*
X79890260Y-56959509D01*
X80207423Y-57434177D01*
X80559758Y-57669600D01*
X80207423Y-57905023D01*
X79890260Y-58379691D01*
X79778887Y-58939600D01*
X79890260Y-59499509D01*
X80207423Y-59974177D01*
X80682091Y-60291340D01*
X81100667Y-60374600D01*
X82183333Y-60374600D01*
X82601909Y-60291340D01*
X83076577Y-59974177D01*
X83393740Y-59499509D01*
X83505113Y-58939600D01*
X83393740Y-58379691D01*
X83076577Y-57905023D01*
X82724242Y-57669600D01*
X83076577Y-57434177D01*
X83393740Y-56959509D01*
X83505113Y-56399600D01*
X83393740Y-55839691D01*
X83076577Y-55365023D01*
X82724242Y-55129600D01*
X83076577Y-54894177D01*
X83393740Y-54419509D01*
X83505113Y-53859600D01*
X83393740Y-53299691D01*
X83076577Y-52825023D01*
X82926314Y-52724620D01*
X103673437Y-52724620D01*
X103793406Y-52970600D01*
X105137000Y-52970600D01*
X105137000Y-51672028D01*
X105391000Y-51672028D01*
X105391000Y-52970600D01*
X106734594Y-52970600D01*
X106854563Y-52724620D01*
X106639973Y-52230676D01*
X106207091Y-51788282D01*
X105637864Y-51545220D01*
X105391000Y-51672028D01*
X105137000Y-51672028D01*
X104890136Y-51545220D01*
X104320909Y-51788282D01*
X103888027Y-52230676D01*
X103673437Y-52724620D01*
X82926314Y-52724620D01*
X82724242Y-52589600D01*
X83076577Y-52354177D01*
X83393740Y-51879509D01*
X83505113Y-51319600D01*
X83393740Y-50759691D01*
X83076577Y-50285023D01*
X82724242Y-50049600D01*
X83076577Y-49814177D01*
X83393740Y-49339509D01*
X83505113Y-48779600D01*
X83452948Y-48517345D01*
X94148861Y-48517345D01*
X94222995Y-48763464D01*
X94760223Y-48956565D01*
X95330454Y-48929378D01*
X95731005Y-48763464D01*
X95805139Y-48517345D01*
X94977000Y-47689205D01*
X94148861Y-48517345D01*
X83452948Y-48517345D01*
X83393740Y-48219691D01*
X83076577Y-47745023D01*
X82724242Y-47509600D01*
X83076577Y-47274177D01*
X83393740Y-46799509D01*
X83505113Y-46239600D01*
X83393740Y-45679691D01*
X83076577Y-45205023D01*
X82720501Y-44967101D01*
X83146500Y-44624496D01*
X83416367Y-44131419D01*
X83433904Y-44048639D01*
X83311915Y-43826600D01*
X81769000Y-43826600D01*
X81769000Y-43846600D01*
X81515000Y-43846600D01*
X81515000Y-43826600D01*
X79972085Y-43826600D01*
X79850096Y-44048639D01*
X79867633Y-44131419D01*
X80137500Y-44624496D01*
X80563499Y-44967101D01*
X80207423Y-45205023D01*
X79890260Y-45679691D01*
X79778887Y-46239600D01*
X75885113Y-46239600D01*
X75773740Y-45679691D01*
X75456577Y-45205023D01*
X75335894Y-45124385D01*
X75469765Y-45097757D01*
X75679809Y-44957409D01*
X75820157Y-44747365D01*
X75869440Y-44499600D01*
X75869440Y-43661600D01*
X87306560Y-43661600D01*
X87306560Y-45261600D01*
X87355843Y-45509365D01*
X87496191Y-45719409D01*
X87706235Y-45859757D01*
X87806503Y-45879701D01*
X87537466Y-46148738D01*
X87319000Y-46676161D01*
X87319000Y-47247039D01*
X87537466Y-47774462D01*
X87941138Y-48178134D01*
X88468561Y-48396600D01*
X89039439Y-48396600D01*
X89566862Y-48178134D01*
X89970534Y-47774462D01*
X90170035Y-47292823D01*
X93530035Y-47292823D01*
X93557222Y-47863054D01*
X93723136Y-48263605D01*
X93969255Y-48337739D01*
X94797395Y-47509600D01*
X95156605Y-47509600D01*
X95984745Y-48337739D01*
X96230864Y-48263605D01*
X96253280Y-48201241D01*
X96482423Y-48544177D01*
X96957091Y-48861340D01*
X97375667Y-48944600D01*
X97658333Y-48944600D01*
X98076909Y-48861340D01*
X98551577Y-48544177D01*
X98868740Y-48069509D01*
X98980113Y-47509600D01*
X98868740Y-46949691D01*
X98551577Y-46475023D01*
X98076909Y-46157860D01*
X97658333Y-46074600D01*
X97375667Y-46074600D01*
X96957091Y-46157860D01*
X96482423Y-46475023D01*
X96255389Y-46814803D01*
X96230864Y-46755595D01*
X95984745Y-46681461D01*
X95156605Y-47509600D01*
X94797395Y-47509600D01*
X93969255Y-46681461D01*
X93723136Y-46755595D01*
X93530035Y-47292823D01*
X90170035Y-47292823D01*
X90189000Y-47247039D01*
X90189000Y-46676161D01*
X90116801Y-46501855D01*
X94148861Y-46501855D01*
X94977000Y-47329995D01*
X95805139Y-46501855D01*
X95731005Y-46255736D01*
X95193777Y-46062635D01*
X94623546Y-46089822D01*
X94222995Y-46255736D01*
X94148861Y-46501855D01*
X90116801Y-46501855D01*
X89970534Y-46148738D01*
X89701497Y-45879701D01*
X89801765Y-45859757D01*
X90011809Y-45719409D01*
X90152157Y-45509365D01*
X90169669Y-45421324D01*
X102029000Y-45421324D01*
X102029000Y-46214595D01*
X102100656Y-46574832D01*
X102373615Y-46983345D01*
X102782127Y-47256304D01*
X103264000Y-47352155D01*
X103745872Y-47256304D01*
X104154385Y-46983345D01*
X104185428Y-46936886D01*
X104279414Y-47077546D01*
X104570564Y-47272087D01*
X104913999Y-47340400D01*
X105614001Y-47340400D01*
X105957436Y-47272087D01*
X106248586Y-47077546D01*
X106443127Y-46786396D01*
X106511440Y-46442961D01*
X106511440Y-45192959D01*
X106443127Y-44849524D01*
X106248586Y-44558374D01*
X105957436Y-44363833D01*
X105614001Y-44295520D01*
X104913999Y-44295520D01*
X104570564Y-44363833D01*
X104279414Y-44558374D01*
X104185428Y-44699034D01*
X104154385Y-44652575D01*
X103745873Y-44379616D01*
X103264000Y-44283765D01*
X102782128Y-44379616D01*
X102373616Y-44652575D01*
X102100656Y-45061087D01*
X102029000Y-45421324D01*
X90169669Y-45421324D01*
X90201440Y-45261600D01*
X90201440Y-43661600D01*
X90183737Y-43572600D01*
X93513887Y-43572600D01*
X93625260Y-44132509D01*
X93942423Y-44607177D01*
X94417091Y-44924340D01*
X94835667Y-45007600D01*
X95118333Y-45007600D01*
X95536909Y-44924340D01*
X96011577Y-44607177D01*
X96246606Y-44255432D01*
X96300466Y-44385462D01*
X96704138Y-44789134D01*
X97231561Y-45007600D01*
X97802439Y-45007600D01*
X98329862Y-44789134D01*
X98733534Y-44385462D01*
X98952000Y-43858039D01*
X98952000Y-43287161D01*
X98733534Y-42759738D01*
X98329862Y-42356066D01*
X97802439Y-42137600D01*
X97231561Y-42137600D01*
X96704138Y-42356066D01*
X96300466Y-42759738D01*
X96246606Y-42889768D01*
X96011577Y-42538023D01*
X95536909Y-42220860D01*
X95118333Y-42137600D01*
X94835667Y-42137600D01*
X94417091Y-42220860D01*
X93942423Y-42538023D01*
X93625260Y-43012691D01*
X93513887Y-43572600D01*
X90183737Y-43572600D01*
X90152157Y-43413835D01*
X90011809Y-43203791D01*
X89801765Y-43063443D01*
X89554000Y-43014160D01*
X87954000Y-43014160D01*
X87706235Y-43063443D01*
X87496191Y-43203791D01*
X87355843Y-43413835D01*
X87306560Y-43661600D01*
X75869440Y-43661600D01*
X75869440Y-43350561D01*
X79850096Y-43350561D01*
X79972085Y-43572600D01*
X81515000Y-43572600D01*
X81515000Y-42264600D01*
X81769000Y-42264600D01*
X81769000Y-43572600D01*
X83311915Y-43572600D01*
X83433904Y-43350561D01*
X83416367Y-43267781D01*
X83146500Y-42774704D01*
X82708483Y-42422434D01*
X82169000Y-42264600D01*
X81769000Y-42264600D01*
X81515000Y-42264600D01*
X81115000Y-42264600D01*
X80575517Y-42422434D01*
X80137500Y-42774704D01*
X79867633Y-43267781D01*
X79850096Y-43350561D01*
X75869440Y-43350561D01*
X75869440Y-42899600D01*
X75820157Y-42651835D01*
X75679809Y-42441791D01*
X75469765Y-42301443D01*
X75222000Y-42252160D01*
X72822000Y-42252160D01*
X72574235Y-42301443D01*
X72364191Y-42441791D01*
X72223843Y-42651835D01*
X72174560Y-42899600D01*
X72174560Y-44499600D01*
X72223843Y-44747365D01*
X72364191Y-44957409D01*
X72574235Y-45097757D01*
X72708106Y-45124385D01*
X72587423Y-45205023D01*
X72270260Y-45679691D01*
X72158887Y-46239600D01*
X56850461Y-46239600D01*
X57149577Y-46039737D01*
X57466740Y-45565069D01*
X57578113Y-45005160D01*
X57466740Y-44445251D01*
X57149577Y-43970583D01*
X56674909Y-43653420D01*
X56256333Y-43570160D01*
X55973667Y-43570160D01*
X55555091Y-43653420D01*
X55080423Y-43970583D01*
X54763260Y-44445251D01*
X54651887Y-45005160D01*
X51789461Y-45005160D01*
X51732501Y-44967101D01*
X52158500Y-44624496D01*
X52428367Y-44131419D01*
X52445904Y-44048639D01*
X52323915Y-43826600D01*
X50781000Y-43826600D01*
X50781000Y-43846600D01*
X50527000Y-43846600D01*
X50527000Y-43826600D01*
X48984085Y-43826600D01*
X48862096Y-44048639D01*
X48879633Y-44131419D01*
X49149500Y-44624496D01*
X49575499Y-44967101D01*
X49219423Y-45205023D01*
X48902260Y-45679691D01*
X48790887Y-46239600D01*
X48825983Y-46416038D01*
X45949645Y-49292377D01*
X45875752Y-49341751D01*
X45826378Y-49415644D01*
X45826376Y-49415646D01*
X45680148Y-49634491D01*
X45664933Y-49710983D01*
X45628800Y-49892635D01*
X45628800Y-49892639D01*
X45611463Y-49979800D01*
X45628800Y-50066961D01*
X45628800Y-50413221D01*
X44868130Y-51173892D01*
X44785740Y-50759691D01*
X44468577Y-50285023D01*
X44116242Y-50049600D01*
X44468577Y-49814177D01*
X44785740Y-49339509D01*
X44897113Y-48779600D01*
X44785740Y-48219691D01*
X44468577Y-47745023D01*
X44116242Y-47509600D01*
X44468577Y-47274177D01*
X44785740Y-46799509D01*
X44897113Y-46239600D01*
X44785740Y-45679691D01*
X44468577Y-45205023D01*
X44347894Y-45124385D01*
X44481765Y-45097757D01*
X44691809Y-44957409D01*
X44832157Y-44747365D01*
X44881440Y-44499600D01*
X44881440Y-43350561D01*
X48862096Y-43350561D01*
X48984085Y-43572600D01*
X50527000Y-43572600D01*
X50527000Y-42264600D01*
X50781000Y-42264600D01*
X50781000Y-43572600D01*
X52323915Y-43572600D01*
X52445904Y-43350561D01*
X52428367Y-43267781D01*
X52367905Y-43157310D01*
X63595400Y-43157310D01*
X63595400Y-43797869D01*
X63692073Y-44031258D01*
X63870701Y-44209887D01*
X64104090Y-44306560D01*
X64744650Y-44306560D01*
X64903400Y-44147810D01*
X64903400Y-42998560D01*
X65157400Y-42998560D01*
X65157400Y-44147810D01*
X65316150Y-44306560D01*
X65956710Y-44306560D01*
X66190099Y-44209887D01*
X66368727Y-44031258D01*
X66465400Y-43797869D01*
X66465400Y-43157310D01*
X66306650Y-42998560D01*
X65157400Y-42998560D01*
X64903400Y-42998560D01*
X63754150Y-42998560D01*
X63595400Y-43157310D01*
X52367905Y-43157310D01*
X52158500Y-42774704D01*
X51720483Y-42422434D01*
X51181000Y-42264600D01*
X50781000Y-42264600D01*
X50527000Y-42264600D01*
X50127000Y-42264600D01*
X49587517Y-42422434D01*
X49149500Y-42774704D01*
X48879633Y-43267781D01*
X48862096Y-43350561D01*
X44881440Y-43350561D01*
X44881440Y-42899600D01*
X44832157Y-42651835D01*
X44691809Y-42441791D01*
X44481765Y-42301443D01*
X44234000Y-42252160D01*
X41834000Y-42252160D01*
X41586235Y-42301443D01*
X41376191Y-42441791D01*
X41235843Y-42651835D01*
X41186560Y-42899600D01*
X41186560Y-44499600D01*
X41235843Y-44747365D01*
X41376191Y-44957409D01*
X41586235Y-45097757D01*
X41720106Y-45124385D01*
X41599423Y-45205023D01*
X41282260Y-45679691D01*
X41170887Y-46239600D01*
X41282260Y-46799509D01*
X41599423Y-47274177D01*
X41951758Y-47509600D01*
X41599423Y-47745023D01*
X41282260Y-48219691D01*
X41170887Y-48779600D01*
X41282260Y-49339509D01*
X41599423Y-49814177D01*
X41951758Y-50049600D01*
X41599423Y-50285023D01*
X41282260Y-50759691D01*
X41170887Y-51319600D01*
X41282260Y-51879509D01*
X41599423Y-52354177D01*
X41951758Y-52589600D01*
X41599423Y-52825023D01*
X41282260Y-53299691D01*
X41170887Y-53859600D01*
X41282260Y-54419509D01*
X41599423Y-54894177D01*
X41951758Y-55129600D01*
X41599423Y-55365023D01*
X41282260Y-55839691D01*
X41170887Y-56399600D01*
X41282260Y-56959509D01*
X41599423Y-57434177D01*
X41951758Y-57669600D01*
X41599423Y-57905023D01*
X41282260Y-58379691D01*
X41170887Y-58939600D01*
X41282260Y-59499509D01*
X41599423Y-59974177D01*
X42074091Y-60291340D01*
X42492667Y-60374600D01*
X43575333Y-60374600D01*
X43993909Y-60291340D01*
X44468577Y-59974177D01*
X44785740Y-59499509D01*
X44897113Y-58939600D01*
X44785740Y-58379691D01*
X44468577Y-57905023D01*
X44116242Y-57669600D01*
X44468577Y-57434177D01*
X44785740Y-56959509D01*
X44897113Y-56399600D01*
X44785740Y-55839691D01*
X44468577Y-55365023D01*
X44116242Y-55129600D01*
X44468577Y-54894177D01*
X44785740Y-54419509D01*
X44897113Y-53859600D01*
X44862017Y-53683161D01*
X47077956Y-51467223D01*
X47151849Y-51417849D01*
X47217498Y-51319600D01*
X47347452Y-51125110D01*
X47379777Y-50962600D01*
X47398800Y-50866965D01*
X47398800Y-50866961D01*
X47416137Y-50779800D01*
X47398800Y-50692639D01*
X47398800Y-50346378D01*
X48819870Y-48925308D01*
X48902260Y-49339509D01*
X49219423Y-49814177D01*
X49571758Y-50049600D01*
X49219423Y-50285023D01*
X48902260Y-50759691D01*
X48790887Y-51319600D01*
X48902260Y-51879509D01*
X49219423Y-52354177D01*
X49571758Y-52589600D01*
X49219423Y-52825023D01*
X48902260Y-53299691D01*
X48790887Y-53859600D01*
X48902260Y-54419509D01*
X49219423Y-54894177D01*
X49571758Y-55129600D01*
X49219423Y-55365023D01*
X48902260Y-55839691D01*
X48790887Y-56399600D01*
X48902260Y-56959509D01*
X49219423Y-57434177D01*
X49571758Y-57669600D01*
X49219423Y-57905023D01*
X48902260Y-58379691D01*
X48790887Y-58939600D01*
X48825983Y-59116038D01*
X47359345Y-60582677D01*
X47285452Y-60632051D01*
X47236078Y-60705944D01*
X47236076Y-60705946D01*
X47089848Y-60924791D01*
X47038098Y-61184960D01*
X22587000Y-61184960D01*
X22587000Y-49373960D01*
X30969000Y-49373960D01*
X31017601Y-49364293D01*
X31058803Y-49336763D01*
X31086333Y-49295561D01*
X31096000Y-49246960D01*
X31096000Y-41945251D01*
X63595400Y-41945251D01*
X63595400Y-42585810D01*
X63754150Y-42744560D01*
X64903400Y-42744560D01*
X64903400Y-41595310D01*
X65157400Y-41595310D01*
X65157400Y-42744560D01*
X66306650Y-42744560D01*
X66465400Y-42585810D01*
X66465400Y-41945251D01*
X66368727Y-41711862D01*
X66190099Y-41533233D01*
X65956710Y-41436560D01*
X65316150Y-41436560D01*
X65157400Y-41595310D01*
X64903400Y-41595310D01*
X64744650Y-41436560D01*
X64104090Y-41436560D01*
X63870701Y-41533233D01*
X63692073Y-41711862D01*
X63595400Y-41945251D01*
X31096000Y-41945251D01*
X31096000Y-40864960D01*
X110090000Y-40864960D01*
X110090000Y-49183460D01*
G36*
X84245500Y-98025854D02*
X79075697Y-103195657D01*
X79048167Y-103236859D01*
X79038500Y-103285460D01*
X79038500Y-111032460D01*
X72942500Y-111032460D01*
X72942500Y-95665460D01*
X84245500Y-95665460D01*
X84245500Y-98025854D01*
X84245500Y-98025854D01*
G37*
X84245500Y-98025854D02*
X79075697Y-103195657D01*
X79048167Y-103236859D01*
X79038500Y-103285460D01*
X79038500Y-111032460D01*
X72942500Y-111032460D01*
X72942500Y-95665460D01*
X84245500Y-95665460D01*
X84245500Y-98025854D01*
G36*
X90151000Y-91527066D02*
X90151000Y-106852354D01*
X89553197Y-107450157D01*
X89525667Y-107491359D01*
X89516000Y-107539960D01*
X89516000Y-111032460D01*
X81451500Y-111032460D01*
X81451500Y-104100066D01*
X86494303Y-99057263D01*
X86521833Y-99016061D01*
X86531500Y-98967460D01*
X86531500Y-94839960D01*
X86521833Y-94791359D01*
X86494303Y-94750157D01*
X85033803Y-93289657D01*
X84992601Y-93262127D01*
X84944000Y-93252460D01*
X72942500Y-93252460D01*
X72942500Y-90585460D01*
X89209394Y-90585460D01*
X90151000Y-91527066D01*
X90151000Y-91527066D01*
G37*
X90151000Y-91527066D02*
X90151000Y-106852354D01*
X89553197Y-107450157D01*
X89525667Y-107491359D01*
X89516000Y-107539960D01*
X89516000Y-111032460D01*
X81451500Y-111032460D01*
X81451500Y-104100066D01*
X86494303Y-99057263D01*
X86521833Y-99016061D01*
X86531500Y-98967460D01*
X86531500Y-94839960D01*
X86521833Y-94791359D01*
X86494303Y-94750157D01*
X85033803Y-93289657D01*
X84992601Y-93262127D01*
X84944000Y-93252460D01*
X72942500Y-93252460D01*
X72942500Y-90585460D01*
X89209394Y-90585460D01*
X90151000Y-91527066D01*
G36*
X117329000Y-88172460D02*
X101581000Y-88172460D01*
X101532399Y-88182127D01*
X101491197Y-88209657D01*
X97998697Y-91702157D01*
X97971167Y-91743359D01*
X97961500Y-91791960D01*
X97961500Y-111032460D01*
X91992500Y-111032460D01*
X91992500Y-108037066D01*
X92463303Y-107566263D01*
X92490833Y-107525061D01*
X92500500Y-107476460D01*
X92500500Y-86764566D01*
X93632606Y-85632460D01*
X97707500Y-85632460D01*
X97756101Y-85622793D01*
X97797303Y-85595263D01*
X98585606Y-84806960D01*
X117329000Y-84806960D01*
X117329000Y-88172460D01*
X117329000Y-88172460D01*
G37*
X117329000Y-88172460D02*
X101581000Y-88172460D01*
X101532399Y-88182127D01*
X101491197Y-88209657D01*
X97998697Y-91702157D01*
X97971167Y-91743359D01*
X97961500Y-91791960D01*
X97961500Y-111032460D01*
X91992500Y-111032460D01*
X91992500Y-108037066D01*
X92463303Y-107566263D01*
X92490833Y-107525061D01*
X92500500Y-107476460D01*
X92500500Y-86764566D01*
X93632606Y-85632460D01*
X97707500Y-85632460D01*
X97756101Y-85622793D01*
X97797303Y-85595263D01*
X98585606Y-84806960D01*
X117329000Y-84806960D01*
X117329000Y-88172460D01*
G36*
X117329000Y-93252460D02*
X105772000Y-93252460D01*
X105723399Y-93262127D01*
X105682197Y-93289657D01*
X104285197Y-94686657D01*
X104257667Y-94727859D01*
X104248000Y-94776460D01*
X104248000Y-99094460D01*
X104257667Y-99143061D01*
X104285197Y-99184263D01*
X108121500Y-103020566D01*
X108121500Y-111032460D01*
X100565000Y-111032460D01*
X100565000Y-92352566D01*
X102332106Y-90585460D01*
X117329000Y-90585460D01*
X117329000Y-93252460D01*
X117329000Y-93252460D01*
G37*
X117329000Y-93252460D02*
X105772000Y-93252460D01*
X105723399Y-93262127D01*
X105682197Y-93289657D01*
X104285197Y-94686657D01*
X104257667Y-94727859D01*
X104248000Y-94776460D01*
X104248000Y-99094460D01*
X104257667Y-99143061D01*
X104285197Y-99184263D01*
X108121500Y-103020566D01*
X108121500Y-111032460D01*
X100565000Y-111032460D01*
X100565000Y-92352566D01*
X102332106Y-90585460D01*
X117329000Y-90585460D01*
X117329000Y-93252460D01*
G36*
X84245500Y-88172460D02*
X57131000Y-88172460D01*
X57131000Y-84806960D01*
X84245500Y-84806960D01*
X84245500Y-88172460D01*
X84245500Y-88172460D01*
G37*
X84245500Y-88172460D02*
X57131000Y-88172460D01*
X57131000Y-84806960D01*
X84245500Y-84806960D01*
X84245500Y-88172460D01*
G36*
X68434000Y-93262620D02*
X56432500Y-93262620D01*
X56383899Y-93272287D01*
X56342697Y-93299817D01*
X54882197Y-94760317D01*
X54854667Y-94801519D01*
X54845000Y-94850120D01*
X54845000Y-98977620D01*
X54854667Y-99026221D01*
X54882197Y-99067423D01*
X59925000Y-104110226D01*
X59925000Y-111042620D01*
X51860500Y-111042620D01*
X51860500Y-107677120D01*
X51850833Y-107628519D01*
X51823303Y-107587317D01*
X51445749Y-107209763D01*
X51442790Y-107194886D01*
X51225500Y-106869689D01*
X51225500Y-91537226D01*
X52167106Y-90595620D01*
X68434000Y-90595620D01*
X68434000Y-93262620D01*
X68434000Y-93262620D01*
G37*
X68434000Y-93262620D02*
X56432500Y-93262620D01*
X56383899Y-93272287D01*
X56342697Y-93299817D01*
X54882197Y-94760317D01*
X54854667Y-94801519D01*
X54845000Y-94850120D01*
X54845000Y-98977620D01*
X54854667Y-99026221D01*
X54882197Y-99067423D01*
X59925000Y-104110226D01*
X59925000Y-111042620D01*
X51860500Y-111042620D01*
X51860500Y-107677120D01*
X51850833Y-107628519D01*
X51823303Y-107587317D01*
X51445749Y-107209763D01*
X51442790Y-107194886D01*
X51225500Y-106869689D01*
X51225500Y-91537226D01*
X52167106Y-90595620D01*
X68434000Y-90595620D01*
X68434000Y-93262620D01*
G36*
X68434000Y-111035000D02*
X62338000Y-111035000D01*
X62338000Y-103288000D01*
X62328333Y-103239399D01*
X62300803Y-103198197D01*
X57131000Y-98028394D01*
X57131000Y-95668000D01*
X68434000Y-95668000D01*
X68434000Y-111035000D01*
X68434000Y-111035000D01*
G37*
X68434000Y-111035000D02*
X62338000Y-111035000D01*
X62338000Y-103288000D01*
X62328333Y-103239399D01*
X62300803Y-103198197D01*
X57131000Y-98028394D01*
X57131000Y-95668000D01*
X68434000Y-95668000D01*
X68434000Y-111035000D01*
G36*
X34906000Y-98064339D02*
X30879197Y-102091142D01*
X30851667Y-102132344D01*
X30842000Y-102180945D01*
X30842000Y-111032460D01*
X24111000Y-111032460D01*
X24111000Y-95601960D01*
X34906000Y-95601960D01*
X34906000Y-98064339D01*
X34906000Y-98064339D01*
G37*
X34906000Y-98064339D02*
X30879197Y-102091142D01*
X30851667Y-102132344D01*
X30842000Y-102180945D01*
X30842000Y-111032460D01*
X24111000Y-111032460D01*
X24111000Y-95601960D01*
X34906000Y-95601960D01*
X34906000Y-98064339D01*
G36*
X40875000Y-92352566D02*
X40875000Y-111032460D01*
X33318500Y-111032460D01*
X33318500Y-103020566D01*
X37154803Y-99184263D01*
X37182333Y-99143061D01*
X37192000Y-99094460D01*
X37192000Y-94776460D01*
X37182333Y-94727859D01*
X37154803Y-94686657D01*
X35757803Y-93289657D01*
X35716601Y-93262127D01*
X35668000Y-93252460D01*
X24111000Y-93252460D01*
X24111000Y-90585460D01*
X39107894Y-90585460D01*
X40875000Y-92352566D01*
X40875000Y-92352566D01*
G37*
X40875000Y-92352566D02*
X40875000Y-111032460D01*
X33318500Y-111032460D01*
X33318500Y-103020566D01*
X37154803Y-99184263D01*
X37182333Y-99143061D01*
X37192000Y-99094460D01*
X37192000Y-94776460D01*
X37182333Y-94727859D01*
X37154803Y-94686657D01*
X35757803Y-93289657D01*
X35716601Y-93262127D01*
X35668000Y-93252460D01*
X24111000Y-93252460D01*
X24111000Y-90585460D01*
X39107894Y-90585460D01*
X40875000Y-92352566D01*
G36*
X43579197Y-85658763D02*
X43620399Y-85686293D01*
X43669000Y-85695960D01*
X47807394Y-85695960D01*
X48876000Y-86764566D01*
X48876000Y-107539960D01*
X48885667Y-107588561D01*
X48913197Y-107629763D01*
X49384000Y-108100566D01*
X49384000Y-111095960D01*
X43415000Y-111095960D01*
X43415000Y-91855460D01*
X43405333Y-91806859D01*
X43377803Y-91765657D01*
X39885303Y-88273157D01*
X39844101Y-88245627D01*
X39795500Y-88235960D01*
X24111000Y-88235960D01*
X24111000Y-84870460D01*
X42790894Y-84870460D01*
X43579197Y-85658763D01*
X43579197Y-85658763D01*
G37*
X43579197Y-85658763D02*
X43620399Y-85686293D01*
X43669000Y-85695960D01*
X47807394Y-85695960D01*
X48876000Y-86764566D01*
X48876000Y-107539960D01*
X48885667Y-107588561D01*
X48913197Y-107629763D01*
X49384000Y-108100566D01*
X49384000Y-111095960D01*
X43415000Y-111095960D01*
X43415000Y-91855460D01*
X43405333Y-91806859D01*
X43377803Y-91765657D01*
X39885303Y-88273157D01*
X39844101Y-88245627D01*
X39795500Y-88235960D01*
X24111000Y-88235960D01*
X24111000Y-84870460D01*
X42790894Y-84870460D01*
X43579197Y-85658763D01*
G36*
X162263000Y-49131600D02*
X162272667Y-49180201D01*
X162300197Y-49221403D01*
X162341399Y-49248933D01*
X162390000Y-49258600D01*
X171153000Y-49258600D01*
X171153000Y-74912600D01*
X125433000Y-74912600D01*
X125433000Y-71508650D01*
X134082000Y-71508650D01*
X134082000Y-72258550D01*
X134368974Y-72951367D01*
X134899233Y-73481626D01*
X135592050Y-73768600D01*
X136341950Y-73768600D01*
X137034767Y-73481626D01*
X137299473Y-73216920D01*
X142313285Y-73216920D01*
X142442533Y-73509723D01*
X143142806Y-73777988D01*
X143892435Y-73757850D01*
X144491467Y-73509723D01*
X144620715Y-73216920D01*
X151831285Y-73216920D01*
X151960533Y-73509723D01*
X152660806Y-73777988D01*
X153410435Y-73757850D01*
X154009467Y-73509723D01*
X154138715Y-73216920D01*
X152985000Y-72063205D01*
X151831285Y-73216920D01*
X144620715Y-73216920D01*
X143467000Y-72063205D01*
X142313285Y-73216920D01*
X137299473Y-73216920D01*
X137565026Y-72951367D01*
X137852000Y-72258550D01*
X137852000Y-71559406D01*
X141572612Y-71559406D01*
X141592750Y-72309035D01*
X141840877Y-72908067D01*
X142133680Y-73037315D01*
X143287395Y-71883600D01*
X143646605Y-71883600D01*
X144800320Y-73037315D01*
X145093123Y-72908067D01*
X145361388Y-72207794D01*
X145343970Y-71559406D01*
X151090612Y-71559406D01*
X151110750Y-72309035D01*
X151358877Y-72908067D01*
X151651680Y-73037315D01*
X152805395Y-71883600D01*
X153164605Y-71883600D01*
X154318320Y-73037315D01*
X154611123Y-72908067D01*
X154879388Y-72207794D01*
X154860607Y-71508650D01*
X158600000Y-71508650D01*
X158600000Y-72258550D01*
X158886974Y-72951367D01*
X159417233Y-73481626D01*
X160110050Y-73768600D01*
X160859950Y-73768600D01*
X161552767Y-73481626D01*
X162083026Y-72951367D01*
X162370000Y-72258550D01*
X162370000Y-71508650D01*
X162083026Y-70815833D01*
X161552767Y-70285574D01*
X160859950Y-69998600D01*
X160110050Y-69998600D01*
X159417233Y-70285574D01*
X158886974Y-70815833D01*
X158600000Y-71508650D01*
X154860607Y-71508650D01*
X154859250Y-71458165D01*
X154611123Y-70859133D01*
X154318320Y-70729885D01*
X153164605Y-71883600D01*
X152805395Y-71883600D01*
X151651680Y-70729885D01*
X151358877Y-70859133D01*
X151090612Y-71559406D01*
X145343970Y-71559406D01*
X145341250Y-71458165D01*
X145093123Y-70859133D01*
X144800320Y-70729885D01*
X143646605Y-71883600D01*
X143287395Y-71883600D01*
X142133680Y-70729885D01*
X141840877Y-70859133D01*
X141572612Y-71559406D01*
X137852000Y-71559406D01*
X137852000Y-71508650D01*
X137565026Y-70815833D01*
X137299473Y-70550280D01*
X142313285Y-70550280D01*
X143467000Y-71703995D01*
X144620715Y-70550280D01*
X151831285Y-70550280D01*
X152985000Y-71703995D01*
X154138715Y-70550280D01*
X154009467Y-70257477D01*
X153309194Y-69989212D01*
X152559565Y-70009350D01*
X151960533Y-70257477D01*
X151831285Y-70550280D01*
X144620715Y-70550280D01*
X144491467Y-70257477D01*
X143791194Y-69989212D01*
X143041565Y-70009350D01*
X142442533Y-70257477D01*
X142313285Y-70550280D01*
X137299473Y-70550280D01*
X137034767Y-70285574D01*
X136341950Y-69998600D01*
X135592050Y-69998600D01*
X134899233Y-70285574D01*
X134368974Y-70815833D01*
X134082000Y-71508650D01*
X125433000Y-71508650D01*
X125433000Y-59609100D01*
X125557387Y-59609100D01*
X125668760Y-60169009D01*
X125985923Y-60643677D01*
X126119644Y-60733026D01*
X126118163Y-60740470D01*
X126186848Y-61085779D01*
X126333076Y-61304624D01*
X126333078Y-61304626D01*
X126382452Y-61378519D01*
X126456345Y-61427893D01*
X127850000Y-62821549D01*
X127850000Y-62890540D01*
X127740000Y-62868660D01*
X127190000Y-62868660D01*
X126836997Y-62938877D01*
X126537736Y-63138836D01*
X126337777Y-63438097D01*
X126267560Y-63791100D01*
X126267560Y-65041100D01*
X126337777Y-65394103D01*
X126537736Y-65693364D01*
X126836997Y-65893323D01*
X127190000Y-65963540D01*
X127537560Y-65963540D01*
X127537560Y-67111100D01*
X127607777Y-67464103D01*
X127807736Y-67763364D01*
X128106997Y-67963323D01*
X128460000Y-68033540D01*
X129010000Y-68033540D01*
X129363003Y-67963323D01*
X129662264Y-67763364D01*
X129862223Y-67464103D01*
X129932440Y-67111100D01*
X129932440Y-65963540D01*
X130555000Y-65963540D01*
X130802765Y-65914257D01*
X131012809Y-65773909D01*
X131153157Y-65563865D01*
X131202440Y-65316100D01*
X131202440Y-65260600D01*
X132871510Y-65260600D01*
X133006166Y-65937563D01*
X133389635Y-66511465D01*
X133963537Y-66894934D01*
X134469620Y-66995600D01*
X134811380Y-66995600D01*
X135317463Y-66894934D01*
X135891365Y-66511465D01*
X136274834Y-65937563D01*
X136352650Y-65546350D01*
X143065500Y-65546350D01*
X143065500Y-66486910D01*
X143162173Y-66720299D01*
X143340802Y-66898927D01*
X143574191Y-66995600D01*
X144514750Y-66995600D01*
X144673500Y-66836850D01*
X144673500Y-65387600D01*
X144927500Y-65387600D01*
X144927500Y-66836850D01*
X145086250Y-66995600D01*
X146026809Y-66995600D01*
X146260198Y-66898927D01*
X146438827Y-66720299D01*
X146535500Y-66486910D01*
X146535500Y-65546350D01*
X149987000Y-65546350D01*
X149987000Y-66486910D01*
X150083673Y-66720299D01*
X150262302Y-66898927D01*
X150495691Y-66995600D01*
X151436250Y-66995600D01*
X151595000Y-66836850D01*
X151595000Y-65387600D01*
X151849000Y-65387600D01*
X151849000Y-66836850D01*
X152007750Y-66995600D01*
X152948309Y-66995600D01*
X153181698Y-66898927D01*
X153360327Y-66720299D01*
X153457000Y-66486910D01*
X153457000Y-65546350D01*
X153298250Y-65387600D01*
X151849000Y-65387600D01*
X151595000Y-65387600D01*
X150145750Y-65387600D01*
X149987000Y-65546350D01*
X146535500Y-65546350D01*
X146376750Y-65387600D01*
X144927500Y-65387600D01*
X144673500Y-65387600D01*
X143224250Y-65387600D01*
X143065500Y-65546350D01*
X136352650Y-65546350D01*
X136409490Y-65260600D01*
X160113010Y-65260600D01*
X160247666Y-65937563D01*
X160631135Y-66511465D01*
X161205037Y-66894934D01*
X161711120Y-66995600D01*
X162052880Y-66995600D01*
X162558963Y-66894934D01*
X163132865Y-66511465D01*
X163516334Y-65937563D01*
X163650990Y-65260600D01*
X163516334Y-64583637D01*
X163132865Y-64009735D01*
X162558963Y-63626266D01*
X162052880Y-63525600D01*
X161711120Y-63525600D01*
X161205037Y-63626266D01*
X160631135Y-64009735D01*
X160247666Y-64583637D01*
X160113010Y-65260600D01*
X136409490Y-65260600D01*
X136274834Y-64583637D01*
X135907773Y-64034290D01*
X143065500Y-64034290D01*
X143065500Y-64974850D01*
X143224250Y-65133600D01*
X144673500Y-65133600D01*
X144673500Y-63684350D01*
X144927500Y-63684350D01*
X144927500Y-65133600D01*
X146376750Y-65133600D01*
X146535500Y-64974850D01*
X146535500Y-64034290D01*
X149987000Y-64034290D01*
X149987000Y-64974850D01*
X150145750Y-65133600D01*
X151595000Y-65133600D01*
X151595000Y-63684350D01*
X151849000Y-63684350D01*
X151849000Y-65133600D01*
X153298250Y-65133600D01*
X153457000Y-64974850D01*
X153457000Y-64034290D01*
X153360327Y-63800901D01*
X153181698Y-63622273D01*
X152948309Y-63525600D01*
X152007750Y-63525600D01*
X151849000Y-63684350D01*
X151595000Y-63684350D01*
X151436250Y-63525600D01*
X150495691Y-63525600D01*
X150262302Y-63622273D01*
X150083673Y-63800901D01*
X149987000Y-64034290D01*
X146535500Y-64034290D01*
X146438827Y-63800901D01*
X146260198Y-63622273D01*
X146026809Y-63525600D01*
X145086250Y-63525600D01*
X144927500Y-63684350D01*
X144673500Y-63684350D01*
X144514750Y-63525600D01*
X143574191Y-63525600D01*
X143340802Y-63622273D01*
X143162173Y-63800901D01*
X143065500Y-64034290D01*
X135907773Y-64034290D01*
X135891365Y-64009735D01*
X135317463Y-63626266D01*
X134811380Y-63525600D01*
X134469620Y-63525600D01*
X133963537Y-63626266D01*
X133389635Y-64009735D01*
X133006166Y-64583637D01*
X132871510Y-65260600D01*
X131202440Y-65260600D01*
X131202440Y-63516100D01*
X131153157Y-63268335D01*
X131012809Y-63058291D01*
X130802765Y-62917943D01*
X130555000Y-62868660D01*
X129620000Y-62868660D01*
X129620000Y-62542129D01*
X129637337Y-62454969D01*
X129620000Y-62367809D01*
X129620000Y-62367805D01*
X129568652Y-62109660D01*
X129373049Y-61816921D01*
X129299156Y-61767547D01*
X128103226Y-60571617D01*
X128290106Y-60291932D01*
X128343966Y-60421962D01*
X128747638Y-60825634D01*
X129275061Y-61044100D01*
X129845939Y-61044100D01*
X130373362Y-60825634D01*
X130777034Y-60421962D01*
X130942853Y-60021639D01*
X135452096Y-60021639D01*
X135469633Y-60104419D01*
X135739500Y-60597496D01*
X136177517Y-60949766D01*
X136717000Y-61107600D01*
X137117000Y-61107600D01*
X137117000Y-59799600D01*
X137371000Y-59799600D01*
X137371000Y-61107600D01*
X137771000Y-61107600D01*
X138310483Y-60949766D01*
X138748500Y-60597496D01*
X139018367Y-60104419D01*
X139035904Y-60021639D01*
X138913915Y-59799600D01*
X137371000Y-59799600D01*
X137117000Y-59799600D01*
X135574085Y-59799600D01*
X135452096Y-60021639D01*
X130942853Y-60021639D01*
X130995500Y-59894539D01*
X130995500Y-59425678D01*
X132403579Y-58017600D01*
X135709479Y-58017600D01*
X135809423Y-58167177D01*
X136165499Y-58405099D01*
X135739500Y-58747704D01*
X135469633Y-59240781D01*
X135452096Y-59323561D01*
X135574085Y-59545600D01*
X137117000Y-59545600D01*
X137117000Y-59525600D01*
X137371000Y-59525600D01*
X137371000Y-59545600D01*
X138913915Y-59545600D01*
X139035904Y-59323561D01*
X139018367Y-59240781D01*
X138748500Y-58747704D01*
X138322501Y-58405099D01*
X138678577Y-58167177D01*
X138995740Y-57692509D01*
X139107113Y-57132600D01*
X138995740Y-56572691D01*
X138678577Y-56098023D01*
X138326242Y-55862600D01*
X138678577Y-55627177D01*
X138995740Y-55152509D01*
X139107113Y-54592600D01*
X143000887Y-54592600D01*
X143112260Y-55152509D01*
X143429423Y-55627177D01*
X143781758Y-55862600D01*
X143429423Y-56098023D01*
X143112260Y-56572691D01*
X143000887Y-57132600D01*
X143112260Y-57692509D01*
X143429423Y-58167177D01*
X143781758Y-58402600D01*
X143429423Y-58638023D01*
X143112260Y-59112691D01*
X143000887Y-59672600D01*
X143112260Y-60232509D01*
X143429423Y-60707177D01*
X143904091Y-61024340D01*
X144322667Y-61107600D01*
X145405333Y-61107600D01*
X145823909Y-61024340D01*
X146298577Y-60707177D01*
X146615740Y-60232509D01*
X146682946Y-59894639D01*
X149930096Y-59894639D01*
X149947633Y-59977419D01*
X150217500Y-60470496D01*
X150655517Y-60822766D01*
X151195000Y-60980600D01*
X151595000Y-60980600D01*
X151595000Y-59672600D01*
X151849000Y-59672600D01*
X151849000Y-60980600D01*
X152249000Y-60980600D01*
X152788483Y-60822766D01*
X153226500Y-60470496D01*
X153496367Y-59977419D01*
X153513904Y-59894639D01*
X153391915Y-59672600D01*
X151849000Y-59672600D01*
X151595000Y-59672600D01*
X150052085Y-59672600D01*
X149930096Y-59894639D01*
X146682946Y-59894639D01*
X146727113Y-59672600D01*
X146615740Y-59112691D01*
X146298577Y-58638023D01*
X145946242Y-58402600D01*
X146298577Y-58167177D01*
X146615740Y-57692509D01*
X146727113Y-57132600D01*
X146615740Y-56572691D01*
X146298577Y-56098023D01*
X145946242Y-55862600D01*
X146298577Y-55627177D01*
X146615740Y-55152509D01*
X146727113Y-54592600D01*
X146615740Y-54032691D01*
X146298577Y-53558023D01*
X145942501Y-53320101D01*
X146368500Y-52977496D01*
X146638367Y-52484419D01*
X146655904Y-52401639D01*
X146533915Y-52179600D01*
X144991000Y-52179600D01*
X144991000Y-52199600D01*
X144737000Y-52199600D01*
X144737000Y-52179600D01*
X143194085Y-52179600D01*
X143072096Y-52401639D01*
X143089633Y-52484419D01*
X143359500Y-52977496D01*
X143785499Y-53320101D01*
X143429423Y-53558023D01*
X143112260Y-54032691D01*
X143000887Y-54592600D01*
X139107113Y-54592600D01*
X138995740Y-54032691D01*
X138678577Y-53558023D01*
X138557894Y-53477385D01*
X138691765Y-53450757D01*
X138901809Y-53310409D01*
X139042157Y-53100365D01*
X139091440Y-52852600D01*
X139091440Y-51703561D01*
X143072096Y-51703561D01*
X143194085Y-51925600D01*
X144737000Y-51925600D01*
X144737000Y-50617600D01*
X144991000Y-50617600D01*
X144991000Y-51925600D01*
X146533915Y-51925600D01*
X149858887Y-51925600D01*
X149970260Y-52485509D01*
X150287423Y-52960177D01*
X150639758Y-53195600D01*
X150287423Y-53431023D01*
X149970260Y-53905691D01*
X149858887Y-54465600D01*
X149970260Y-55025509D01*
X150287423Y-55500177D01*
X150639758Y-55735600D01*
X150287423Y-55971023D01*
X149970260Y-56445691D01*
X149858887Y-57005600D01*
X149970260Y-57565509D01*
X150287423Y-58040177D01*
X150643499Y-58278099D01*
X150217500Y-58620704D01*
X149947633Y-59113781D01*
X149930096Y-59196561D01*
X150052085Y-59418600D01*
X151595000Y-59418600D01*
X151595000Y-59398600D01*
X151849000Y-59398600D01*
X151849000Y-59418600D01*
X153391915Y-59418600D01*
X153513904Y-59196561D01*
X153496367Y-59113781D01*
X153226500Y-58620704D01*
X152800501Y-58278099D01*
X153156577Y-58040177D01*
X153473740Y-57565509D01*
X153585113Y-57005600D01*
X153473740Y-56445691D01*
X153156577Y-55971023D01*
X152804242Y-55735600D01*
X153156577Y-55500177D01*
X153473740Y-55025509D01*
X153585113Y-54465600D01*
X157478887Y-54465600D01*
X157590260Y-55025509D01*
X157907423Y-55500177D01*
X158259758Y-55735600D01*
X157907423Y-55971023D01*
X157590260Y-56445691D01*
X157478887Y-57005600D01*
X157590260Y-57565509D01*
X157907423Y-58040177D01*
X158028106Y-58120815D01*
X157894235Y-58147443D01*
X157684191Y-58287791D01*
X157543843Y-58497835D01*
X157494560Y-58745600D01*
X157494560Y-60345600D01*
X157543843Y-60593365D01*
X157684191Y-60803409D01*
X157894235Y-60943757D01*
X158142000Y-60993040D01*
X160542000Y-60993040D01*
X160789765Y-60943757D01*
X160999809Y-60803409D01*
X161140157Y-60593365D01*
X161189440Y-60345600D01*
X161189440Y-58745600D01*
X161140157Y-58497835D01*
X160999809Y-58287791D01*
X160789765Y-58147443D01*
X160655894Y-58120815D01*
X160776577Y-58040177D01*
X161093740Y-57565509D01*
X161205113Y-57005600D01*
X161093740Y-56445691D01*
X160776577Y-55971023D01*
X160424242Y-55735600D01*
X160776577Y-55500177D01*
X160876521Y-55350600D01*
X161515422Y-55350600D01*
X165590500Y-59425679D01*
X165590500Y-59894539D01*
X165808966Y-60421962D01*
X166212638Y-60825634D01*
X166740061Y-61044100D01*
X167310939Y-61044100D01*
X167838362Y-60825634D01*
X168242034Y-60421962D01*
X168295894Y-60291932D01*
X168530923Y-60643677D01*
X168680500Y-60743621D01*
X168680501Y-62481020D01*
X168477036Y-62684486D01*
X168126000Y-62614660D01*
X167576000Y-62614660D01*
X167222997Y-62684877D01*
X166923736Y-62884836D01*
X166723777Y-63184097D01*
X166653560Y-63537100D01*
X166653560Y-64684660D01*
X166031000Y-64684660D01*
X165783235Y-64733943D01*
X165573191Y-64874291D01*
X165432843Y-65084335D01*
X165383560Y-65332100D01*
X165383560Y-67132100D01*
X165432843Y-67379865D01*
X165573191Y-67589909D01*
X165783235Y-67730257D01*
X166031000Y-67779540D01*
X167131000Y-67779540D01*
X167378765Y-67730257D01*
X167588809Y-67589909D01*
X167729157Y-67379865D01*
X167778440Y-67132100D01*
X167778440Y-65709540D01*
X167923560Y-65709540D01*
X167923560Y-66857100D01*
X167993777Y-67210103D01*
X168193736Y-67509364D01*
X168492997Y-67709323D01*
X168846000Y-67779540D01*
X169396000Y-67779540D01*
X169749003Y-67709323D01*
X170048264Y-67509364D01*
X170248223Y-67210103D01*
X170318440Y-66857100D01*
X170318440Y-65607100D01*
X170248223Y-65254097D01*
X170048264Y-64954836D01*
X169749003Y-64754877D01*
X169396000Y-64684660D01*
X169048440Y-64684660D01*
X169048440Y-64616238D01*
X170129656Y-63535023D01*
X170203549Y-63485649D01*
X170399152Y-63192910D01*
X170450500Y-62934765D01*
X170450500Y-62934761D01*
X170467837Y-62847601D01*
X170450500Y-62760441D01*
X170450500Y-60743621D01*
X170600077Y-60643677D01*
X170917240Y-60169009D01*
X171028613Y-59609100D01*
X170917240Y-59049191D01*
X170600077Y-58574523D01*
X170125409Y-58257360D01*
X169706833Y-58174100D01*
X169424167Y-58174100D01*
X169005591Y-58257360D01*
X168530923Y-58574523D01*
X168295894Y-58926268D01*
X168242034Y-58796238D01*
X167838362Y-58392566D01*
X167310939Y-58174100D01*
X166842079Y-58174100D01*
X162569425Y-53901447D01*
X162520049Y-53827551D01*
X162227310Y-53631948D01*
X161969165Y-53580600D01*
X161969161Y-53580600D01*
X161882000Y-53563263D01*
X161794839Y-53580600D01*
X160876521Y-53580600D01*
X160776577Y-53431023D01*
X160420501Y-53193101D01*
X160846500Y-52850496D01*
X160848598Y-52846661D01*
X162940000Y-52846661D01*
X162940000Y-53417539D01*
X163158466Y-53944962D01*
X163562138Y-54348634D01*
X164089561Y-54567100D01*
X164660439Y-54567100D01*
X165187862Y-54348634D01*
X165591534Y-53944962D01*
X165809871Y-53417850D01*
X167940000Y-53417850D01*
X167940000Y-54058410D01*
X168036673Y-54291799D01*
X168215302Y-54470427D01*
X168448691Y-54567100D01*
X169089250Y-54567100D01*
X169248000Y-54408350D01*
X169248000Y-53259100D01*
X169502000Y-53259100D01*
X169502000Y-54408350D01*
X169660750Y-54567100D01*
X170301309Y-54567100D01*
X170534698Y-54470427D01*
X170713327Y-54291799D01*
X170810000Y-54058410D01*
X170810000Y-53417850D01*
X170651250Y-53259100D01*
X169502000Y-53259100D01*
X169248000Y-53259100D01*
X168098750Y-53259100D01*
X167940000Y-53417850D01*
X165809871Y-53417850D01*
X165810000Y-53417539D01*
X165810000Y-52846661D01*
X165591534Y-52319238D01*
X165478086Y-52205790D01*
X167940000Y-52205790D01*
X167940000Y-52846350D01*
X168098750Y-53005100D01*
X169248000Y-53005100D01*
X169248000Y-51855850D01*
X169502000Y-51855850D01*
X169502000Y-53005100D01*
X170651250Y-53005100D01*
X170810000Y-52846350D01*
X170810000Y-52205790D01*
X170713327Y-51972401D01*
X170534698Y-51793773D01*
X170301309Y-51697100D01*
X169660750Y-51697100D01*
X169502000Y-51855850D01*
X169248000Y-51855850D01*
X169089250Y-51697100D01*
X168448691Y-51697100D01*
X168215302Y-51793773D01*
X168036673Y-51972401D01*
X167940000Y-52205790D01*
X165478086Y-52205790D01*
X165187862Y-51915566D01*
X164660439Y-51697100D01*
X164089561Y-51697100D01*
X163562138Y-51915566D01*
X163158466Y-52319238D01*
X162940000Y-52846661D01*
X160848598Y-52846661D01*
X161116367Y-52357419D01*
X161133904Y-52274639D01*
X161011915Y-52052600D01*
X159469000Y-52052600D01*
X159469000Y-52072600D01*
X159215000Y-52072600D01*
X159215000Y-52052600D01*
X157672085Y-52052600D01*
X157550096Y-52274639D01*
X157567633Y-52357419D01*
X157837500Y-52850496D01*
X158263499Y-53193101D01*
X157907423Y-53431023D01*
X157590260Y-53905691D01*
X157478887Y-54465600D01*
X153585113Y-54465600D01*
X153473740Y-53905691D01*
X153156577Y-53431023D01*
X152804242Y-53195600D01*
X153156577Y-52960177D01*
X153473740Y-52485509D01*
X153585113Y-51925600D01*
X153515685Y-51576561D01*
X157550096Y-51576561D01*
X157672085Y-51798600D01*
X159215000Y-51798600D01*
X159215000Y-50490600D01*
X159469000Y-50490600D01*
X159469000Y-51798600D01*
X161011915Y-51798600D01*
X161133904Y-51576561D01*
X161116367Y-51493781D01*
X160846500Y-51000704D01*
X160408483Y-50648434D01*
X159869000Y-50490600D01*
X159469000Y-50490600D01*
X159215000Y-50490600D01*
X158815000Y-50490600D01*
X158275517Y-50648434D01*
X157837500Y-51000704D01*
X157567633Y-51493781D01*
X157550096Y-51576561D01*
X153515685Y-51576561D01*
X153473740Y-51365691D01*
X153156577Y-50891023D01*
X152681909Y-50573860D01*
X152263333Y-50490600D01*
X151180667Y-50490600D01*
X150762091Y-50573860D01*
X150287423Y-50891023D01*
X149970260Y-51365691D01*
X149858887Y-51925600D01*
X146533915Y-51925600D01*
X146655904Y-51703561D01*
X146638367Y-51620781D01*
X146368500Y-51127704D01*
X145930483Y-50775434D01*
X145391000Y-50617600D01*
X144991000Y-50617600D01*
X144737000Y-50617600D01*
X144337000Y-50617600D01*
X143797517Y-50775434D01*
X143359500Y-51127704D01*
X143089633Y-51620781D01*
X143072096Y-51703561D01*
X139091440Y-51703561D01*
X139091440Y-51252600D01*
X139042157Y-51004835D01*
X138901809Y-50794791D01*
X138691765Y-50654443D01*
X138444000Y-50605160D01*
X136044000Y-50605160D01*
X135796235Y-50654443D01*
X135586191Y-50794791D01*
X135445843Y-51004835D01*
X135396560Y-51252600D01*
X135396560Y-52852600D01*
X135445843Y-53100365D01*
X135586191Y-53310409D01*
X135796235Y-53450757D01*
X135930106Y-53477385D01*
X135809423Y-53558023D01*
X135492260Y-54032691D01*
X135380887Y-54592600D01*
X135492260Y-55152509D01*
X135809423Y-55627177D01*
X136161758Y-55862600D01*
X135809423Y-56098023D01*
X135709479Y-56247600D01*
X132124161Y-56247600D01*
X132037000Y-56230263D01*
X131949839Y-56247600D01*
X131949835Y-56247600D01*
X131691690Y-56298948D01*
X131472845Y-56445176D01*
X131472844Y-56445177D01*
X131398951Y-56494551D01*
X131349577Y-56568444D01*
X129743922Y-58174100D01*
X129275061Y-58174100D01*
X128747638Y-58392566D01*
X128343966Y-58796238D01*
X128290106Y-58926268D01*
X128055077Y-58574523D01*
X127580409Y-58257360D01*
X127161833Y-58174100D01*
X126879167Y-58174100D01*
X126460591Y-58257360D01*
X125985923Y-58574523D01*
X125668760Y-59049191D01*
X125557387Y-59609100D01*
X125433000Y-59609100D01*
X125433000Y-53417850D01*
X125776000Y-53417850D01*
X125776000Y-54058410D01*
X125872673Y-54291799D01*
X126051302Y-54470427D01*
X126284691Y-54567100D01*
X126925250Y-54567100D01*
X127084000Y-54408350D01*
X127084000Y-53259100D01*
X127338000Y-53259100D01*
X127338000Y-54408350D01*
X127496750Y-54567100D01*
X128137309Y-54567100D01*
X128370698Y-54470427D01*
X128549327Y-54291799D01*
X128646000Y-54058410D01*
X128646000Y-53417850D01*
X128487250Y-53259100D01*
X127338000Y-53259100D01*
X127084000Y-53259100D01*
X125934750Y-53259100D01*
X125776000Y-53417850D01*
X125433000Y-53417850D01*
X125433000Y-52205790D01*
X125776000Y-52205790D01*
X125776000Y-52846350D01*
X125934750Y-53005100D01*
X127084000Y-53005100D01*
X127084000Y-51855850D01*
X127338000Y-51855850D01*
X127338000Y-53005100D01*
X128487250Y-53005100D01*
X128645689Y-52846661D01*
X130776000Y-52846661D01*
X130776000Y-53417539D01*
X130994466Y-53944962D01*
X131398138Y-54348634D01*
X131925561Y-54567100D01*
X132496439Y-54567100D01*
X133023862Y-54348634D01*
X133427534Y-53944962D01*
X133646000Y-53417539D01*
X133646000Y-52846661D01*
X133427534Y-52319238D01*
X133023862Y-51915566D01*
X132496439Y-51697100D01*
X131925561Y-51697100D01*
X131398138Y-51915566D01*
X130994466Y-52319238D01*
X130776000Y-52846661D01*
X128645689Y-52846661D01*
X128646000Y-52846350D01*
X128646000Y-52205790D01*
X128549327Y-51972401D01*
X128370698Y-51793773D01*
X128137309Y-51697100D01*
X127496750Y-51697100D01*
X127338000Y-51855850D01*
X127084000Y-51855850D01*
X126925250Y-51697100D01*
X126284691Y-51697100D01*
X126051302Y-51793773D01*
X125872673Y-51972401D01*
X125776000Y-52205790D01*
X125433000Y-52205790D01*
X125433000Y-49258600D01*
X133942000Y-49258600D01*
X133990601Y-49248933D01*
X134031803Y-49221403D01*
X134059333Y-49180201D01*
X134069000Y-49131600D01*
X134069000Y-47353600D01*
X135780887Y-47353600D01*
X135892260Y-47913509D01*
X136209423Y-48388177D01*
X136684091Y-48705340D01*
X137102667Y-48788600D01*
X137385333Y-48788600D01*
X137803909Y-48705340D01*
X138278577Y-48388177D01*
X138513606Y-48036432D01*
X138567466Y-48166462D01*
X138971138Y-48570134D01*
X139498561Y-48788600D01*
X140069439Y-48788600D01*
X140596862Y-48570134D01*
X141000534Y-48166462D01*
X141219000Y-47639039D01*
X141219000Y-47068161D01*
X155367000Y-47068161D01*
X155367000Y-47639039D01*
X155585466Y-48166462D01*
X155989138Y-48570134D01*
X156516561Y-48788600D01*
X157087439Y-48788600D01*
X157614862Y-48570134D01*
X158018534Y-48166462D01*
X158072394Y-48036432D01*
X158307423Y-48388177D01*
X158782091Y-48705340D01*
X159200667Y-48788600D01*
X159483333Y-48788600D01*
X159901909Y-48705340D01*
X160376577Y-48388177D01*
X160693740Y-47913509D01*
X160805113Y-47353600D01*
X160693740Y-46793691D01*
X160376577Y-46319023D01*
X159901909Y-46001860D01*
X159483333Y-45918600D01*
X159200667Y-45918600D01*
X158782091Y-46001860D01*
X158307423Y-46319023D01*
X158072394Y-46670768D01*
X158018534Y-46540738D01*
X157614862Y-46137066D01*
X157087439Y-45918600D01*
X156516561Y-45918600D01*
X155989138Y-46137066D01*
X155585466Y-46540738D01*
X155367000Y-47068161D01*
X141219000Y-47068161D01*
X141000534Y-46540738D01*
X140596862Y-46137066D01*
X140069439Y-45918600D01*
X139498561Y-45918600D01*
X138971138Y-46137066D01*
X138567466Y-46540738D01*
X138513606Y-46670768D01*
X138278577Y-46319023D01*
X137803909Y-46001860D01*
X137385333Y-45918600D01*
X137102667Y-45918600D01*
X136684091Y-46001860D01*
X136209423Y-46319023D01*
X135892260Y-46793691D01*
X135780887Y-47353600D01*
X134069000Y-47353600D01*
X134069000Y-44388922D01*
X143745000Y-44388922D01*
X143745000Y-45238278D01*
X144070034Y-46022980D01*
X144670620Y-46623566D01*
X145455322Y-46948600D01*
X146304678Y-46948600D01*
X147089380Y-46623566D01*
X147689966Y-46022980D01*
X148015000Y-45238278D01*
X148015000Y-45099350D01*
X148825000Y-45099350D01*
X148825000Y-46439910D01*
X148921673Y-46673299D01*
X149100302Y-46851927D01*
X149333691Y-46948600D01*
X150674250Y-46948600D01*
X150833000Y-46789850D01*
X150833000Y-44940600D01*
X151087000Y-44940600D01*
X151087000Y-46789850D01*
X151245750Y-46948600D01*
X152586309Y-46948600D01*
X152819698Y-46851927D01*
X152998327Y-46673299D01*
X153095000Y-46439910D01*
X153095000Y-45099350D01*
X152936250Y-44940600D01*
X151087000Y-44940600D01*
X150833000Y-44940600D01*
X148983750Y-44940600D01*
X148825000Y-45099350D01*
X148015000Y-45099350D01*
X148015000Y-44388922D01*
X147689966Y-43604220D01*
X147273036Y-43187290D01*
X148825000Y-43187290D01*
X148825000Y-44527850D01*
X148983750Y-44686600D01*
X150833000Y-44686600D01*
X150833000Y-42837350D01*
X151087000Y-42837350D01*
X151087000Y-44686600D01*
X152936250Y-44686600D01*
X153095000Y-44527850D01*
X153095000Y-43187290D01*
X152998327Y-42953901D01*
X152819698Y-42775273D01*
X152586309Y-42678600D01*
X151245750Y-42678600D01*
X151087000Y-42837350D01*
X150833000Y-42837350D01*
X150674250Y-42678600D01*
X149333691Y-42678600D01*
X149100302Y-42775273D01*
X148921673Y-42953901D01*
X148825000Y-43187290D01*
X147273036Y-43187290D01*
X147089380Y-43003634D01*
X146304678Y-42678600D01*
X145455322Y-42678600D01*
X144670620Y-43003634D01*
X144070034Y-43604220D01*
X143745000Y-44388922D01*
X134069000Y-44388922D01*
X134069000Y-40622600D01*
X162263000Y-40622600D01*
X162263000Y-49131600D01*
X162263000Y-49131600D01*
G37*
X162263000Y-49131600D02*
X162272667Y-49180201D01*
X162300197Y-49221403D01*
X162341399Y-49248933D01*
X162390000Y-49258600D01*
X171153000Y-49258600D01*
X171153000Y-74912600D01*
X125433000Y-74912600D01*
X125433000Y-71508650D01*
X134082000Y-71508650D01*
X134082000Y-72258550D01*
X134368974Y-72951367D01*
X134899233Y-73481626D01*
X135592050Y-73768600D01*
X136341950Y-73768600D01*
X137034767Y-73481626D01*
X137299473Y-73216920D01*
X142313285Y-73216920D01*
X142442533Y-73509723D01*
X143142806Y-73777988D01*
X143892435Y-73757850D01*
X144491467Y-73509723D01*
X144620715Y-73216920D01*
X151831285Y-73216920D01*
X151960533Y-73509723D01*
X152660806Y-73777988D01*
X153410435Y-73757850D01*
X154009467Y-73509723D01*
X154138715Y-73216920D01*
X152985000Y-72063205D01*
X151831285Y-73216920D01*
X144620715Y-73216920D01*
X143467000Y-72063205D01*
X142313285Y-73216920D01*
X137299473Y-73216920D01*
X137565026Y-72951367D01*
X137852000Y-72258550D01*
X137852000Y-71559406D01*
X141572612Y-71559406D01*
X141592750Y-72309035D01*
X141840877Y-72908067D01*
X142133680Y-73037315D01*
X143287395Y-71883600D01*
X143646605Y-71883600D01*
X144800320Y-73037315D01*
X145093123Y-72908067D01*
X145361388Y-72207794D01*
X145343970Y-71559406D01*
X151090612Y-71559406D01*
X151110750Y-72309035D01*
X151358877Y-72908067D01*
X151651680Y-73037315D01*
X152805395Y-71883600D01*
X153164605Y-71883600D01*
X154318320Y-73037315D01*
X154611123Y-72908067D01*
X154879388Y-72207794D01*
X154860607Y-71508650D01*
X158600000Y-71508650D01*
X158600000Y-72258550D01*
X158886974Y-72951367D01*
X159417233Y-73481626D01*
X160110050Y-73768600D01*
X160859950Y-73768600D01*
X161552767Y-73481626D01*
X162083026Y-72951367D01*
X162370000Y-72258550D01*
X162370000Y-71508650D01*
X162083026Y-70815833D01*
X161552767Y-70285574D01*
X160859950Y-69998600D01*
X160110050Y-69998600D01*
X159417233Y-70285574D01*
X158886974Y-70815833D01*
X158600000Y-71508650D01*
X154860607Y-71508650D01*
X154859250Y-71458165D01*
X154611123Y-70859133D01*
X154318320Y-70729885D01*
X153164605Y-71883600D01*
X152805395Y-71883600D01*
X151651680Y-70729885D01*
X151358877Y-70859133D01*
X151090612Y-71559406D01*
X145343970Y-71559406D01*
X145341250Y-71458165D01*
X145093123Y-70859133D01*
X144800320Y-70729885D01*
X143646605Y-71883600D01*
X143287395Y-71883600D01*
X142133680Y-70729885D01*
X141840877Y-70859133D01*
X141572612Y-71559406D01*
X137852000Y-71559406D01*
X137852000Y-71508650D01*
X137565026Y-70815833D01*
X137299473Y-70550280D01*
X142313285Y-70550280D01*
X143467000Y-71703995D01*
X144620715Y-70550280D01*
X151831285Y-70550280D01*
X152985000Y-71703995D01*
X154138715Y-70550280D01*
X154009467Y-70257477D01*
X153309194Y-69989212D01*
X152559565Y-70009350D01*
X151960533Y-70257477D01*
X151831285Y-70550280D01*
X144620715Y-70550280D01*
X144491467Y-70257477D01*
X143791194Y-69989212D01*
X143041565Y-70009350D01*
X142442533Y-70257477D01*
X142313285Y-70550280D01*
X137299473Y-70550280D01*
X137034767Y-70285574D01*
X136341950Y-69998600D01*
X135592050Y-69998600D01*
X134899233Y-70285574D01*
X134368974Y-70815833D01*
X134082000Y-71508650D01*
X125433000Y-71508650D01*
X125433000Y-59609100D01*
X125557387Y-59609100D01*
X125668760Y-60169009D01*
X125985923Y-60643677D01*
X126119644Y-60733026D01*
X126118163Y-60740470D01*
X126186848Y-61085779D01*
X126333076Y-61304624D01*
X126333078Y-61304626D01*
X126382452Y-61378519D01*
X126456345Y-61427893D01*
X127850000Y-62821549D01*
X127850000Y-62890540D01*
X127740000Y-62868660D01*
X127190000Y-62868660D01*
X126836997Y-62938877D01*
X126537736Y-63138836D01*
X126337777Y-63438097D01*
X126267560Y-63791100D01*
X126267560Y-65041100D01*
X126337777Y-65394103D01*
X126537736Y-65693364D01*
X126836997Y-65893323D01*
X127190000Y-65963540D01*
X127537560Y-65963540D01*
X127537560Y-67111100D01*
X127607777Y-67464103D01*
X127807736Y-67763364D01*
X128106997Y-67963323D01*
X128460000Y-68033540D01*
X129010000Y-68033540D01*
X129363003Y-67963323D01*
X129662264Y-67763364D01*
X129862223Y-67464103D01*
X129932440Y-67111100D01*
X129932440Y-65963540D01*
X130555000Y-65963540D01*
X130802765Y-65914257D01*
X131012809Y-65773909D01*
X131153157Y-65563865D01*
X131202440Y-65316100D01*
X131202440Y-65260600D01*
X132871510Y-65260600D01*
X133006166Y-65937563D01*
X133389635Y-66511465D01*
X133963537Y-66894934D01*
X134469620Y-66995600D01*
X134811380Y-66995600D01*
X135317463Y-66894934D01*
X135891365Y-66511465D01*
X136274834Y-65937563D01*
X136352650Y-65546350D01*
X143065500Y-65546350D01*
X143065500Y-66486910D01*
X143162173Y-66720299D01*
X143340802Y-66898927D01*
X143574191Y-66995600D01*
X144514750Y-66995600D01*
X144673500Y-66836850D01*
X144673500Y-65387600D01*
X144927500Y-65387600D01*
X144927500Y-66836850D01*
X145086250Y-66995600D01*
X146026809Y-66995600D01*
X146260198Y-66898927D01*
X146438827Y-66720299D01*
X146535500Y-66486910D01*
X146535500Y-65546350D01*
X149987000Y-65546350D01*
X149987000Y-66486910D01*
X150083673Y-66720299D01*
X150262302Y-66898927D01*
X150495691Y-66995600D01*
X151436250Y-66995600D01*
X151595000Y-66836850D01*
X151595000Y-65387600D01*
X151849000Y-65387600D01*
X151849000Y-66836850D01*
X152007750Y-66995600D01*
X152948309Y-66995600D01*
X153181698Y-66898927D01*
X153360327Y-66720299D01*
X153457000Y-66486910D01*
X153457000Y-65546350D01*
X153298250Y-65387600D01*
X151849000Y-65387600D01*
X151595000Y-65387600D01*
X150145750Y-65387600D01*
X149987000Y-65546350D01*
X146535500Y-65546350D01*
X146376750Y-65387600D01*
X144927500Y-65387600D01*
X144673500Y-65387600D01*
X143224250Y-65387600D01*
X143065500Y-65546350D01*
X136352650Y-65546350D01*
X136409490Y-65260600D01*
X160113010Y-65260600D01*
X160247666Y-65937563D01*
X160631135Y-66511465D01*
X161205037Y-66894934D01*
X161711120Y-66995600D01*
X162052880Y-66995600D01*
X162558963Y-66894934D01*
X163132865Y-66511465D01*
X163516334Y-65937563D01*
X163650990Y-65260600D01*
X163516334Y-64583637D01*
X163132865Y-64009735D01*
X162558963Y-63626266D01*
X162052880Y-63525600D01*
X161711120Y-63525600D01*
X161205037Y-63626266D01*
X160631135Y-64009735D01*
X160247666Y-64583637D01*
X160113010Y-65260600D01*
X136409490Y-65260600D01*
X136274834Y-64583637D01*
X135907773Y-64034290D01*
X143065500Y-64034290D01*
X143065500Y-64974850D01*
X143224250Y-65133600D01*
X144673500Y-65133600D01*
X144673500Y-63684350D01*
X144927500Y-63684350D01*
X144927500Y-65133600D01*
X146376750Y-65133600D01*
X146535500Y-64974850D01*
X146535500Y-64034290D01*
X149987000Y-64034290D01*
X149987000Y-64974850D01*
X150145750Y-65133600D01*
X151595000Y-65133600D01*
X151595000Y-63684350D01*
X151849000Y-63684350D01*
X151849000Y-65133600D01*
X153298250Y-65133600D01*
X153457000Y-64974850D01*
X153457000Y-64034290D01*
X153360327Y-63800901D01*
X153181698Y-63622273D01*
X152948309Y-63525600D01*
X152007750Y-63525600D01*
X151849000Y-63684350D01*
X151595000Y-63684350D01*
X151436250Y-63525600D01*
X150495691Y-63525600D01*
X150262302Y-63622273D01*
X150083673Y-63800901D01*
X149987000Y-64034290D01*
X146535500Y-64034290D01*
X146438827Y-63800901D01*
X146260198Y-63622273D01*
X146026809Y-63525600D01*
X145086250Y-63525600D01*
X144927500Y-63684350D01*
X144673500Y-63684350D01*
X144514750Y-63525600D01*
X143574191Y-63525600D01*
X143340802Y-63622273D01*
X143162173Y-63800901D01*
X143065500Y-64034290D01*
X135907773Y-64034290D01*
X135891365Y-64009735D01*
X135317463Y-63626266D01*
X134811380Y-63525600D01*
X134469620Y-63525600D01*
X133963537Y-63626266D01*
X133389635Y-64009735D01*
X133006166Y-64583637D01*
X132871510Y-65260600D01*
X131202440Y-65260600D01*
X131202440Y-63516100D01*
X131153157Y-63268335D01*
X131012809Y-63058291D01*
X130802765Y-62917943D01*
X130555000Y-62868660D01*
X129620000Y-62868660D01*
X129620000Y-62542129D01*
X129637337Y-62454969D01*
X129620000Y-62367809D01*
X129620000Y-62367805D01*
X129568652Y-62109660D01*
X129373049Y-61816921D01*
X129299156Y-61767547D01*
X128103226Y-60571617D01*
X128290106Y-60291932D01*
X128343966Y-60421962D01*
X128747638Y-60825634D01*
X129275061Y-61044100D01*
X129845939Y-61044100D01*
X130373362Y-60825634D01*
X130777034Y-60421962D01*
X130942853Y-60021639D01*
X135452096Y-60021639D01*
X135469633Y-60104419D01*
X135739500Y-60597496D01*
X136177517Y-60949766D01*
X136717000Y-61107600D01*
X137117000Y-61107600D01*
X137117000Y-59799600D01*
X137371000Y-59799600D01*
X137371000Y-61107600D01*
X137771000Y-61107600D01*
X138310483Y-60949766D01*
X138748500Y-60597496D01*
X139018367Y-60104419D01*
X139035904Y-60021639D01*
X138913915Y-59799600D01*
X137371000Y-59799600D01*
X137117000Y-59799600D01*
X135574085Y-59799600D01*
X135452096Y-60021639D01*
X130942853Y-60021639D01*
X130995500Y-59894539D01*
X130995500Y-59425678D01*
X132403579Y-58017600D01*
X135709479Y-58017600D01*
X135809423Y-58167177D01*
X136165499Y-58405099D01*
X135739500Y-58747704D01*
X135469633Y-59240781D01*
X135452096Y-59323561D01*
X135574085Y-59545600D01*
X137117000Y-59545600D01*
X137117000Y-59525600D01*
X137371000Y-59525600D01*
X137371000Y-59545600D01*
X138913915Y-59545600D01*
X139035904Y-59323561D01*
X139018367Y-59240781D01*
X138748500Y-58747704D01*
X138322501Y-58405099D01*
X138678577Y-58167177D01*
X138995740Y-57692509D01*
X139107113Y-57132600D01*
X138995740Y-56572691D01*
X138678577Y-56098023D01*
X138326242Y-55862600D01*
X138678577Y-55627177D01*
X138995740Y-55152509D01*
X139107113Y-54592600D01*
X143000887Y-54592600D01*
X143112260Y-55152509D01*
X143429423Y-55627177D01*
X143781758Y-55862600D01*
X143429423Y-56098023D01*
X143112260Y-56572691D01*
X143000887Y-57132600D01*
X143112260Y-57692509D01*
X143429423Y-58167177D01*
X143781758Y-58402600D01*
X143429423Y-58638023D01*
X143112260Y-59112691D01*
X143000887Y-59672600D01*
X143112260Y-60232509D01*
X143429423Y-60707177D01*
X143904091Y-61024340D01*
X144322667Y-61107600D01*
X145405333Y-61107600D01*
X145823909Y-61024340D01*
X146298577Y-60707177D01*
X146615740Y-60232509D01*
X146682946Y-59894639D01*
X149930096Y-59894639D01*
X149947633Y-59977419D01*
X150217500Y-60470496D01*
X150655517Y-60822766D01*
X151195000Y-60980600D01*
X151595000Y-60980600D01*
X151595000Y-59672600D01*
X151849000Y-59672600D01*
X151849000Y-60980600D01*
X152249000Y-60980600D01*
X152788483Y-60822766D01*
X153226500Y-60470496D01*
X153496367Y-59977419D01*
X153513904Y-59894639D01*
X153391915Y-59672600D01*
X151849000Y-59672600D01*
X151595000Y-59672600D01*
X150052085Y-59672600D01*
X149930096Y-59894639D01*
X146682946Y-59894639D01*
X146727113Y-59672600D01*
X146615740Y-59112691D01*
X146298577Y-58638023D01*
X145946242Y-58402600D01*
X146298577Y-58167177D01*
X146615740Y-57692509D01*
X146727113Y-57132600D01*
X146615740Y-56572691D01*
X146298577Y-56098023D01*
X145946242Y-55862600D01*
X146298577Y-55627177D01*
X146615740Y-55152509D01*
X146727113Y-54592600D01*
X146615740Y-54032691D01*
X146298577Y-53558023D01*
X145942501Y-53320101D01*
X146368500Y-52977496D01*
X146638367Y-52484419D01*
X146655904Y-52401639D01*
X146533915Y-52179600D01*
X144991000Y-52179600D01*
X144991000Y-52199600D01*
X144737000Y-52199600D01*
X144737000Y-52179600D01*
X143194085Y-52179600D01*
X143072096Y-52401639D01*
X143089633Y-52484419D01*
X143359500Y-52977496D01*
X143785499Y-53320101D01*
X143429423Y-53558023D01*
X143112260Y-54032691D01*
X143000887Y-54592600D01*
X139107113Y-54592600D01*
X138995740Y-54032691D01*
X138678577Y-53558023D01*
X138557894Y-53477385D01*
X138691765Y-53450757D01*
X138901809Y-53310409D01*
X139042157Y-53100365D01*
X139091440Y-52852600D01*
X139091440Y-51703561D01*
X143072096Y-51703561D01*
X143194085Y-51925600D01*
X144737000Y-51925600D01*
X144737000Y-50617600D01*
X144991000Y-50617600D01*
X144991000Y-51925600D01*
X146533915Y-51925600D01*
X149858887Y-51925600D01*
X149970260Y-52485509D01*
X150287423Y-52960177D01*
X150639758Y-53195600D01*
X150287423Y-53431023D01*
X149970260Y-53905691D01*
X149858887Y-54465600D01*
X149970260Y-55025509D01*
X150287423Y-55500177D01*
X150639758Y-55735600D01*
X150287423Y-55971023D01*
X149970260Y-56445691D01*
X149858887Y-57005600D01*
X149970260Y-57565509D01*
X150287423Y-58040177D01*
X150643499Y-58278099D01*
X150217500Y-58620704D01*
X149947633Y-59113781D01*
X149930096Y-59196561D01*
X150052085Y-59418600D01*
X151595000Y-59418600D01*
X151595000Y-59398600D01*
X151849000Y-59398600D01*
X151849000Y-59418600D01*
X153391915Y-59418600D01*
X153513904Y-59196561D01*
X153496367Y-59113781D01*
X153226500Y-58620704D01*
X152800501Y-58278099D01*
X153156577Y-58040177D01*
X153473740Y-57565509D01*
X153585113Y-57005600D01*
X153473740Y-56445691D01*
X153156577Y-55971023D01*
X152804242Y-55735600D01*
X153156577Y-55500177D01*
X153473740Y-55025509D01*
X153585113Y-54465600D01*
X157478887Y-54465600D01*
X157590260Y-55025509D01*
X157907423Y-55500177D01*
X158259758Y-55735600D01*
X157907423Y-55971023D01*
X157590260Y-56445691D01*
X157478887Y-57005600D01*
X157590260Y-57565509D01*
X157907423Y-58040177D01*
X158028106Y-58120815D01*
X157894235Y-58147443D01*
X157684191Y-58287791D01*
X157543843Y-58497835D01*
X157494560Y-58745600D01*
X157494560Y-60345600D01*
X157543843Y-60593365D01*
X157684191Y-60803409D01*
X157894235Y-60943757D01*
X158142000Y-60993040D01*
X160542000Y-60993040D01*
X160789765Y-60943757D01*
X160999809Y-60803409D01*
X161140157Y-60593365D01*
X161189440Y-60345600D01*
X161189440Y-58745600D01*
X161140157Y-58497835D01*
X160999809Y-58287791D01*
X160789765Y-58147443D01*
X160655894Y-58120815D01*
X160776577Y-58040177D01*
X161093740Y-57565509D01*
X161205113Y-57005600D01*
X161093740Y-56445691D01*
X160776577Y-55971023D01*
X160424242Y-55735600D01*
X160776577Y-55500177D01*
X160876521Y-55350600D01*
X161515422Y-55350600D01*
X165590500Y-59425679D01*
X165590500Y-59894539D01*
X165808966Y-60421962D01*
X166212638Y-60825634D01*
X166740061Y-61044100D01*
X167310939Y-61044100D01*
X167838362Y-60825634D01*
X168242034Y-60421962D01*
X168295894Y-60291932D01*
X168530923Y-60643677D01*
X168680500Y-60743621D01*
X168680501Y-62481020D01*
X168477036Y-62684486D01*
X168126000Y-62614660D01*
X167576000Y-62614660D01*
X167222997Y-62684877D01*
X166923736Y-62884836D01*
X166723777Y-63184097D01*
X166653560Y-63537100D01*
X166653560Y-64684660D01*
X166031000Y-64684660D01*
X165783235Y-64733943D01*
X165573191Y-64874291D01*
X165432843Y-65084335D01*
X165383560Y-65332100D01*
X165383560Y-67132100D01*
X165432843Y-67379865D01*
X165573191Y-67589909D01*
X165783235Y-67730257D01*
X166031000Y-67779540D01*
X167131000Y-67779540D01*
X167378765Y-67730257D01*
X167588809Y-67589909D01*
X167729157Y-67379865D01*
X167778440Y-67132100D01*
X167778440Y-65709540D01*
X167923560Y-65709540D01*
X167923560Y-66857100D01*
X167993777Y-67210103D01*
X168193736Y-67509364D01*
X168492997Y-67709323D01*
X168846000Y-67779540D01*
X169396000Y-67779540D01*
X169749003Y-67709323D01*
X170048264Y-67509364D01*
X170248223Y-67210103D01*
X170318440Y-66857100D01*
X170318440Y-65607100D01*
X170248223Y-65254097D01*
X170048264Y-64954836D01*
X169749003Y-64754877D01*
X169396000Y-64684660D01*
X169048440Y-64684660D01*
X169048440Y-64616238D01*
X170129656Y-63535023D01*
X170203549Y-63485649D01*
X170399152Y-63192910D01*
X170450500Y-62934765D01*
X170450500Y-62934761D01*
X170467837Y-62847601D01*
X170450500Y-62760441D01*
X170450500Y-60743621D01*
X170600077Y-60643677D01*
X170917240Y-60169009D01*
X171028613Y-59609100D01*
X170917240Y-59049191D01*
X170600077Y-58574523D01*
X170125409Y-58257360D01*
X169706833Y-58174100D01*
X169424167Y-58174100D01*
X169005591Y-58257360D01*
X168530923Y-58574523D01*
X168295894Y-58926268D01*
X168242034Y-58796238D01*
X167838362Y-58392566D01*
X167310939Y-58174100D01*
X166842079Y-58174100D01*
X162569425Y-53901447D01*
X162520049Y-53827551D01*
X162227310Y-53631948D01*
X161969165Y-53580600D01*
X161969161Y-53580600D01*
X161882000Y-53563263D01*
X161794839Y-53580600D01*
X160876521Y-53580600D01*
X160776577Y-53431023D01*
X160420501Y-53193101D01*
X160846500Y-52850496D01*
X160848598Y-52846661D01*
X162940000Y-52846661D01*
X162940000Y-53417539D01*
X163158466Y-53944962D01*
X163562138Y-54348634D01*
X164089561Y-54567100D01*
X164660439Y-54567100D01*
X165187862Y-54348634D01*
X165591534Y-53944962D01*
X165809871Y-53417850D01*
X167940000Y-53417850D01*
X167940000Y-54058410D01*
X168036673Y-54291799D01*
X168215302Y-54470427D01*
X168448691Y-54567100D01*
X169089250Y-54567100D01*
X169248000Y-54408350D01*
X169248000Y-53259100D01*
X169502000Y-53259100D01*
X169502000Y-54408350D01*
X169660750Y-54567100D01*
X170301309Y-54567100D01*
X170534698Y-54470427D01*
X170713327Y-54291799D01*
X170810000Y-54058410D01*
X170810000Y-53417850D01*
X170651250Y-53259100D01*
X169502000Y-53259100D01*
X169248000Y-53259100D01*
X168098750Y-53259100D01*
X167940000Y-53417850D01*
X165809871Y-53417850D01*
X165810000Y-53417539D01*
X165810000Y-52846661D01*
X165591534Y-52319238D01*
X165478086Y-52205790D01*
X167940000Y-52205790D01*
X167940000Y-52846350D01*
X168098750Y-53005100D01*
X169248000Y-53005100D01*
X169248000Y-51855850D01*
X169502000Y-51855850D01*
X169502000Y-53005100D01*
X170651250Y-53005100D01*
X170810000Y-52846350D01*
X170810000Y-52205790D01*
X170713327Y-51972401D01*
X170534698Y-51793773D01*
X170301309Y-51697100D01*
X169660750Y-51697100D01*
X169502000Y-51855850D01*
X169248000Y-51855850D01*
X169089250Y-51697100D01*
X168448691Y-51697100D01*
X168215302Y-51793773D01*
X168036673Y-51972401D01*
X167940000Y-52205790D01*
X165478086Y-52205790D01*
X165187862Y-51915566D01*
X164660439Y-51697100D01*
X164089561Y-51697100D01*
X163562138Y-51915566D01*
X163158466Y-52319238D01*
X162940000Y-52846661D01*
X160848598Y-52846661D01*
X161116367Y-52357419D01*
X161133904Y-52274639D01*
X161011915Y-52052600D01*
X159469000Y-52052600D01*
X159469000Y-52072600D01*
X159215000Y-52072600D01*
X159215000Y-52052600D01*
X157672085Y-52052600D01*
X157550096Y-52274639D01*
X157567633Y-52357419D01*
X157837500Y-52850496D01*
X158263499Y-53193101D01*
X157907423Y-53431023D01*
X157590260Y-53905691D01*
X157478887Y-54465600D01*
X153585113Y-54465600D01*
X153473740Y-53905691D01*
X153156577Y-53431023D01*
X152804242Y-53195600D01*
X153156577Y-52960177D01*
X153473740Y-52485509D01*
X153585113Y-51925600D01*
X153515685Y-51576561D01*
X157550096Y-51576561D01*
X157672085Y-51798600D01*
X159215000Y-51798600D01*
X159215000Y-50490600D01*
X159469000Y-50490600D01*
X159469000Y-51798600D01*
X161011915Y-51798600D01*
X161133904Y-51576561D01*
X161116367Y-51493781D01*
X160846500Y-51000704D01*
X160408483Y-50648434D01*
X159869000Y-50490600D01*
X159469000Y-50490600D01*
X159215000Y-50490600D01*
X158815000Y-50490600D01*
X158275517Y-50648434D01*
X157837500Y-51000704D01*
X157567633Y-51493781D01*
X157550096Y-51576561D01*
X153515685Y-51576561D01*
X153473740Y-51365691D01*
X153156577Y-50891023D01*
X152681909Y-50573860D01*
X152263333Y-50490600D01*
X151180667Y-50490600D01*
X150762091Y-50573860D01*
X150287423Y-50891023D01*
X149970260Y-51365691D01*
X149858887Y-51925600D01*
X146533915Y-51925600D01*
X146655904Y-51703561D01*
X146638367Y-51620781D01*
X146368500Y-51127704D01*
X145930483Y-50775434D01*
X145391000Y-50617600D01*
X144991000Y-50617600D01*
X144737000Y-50617600D01*
X144337000Y-50617600D01*
X143797517Y-50775434D01*
X143359500Y-51127704D01*
X143089633Y-51620781D01*
X143072096Y-51703561D01*
X139091440Y-51703561D01*
X139091440Y-51252600D01*
X139042157Y-51004835D01*
X138901809Y-50794791D01*
X138691765Y-50654443D01*
X138444000Y-50605160D01*
X136044000Y-50605160D01*
X135796235Y-50654443D01*
X135586191Y-50794791D01*
X135445843Y-51004835D01*
X135396560Y-51252600D01*
X135396560Y-52852600D01*
X135445843Y-53100365D01*
X135586191Y-53310409D01*
X135796235Y-53450757D01*
X135930106Y-53477385D01*
X135809423Y-53558023D01*
X135492260Y-54032691D01*
X135380887Y-54592600D01*
X135492260Y-55152509D01*
X135809423Y-55627177D01*
X136161758Y-55862600D01*
X135809423Y-56098023D01*
X135709479Y-56247600D01*
X132124161Y-56247600D01*
X132037000Y-56230263D01*
X131949839Y-56247600D01*
X131949835Y-56247600D01*
X131691690Y-56298948D01*
X131472845Y-56445176D01*
X131472844Y-56445177D01*
X131398951Y-56494551D01*
X131349577Y-56568444D01*
X129743922Y-58174100D01*
X129275061Y-58174100D01*
X128747638Y-58392566D01*
X128343966Y-58796238D01*
X128290106Y-58926268D01*
X128055077Y-58574523D01*
X127580409Y-58257360D01*
X127161833Y-58174100D01*
X126879167Y-58174100D01*
X126460591Y-58257360D01*
X125985923Y-58574523D01*
X125668760Y-59049191D01*
X125557387Y-59609100D01*
X125433000Y-59609100D01*
X125433000Y-53417850D01*
X125776000Y-53417850D01*
X125776000Y-54058410D01*
X125872673Y-54291799D01*
X126051302Y-54470427D01*
X126284691Y-54567100D01*
X126925250Y-54567100D01*
X127084000Y-54408350D01*
X127084000Y-53259100D01*
X127338000Y-53259100D01*
X127338000Y-54408350D01*
X127496750Y-54567100D01*
X128137309Y-54567100D01*
X128370698Y-54470427D01*
X128549327Y-54291799D01*
X128646000Y-54058410D01*
X128646000Y-53417850D01*
X128487250Y-53259100D01*
X127338000Y-53259100D01*
X127084000Y-53259100D01*
X125934750Y-53259100D01*
X125776000Y-53417850D01*
X125433000Y-53417850D01*
X125433000Y-52205790D01*
X125776000Y-52205790D01*
X125776000Y-52846350D01*
X125934750Y-53005100D01*
X127084000Y-53005100D01*
X127084000Y-51855850D01*
X127338000Y-51855850D01*
X127338000Y-53005100D01*
X128487250Y-53005100D01*
X128645689Y-52846661D01*
X130776000Y-52846661D01*
X130776000Y-53417539D01*
X130994466Y-53944962D01*
X131398138Y-54348634D01*
X131925561Y-54567100D01*
X132496439Y-54567100D01*
X133023862Y-54348634D01*
X133427534Y-53944962D01*
X133646000Y-53417539D01*
X133646000Y-52846661D01*
X133427534Y-52319238D01*
X133023862Y-51915566D01*
X132496439Y-51697100D01*
X131925561Y-51697100D01*
X131398138Y-51915566D01*
X130994466Y-52319238D01*
X130776000Y-52846661D01*
X128645689Y-52846661D01*
X128646000Y-52846350D01*
X128646000Y-52205790D01*
X128549327Y-51972401D01*
X128370698Y-51793773D01*
X128137309Y-51697100D01*
X127496750Y-51697100D01*
X127338000Y-51855850D01*
X127084000Y-51855850D01*
X126925250Y-51697100D01*
X126284691Y-51697100D01*
X126051302Y-51793773D01*
X125872673Y-51972401D01*
X125776000Y-52205790D01*
X125433000Y-52205790D01*
X125433000Y-49258600D01*
X133942000Y-49258600D01*
X133990601Y-49248933D01*
X134031803Y-49221403D01*
X134059333Y-49180201D01*
X134069000Y-49131600D01*
X134069000Y-47353600D01*
X135780887Y-47353600D01*
X135892260Y-47913509D01*
X136209423Y-48388177D01*
X136684091Y-48705340D01*
X137102667Y-48788600D01*
X137385333Y-48788600D01*
X137803909Y-48705340D01*
X138278577Y-48388177D01*
X138513606Y-48036432D01*
X138567466Y-48166462D01*
X138971138Y-48570134D01*
X139498561Y-48788600D01*
X140069439Y-48788600D01*
X140596862Y-48570134D01*
X141000534Y-48166462D01*
X141219000Y-47639039D01*
X141219000Y-47068161D01*
X155367000Y-47068161D01*
X155367000Y-47639039D01*
X155585466Y-48166462D01*
X155989138Y-48570134D01*
X156516561Y-48788600D01*
X157087439Y-48788600D01*
X157614862Y-48570134D01*
X158018534Y-48166462D01*
X158072394Y-48036432D01*
X158307423Y-48388177D01*
X158782091Y-48705340D01*
X159200667Y-48788600D01*
X159483333Y-48788600D01*
X159901909Y-48705340D01*
X160376577Y-48388177D01*
X160693740Y-47913509D01*
X160805113Y-47353600D01*
X160693740Y-46793691D01*
X160376577Y-46319023D01*
X159901909Y-46001860D01*
X159483333Y-45918600D01*
X159200667Y-45918600D01*
X158782091Y-46001860D01*
X158307423Y-46319023D01*
X158072394Y-46670768D01*
X158018534Y-46540738D01*
X157614862Y-46137066D01*
X157087439Y-45918600D01*
X156516561Y-45918600D01*
X155989138Y-46137066D01*
X155585466Y-46540738D01*
X155367000Y-47068161D01*
X141219000Y-47068161D01*
X141000534Y-46540738D01*
X140596862Y-46137066D01*
X140069439Y-45918600D01*
X139498561Y-45918600D01*
X138971138Y-46137066D01*
X138567466Y-46540738D01*
X138513606Y-46670768D01*
X138278577Y-46319023D01*
X137803909Y-46001860D01*
X137385333Y-45918600D01*
X137102667Y-45918600D01*
X136684091Y-46001860D01*
X136209423Y-46319023D01*
X135892260Y-46793691D01*
X135780887Y-47353600D01*
X134069000Y-47353600D01*
X134069000Y-44388922D01*
X143745000Y-44388922D01*
X143745000Y-45238278D01*
X144070034Y-46022980D01*
X144670620Y-46623566D01*
X145455322Y-46948600D01*
X146304678Y-46948600D01*
X147089380Y-46623566D01*
X147689966Y-46022980D01*
X148015000Y-45238278D01*
X148015000Y-45099350D01*
X148825000Y-45099350D01*
X148825000Y-46439910D01*
X148921673Y-46673299D01*
X149100302Y-46851927D01*
X149333691Y-46948600D01*
X150674250Y-46948600D01*
X150833000Y-46789850D01*
X150833000Y-44940600D01*
X151087000Y-44940600D01*
X151087000Y-46789850D01*
X151245750Y-46948600D01*
X152586309Y-46948600D01*
X152819698Y-46851927D01*
X152998327Y-46673299D01*
X153095000Y-46439910D01*
X153095000Y-45099350D01*
X152936250Y-44940600D01*
X151087000Y-44940600D01*
X150833000Y-44940600D01*
X148983750Y-44940600D01*
X148825000Y-45099350D01*
X148015000Y-45099350D01*
X148015000Y-44388922D01*
X147689966Y-43604220D01*
X147273036Y-43187290D01*
X148825000Y-43187290D01*
X148825000Y-44527850D01*
X148983750Y-44686600D01*
X150833000Y-44686600D01*
X150833000Y-42837350D01*
X151087000Y-42837350D01*
X151087000Y-44686600D01*
X152936250Y-44686600D01*
X153095000Y-44527850D01*
X153095000Y-43187290D01*
X152998327Y-42953901D01*
X152819698Y-42775273D01*
X152586309Y-42678600D01*
X151245750Y-42678600D01*
X151087000Y-42837350D01*
X150833000Y-42837350D01*
X150674250Y-42678600D01*
X149333691Y-42678600D01*
X149100302Y-42775273D01*
X148921673Y-42953901D01*
X148825000Y-43187290D01*
X147273036Y-43187290D01*
X147089380Y-43003634D01*
X146304678Y-42678600D01*
X145455322Y-42678600D01*
X144670620Y-43003634D01*
X144070034Y-43604220D01*
X143745000Y-44388922D01*
X134069000Y-44388922D01*
X134069000Y-40622600D01*
X162263000Y-40622600D01*
X162263000Y-49131600D01*
G36*
X147023000Y-111107600D02*
X131402000Y-111107600D01*
X131402000Y-95613600D01*
X147023000Y-95613600D01*
X147023000Y-111107600D01*
X147023000Y-111107600D01*
G37*
X147023000Y-111107600D02*
X131402000Y-111107600D01*
X131402000Y-95613600D01*
X147023000Y-95613600D01*
X147023000Y-111107600D01*
G36*
X161755000Y-100069494D02*
X157601197Y-104223297D01*
X157573667Y-104264499D01*
X157564000Y-104313100D01*
X157564000Y-111107600D01*
X149499500Y-111107600D01*
X149499500Y-95613600D01*
X161755000Y-95613600D01*
X161755000Y-100069494D01*
X161755000Y-100069494D01*
G37*
X161755000Y-100069494D02*
X157601197Y-104223297D01*
X157573667Y-104264499D01*
X157564000Y-104313100D01*
X157564000Y-111107600D01*
X149499500Y-111107600D01*
X149499500Y-95613600D01*
X161755000Y-95613600D01*
X161755000Y-100069494D01*
G36*
X167152500Y-111107600D02*
X160040500Y-111107600D01*
X160040500Y-105254706D01*
X164130803Y-101164403D01*
X164158333Y-101123201D01*
X164168000Y-101074600D01*
X164168000Y-94978600D01*
X164158333Y-94929999D01*
X164130803Y-94888797D01*
X162733803Y-93491797D01*
X162692601Y-93464267D01*
X162644000Y-93454600D01*
X131402000Y-93454600D01*
X131402000Y-90343100D01*
X167152500Y-90343100D01*
X167152500Y-111107600D01*
X167152500Y-111107600D01*
G37*
X167152500Y-111107600D02*
X160040500Y-111107600D01*
X160040500Y-105254706D01*
X164130803Y-101164403D01*
X164158333Y-101123201D01*
X164168000Y-101074600D01*
X164168000Y-94978600D01*
X164158333Y-94929999D01*
X164130803Y-94888797D01*
X162733803Y-93491797D01*
X162692601Y-93464267D01*
X162644000Y-93454600D01*
X131402000Y-93454600D01*
X131402000Y-90343100D01*
X167152500Y-90343100D01*
X167152500Y-111107600D01*
M02*
