%TF.GenerationSoftware,KiCad,Pcbnew,5.0.2-bee76a0~70~ubuntu16.04.1*%
%TF.CreationDate,2018-12-19T01:31:24+02:00*%
%TF.ProjectId,isolation-transformer,69736f6c-6174-4696-9f6e-2d7472616e73,rev?*%
%TF.SameCoordinates,Original*%
%TF.FileFunction,Profile,NP*%
%FSLAX46Y46*%
G04 Gerber Fmt 4.6, Leading zero omitted, Abs format (unit mm)*
G04 Created by KiCad (PCBNEW 5.0.2-bee76a0~70~ubuntu16.04.1) date Wed 19 Dec 2018 01:31:24 AM EET*
%MOMM*%
%LPD*%
G01*
G04 APERTURE LIST*
%ADD10C,0.150000*%
G04 APERTURE END LIST*
D10*
X123780600Y-90536400D02*
G75*
G02X120681800Y-90536400I-1549400J0D01*
G01*
X120681800Y-96536400D02*
G75*
G02X123780600Y-96536400I1549400J0D01*
G01*
X123780600Y-41971600D02*
G75*
G02X120681800Y-41971600I-1549400J0D01*
G01*
X120681800Y-47971600D02*
G75*
G02X123780600Y-47971600I1549400J0D01*
G01*
X123780600Y-115324000D02*
G75*
G02X120681800Y-115324000I-1549400J0D01*
G01*
X120681800Y-121324000D02*
G75*
G02X123780600Y-121324000I1549400J0D01*
G01*
X120681800Y-96536400D02*
X120681800Y-115324000D01*
X123780600Y-96536400D02*
X123780600Y-115324000D01*
X120681800Y-74946400D02*
G75*
G02X123780600Y-74946400I1549400J0D01*
G01*
X123780600Y-68946400D02*
G75*
G02X120681800Y-68946400I-1549400J0D01*
G01*
X120682000Y-48000000D02*
X120682000Y-68946400D01*
X123780600Y-47971600D02*
X123780600Y-68918000D01*
X120681800Y-74946400D02*
X120681800Y-90536400D01*
X123780600Y-74946400D02*
X123780600Y-90536400D01*
X120681800Y-121324000D02*
X120681800Y-124315600D01*
X123780600Y-121324000D02*
X123780600Y-124315600D01*
X123780600Y-124315600D02*
X146475500Y-124315600D01*
X146475500Y-124315600D02*
G75*
G02X150031500Y-124315600I1778000J0D01*
G01*
X44240500Y-124315600D02*
X20682000Y-124315600D01*
X93643500Y-124315600D02*
X47796500Y-124315600D01*
X44240500Y-124315600D02*
G75*
G02X47796500Y-124315600I1778000J0D01*
G01*
X93643500Y-124315600D02*
G75*
G02X97199500Y-124315600I1778000J0D01*
G01*
X123780600Y-41971600D02*
X123780600Y-38955600D01*
X120681800Y-41971600D02*
X120681800Y-38955600D01*
X172804000Y-38955600D02*
X123782000Y-38955600D01*
X172804000Y-124315600D02*
X172804000Y-38955600D01*
X150031500Y-124315600D02*
X172804000Y-124315600D01*
X20682000Y-124315600D02*
X20682000Y-38955600D01*
X120682000Y-124315600D02*
X97199500Y-124315600D01*
X20682000Y-38955600D02*
X120682000Y-38955600D01*
M02*
