%TF.GenerationSoftware,KiCad,Pcbnew,5.0.2-bee76a0~70~ubuntu16.04.1*%
%TF.CreationDate,2018-12-19T01:31:24+02:00*%
%TF.ProjectId,isolation-transformer,69736f6c-6174-4696-9f6e-2d7472616e73,rev?*%
%TF.SameCoordinates,Original*%
%TF.FileFunction,Soldermask,Bot*%
%TF.FilePolarity,Negative*%
%FSLAX46Y46*%
G04 Gerber Fmt 4.6, Leading zero omitted, Abs format (unit mm)*
G04 Created by KiCad (PCBNEW 5.0.2-bee76a0~70~ubuntu16.04.1) date Wed 19 Dec 2018 01:31:24 AM EET*
%MOMM*%
%LPD*%
G01*
G04 APERTURE LIST*
%ADD10C,0.100000*%
G04 APERTURE END LIST*
D10*
G36*
X165063000Y-111134600D02*
X159961000Y-111134600D01*
X159961000Y-108032600D01*
X165063000Y-108032600D01*
X165063000Y-111134600D01*
X165063000Y-111134600D01*
G37*
G36*
X155543000Y-111134600D02*
X150441000Y-111134600D01*
X150441000Y-108032600D01*
X155543000Y-108032600D01*
X155543000Y-111134600D01*
X155543000Y-111134600D01*
G37*
G36*
X136493000Y-111134600D02*
X131391000Y-111134600D01*
X131391000Y-108032600D01*
X136493000Y-108032600D01*
X136493000Y-111134600D01*
X136493000Y-111134600D01*
G37*
G36*
X146013000Y-111134600D02*
X140911000Y-111134600D01*
X140911000Y-108032600D01*
X146013000Y-108032600D01*
X146013000Y-111134600D01*
X146013000Y-111134600D01*
G37*
G36*
X30491000Y-111075800D02*
X25389000Y-111075800D01*
X25389000Y-107973800D01*
X30491000Y-107973800D01*
X30491000Y-111075800D01*
X30491000Y-111075800D01*
G37*
G36*
X78009400Y-111075800D02*
X72907400Y-111075800D01*
X72907400Y-107973800D01*
X78009400Y-107973800D01*
X78009400Y-111075800D01*
X78009400Y-111075800D01*
G37*
G36*
X68489400Y-111075800D02*
X63387400Y-111075800D01*
X63387400Y-107973800D01*
X68489400Y-107973800D01*
X68489400Y-111075800D01*
X68489400Y-111075800D01*
G37*
G36*
X40011000Y-111075800D02*
X34909000Y-111075800D01*
X34909000Y-107973800D01*
X40011000Y-107973800D01*
X40011000Y-111075800D01*
X40011000Y-111075800D01*
G37*
G36*
X106487800Y-111075800D02*
X101385800Y-111075800D01*
X101385800Y-107973800D01*
X106487800Y-107973800D01*
X106487800Y-111075800D01*
X106487800Y-111075800D01*
G37*
G36*
X97008600Y-111075800D02*
X91906600Y-111075800D01*
X91906600Y-107973800D01*
X97008600Y-107973800D01*
X97008600Y-111075800D01*
X97008600Y-111075800D01*
G37*
G36*
X87488600Y-111075800D02*
X82386600Y-111075800D01*
X82386600Y-107973800D01*
X87488600Y-107973800D01*
X87488600Y-111075800D01*
X87488600Y-111075800D01*
G37*
G36*
X49490200Y-111075800D02*
X44388200Y-111075800D01*
X44388200Y-107973800D01*
X49490200Y-107973800D01*
X49490200Y-111075800D01*
X49490200Y-111075800D01*
G37*
G36*
X59010200Y-111075800D02*
X53908200Y-111075800D01*
X53908200Y-107973800D01*
X59010200Y-107973800D01*
X59010200Y-111075800D01*
X59010200Y-111075800D01*
G37*
G36*
X116007800Y-111075800D02*
X110905800Y-111075800D01*
X110905800Y-107973800D01*
X116007800Y-107973800D01*
X116007800Y-111075800D01*
X116007800Y-111075800D01*
G37*
G36*
X59758500Y-98213600D02*
X57156500Y-98213600D01*
X57156500Y-95611600D01*
X59758500Y-95611600D01*
X59758500Y-98213600D01*
X59758500Y-98213600D01*
G37*
G36*
X67258500Y-98213600D02*
X64656500Y-98213600D01*
X64656500Y-95611600D01*
X67258500Y-95611600D01*
X67258500Y-98213600D01*
X67258500Y-98213600D01*
G37*
G36*
X84276500Y-98213600D02*
X81674500Y-98213600D01*
X81674500Y-95611600D01*
X84276500Y-95611600D01*
X84276500Y-98213600D01*
X84276500Y-98213600D01*
G37*
G36*
X116598000Y-98213600D02*
X113996000Y-98213600D01*
X113996000Y-95611600D01*
X116598000Y-95611600D01*
X116598000Y-98213600D01*
X116598000Y-98213600D01*
G37*
G36*
X109098000Y-98213600D02*
X106496000Y-98213600D01*
X106496000Y-95611600D01*
X109098000Y-95611600D01*
X109098000Y-98213600D01*
X109098000Y-98213600D01*
G37*
G36*
X76776500Y-98213600D02*
X74174500Y-98213600D01*
X74174500Y-95611600D01*
X76776500Y-95611600D01*
X76776500Y-98213600D01*
X76776500Y-98213600D01*
G37*
G36*
X161786000Y-98184600D02*
X159184000Y-98184600D01*
X159184000Y-95582600D01*
X161786000Y-95582600D01*
X161786000Y-98184600D01*
X161786000Y-98184600D01*
G37*
G36*
X154286000Y-98184600D02*
X151684000Y-98184600D01*
X151684000Y-95582600D01*
X154286000Y-95582600D01*
X154286000Y-98184600D01*
X154286000Y-98184600D01*
G37*
G36*
X144768000Y-98184600D02*
X142166000Y-98184600D01*
X142166000Y-95582600D01*
X144768000Y-95582600D01*
X144768000Y-98184600D01*
X144768000Y-98184600D01*
G37*
G36*
X137268000Y-98184600D02*
X134666000Y-98184600D01*
X134666000Y-95582600D01*
X137268000Y-95582600D01*
X137268000Y-98184600D01*
X137268000Y-98184600D01*
G37*
G36*
X34937000Y-98150100D02*
X32335000Y-98150100D01*
X32335000Y-95548100D01*
X34937000Y-95548100D01*
X34937000Y-98150100D01*
X34937000Y-98150100D01*
G37*
G36*
X27437000Y-98150100D02*
X24835000Y-98150100D01*
X24835000Y-95548100D01*
X27437000Y-95548100D01*
X27437000Y-98150100D01*
X27437000Y-98150100D01*
G37*
G36*
X84276500Y-93213600D02*
X81674500Y-93213600D01*
X81674500Y-90611600D01*
X84276500Y-90611600D01*
X84276500Y-93213600D01*
X84276500Y-93213600D01*
G37*
G36*
X76776500Y-93213600D02*
X74174500Y-93213600D01*
X74174500Y-90611600D01*
X76776500Y-90611600D01*
X76776500Y-93213600D01*
X76776500Y-93213600D01*
G37*
G36*
X109098000Y-93213600D02*
X106496000Y-93213600D01*
X106496000Y-90611600D01*
X109098000Y-90611600D01*
X109098000Y-93213600D01*
X109098000Y-93213600D01*
G37*
G36*
X67258500Y-93213600D02*
X64656500Y-93213600D01*
X64656500Y-90611600D01*
X67258500Y-90611600D01*
X67258500Y-93213600D01*
X67258500Y-93213600D01*
G37*
G36*
X59758500Y-93213600D02*
X57156500Y-93213600D01*
X57156500Y-90611600D01*
X59758500Y-90611600D01*
X59758500Y-93213600D01*
X59758500Y-93213600D01*
G37*
G36*
X116598000Y-93213600D02*
X113996000Y-93213600D01*
X113996000Y-90611600D01*
X116598000Y-90611600D01*
X116598000Y-93213600D01*
X116598000Y-93213600D01*
G37*
G36*
X154286000Y-93184600D02*
X151684000Y-93184600D01*
X151684000Y-90582600D01*
X154286000Y-90582600D01*
X154286000Y-93184600D01*
X154286000Y-93184600D01*
G37*
G36*
X161786000Y-93184600D02*
X159184000Y-93184600D01*
X159184000Y-90582600D01*
X161786000Y-90582600D01*
X161786000Y-93184600D01*
X161786000Y-93184600D01*
G37*
G36*
X144768000Y-93184600D02*
X142166000Y-93184600D01*
X142166000Y-90582600D01*
X144768000Y-90582600D01*
X144768000Y-93184600D01*
X144768000Y-93184600D01*
G37*
G36*
X137268000Y-93184600D02*
X134666000Y-93184600D01*
X134666000Y-90582600D01*
X137268000Y-90582600D01*
X137268000Y-93184600D01*
X137268000Y-93184600D01*
G37*
G36*
X34937000Y-93150100D02*
X32335000Y-93150100D01*
X32335000Y-90548100D01*
X34937000Y-90548100D01*
X34937000Y-93150100D01*
X34937000Y-93150100D01*
G37*
G36*
X27437000Y-93150100D02*
X24835000Y-93150100D01*
X24835000Y-90548100D01*
X27437000Y-90548100D01*
X27437000Y-93150100D01*
X27437000Y-93150100D01*
G37*
G36*
X116598000Y-88213600D02*
X113996000Y-88213600D01*
X113996000Y-85611600D01*
X116598000Y-85611600D01*
X116598000Y-88213600D01*
X116598000Y-88213600D01*
G37*
G36*
X76776500Y-88213600D02*
X74174500Y-88213600D01*
X74174500Y-85611600D01*
X76776500Y-85611600D01*
X76776500Y-88213600D01*
X76776500Y-88213600D01*
G37*
G36*
X84276500Y-88213600D02*
X81674500Y-88213600D01*
X81674500Y-85611600D01*
X84276500Y-85611600D01*
X84276500Y-88213600D01*
X84276500Y-88213600D01*
G37*
G36*
X109098000Y-88213600D02*
X106496000Y-88213600D01*
X106496000Y-85611600D01*
X109098000Y-85611600D01*
X109098000Y-88213600D01*
X109098000Y-88213600D01*
G37*
G36*
X67258500Y-88213600D02*
X64656500Y-88213600D01*
X64656500Y-85611600D01*
X67258500Y-85611600D01*
X67258500Y-88213600D01*
X67258500Y-88213600D01*
G37*
G36*
X59758500Y-88213600D02*
X57156500Y-88213600D01*
X57156500Y-85611600D01*
X59758500Y-85611600D01*
X59758500Y-88213600D01*
X59758500Y-88213600D01*
G37*
G36*
X161786000Y-88184600D02*
X159184000Y-88184600D01*
X159184000Y-85582600D01*
X161786000Y-85582600D01*
X161786000Y-88184600D01*
X161786000Y-88184600D01*
G37*
G36*
X154286000Y-88184600D02*
X151684000Y-88184600D01*
X151684000Y-85582600D01*
X154286000Y-85582600D01*
X154286000Y-88184600D01*
X154286000Y-88184600D01*
G37*
G36*
X144768000Y-88184600D02*
X142166000Y-88184600D01*
X142166000Y-85582600D01*
X144768000Y-85582600D01*
X144768000Y-88184600D01*
X144768000Y-88184600D01*
G37*
G36*
X137268000Y-88184600D02*
X134666000Y-88184600D01*
X134666000Y-85582600D01*
X137268000Y-85582600D01*
X137268000Y-88184600D01*
X137268000Y-88184600D01*
G37*
G36*
X34937000Y-88150100D02*
X32335000Y-88150100D01*
X32335000Y-85548100D01*
X34937000Y-85548100D01*
X34937000Y-88150100D01*
X34937000Y-88150100D01*
G37*
G36*
X27437000Y-88150100D02*
X24835000Y-88150100D01*
X24835000Y-85548100D01*
X27437000Y-85548100D01*
X27437000Y-88150100D01*
X27437000Y-88150100D01*
G37*
G36*
X128771495Y-80970538D02*
X128962579Y-81008547D01*
X129263042Y-81133003D01*
X129529852Y-81311280D01*
X129533454Y-81313687D01*
X129763413Y-81543646D01*
X129763415Y-81543649D01*
X129944097Y-81814058D01*
X130052810Y-82076513D01*
X130068553Y-82114522D01*
X130132000Y-82433489D01*
X130132000Y-82758711D01*
X130068553Y-83077678D01*
X129944098Y-83378140D01*
X129763413Y-83648554D01*
X129533454Y-83878513D01*
X129533451Y-83878515D01*
X129263042Y-84059197D01*
X128962579Y-84183653D01*
X128856256Y-84204802D01*
X128643611Y-84247100D01*
X128318389Y-84247100D01*
X128105744Y-84204802D01*
X127999421Y-84183653D01*
X127698958Y-84059197D01*
X127428549Y-83878515D01*
X127428546Y-83878513D01*
X127198587Y-83648554D01*
X127017902Y-83378140D01*
X126893447Y-83077678D01*
X126830000Y-82758711D01*
X126830000Y-82433489D01*
X126893447Y-82114522D01*
X126909191Y-82076513D01*
X127017903Y-81814058D01*
X127198585Y-81543649D01*
X127198587Y-81543646D01*
X127428546Y-81313687D01*
X127432148Y-81311280D01*
X127698958Y-81133003D01*
X127999421Y-81008547D01*
X128190505Y-80970538D01*
X128318389Y-80945100D01*
X128643611Y-80945100D01*
X128771495Y-80970538D01*
X128771495Y-80970538D01*
G37*
G36*
X168331995Y-80970538D02*
X168523079Y-81008547D01*
X168823542Y-81133003D01*
X169090352Y-81311280D01*
X169093954Y-81313687D01*
X169323913Y-81543646D01*
X169323915Y-81543649D01*
X169504597Y-81814058D01*
X169613310Y-82076513D01*
X169629053Y-82114522D01*
X169692500Y-82433489D01*
X169692500Y-82758711D01*
X169629053Y-83077678D01*
X169504598Y-83378140D01*
X169323913Y-83648554D01*
X169093954Y-83878513D01*
X169093951Y-83878515D01*
X168823542Y-84059197D01*
X168523079Y-84183653D01*
X168416756Y-84204802D01*
X168204111Y-84247100D01*
X167878889Y-84247100D01*
X167666244Y-84204802D01*
X167559921Y-84183653D01*
X167259458Y-84059197D01*
X166989049Y-83878515D01*
X166989046Y-83878513D01*
X166759087Y-83648554D01*
X166578402Y-83378140D01*
X166453947Y-83077678D01*
X166390500Y-82758711D01*
X166390500Y-82433489D01*
X166453947Y-82114522D01*
X166469691Y-82076513D01*
X166578403Y-81814058D01*
X166759085Y-81543649D01*
X166759087Y-81543646D01*
X166989046Y-81313687D01*
X166992648Y-81311280D01*
X167259458Y-81133003D01*
X167559921Y-81008547D01*
X167751005Y-80970538D01*
X167878889Y-80945100D01*
X168204111Y-80945100D01*
X168331995Y-80970538D01*
X168331995Y-80970538D01*
G37*
G36*
X95796756Y-78880258D02*
X95903079Y-78901407D01*
X96203542Y-79025863D01*
X96470352Y-79204140D01*
X96473954Y-79206547D01*
X96703913Y-79436506D01*
X96703915Y-79436509D01*
X96884597Y-79706918D01*
X97009053Y-80007381D01*
X97072500Y-80326351D01*
X97072500Y-80651569D01*
X97009053Y-80970539D01*
X96884597Y-81271002D01*
X96706320Y-81537812D01*
X96703913Y-81541414D01*
X96473954Y-81771373D01*
X96473951Y-81771375D01*
X96203542Y-81952057D01*
X95903079Y-82076513D01*
X95796756Y-82097662D01*
X95584111Y-82139960D01*
X95258889Y-82139960D01*
X95046244Y-82097662D01*
X94939921Y-82076513D01*
X94639458Y-81952057D01*
X94369049Y-81771375D01*
X94369046Y-81771373D01*
X94139087Y-81541414D01*
X94136680Y-81537812D01*
X93958403Y-81271002D01*
X93833947Y-80970539D01*
X93770500Y-80651569D01*
X93770500Y-80326351D01*
X93833947Y-80007381D01*
X93958403Y-79706918D01*
X94139085Y-79436509D01*
X94139087Y-79436506D01*
X94369046Y-79206547D01*
X94372648Y-79204140D01*
X94639458Y-79025863D01*
X94939921Y-78901407D01*
X95046244Y-78880258D01*
X95258889Y-78837960D01*
X95584111Y-78837960D01*
X95796756Y-78880258D01*
X95796756Y-78880258D01*
G37*
G36*
X46393756Y-78880258D02*
X46500079Y-78901407D01*
X46800542Y-79025863D01*
X47067352Y-79204140D01*
X47070954Y-79206547D01*
X47300913Y-79436506D01*
X47300915Y-79436509D01*
X47481597Y-79706918D01*
X47606053Y-80007381D01*
X47669500Y-80326351D01*
X47669500Y-80651569D01*
X47606053Y-80970539D01*
X47481597Y-81271002D01*
X47303320Y-81537812D01*
X47300913Y-81541414D01*
X47070954Y-81771373D01*
X47070951Y-81771375D01*
X46800542Y-81952057D01*
X46500079Y-82076513D01*
X46393756Y-82097662D01*
X46181111Y-82139960D01*
X45855889Y-82139960D01*
X45643244Y-82097662D01*
X45536921Y-82076513D01*
X45236458Y-81952057D01*
X44966049Y-81771375D01*
X44966046Y-81771373D01*
X44736087Y-81541414D01*
X44733680Y-81537812D01*
X44555403Y-81271002D01*
X44430947Y-80970539D01*
X44367500Y-80651569D01*
X44367500Y-80326351D01*
X44430947Y-80007381D01*
X44555403Y-79706918D01*
X44736085Y-79436509D01*
X44736087Y-79436506D01*
X44966046Y-79206547D01*
X44969648Y-79204140D01*
X45236458Y-79025863D01*
X45536921Y-78901407D01*
X45643244Y-78880258D01*
X45855889Y-78837960D01*
X46181111Y-78837960D01*
X46393756Y-78880258D01*
X46393756Y-78880258D01*
G37*
G36*
X98701815Y-72567766D02*
X98746345Y-72581275D01*
X98787391Y-72603214D01*
X98823364Y-72632736D01*
X98852886Y-72668709D01*
X98874825Y-72709755D01*
X98888334Y-72754285D01*
X98893500Y-72806740D01*
X98893500Y-73520460D01*
X98888334Y-73572915D01*
X98874825Y-73617445D01*
X98852886Y-73658491D01*
X98823364Y-73694464D01*
X98787391Y-73723986D01*
X98746345Y-73745925D01*
X98701815Y-73759434D01*
X98649360Y-73764600D01*
X97235640Y-73764600D01*
X97183185Y-73759434D01*
X97138655Y-73745925D01*
X97097609Y-73723986D01*
X97061636Y-73694464D01*
X97032114Y-73658491D01*
X97010175Y-73617445D01*
X96996666Y-73572915D01*
X96991500Y-73520460D01*
X96991500Y-72806740D01*
X96996666Y-72754285D01*
X97010175Y-72709755D01*
X97032114Y-72668709D01*
X97061636Y-72632736D01*
X97097609Y-72603214D01*
X97138655Y-72581275D01*
X97183185Y-72567766D01*
X97235640Y-72562600D01*
X98649360Y-72562600D01*
X98701815Y-72567766D01*
X98701815Y-72567766D01*
G37*
G36*
X93915000Y-73764600D02*
X92013000Y-73764600D01*
X92013000Y-72562600D01*
X93915000Y-72562600D01*
X93915000Y-73764600D01*
X93915000Y-73764600D01*
G37*
G36*
X49235315Y-72567766D02*
X49279845Y-72581275D01*
X49320891Y-72603214D01*
X49356864Y-72632736D01*
X49386386Y-72668709D01*
X49408325Y-72709755D01*
X49421834Y-72754285D01*
X49427000Y-72806740D01*
X49427000Y-73520460D01*
X49421834Y-73572915D01*
X49408325Y-73617445D01*
X49386386Y-73658491D01*
X49356864Y-73694464D01*
X49320891Y-73723986D01*
X49279845Y-73745925D01*
X49235315Y-73759434D01*
X49182860Y-73764600D01*
X47769140Y-73764600D01*
X47716685Y-73759434D01*
X47672155Y-73745925D01*
X47631109Y-73723986D01*
X47595136Y-73694464D01*
X47565614Y-73658491D01*
X47543675Y-73617445D01*
X47530166Y-73572915D01*
X47525000Y-73520460D01*
X47525000Y-72806740D01*
X47530166Y-72754285D01*
X47543675Y-72709755D01*
X47565614Y-72668709D01*
X47595136Y-72632736D01*
X47631109Y-72603214D01*
X47672155Y-72581275D01*
X47716685Y-72567766D01*
X47769140Y-72562600D01*
X49182860Y-72562600D01*
X49235315Y-72567766D01*
X49235315Y-72567766D01*
G37*
G36*
X44448500Y-73764600D02*
X42546500Y-73764600D01*
X42546500Y-72562600D01*
X44448500Y-72562600D01*
X44448500Y-73764600D01*
X44448500Y-73764600D01*
G37*
G36*
X115676485Y-70661596D02*
X115676487Y-70661597D01*
X115676488Y-70661597D01*
X115759952Y-70696169D01*
X115913255Y-70759669D01*
X116126342Y-70902049D01*
X116307551Y-71083258D01*
X116307553Y-71083261D01*
X116449931Y-71296345D01*
X116509335Y-71439758D01*
X116548004Y-71533115D01*
X116598000Y-71784461D01*
X116598000Y-72040739D01*
X116553772Y-72263088D01*
X116548003Y-72292088D01*
X116466260Y-72489434D01*
X116449931Y-72528855D01*
X116307551Y-72741942D01*
X116126342Y-72923151D01*
X116126339Y-72923153D01*
X115913255Y-73065531D01*
X115676488Y-73163603D01*
X115676487Y-73163603D01*
X115676485Y-73163604D01*
X115425139Y-73213600D01*
X115168861Y-73213600D01*
X114917515Y-73163604D01*
X114917513Y-73163603D01*
X114917512Y-73163603D01*
X114680745Y-73065531D01*
X114467661Y-72923153D01*
X114467658Y-72923151D01*
X114286449Y-72741942D01*
X114144069Y-72528855D01*
X114127740Y-72489434D01*
X114045997Y-72292088D01*
X114040229Y-72263088D01*
X113996000Y-72040739D01*
X113996000Y-71784461D01*
X114045996Y-71533115D01*
X114084666Y-71439758D01*
X114144069Y-71296345D01*
X114286447Y-71083261D01*
X114286449Y-71083258D01*
X114467658Y-70902049D01*
X114680745Y-70759669D01*
X114834048Y-70696169D01*
X114917512Y-70661597D01*
X114917513Y-70661597D01*
X114917515Y-70661596D01*
X115168861Y-70611600D01*
X115425139Y-70611600D01*
X115676485Y-70661596D01*
X115676485Y-70661596D01*
G37*
G36*
X108176485Y-70661596D02*
X108176487Y-70661597D01*
X108176488Y-70661597D01*
X108259952Y-70696169D01*
X108413255Y-70759669D01*
X108626342Y-70902049D01*
X108807551Y-71083258D01*
X108807553Y-71083261D01*
X108949931Y-71296345D01*
X109009335Y-71439758D01*
X109048004Y-71533115D01*
X109098000Y-71784461D01*
X109098000Y-72040739D01*
X109053772Y-72263088D01*
X109048003Y-72292088D01*
X108966260Y-72489434D01*
X108949931Y-72528855D01*
X108807551Y-72741942D01*
X108626342Y-72923151D01*
X108626339Y-72923153D01*
X108413255Y-73065531D01*
X108176488Y-73163603D01*
X108176487Y-73163603D01*
X108176485Y-73163604D01*
X107925139Y-73213600D01*
X107668861Y-73213600D01*
X107417515Y-73163604D01*
X107417513Y-73163603D01*
X107417512Y-73163603D01*
X107180745Y-73065531D01*
X106967661Y-72923153D01*
X106967658Y-72923151D01*
X106786449Y-72741942D01*
X106644069Y-72528855D01*
X106627740Y-72489434D01*
X106545997Y-72292088D01*
X106540229Y-72263088D01*
X106496000Y-72040739D01*
X106496000Y-71784461D01*
X106545996Y-71533115D01*
X106584666Y-71439758D01*
X106644069Y-71296345D01*
X106786447Y-71083261D01*
X106786449Y-71083258D01*
X106967658Y-70902049D01*
X107180745Y-70759669D01*
X107334048Y-70696169D01*
X107417512Y-70661597D01*
X107417513Y-70661597D01*
X107417515Y-70661596D01*
X107668861Y-70611600D01*
X107925139Y-70611600D01*
X108176485Y-70661596D01*
X108176485Y-70661596D01*
G37*
G36*
X75854985Y-70661596D02*
X75854987Y-70661597D01*
X75854988Y-70661597D01*
X75938452Y-70696169D01*
X76091755Y-70759669D01*
X76304842Y-70902049D01*
X76486051Y-71083258D01*
X76486053Y-71083261D01*
X76628431Y-71296345D01*
X76687835Y-71439758D01*
X76726504Y-71533115D01*
X76776500Y-71784461D01*
X76776500Y-72040739D01*
X76732272Y-72263088D01*
X76726503Y-72292088D01*
X76644760Y-72489434D01*
X76628431Y-72528855D01*
X76486051Y-72741942D01*
X76304842Y-72923151D01*
X76304839Y-72923153D01*
X76091755Y-73065531D01*
X75854988Y-73163603D01*
X75854987Y-73163603D01*
X75854985Y-73163604D01*
X75603639Y-73213600D01*
X75347361Y-73213600D01*
X75096015Y-73163604D01*
X75096013Y-73163603D01*
X75096012Y-73163603D01*
X74859245Y-73065531D01*
X74646161Y-72923153D01*
X74646158Y-72923151D01*
X74464949Y-72741942D01*
X74322569Y-72528855D01*
X74306240Y-72489434D01*
X74224497Y-72292088D01*
X74218729Y-72263088D01*
X74174500Y-72040739D01*
X74174500Y-71784461D01*
X74224496Y-71533115D01*
X74263166Y-71439758D01*
X74322569Y-71296345D01*
X74464947Y-71083261D01*
X74464949Y-71083258D01*
X74646158Y-70902049D01*
X74859245Y-70759669D01*
X75012548Y-70696169D01*
X75096012Y-70661597D01*
X75096013Y-70661597D01*
X75096015Y-70661596D01*
X75347361Y-70611600D01*
X75603639Y-70611600D01*
X75854985Y-70661596D01*
X75854985Y-70661596D01*
G37*
G36*
X83354985Y-70661596D02*
X83354987Y-70661597D01*
X83354988Y-70661597D01*
X83438452Y-70696169D01*
X83591755Y-70759669D01*
X83804842Y-70902049D01*
X83986051Y-71083258D01*
X83986053Y-71083261D01*
X84128431Y-71296345D01*
X84187835Y-71439758D01*
X84226504Y-71533115D01*
X84276500Y-71784461D01*
X84276500Y-72040739D01*
X84232272Y-72263088D01*
X84226503Y-72292088D01*
X84144760Y-72489434D01*
X84128431Y-72528855D01*
X83986051Y-72741942D01*
X83804842Y-72923151D01*
X83804839Y-72923153D01*
X83591755Y-73065531D01*
X83354988Y-73163603D01*
X83354987Y-73163603D01*
X83354985Y-73163604D01*
X83103639Y-73213600D01*
X82847361Y-73213600D01*
X82596015Y-73163604D01*
X82596013Y-73163603D01*
X82596012Y-73163603D01*
X82359245Y-73065531D01*
X82146161Y-72923153D01*
X82146158Y-72923151D01*
X81964949Y-72741942D01*
X81822569Y-72528855D01*
X81806240Y-72489434D01*
X81724497Y-72292088D01*
X81718729Y-72263088D01*
X81674500Y-72040739D01*
X81674500Y-71784461D01*
X81724496Y-71533115D01*
X81763166Y-71439758D01*
X81822569Y-71296345D01*
X81964947Y-71083261D01*
X81964949Y-71083258D01*
X82146158Y-70902049D01*
X82359245Y-70759669D01*
X82512548Y-70696169D01*
X82596012Y-70661597D01*
X82596013Y-70661597D01*
X82596015Y-70661596D01*
X82847361Y-70611600D01*
X83103639Y-70611600D01*
X83354985Y-70661596D01*
X83354985Y-70661596D01*
G37*
G36*
X58836985Y-70661596D02*
X58836987Y-70661597D01*
X58836988Y-70661597D01*
X58920452Y-70696169D01*
X59073755Y-70759669D01*
X59286842Y-70902049D01*
X59468051Y-71083258D01*
X59468053Y-71083261D01*
X59610431Y-71296345D01*
X59669835Y-71439758D01*
X59708504Y-71533115D01*
X59758500Y-71784461D01*
X59758500Y-72040739D01*
X59714272Y-72263088D01*
X59708503Y-72292088D01*
X59626760Y-72489434D01*
X59610431Y-72528855D01*
X59468051Y-72741942D01*
X59286842Y-72923151D01*
X59286839Y-72923153D01*
X59073755Y-73065531D01*
X58836988Y-73163603D01*
X58836987Y-73163603D01*
X58836985Y-73163604D01*
X58585639Y-73213600D01*
X58329361Y-73213600D01*
X58078015Y-73163604D01*
X58078013Y-73163603D01*
X58078012Y-73163603D01*
X57841245Y-73065531D01*
X57628161Y-72923153D01*
X57628158Y-72923151D01*
X57446949Y-72741942D01*
X57304569Y-72528855D01*
X57288240Y-72489434D01*
X57206497Y-72292088D01*
X57200729Y-72263088D01*
X57156500Y-72040739D01*
X57156500Y-71784461D01*
X57206496Y-71533115D01*
X57245166Y-71439758D01*
X57304569Y-71296345D01*
X57446947Y-71083261D01*
X57446949Y-71083258D01*
X57628158Y-70902049D01*
X57841245Y-70759669D01*
X57994548Y-70696169D01*
X58078012Y-70661597D01*
X58078013Y-70661597D01*
X58078015Y-70661596D01*
X58329361Y-70611600D01*
X58585639Y-70611600D01*
X58836985Y-70661596D01*
X58836985Y-70661596D01*
G37*
G36*
X66336985Y-70661596D02*
X66336987Y-70661597D01*
X66336988Y-70661597D01*
X66420452Y-70696169D01*
X66573755Y-70759669D01*
X66786842Y-70902049D01*
X66968051Y-71083258D01*
X66968053Y-71083261D01*
X67110431Y-71296345D01*
X67169835Y-71439758D01*
X67208504Y-71533115D01*
X67258500Y-71784461D01*
X67258500Y-72040739D01*
X67214272Y-72263088D01*
X67208503Y-72292088D01*
X67126760Y-72489434D01*
X67110431Y-72528855D01*
X66968051Y-72741942D01*
X66786842Y-72923151D01*
X66786839Y-72923153D01*
X66573755Y-73065531D01*
X66336988Y-73163603D01*
X66336987Y-73163603D01*
X66336985Y-73163604D01*
X66085639Y-73213600D01*
X65829361Y-73213600D01*
X65578015Y-73163604D01*
X65578013Y-73163603D01*
X65578012Y-73163603D01*
X65341245Y-73065531D01*
X65128161Y-72923153D01*
X65128158Y-72923151D01*
X64946949Y-72741942D01*
X64804569Y-72528855D01*
X64788240Y-72489434D01*
X64706497Y-72292088D01*
X64700729Y-72263088D01*
X64656500Y-72040739D01*
X64656500Y-71784461D01*
X64706496Y-71533115D01*
X64745166Y-71439758D01*
X64804569Y-71296345D01*
X64946947Y-71083261D01*
X64946949Y-71083258D01*
X65128158Y-70902049D01*
X65341245Y-70759669D01*
X65494548Y-70696169D01*
X65578012Y-70661597D01*
X65578013Y-70661597D01*
X65578015Y-70661596D01*
X65829361Y-70611600D01*
X66085639Y-70611600D01*
X66336985Y-70661596D01*
X66336985Y-70661596D01*
G37*
G36*
X160864485Y-70632596D02*
X160864487Y-70632597D01*
X160864488Y-70632597D01*
X161101255Y-70730669D01*
X161314342Y-70873049D01*
X161495551Y-71054258D01*
X161495553Y-71054261D01*
X161637931Y-71267345D01*
X161721713Y-71469612D01*
X161736004Y-71504115D01*
X161786000Y-71755461D01*
X161786000Y-72011739D01*
X161738065Y-72252725D01*
X161736003Y-72263088D01*
X161652221Y-72465355D01*
X161637931Y-72499855D01*
X161495551Y-72712942D01*
X161314342Y-72894151D01*
X161314339Y-72894153D01*
X161101255Y-73036531D01*
X160864488Y-73134603D01*
X160864487Y-73134603D01*
X160864485Y-73134604D01*
X160613139Y-73184600D01*
X160356861Y-73184600D01*
X160105515Y-73134604D01*
X160105513Y-73134603D01*
X160105512Y-73134603D01*
X159868745Y-73036531D01*
X159655661Y-72894153D01*
X159655658Y-72894151D01*
X159474449Y-72712942D01*
X159332069Y-72499855D01*
X159317779Y-72465355D01*
X159233997Y-72263088D01*
X159231936Y-72252725D01*
X159184000Y-72011739D01*
X159184000Y-71755461D01*
X159233996Y-71504115D01*
X159248288Y-71469612D01*
X159332069Y-71267345D01*
X159474447Y-71054261D01*
X159474449Y-71054258D01*
X159655658Y-70873049D01*
X159868745Y-70730669D01*
X160105512Y-70632597D01*
X160105513Y-70632597D01*
X160105515Y-70632596D01*
X160356861Y-70582600D01*
X160613139Y-70582600D01*
X160864485Y-70632596D01*
X160864485Y-70632596D01*
G37*
G36*
X136346485Y-70632596D02*
X136346487Y-70632597D01*
X136346488Y-70632597D01*
X136583255Y-70730669D01*
X136796342Y-70873049D01*
X136977551Y-71054258D01*
X136977553Y-71054261D01*
X137119931Y-71267345D01*
X137203713Y-71469612D01*
X137218004Y-71504115D01*
X137268000Y-71755461D01*
X137268000Y-72011739D01*
X137220065Y-72252725D01*
X137218003Y-72263088D01*
X137134221Y-72465355D01*
X137119931Y-72499855D01*
X136977551Y-72712942D01*
X136796342Y-72894151D01*
X136796339Y-72894153D01*
X136583255Y-73036531D01*
X136346488Y-73134603D01*
X136346487Y-73134603D01*
X136346485Y-73134604D01*
X136095139Y-73184600D01*
X135838861Y-73184600D01*
X135587515Y-73134604D01*
X135587513Y-73134603D01*
X135587512Y-73134603D01*
X135350745Y-73036531D01*
X135137661Y-72894153D01*
X135137658Y-72894151D01*
X134956449Y-72712942D01*
X134814069Y-72499855D01*
X134799779Y-72465355D01*
X134715997Y-72263088D01*
X134713936Y-72252725D01*
X134666000Y-72011739D01*
X134666000Y-71755461D01*
X134715996Y-71504115D01*
X134730288Y-71469612D01*
X134814069Y-71267345D01*
X134956447Y-71054261D01*
X134956449Y-71054258D01*
X135137658Y-70873049D01*
X135350745Y-70730669D01*
X135587512Y-70632597D01*
X135587513Y-70632597D01*
X135587515Y-70632596D01*
X135838861Y-70582600D01*
X136095139Y-70582600D01*
X136346485Y-70632596D01*
X136346485Y-70632596D01*
G37*
G36*
X143846485Y-70632596D02*
X143846487Y-70632597D01*
X143846488Y-70632597D01*
X144083255Y-70730669D01*
X144296342Y-70873049D01*
X144477551Y-71054258D01*
X144477553Y-71054261D01*
X144619931Y-71267345D01*
X144703713Y-71469612D01*
X144718004Y-71504115D01*
X144768000Y-71755461D01*
X144768000Y-72011739D01*
X144720065Y-72252725D01*
X144718003Y-72263088D01*
X144634221Y-72465355D01*
X144619931Y-72499855D01*
X144477551Y-72712942D01*
X144296342Y-72894151D01*
X144296339Y-72894153D01*
X144083255Y-73036531D01*
X143846488Y-73134603D01*
X143846487Y-73134603D01*
X143846485Y-73134604D01*
X143595139Y-73184600D01*
X143338861Y-73184600D01*
X143087515Y-73134604D01*
X143087513Y-73134603D01*
X143087512Y-73134603D01*
X142850745Y-73036531D01*
X142637661Y-72894153D01*
X142637658Y-72894151D01*
X142456449Y-72712942D01*
X142314069Y-72499855D01*
X142299779Y-72465355D01*
X142215997Y-72263088D01*
X142213936Y-72252725D01*
X142166000Y-72011739D01*
X142166000Y-71755461D01*
X142215996Y-71504115D01*
X142230288Y-71469612D01*
X142314069Y-71267345D01*
X142456447Y-71054261D01*
X142456449Y-71054258D01*
X142637658Y-70873049D01*
X142850745Y-70730669D01*
X143087512Y-70632597D01*
X143087513Y-70632597D01*
X143087515Y-70632596D01*
X143338861Y-70582600D01*
X143595139Y-70582600D01*
X143846485Y-70632596D01*
X143846485Y-70632596D01*
G37*
G36*
X153364485Y-70632596D02*
X153364487Y-70632597D01*
X153364488Y-70632597D01*
X153601255Y-70730669D01*
X153814342Y-70873049D01*
X153995551Y-71054258D01*
X153995553Y-71054261D01*
X154137931Y-71267345D01*
X154221713Y-71469612D01*
X154236004Y-71504115D01*
X154286000Y-71755461D01*
X154286000Y-72011739D01*
X154238065Y-72252725D01*
X154236003Y-72263088D01*
X154152221Y-72465355D01*
X154137931Y-72499855D01*
X153995551Y-72712942D01*
X153814342Y-72894151D01*
X153814339Y-72894153D01*
X153601255Y-73036531D01*
X153364488Y-73134603D01*
X153364487Y-73134603D01*
X153364485Y-73134604D01*
X153113139Y-73184600D01*
X152856861Y-73184600D01*
X152605515Y-73134604D01*
X152605513Y-73134603D01*
X152605512Y-73134603D01*
X152368745Y-73036531D01*
X152155661Y-72894153D01*
X152155658Y-72894151D01*
X151974449Y-72712942D01*
X151832069Y-72499855D01*
X151817779Y-72465355D01*
X151733997Y-72263088D01*
X151731936Y-72252725D01*
X151684000Y-72011739D01*
X151684000Y-71755461D01*
X151733996Y-71504115D01*
X151748288Y-71469612D01*
X151832069Y-71267345D01*
X151974447Y-71054261D01*
X151974449Y-71054258D01*
X152155658Y-70873049D01*
X152368745Y-70730669D01*
X152605512Y-70632597D01*
X152605513Y-70632597D01*
X152605515Y-70632596D01*
X152856861Y-70582600D01*
X153113139Y-70582600D01*
X153364485Y-70632596D01*
X153364485Y-70632596D01*
G37*
G36*
X26515485Y-70598096D02*
X26515487Y-70598097D01*
X26515488Y-70598097D01*
X26548087Y-70611600D01*
X26752255Y-70696169D01*
X26965342Y-70838549D01*
X27146551Y-71019758D01*
X27146553Y-71019761D01*
X27288931Y-71232845D01*
X27342734Y-71362736D01*
X27387004Y-71469615D01*
X27437000Y-71720961D01*
X27437000Y-71977239D01*
X27393864Y-72194100D01*
X27387003Y-72228588D01*
X27314201Y-72404347D01*
X27288931Y-72465355D01*
X27146551Y-72678442D01*
X26965342Y-72859651D01*
X26965339Y-72859653D01*
X26752255Y-73002031D01*
X26515488Y-73100103D01*
X26515487Y-73100103D01*
X26515485Y-73100104D01*
X26264139Y-73150100D01*
X26007861Y-73150100D01*
X25756515Y-73100104D01*
X25756513Y-73100103D01*
X25756512Y-73100103D01*
X25519745Y-73002031D01*
X25306661Y-72859653D01*
X25306658Y-72859651D01*
X25125449Y-72678442D01*
X24983069Y-72465355D01*
X24957799Y-72404347D01*
X24884997Y-72228588D01*
X24878137Y-72194100D01*
X24835000Y-71977239D01*
X24835000Y-71720961D01*
X24884996Y-71469615D01*
X24929267Y-71362736D01*
X24983069Y-71232845D01*
X25125447Y-71019761D01*
X25125449Y-71019758D01*
X25306658Y-70838549D01*
X25519745Y-70696169D01*
X25723913Y-70611600D01*
X25756512Y-70598097D01*
X25756513Y-70598097D01*
X25756515Y-70598096D01*
X26007861Y-70548100D01*
X26264139Y-70548100D01*
X26515485Y-70598096D01*
X26515485Y-70598096D01*
G37*
G36*
X34015485Y-70598096D02*
X34015487Y-70598097D01*
X34015488Y-70598097D01*
X34048087Y-70611600D01*
X34252255Y-70696169D01*
X34465342Y-70838549D01*
X34646551Y-71019758D01*
X34646553Y-71019761D01*
X34788931Y-71232845D01*
X34842734Y-71362736D01*
X34887004Y-71469615D01*
X34937000Y-71720961D01*
X34937000Y-71977239D01*
X34893864Y-72194100D01*
X34887003Y-72228588D01*
X34814201Y-72404347D01*
X34788931Y-72465355D01*
X34646551Y-72678442D01*
X34465342Y-72859651D01*
X34465339Y-72859653D01*
X34252255Y-73002031D01*
X34015488Y-73100103D01*
X34015487Y-73100103D01*
X34015485Y-73100104D01*
X33764139Y-73150100D01*
X33507861Y-73150100D01*
X33256515Y-73100104D01*
X33256513Y-73100103D01*
X33256512Y-73100103D01*
X33019745Y-73002031D01*
X32806661Y-72859653D01*
X32806658Y-72859651D01*
X32625449Y-72678442D01*
X32483069Y-72465355D01*
X32457799Y-72404347D01*
X32384997Y-72228588D01*
X32378137Y-72194100D01*
X32335000Y-71977239D01*
X32335000Y-71720961D01*
X32384996Y-71469615D01*
X32429267Y-71362736D01*
X32483069Y-71232845D01*
X32625447Y-71019761D01*
X32625449Y-71019758D01*
X32806658Y-70838549D01*
X33019745Y-70696169D01*
X33223913Y-70611600D01*
X33256512Y-70598097D01*
X33256513Y-70598097D01*
X33256515Y-70598096D01*
X33507861Y-70548100D01*
X33764139Y-70548100D01*
X34015485Y-70598096D01*
X34015485Y-70598096D01*
G37*
G36*
X42186815Y-71297766D02*
X42231345Y-71311275D01*
X42272391Y-71333214D01*
X42308364Y-71362736D01*
X42337886Y-71398709D01*
X42359825Y-71439755D01*
X42373334Y-71484285D01*
X42378500Y-71536740D01*
X42378500Y-72250460D01*
X42373334Y-72302915D01*
X42359826Y-72347442D01*
X42343132Y-72378674D01*
X42337886Y-72391339D01*
X42333112Y-72395257D01*
X42324872Y-72404347D01*
X42308361Y-72424467D01*
X42272391Y-72453986D01*
X42231345Y-72475925D01*
X42186815Y-72489434D01*
X42134360Y-72494600D01*
X40720640Y-72494600D01*
X40668185Y-72489434D01*
X40623655Y-72475925D01*
X40582609Y-72453986D01*
X40546636Y-72424464D01*
X40517114Y-72388491D01*
X40495175Y-72347445D01*
X40481666Y-72302915D01*
X40476500Y-72250460D01*
X40476500Y-71536740D01*
X40481666Y-71484285D01*
X40495175Y-71439755D01*
X40517114Y-71398709D01*
X40546636Y-71362736D01*
X40582609Y-71333214D01*
X40623655Y-71311275D01*
X40668185Y-71297766D01*
X40720640Y-71292600D01*
X42134360Y-71292600D01*
X42186815Y-71297766D01*
X42186815Y-71297766D01*
G37*
G36*
X51305315Y-71297766D02*
X51349845Y-71311275D01*
X51390891Y-71333214D01*
X51426864Y-71362736D01*
X51456386Y-71398709D01*
X51478325Y-71439755D01*
X51491834Y-71484285D01*
X51497000Y-71536740D01*
X51497000Y-72250460D01*
X51491834Y-72302915D01*
X51478325Y-72347445D01*
X51456386Y-72388491D01*
X51426864Y-72424464D01*
X51390891Y-72453986D01*
X51349845Y-72475925D01*
X51305315Y-72489434D01*
X51252860Y-72494600D01*
X49839140Y-72494600D01*
X49786685Y-72489434D01*
X49742155Y-72475925D01*
X49701109Y-72453986D01*
X49665136Y-72424464D01*
X49635614Y-72388491D01*
X49613675Y-72347445D01*
X49600166Y-72302915D01*
X49595000Y-72250460D01*
X49595000Y-71536740D01*
X49600166Y-71484285D01*
X49613674Y-71439758D01*
X49630368Y-71408526D01*
X49635614Y-71395861D01*
X49640388Y-71391943D01*
X49648628Y-71382853D01*
X49665139Y-71362733D01*
X49701109Y-71333214D01*
X49742155Y-71311275D01*
X49786685Y-71297766D01*
X49839140Y-71292600D01*
X51252860Y-71292600D01*
X51305315Y-71297766D01*
X51305315Y-71297766D01*
G37*
G36*
X91653315Y-71297766D02*
X91697845Y-71311275D01*
X91738891Y-71333214D01*
X91774864Y-71362736D01*
X91804386Y-71398709D01*
X91826325Y-71439755D01*
X91839834Y-71484285D01*
X91845000Y-71536740D01*
X91845000Y-72250460D01*
X91839834Y-72302915D01*
X91826326Y-72347442D01*
X91809632Y-72378674D01*
X91804386Y-72391339D01*
X91799612Y-72395257D01*
X91791372Y-72404347D01*
X91774861Y-72424467D01*
X91738891Y-72453986D01*
X91697845Y-72475925D01*
X91653315Y-72489434D01*
X91600860Y-72494600D01*
X90187140Y-72494600D01*
X90134685Y-72489434D01*
X90090155Y-72475925D01*
X90049109Y-72453986D01*
X90013136Y-72424464D01*
X89983614Y-72388491D01*
X89961675Y-72347445D01*
X89948166Y-72302915D01*
X89943000Y-72250460D01*
X89943000Y-71536740D01*
X89948166Y-71484285D01*
X89961675Y-71439755D01*
X89983614Y-71398709D01*
X90013136Y-71362736D01*
X90049109Y-71333214D01*
X90090155Y-71311275D01*
X90134685Y-71297766D01*
X90187140Y-71292600D01*
X91600860Y-71292600D01*
X91653315Y-71297766D01*
X91653315Y-71297766D01*
G37*
G36*
X100771815Y-71297766D02*
X100816345Y-71311275D01*
X100857391Y-71333214D01*
X100893364Y-71362736D01*
X100922886Y-71398709D01*
X100944825Y-71439755D01*
X100958334Y-71484285D01*
X100963500Y-71536740D01*
X100963500Y-72250460D01*
X100958334Y-72302915D01*
X100944825Y-72347445D01*
X100922886Y-72388491D01*
X100893364Y-72424464D01*
X100857391Y-72453986D01*
X100816345Y-72475925D01*
X100771815Y-72489434D01*
X100719360Y-72494600D01*
X99305640Y-72494600D01*
X99253185Y-72489434D01*
X99208655Y-72475925D01*
X99167609Y-72453986D01*
X99131636Y-72424464D01*
X99102114Y-72388491D01*
X99080175Y-72347445D01*
X99066666Y-72302915D01*
X99061500Y-72250460D01*
X99061500Y-71536740D01*
X99066666Y-71484285D01*
X99080174Y-71439758D01*
X99096868Y-71408526D01*
X99102114Y-71395861D01*
X99106888Y-71391943D01*
X99115128Y-71382853D01*
X99131639Y-71362733D01*
X99167609Y-71333214D01*
X99208655Y-71311275D01*
X99253185Y-71297766D01*
X99305640Y-71292600D01*
X100719360Y-71292600D01*
X100771815Y-71297766D01*
X100771815Y-71297766D01*
G37*
G36*
X93723315Y-70027766D02*
X93767845Y-70041275D01*
X93808891Y-70063214D01*
X93844864Y-70092736D01*
X93874386Y-70128709D01*
X93896325Y-70169755D01*
X93909834Y-70214285D01*
X93915000Y-70266740D01*
X93915000Y-70980460D01*
X93909834Y-71032915D01*
X93896325Y-71077445D01*
X93874386Y-71118491D01*
X93844864Y-71154464D01*
X93808891Y-71183986D01*
X93767845Y-71205925D01*
X93723315Y-71219434D01*
X93670860Y-71224600D01*
X92257140Y-71224600D01*
X92204685Y-71219434D01*
X92160155Y-71205925D01*
X92119109Y-71183986D01*
X92083136Y-71154464D01*
X92053614Y-71118491D01*
X92031675Y-71077445D01*
X92018166Y-71032915D01*
X92013000Y-70980460D01*
X92013000Y-70266740D01*
X92018166Y-70214285D01*
X92031675Y-70169755D01*
X92053614Y-70128709D01*
X92083136Y-70092736D01*
X92119109Y-70063214D01*
X92160155Y-70041275D01*
X92204685Y-70027766D01*
X92257140Y-70022600D01*
X93670860Y-70022600D01*
X93723315Y-70027766D01*
X93723315Y-70027766D01*
G37*
G36*
X98893500Y-71224600D02*
X96991500Y-71224600D01*
X96991500Y-70022600D01*
X98893500Y-70022600D01*
X98893500Y-71224600D01*
X98893500Y-71224600D01*
G37*
G36*
X49427000Y-71224600D02*
X47525000Y-71224600D01*
X47525000Y-70022600D01*
X49427000Y-70022600D01*
X49427000Y-71224600D01*
X49427000Y-71224600D01*
G37*
G36*
X44256815Y-70027766D02*
X44301345Y-70041275D01*
X44342391Y-70063214D01*
X44378364Y-70092736D01*
X44407886Y-70128709D01*
X44429825Y-70169755D01*
X44443334Y-70214285D01*
X44448500Y-70266740D01*
X44448500Y-70980460D01*
X44443334Y-71032915D01*
X44429825Y-71077445D01*
X44407886Y-71118491D01*
X44378364Y-71154464D01*
X44342391Y-71183986D01*
X44301345Y-71205925D01*
X44256815Y-71219434D01*
X44204360Y-71224600D01*
X42790640Y-71224600D01*
X42738185Y-71219434D01*
X42693655Y-71205925D01*
X42652609Y-71183986D01*
X42616636Y-71154464D01*
X42587114Y-71118491D01*
X42565175Y-71077445D01*
X42551666Y-71032915D01*
X42546500Y-70980460D01*
X42546500Y-70266740D01*
X42551666Y-70214285D01*
X42565175Y-70169755D01*
X42587114Y-70128709D01*
X42616636Y-70092736D01*
X42652609Y-70063214D01*
X42693655Y-70041275D01*
X42738185Y-70027766D01*
X42790640Y-70022600D01*
X44204360Y-70022600D01*
X44256815Y-70027766D01*
X44256815Y-70027766D01*
G37*
G36*
X129144315Y-65540266D02*
X129188842Y-65553774D01*
X129220074Y-65570468D01*
X129232739Y-65575714D01*
X129236657Y-65580488D01*
X129245747Y-65588728D01*
X129265867Y-65605239D01*
X129295386Y-65641209D01*
X129317325Y-65682255D01*
X129330834Y-65726785D01*
X129336000Y-65779240D01*
X129336000Y-67192960D01*
X129330834Y-67245415D01*
X129317325Y-67289945D01*
X129295386Y-67330991D01*
X129265864Y-67366964D01*
X129229891Y-67396486D01*
X129188845Y-67418425D01*
X129144315Y-67431934D01*
X129091860Y-67437100D01*
X128378140Y-67437100D01*
X128325685Y-67431934D01*
X128281155Y-67418425D01*
X128240109Y-67396486D01*
X128204136Y-67366964D01*
X128174614Y-67330991D01*
X128152675Y-67289945D01*
X128139166Y-67245415D01*
X128134000Y-67192960D01*
X128134000Y-65779240D01*
X128139166Y-65726785D01*
X128152675Y-65682255D01*
X128174614Y-65641209D01*
X128204136Y-65605236D01*
X128240109Y-65575714D01*
X128281155Y-65553775D01*
X128325685Y-65540266D01*
X128378140Y-65535100D01*
X129091860Y-65535100D01*
X129144315Y-65540266D01*
X129144315Y-65540266D01*
G37*
G36*
X169530315Y-65286266D02*
X169574845Y-65299775D01*
X169615891Y-65321714D01*
X169651864Y-65351236D01*
X169681386Y-65387209D01*
X169703325Y-65428255D01*
X169716834Y-65472785D01*
X169722000Y-65525240D01*
X169722000Y-66938960D01*
X169716834Y-66991415D01*
X169703325Y-67035945D01*
X169681386Y-67076991D01*
X169651864Y-67112964D01*
X169615891Y-67142486D01*
X169574845Y-67164425D01*
X169530315Y-67177934D01*
X169477860Y-67183100D01*
X168764140Y-67183100D01*
X168711685Y-67177934D01*
X168667155Y-67164425D01*
X168626109Y-67142486D01*
X168590136Y-67112964D01*
X168560614Y-67076991D01*
X168538675Y-67035945D01*
X168525166Y-66991415D01*
X168520000Y-66938960D01*
X168520000Y-65525240D01*
X168525166Y-65472785D01*
X168538675Y-65428255D01*
X168560614Y-65387209D01*
X168590136Y-65351236D01*
X168626109Y-65321714D01*
X168667155Y-65299775D01*
X168711685Y-65286266D01*
X168764140Y-65281100D01*
X169477860Y-65281100D01*
X169530315Y-65286266D01*
X169530315Y-65286266D01*
G37*
G36*
X167182000Y-67183100D02*
X165980000Y-67183100D01*
X165980000Y-65281100D01*
X167182000Y-65281100D01*
X167182000Y-67183100D01*
X167182000Y-67183100D01*
G37*
G36*
X107494500Y-66504100D02*
X105192500Y-66504100D01*
X105192500Y-64202100D01*
X107494500Y-64202100D01*
X107494500Y-66504100D01*
X107494500Y-66504100D01*
G37*
G36*
X116627680Y-64208762D02*
X116729135Y-64218754D01*
X116946100Y-64284570D01*
X116946102Y-64284571D01*
X116946105Y-64284572D01*
X117146056Y-64391447D01*
X117321318Y-64535282D01*
X117465153Y-64710544D01*
X117572028Y-64910495D01*
X117572029Y-64910498D01*
X117572030Y-64910500D01*
X117637846Y-65127465D01*
X117660069Y-65353100D01*
X117637846Y-65578735D01*
X117572030Y-65795700D01*
X117572028Y-65795705D01*
X117465153Y-65995656D01*
X117321318Y-66170918D01*
X117146056Y-66314753D01*
X116946105Y-66421628D01*
X116946102Y-66421629D01*
X116946100Y-66421630D01*
X116729135Y-66487446D01*
X116627680Y-66497438D01*
X116560045Y-66504100D01*
X116446955Y-66504100D01*
X116379320Y-66497438D01*
X116277865Y-66487446D01*
X116060900Y-66421630D01*
X116060898Y-66421629D01*
X116060895Y-66421628D01*
X115860944Y-66314753D01*
X115685682Y-66170918D01*
X115541847Y-65995656D01*
X115434972Y-65795705D01*
X115434970Y-65795700D01*
X115369154Y-65578735D01*
X115346931Y-65353100D01*
X115369154Y-65127465D01*
X115434970Y-64910500D01*
X115434971Y-64910498D01*
X115434972Y-64910495D01*
X115541847Y-64710544D01*
X115685682Y-64535282D01*
X115860944Y-64391447D01*
X116060895Y-64284572D01*
X116060898Y-64284571D01*
X116060900Y-64284570D01*
X116277865Y-64218754D01*
X116379320Y-64208762D01*
X116446955Y-64202100D01*
X116560045Y-64202100D01*
X116627680Y-64208762D01*
X116627680Y-64208762D01*
G37*
G36*
X75300000Y-66504100D02*
X72998000Y-66504100D01*
X72998000Y-64202100D01*
X75300000Y-64202100D01*
X75300000Y-66504100D01*
X75300000Y-66504100D01*
G37*
G36*
X84433180Y-64208762D02*
X84534635Y-64218754D01*
X84751600Y-64284570D01*
X84751602Y-64284571D01*
X84751605Y-64284572D01*
X84951556Y-64391447D01*
X85126818Y-64535282D01*
X85270653Y-64710544D01*
X85377528Y-64910495D01*
X85377529Y-64910498D01*
X85377530Y-64910500D01*
X85443346Y-65127465D01*
X85465569Y-65353100D01*
X85443346Y-65578735D01*
X85377530Y-65795700D01*
X85377528Y-65795705D01*
X85270653Y-65995656D01*
X85126818Y-66170918D01*
X84951556Y-66314753D01*
X84751605Y-66421628D01*
X84751602Y-66421629D01*
X84751600Y-66421630D01*
X84534635Y-66487446D01*
X84433180Y-66497438D01*
X84365545Y-66504100D01*
X84252455Y-66504100D01*
X84184820Y-66497438D01*
X84083365Y-66487446D01*
X83866400Y-66421630D01*
X83866398Y-66421629D01*
X83866395Y-66421628D01*
X83666444Y-66314753D01*
X83491182Y-66170918D01*
X83347347Y-65995656D01*
X83240472Y-65795705D01*
X83240470Y-65795700D01*
X83174654Y-65578735D01*
X83152431Y-65353100D01*
X83174654Y-65127465D01*
X83240470Y-64910500D01*
X83240471Y-64910498D01*
X83240472Y-64910495D01*
X83347347Y-64710544D01*
X83491182Y-64535282D01*
X83666444Y-64391447D01*
X83866395Y-64284572D01*
X83866398Y-64284571D01*
X83866400Y-64284570D01*
X84083365Y-64218754D01*
X84184820Y-64208762D01*
X84252455Y-64202100D01*
X84365545Y-64202100D01*
X84433180Y-64208762D01*
X84433180Y-64208762D01*
G37*
G36*
X68505500Y-66504100D02*
X66203500Y-66504100D01*
X66203500Y-64202100D01*
X68505500Y-64202100D01*
X68505500Y-66504100D01*
X68505500Y-66504100D01*
G37*
G36*
X57318680Y-64208762D02*
X57420135Y-64218754D01*
X57637100Y-64284570D01*
X57637102Y-64284571D01*
X57637105Y-64284572D01*
X57837056Y-64391447D01*
X58012318Y-64535282D01*
X58156153Y-64710544D01*
X58263028Y-64910495D01*
X58263029Y-64910498D01*
X58263030Y-64910500D01*
X58328846Y-65127465D01*
X58351069Y-65353100D01*
X58328846Y-65578735D01*
X58263030Y-65795700D01*
X58263028Y-65795705D01*
X58156153Y-65995656D01*
X58012318Y-66170918D01*
X57837056Y-66314753D01*
X57637105Y-66421628D01*
X57637102Y-66421629D01*
X57637100Y-66421630D01*
X57420135Y-66487446D01*
X57318680Y-66497438D01*
X57251045Y-66504100D01*
X57137955Y-66504100D01*
X57070320Y-66497438D01*
X56968865Y-66487446D01*
X56751900Y-66421630D01*
X56751898Y-66421629D01*
X56751895Y-66421628D01*
X56551944Y-66314753D01*
X56376682Y-66170918D01*
X56232847Y-65995656D01*
X56125972Y-65795705D01*
X56125970Y-65795700D01*
X56060154Y-65578735D01*
X56037931Y-65353100D01*
X56060154Y-65127465D01*
X56125970Y-64910500D01*
X56125971Y-64910498D01*
X56125972Y-64910495D01*
X56232847Y-64710544D01*
X56376682Y-64535282D01*
X56551944Y-64391447D01*
X56751895Y-64284572D01*
X56751898Y-64284571D01*
X56751900Y-64284570D01*
X56968865Y-64218754D01*
X57070320Y-64208762D01*
X57137955Y-64202100D01*
X57251045Y-64202100D01*
X57318680Y-64208762D01*
X57318680Y-64208762D01*
G37*
G36*
X25960500Y-66504100D02*
X23658500Y-66504100D01*
X23658500Y-64202100D01*
X25960500Y-64202100D01*
X25960500Y-66504100D01*
X25960500Y-66504100D01*
G37*
G36*
X35093680Y-64208762D02*
X35195135Y-64218754D01*
X35412100Y-64284570D01*
X35412102Y-64284571D01*
X35412105Y-64284572D01*
X35612056Y-64391447D01*
X35787318Y-64535282D01*
X35931153Y-64710544D01*
X36038028Y-64910495D01*
X36038029Y-64910498D01*
X36038030Y-64910500D01*
X36103846Y-65127465D01*
X36126069Y-65353100D01*
X36103846Y-65578735D01*
X36038030Y-65795700D01*
X36038028Y-65795705D01*
X35931153Y-65995656D01*
X35787318Y-66170918D01*
X35612056Y-66314753D01*
X35412105Y-66421628D01*
X35412102Y-66421629D01*
X35412100Y-66421630D01*
X35195135Y-66487446D01*
X35093680Y-66497438D01*
X35026045Y-66504100D01*
X34912955Y-66504100D01*
X34845320Y-66497438D01*
X34743865Y-66487446D01*
X34526900Y-66421630D01*
X34526898Y-66421629D01*
X34526895Y-66421628D01*
X34326944Y-66314753D01*
X34151682Y-66170918D01*
X34007847Y-65995656D01*
X33900972Y-65795705D01*
X33900970Y-65795700D01*
X33835154Y-65578735D01*
X33812931Y-65353100D01*
X33835154Y-65127465D01*
X33900970Y-64910500D01*
X33900971Y-64910498D01*
X33900972Y-64910495D01*
X34007847Y-64710544D01*
X34151682Y-64535282D01*
X34326944Y-64391447D01*
X34526895Y-64284572D01*
X34526898Y-64284571D01*
X34526900Y-64284570D01*
X34743865Y-64218754D01*
X34845320Y-64208762D01*
X34912955Y-64202100D01*
X35026045Y-64202100D01*
X35093680Y-64208762D01*
X35093680Y-64208762D01*
G37*
G36*
X152873000Y-66411600D02*
X150571000Y-66411600D01*
X150571000Y-64109600D01*
X152873000Y-64109600D01*
X152873000Y-66411600D01*
X152873000Y-66411600D01*
G37*
G36*
X134764680Y-64116262D02*
X134866135Y-64126254D01*
X135083100Y-64192070D01*
X135083102Y-64192071D01*
X135083105Y-64192072D01*
X135283056Y-64298947D01*
X135458318Y-64442782D01*
X135602153Y-64618044D01*
X135709028Y-64817995D01*
X135709029Y-64817998D01*
X135709030Y-64818000D01*
X135774846Y-65034965D01*
X135797069Y-65260600D01*
X135774846Y-65486235D01*
X135709030Y-65703200D01*
X135709028Y-65703205D01*
X135602153Y-65903156D01*
X135458318Y-66078418D01*
X135283056Y-66222253D01*
X135083105Y-66329128D01*
X135083102Y-66329129D01*
X135083100Y-66329130D01*
X134866135Y-66394946D01*
X134764680Y-66404938D01*
X134697045Y-66411600D01*
X134583955Y-66411600D01*
X134516320Y-66404938D01*
X134414865Y-66394946D01*
X134197900Y-66329130D01*
X134197898Y-66329129D01*
X134197895Y-66329128D01*
X133997944Y-66222253D01*
X133822682Y-66078418D01*
X133678847Y-65903156D01*
X133571972Y-65703205D01*
X133571970Y-65703200D01*
X133506154Y-65486235D01*
X133483931Y-65260600D01*
X133506154Y-65034965D01*
X133571970Y-64818000D01*
X133571971Y-64817998D01*
X133571972Y-64817995D01*
X133678847Y-64618044D01*
X133822682Y-64442782D01*
X133997944Y-64298947D01*
X134197895Y-64192072D01*
X134197898Y-64192071D01*
X134197900Y-64192070D01*
X134414865Y-64126254D01*
X134516320Y-64116262D01*
X134583955Y-64109600D01*
X134697045Y-64109600D01*
X134764680Y-64116262D01*
X134764680Y-64116262D01*
G37*
G36*
X145951500Y-66411600D02*
X143649500Y-66411600D01*
X143649500Y-64109600D01*
X145951500Y-64109600D01*
X145951500Y-66411600D01*
X145951500Y-66411600D01*
G37*
G36*
X162006180Y-64116262D02*
X162107635Y-64126254D01*
X162324600Y-64192070D01*
X162324602Y-64192071D01*
X162324605Y-64192072D01*
X162524556Y-64298947D01*
X162699818Y-64442782D01*
X162843653Y-64618044D01*
X162950528Y-64817995D01*
X162950529Y-64817998D01*
X162950530Y-64818000D01*
X163016346Y-65034965D01*
X163038569Y-65260600D01*
X163016346Y-65486235D01*
X162950530Y-65703200D01*
X162950528Y-65703205D01*
X162843653Y-65903156D01*
X162699818Y-66078418D01*
X162524556Y-66222253D01*
X162324605Y-66329128D01*
X162324602Y-66329129D01*
X162324600Y-66329130D01*
X162107635Y-66394946D01*
X162006180Y-66404938D01*
X161938545Y-66411600D01*
X161825455Y-66411600D01*
X161757820Y-66404938D01*
X161656365Y-66394946D01*
X161439400Y-66329130D01*
X161439398Y-66329129D01*
X161439395Y-66329128D01*
X161239444Y-66222253D01*
X161064182Y-66078418D01*
X160920347Y-65903156D01*
X160813472Y-65703205D01*
X160813470Y-65703200D01*
X160747654Y-65486235D01*
X160725431Y-65260600D01*
X160747654Y-65034965D01*
X160813470Y-64818000D01*
X160813471Y-64817998D01*
X160813472Y-64817995D01*
X160920347Y-64618044D01*
X161064182Y-64442782D01*
X161239444Y-64298947D01*
X161439395Y-64192072D01*
X161439398Y-64192071D01*
X161439400Y-64192070D01*
X161656365Y-64126254D01*
X161757820Y-64116262D01*
X161825455Y-64109600D01*
X161938545Y-64109600D01*
X162006180Y-64116262D01*
X162006180Y-64116262D01*
G37*
G36*
X48090321Y-64577913D02*
X48090324Y-64577914D01*
X48090325Y-64577914D01*
X48250739Y-64626575D01*
X48250741Y-64626576D01*
X48250744Y-64626577D01*
X48398578Y-64705595D01*
X48528159Y-64811941D01*
X48634505Y-64941522D01*
X48713523Y-65089356D01*
X48713524Y-65089359D01*
X48713525Y-65089361D01*
X48739071Y-65173575D01*
X48762187Y-65249779D01*
X48778617Y-65416600D01*
X48762187Y-65583421D01*
X48762186Y-65583424D01*
X48762186Y-65583425D01*
X48713628Y-65743500D01*
X48713523Y-65743844D01*
X48634505Y-65891678D01*
X48528159Y-66021259D01*
X48398578Y-66127605D01*
X48250744Y-66206623D01*
X48250741Y-66206624D01*
X48250739Y-66206625D01*
X48090325Y-66255286D01*
X48090324Y-66255286D01*
X48090321Y-66255287D01*
X47965304Y-66267600D01*
X47881696Y-66267600D01*
X47756679Y-66255287D01*
X47756676Y-66255286D01*
X47756675Y-66255286D01*
X47596261Y-66206625D01*
X47596259Y-66206624D01*
X47596256Y-66206623D01*
X47448422Y-66127605D01*
X47318841Y-66021259D01*
X47212495Y-65891678D01*
X47133477Y-65743844D01*
X47133373Y-65743500D01*
X47084814Y-65583425D01*
X47084814Y-65583424D01*
X47084813Y-65583421D01*
X47068383Y-65416600D01*
X47084813Y-65249779D01*
X47107929Y-65173575D01*
X47133475Y-65089361D01*
X47133476Y-65089359D01*
X47133477Y-65089356D01*
X47212495Y-64941522D01*
X47318841Y-64811941D01*
X47448422Y-64705595D01*
X47596256Y-64626577D01*
X47596259Y-64626576D01*
X47596261Y-64626575D01*
X47756675Y-64577914D01*
X47756676Y-64577914D01*
X47756679Y-64577913D01*
X47881696Y-64565600D01*
X47965304Y-64565600D01*
X48090321Y-64577913D01*
X48090321Y-64577913D01*
G37*
G36*
X50711728Y-64598303D02*
X50866600Y-64662453D01*
X51005981Y-64755585D01*
X51124515Y-64874119D01*
X51217647Y-65013500D01*
X51281797Y-65168372D01*
X51314500Y-65332784D01*
X51314500Y-65500416D01*
X51281797Y-65664828D01*
X51217647Y-65819700D01*
X51124515Y-65959081D01*
X51005981Y-66077615D01*
X50866600Y-66170747D01*
X50711728Y-66234897D01*
X50547316Y-66267600D01*
X50379684Y-66267600D01*
X50215272Y-66234897D01*
X50060400Y-66170747D01*
X49921019Y-66077615D01*
X49802485Y-65959081D01*
X49709353Y-65819700D01*
X49645203Y-65664828D01*
X49612500Y-65500416D01*
X49612500Y-65332784D01*
X49645203Y-65168372D01*
X49709353Y-65013500D01*
X49802485Y-64874119D01*
X49921019Y-64755585D01*
X50060400Y-64662453D01*
X50215272Y-64598303D01*
X50379684Y-64565600D01*
X50547316Y-64565600D01*
X50711728Y-64598303D01*
X50711728Y-64598303D01*
G37*
G36*
X44216821Y-64577913D02*
X44216824Y-64577914D01*
X44216825Y-64577914D01*
X44377239Y-64626575D01*
X44377241Y-64626576D01*
X44377244Y-64626577D01*
X44525078Y-64705595D01*
X44654659Y-64811941D01*
X44761005Y-64941522D01*
X44840023Y-65089356D01*
X44840024Y-65089359D01*
X44840025Y-65089361D01*
X44865571Y-65173575D01*
X44888687Y-65249779D01*
X44905117Y-65416600D01*
X44888687Y-65583421D01*
X44888686Y-65583424D01*
X44888686Y-65583425D01*
X44840128Y-65743500D01*
X44840023Y-65743844D01*
X44761005Y-65891678D01*
X44654659Y-66021259D01*
X44525078Y-66127605D01*
X44377244Y-66206623D01*
X44377241Y-66206624D01*
X44377239Y-66206625D01*
X44216825Y-66255286D01*
X44216824Y-66255286D01*
X44216821Y-66255287D01*
X44091804Y-66267600D01*
X44008196Y-66267600D01*
X43883179Y-66255287D01*
X43883176Y-66255286D01*
X43883175Y-66255286D01*
X43722761Y-66206625D01*
X43722759Y-66206624D01*
X43722756Y-66206623D01*
X43574922Y-66127605D01*
X43445341Y-66021259D01*
X43338995Y-65891678D01*
X43259977Y-65743844D01*
X43259873Y-65743500D01*
X43211314Y-65583425D01*
X43211314Y-65583424D01*
X43211313Y-65583421D01*
X43194883Y-65416600D01*
X43211313Y-65249779D01*
X43234429Y-65173575D01*
X43259975Y-65089361D01*
X43259976Y-65089359D01*
X43259977Y-65089356D01*
X43338995Y-64941522D01*
X43445341Y-64811941D01*
X43574922Y-64705595D01*
X43722756Y-64626577D01*
X43722759Y-64626576D01*
X43722761Y-64626575D01*
X43883175Y-64577914D01*
X43883176Y-64577914D01*
X43883179Y-64577913D01*
X44008196Y-64565600D01*
X44091804Y-64565600D01*
X44216821Y-64577913D01*
X44216821Y-64577913D01*
G37*
G36*
X41758228Y-64598303D02*
X41913100Y-64662453D01*
X42052481Y-64755585D01*
X42171015Y-64874119D01*
X42264147Y-65013500D01*
X42328297Y-65168372D01*
X42361000Y-65332784D01*
X42361000Y-65500416D01*
X42328297Y-65664828D01*
X42264147Y-65819700D01*
X42171015Y-65959081D01*
X42052481Y-66077615D01*
X41913100Y-66170747D01*
X41758228Y-66234897D01*
X41593816Y-66267600D01*
X41426184Y-66267600D01*
X41261772Y-66234897D01*
X41106900Y-66170747D01*
X40967519Y-66077615D01*
X40848985Y-65959081D01*
X40755853Y-65819700D01*
X40691703Y-65664828D01*
X40659000Y-65500416D01*
X40659000Y-65332784D01*
X40691703Y-65168372D01*
X40755853Y-65013500D01*
X40848985Y-64874119D01*
X40967519Y-64755585D01*
X41106900Y-64662453D01*
X41261772Y-64598303D01*
X41426184Y-64565600D01*
X41593816Y-64565600D01*
X41758228Y-64598303D01*
X41758228Y-64598303D01*
G37*
G36*
X97556821Y-64501713D02*
X97556824Y-64501714D01*
X97556825Y-64501714D01*
X97717239Y-64550375D01*
X97717241Y-64550376D01*
X97717244Y-64550377D01*
X97865078Y-64629395D01*
X97994659Y-64735741D01*
X98101005Y-64865322D01*
X98180023Y-65013156D01*
X98180024Y-65013159D01*
X98180025Y-65013161D01*
X98228686Y-65173575D01*
X98228687Y-65173579D01*
X98245117Y-65340400D01*
X98228687Y-65507221D01*
X98228686Y-65507224D01*
X98228686Y-65507225D01*
X98180878Y-65664828D01*
X98180023Y-65667644D01*
X98101005Y-65815478D01*
X97994659Y-65945059D01*
X97865078Y-66051405D01*
X97717244Y-66130423D01*
X97717241Y-66130424D01*
X97717239Y-66130425D01*
X97556825Y-66179086D01*
X97556824Y-66179086D01*
X97556821Y-66179087D01*
X97431804Y-66191400D01*
X97348196Y-66191400D01*
X97223179Y-66179087D01*
X97223176Y-66179086D01*
X97223175Y-66179086D01*
X97062761Y-66130425D01*
X97062759Y-66130424D01*
X97062756Y-66130423D01*
X96914922Y-66051405D01*
X96785341Y-65945059D01*
X96678995Y-65815478D01*
X96599977Y-65667644D01*
X96599123Y-65664828D01*
X96551314Y-65507225D01*
X96551314Y-65507224D01*
X96551313Y-65507221D01*
X96534883Y-65340400D01*
X96551313Y-65173579D01*
X96551314Y-65173575D01*
X96599975Y-65013161D01*
X96599976Y-65013159D01*
X96599977Y-65013156D01*
X96678995Y-64865322D01*
X96785341Y-64735741D01*
X96914922Y-64629395D01*
X97062756Y-64550377D01*
X97062759Y-64550376D01*
X97062761Y-64550375D01*
X97223175Y-64501714D01*
X97223176Y-64501714D01*
X97223179Y-64501713D01*
X97348196Y-64489400D01*
X97431804Y-64489400D01*
X97556821Y-64501713D01*
X97556821Y-64501713D01*
G37*
G36*
X100178228Y-64522103D02*
X100333100Y-64586253D01*
X100472481Y-64679385D01*
X100591015Y-64797919D01*
X100684147Y-64937300D01*
X100748297Y-65092172D01*
X100781000Y-65256584D01*
X100781000Y-65424216D01*
X100748297Y-65588628D01*
X100684147Y-65743500D01*
X100591015Y-65882881D01*
X100472481Y-66001415D01*
X100333100Y-66094547D01*
X100178228Y-66158697D01*
X100013816Y-66191400D01*
X99846184Y-66191400D01*
X99681772Y-66158697D01*
X99526900Y-66094547D01*
X99387519Y-66001415D01*
X99268985Y-65882881D01*
X99175853Y-65743500D01*
X99111703Y-65588628D01*
X99079000Y-65424216D01*
X99079000Y-65256584D01*
X99111703Y-65092172D01*
X99175853Y-64937300D01*
X99268985Y-64797919D01*
X99387519Y-64679385D01*
X99526900Y-64586253D01*
X99681772Y-64522103D01*
X99846184Y-64489400D01*
X100013816Y-64489400D01*
X100178228Y-64522103D01*
X100178228Y-64522103D01*
G37*
G36*
X93383728Y-64494163D02*
X93538600Y-64558313D01*
X93677981Y-64651445D01*
X93796515Y-64769979D01*
X93889647Y-64909360D01*
X93953797Y-65064232D01*
X93986500Y-65228644D01*
X93986500Y-65396276D01*
X93953797Y-65560688D01*
X93889647Y-65715560D01*
X93796515Y-65854941D01*
X93677981Y-65973475D01*
X93538600Y-66066607D01*
X93383728Y-66130757D01*
X93219316Y-66163460D01*
X93051684Y-66163460D01*
X92887272Y-66130757D01*
X92732400Y-66066607D01*
X92593019Y-65973475D01*
X92474485Y-65854941D01*
X92381353Y-65715560D01*
X92317203Y-65560688D01*
X92284500Y-65396276D01*
X92284500Y-65228644D01*
X92317203Y-65064232D01*
X92381353Y-64909360D01*
X92474485Y-64769979D01*
X92593019Y-64651445D01*
X92732400Y-64558313D01*
X92887272Y-64494163D01*
X93051684Y-64461460D01*
X93219316Y-64461460D01*
X93383728Y-64494163D01*
X93383728Y-64494163D01*
G37*
G36*
X90762321Y-64473773D02*
X90762324Y-64473774D01*
X90762325Y-64473774D01*
X90922739Y-64522435D01*
X90922741Y-64522436D01*
X90922744Y-64522437D01*
X91070578Y-64601455D01*
X91200159Y-64707801D01*
X91306505Y-64837382D01*
X91385523Y-64985216D01*
X91385524Y-64985219D01*
X91385525Y-64985221D01*
X91428674Y-65127465D01*
X91434187Y-65145639D01*
X91450617Y-65312460D01*
X91434187Y-65479281D01*
X91434186Y-65479284D01*
X91434186Y-65479285D01*
X91400987Y-65588728D01*
X91385523Y-65639704D01*
X91306505Y-65787538D01*
X91200159Y-65917119D01*
X91070578Y-66023465D01*
X90922744Y-66102483D01*
X90922741Y-66102484D01*
X90922739Y-66102485D01*
X90762325Y-66151146D01*
X90762324Y-66151146D01*
X90762321Y-66151147D01*
X90637304Y-66163460D01*
X90553696Y-66163460D01*
X90428679Y-66151147D01*
X90428676Y-66151146D01*
X90428675Y-66151146D01*
X90268261Y-66102485D01*
X90268259Y-66102484D01*
X90268256Y-66102483D01*
X90120422Y-66023465D01*
X89990841Y-65917119D01*
X89884495Y-65787538D01*
X89805477Y-65639704D01*
X89790014Y-65588728D01*
X89756814Y-65479285D01*
X89756814Y-65479284D01*
X89756813Y-65479281D01*
X89740383Y-65312460D01*
X89756813Y-65145639D01*
X89762326Y-65127465D01*
X89805475Y-64985221D01*
X89805476Y-64985219D01*
X89805477Y-64985216D01*
X89884495Y-64837382D01*
X89990841Y-64707801D01*
X90120422Y-64601455D01*
X90268256Y-64522437D01*
X90268259Y-64522436D01*
X90268261Y-64522435D01*
X90428675Y-64473774D01*
X90428676Y-64473774D01*
X90428679Y-64473773D01*
X90553696Y-64461460D01*
X90637304Y-64461460D01*
X90762321Y-64473773D01*
X90762321Y-64473773D01*
G37*
G36*
X130606000Y-65367100D02*
X129404000Y-65367100D01*
X129404000Y-63465100D01*
X130606000Y-63465100D01*
X130606000Y-65367100D01*
X130606000Y-65367100D01*
G37*
G36*
X127874315Y-63470266D02*
X127918845Y-63483775D01*
X127959891Y-63505714D01*
X127995864Y-63535236D01*
X128025386Y-63571209D01*
X128047325Y-63612255D01*
X128060834Y-63656785D01*
X128066000Y-63709240D01*
X128066000Y-65122960D01*
X128060834Y-65175415D01*
X128047325Y-65219945D01*
X128025386Y-65260991D01*
X127995864Y-65296964D01*
X127959891Y-65326486D01*
X127918845Y-65348425D01*
X127874315Y-65361934D01*
X127821860Y-65367100D01*
X127108140Y-65367100D01*
X127055685Y-65361934D01*
X127011155Y-65348425D01*
X126970109Y-65326486D01*
X126934136Y-65296964D01*
X126904614Y-65260991D01*
X126882675Y-65219945D01*
X126869166Y-65175415D01*
X126864000Y-65122960D01*
X126864000Y-63709240D01*
X126869166Y-63656785D01*
X126882675Y-63612255D01*
X126904614Y-63571209D01*
X126934136Y-63535236D01*
X126970109Y-63505714D01*
X127011155Y-63483775D01*
X127055685Y-63470266D01*
X127108140Y-63465100D01*
X127821860Y-63465100D01*
X127874315Y-63470266D01*
X127874315Y-63470266D01*
G37*
G36*
X168260315Y-63216266D02*
X168304845Y-63229775D01*
X168345891Y-63251714D01*
X168381864Y-63281236D01*
X168411386Y-63317209D01*
X168433325Y-63358255D01*
X168446834Y-63402785D01*
X168452000Y-63455240D01*
X168452000Y-64868960D01*
X168446834Y-64921415D01*
X168433325Y-64965945D01*
X168411386Y-65006991D01*
X168381864Y-65042964D01*
X168345891Y-65072486D01*
X168304845Y-65094425D01*
X168260315Y-65107934D01*
X168207860Y-65113100D01*
X167494140Y-65113100D01*
X167441685Y-65107934D01*
X167397158Y-65094426D01*
X167365926Y-65077732D01*
X167353261Y-65072486D01*
X167349343Y-65067712D01*
X167340253Y-65059472D01*
X167320133Y-65042961D01*
X167290614Y-65006991D01*
X167268675Y-64965945D01*
X167255166Y-64921415D01*
X167250000Y-64868960D01*
X167250000Y-63455240D01*
X167255166Y-63402785D01*
X167268675Y-63358255D01*
X167290614Y-63317209D01*
X167320136Y-63281236D01*
X167356109Y-63251714D01*
X167397155Y-63229775D01*
X167441685Y-63216266D01*
X167494140Y-63211100D01*
X168207860Y-63211100D01*
X168260315Y-63216266D01*
X168260315Y-63216266D01*
G37*
G36*
X137810821Y-58833913D02*
X137810824Y-58833914D01*
X137810825Y-58833914D01*
X137971239Y-58882575D01*
X137971241Y-58882576D01*
X137971244Y-58882577D01*
X138119078Y-58961595D01*
X138248659Y-59067941D01*
X138355005Y-59197522D01*
X138434023Y-59345356D01*
X138434024Y-59345359D01*
X138434025Y-59345361D01*
X138482686Y-59505775D01*
X138482687Y-59505779D01*
X138499117Y-59672600D01*
X138482687Y-59839421D01*
X138482686Y-59839424D01*
X138482686Y-59839425D01*
X138462055Y-59907438D01*
X138434023Y-59999844D01*
X138355005Y-60147678D01*
X138248659Y-60277259D01*
X138119078Y-60383605D01*
X137971244Y-60462623D01*
X137971241Y-60462624D01*
X137971239Y-60462625D01*
X137810825Y-60511286D01*
X137810824Y-60511286D01*
X137810821Y-60511287D01*
X137685804Y-60523600D01*
X136802196Y-60523600D01*
X136677179Y-60511287D01*
X136677176Y-60511286D01*
X136677175Y-60511286D01*
X136516761Y-60462625D01*
X136516759Y-60462624D01*
X136516756Y-60462623D01*
X136368922Y-60383605D01*
X136239341Y-60277259D01*
X136132995Y-60147678D01*
X136053977Y-59999844D01*
X136025946Y-59907438D01*
X136005314Y-59839425D01*
X136005314Y-59839424D01*
X136005313Y-59839421D01*
X135988883Y-59672600D01*
X136005313Y-59505779D01*
X136005314Y-59505775D01*
X136053975Y-59345361D01*
X136053976Y-59345359D01*
X136053977Y-59345356D01*
X136132995Y-59197522D01*
X136239341Y-59067941D01*
X136368922Y-58961595D01*
X136516756Y-58882577D01*
X136516759Y-58882576D01*
X136516761Y-58882575D01*
X136677175Y-58833914D01*
X136677176Y-58833914D01*
X136677179Y-58833913D01*
X136802196Y-58821600D01*
X137685804Y-58821600D01*
X137810821Y-58833913D01*
X137810821Y-58833913D01*
G37*
G36*
X145430821Y-58833913D02*
X145430824Y-58833914D01*
X145430825Y-58833914D01*
X145591239Y-58882575D01*
X145591241Y-58882576D01*
X145591244Y-58882577D01*
X145739078Y-58961595D01*
X145868659Y-59067941D01*
X145975005Y-59197522D01*
X146054023Y-59345356D01*
X146054024Y-59345359D01*
X146054025Y-59345361D01*
X146102686Y-59505775D01*
X146102687Y-59505779D01*
X146119117Y-59672600D01*
X146102687Y-59839421D01*
X146102686Y-59839424D01*
X146102686Y-59839425D01*
X146082055Y-59907438D01*
X146054023Y-59999844D01*
X145975005Y-60147678D01*
X145868659Y-60277259D01*
X145739078Y-60383605D01*
X145591244Y-60462623D01*
X145591241Y-60462624D01*
X145591239Y-60462625D01*
X145430825Y-60511286D01*
X145430824Y-60511286D01*
X145430821Y-60511287D01*
X145305804Y-60523600D01*
X144422196Y-60523600D01*
X144297179Y-60511287D01*
X144297176Y-60511286D01*
X144297175Y-60511286D01*
X144136761Y-60462625D01*
X144136759Y-60462624D01*
X144136756Y-60462623D01*
X143988922Y-60383605D01*
X143859341Y-60277259D01*
X143752995Y-60147678D01*
X143673977Y-59999844D01*
X143645946Y-59907438D01*
X143625314Y-59839425D01*
X143625314Y-59839424D01*
X143625313Y-59839421D01*
X143608883Y-59672600D01*
X143625313Y-59505779D01*
X143625314Y-59505775D01*
X143673975Y-59345361D01*
X143673976Y-59345359D01*
X143673977Y-59345356D01*
X143752995Y-59197522D01*
X143859341Y-59067941D01*
X143988922Y-58961595D01*
X144136756Y-58882577D01*
X144136759Y-58882576D01*
X144136761Y-58882575D01*
X144297175Y-58833914D01*
X144297176Y-58833914D01*
X144297179Y-58833913D01*
X144422196Y-58821600D01*
X145305804Y-58821600D01*
X145430821Y-58833913D01*
X145430821Y-58833913D01*
G37*
G36*
X127187321Y-58770413D02*
X127187324Y-58770414D01*
X127187325Y-58770414D01*
X127347739Y-58819075D01*
X127347741Y-58819076D01*
X127347744Y-58819077D01*
X127495578Y-58898095D01*
X127625159Y-59004441D01*
X127731505Y-59134022D01*
X127810523Y-59281856D01*
X127810524Y-59281859D01*
X127810525Y-59281861D01*
X127856178Y-59432360D01*
X127859187Y-59442279D01*
X127875617Y-59609100D01*
X127859187Y-59775921D01*
X127859186Y-59775924D01*
X127859186Y-59775925D01*
X127834493Y-59857328D01*
X127810523Y-59936344D01*
X127731505Y-60084178D01*
X127625159Y-60213759D01*
X127495578Y-60320105D01*
X127347744Y-60399123D01*
X127347741Y-60399124D01*
X127347739Y-60399125D01*
X127187325Y-60447786D01*
X127187324Y-60447786D01*
X127187321Y-60447787D01*
X127062304Y-60460100D01*
X126978696Y-60460100D01*
X126853679Y-60447787D01*
X126853676Y-60447786D01*
X126853675Y-60447786D01*
X126693261Y-60399125D01*
X126693259Y-60399124D01*
X126693256Y-60399123D01*
X126545422Y-60320105D01*
X126415841Y-60213759D01*
X126309495Y-60084178D01*
X126230477Y-59936344D01*
X126206508Y-59857328D01*
X126181814Y-59775925D01*
X126181814Y-59775924D01*
X126181813Y-59775921D01*
X126165383Y-59609100D01*
X126181813Y-59442279D01*
X126184822Y-59432360D01*
X126230475Y-59281861D01*
X126230476Y-59281859D01*
X126230477Y-59281856D01*
X126309495Y-59134022D01*
X126415841Y-59004441D01*
X126545422Y-58898095D01*
X126693256Y-58819077D01*
X126693259Y-58819076D01*
X126693261Y-58819075D01*
X126853675Y-58770414D01*
X126853676Y-58770414D01*
X126853679Y-58770413D01*
X126978696Y-58758100D01*
X127062304Y-58758100D01*
X127187321Y-58770413D01*
X127187321Y-58770413D01*
G37*
G36*
X129808728Y-58790803D02*
X129963600Y-58854953D01*
X130102981Y-58948085D01*
X130221515Y-59066619D01*
X130314647Y-59206000D01*
X130378797Y-59360872D01*
X130411500Y-59525284D01*
X130411500Y-59692916D01*
X130378797Y-59857328D01*
X130314647Y-60012200D01*
X130221515Y-60151581D01*
X130102981Y-60270115D01*
X129963600Y-60363247D01*
X129808728Y-60427397D01*
X129644316Y-60460100D01*
X129476684Y-60460100D01*
X129312272Y-60427397D01*
X129157400Y-60363247D01*
X129018019Y-60270115D01*
X128899485Y-60151581D01*
X128806353Y-60012200D01*
X128742203Y-59857328D01*
X128709500Y-59692916D01*
X128709500Y-59525284D01*
X128742203Y-59360872D01*
X128806353Y-59206000D01*
X128899485Y-59066619D01*
X129018019Y-58948085D01*
X129157400Y-58854953D01*
X129312272Y-58790803D01*
X129476684Y-58758100D01*
X129644316Y-58758100D01*
X129808728Y-58790803D01*
X129808728Y-58790803D01*
G37*
G36*
X169732321Y-58770413D02*
X169732324Y-58770414D01*
X169732325Y-58770414D01*
X169892739Y-58819075D01*
X169892741Y-58819076D01*
X169892744Y-58819077D01*
X170040578Y-58898095D01*
X170170159Y-59004441D01*
X170276505Y-59134022D01*
X170355523Y-59281856D01*
X170355524Y-59281859D01*
X170355525Y-59281861D01*
X170401178Y-59432360D01*
X170404187Y-59442279D01*
X170420617Y-59609100D01*
X170404187Y-59775921D01*
X170404186Y-59775924D01*
X170404186Y-59775925D01*
X170379493Y-59857328D01*
X170355523Y-59936344D01*
X170276505Y-60084178D01*
X170170159Y-60213759D01*
X170040578Y-60320105D01*
X169892744Y-60399123D01*
X169892741Y-60399124D01*
X169892739Y-60399125D01*
X169732325Y-60447786D01*
X169732324Y-60447786D01*
X169732321Y-60447787D01*
X169607304Y-60460100D01*
X169523696Y-60460100D01*
X169398679Y-60447787D01*
X169398676Y-60447786D01*
X169398675Y-60447786D01*
X169238261Y-60399125D01*
X169238259Y-60399124D01*
X169238256Y-60399123D01*
X169090422Y-60320105D01*
X168960841Y-60213759D01*
X168854495Y-60084178D01*
X168775477Y-59936344D01*
X168751508Y-59857328D01*
X168726814Y-59775925D01*
X168726814Y-59775924D01*
X168726813Y-59775921D01*
X168710383Y-59609100D01*
X168726813Y-59442279D01*
X168729822Y-59432360D01*
X168775475Y-59281861D01*
X168775476Y-59281859D01*
X168775477Y-59281856D01*
X168854495Y-59134022D01*
X168960841Y-59004441D01*
X169090422Y-58898095D01*
X169238256Y-58819077D01*
X169238259Y-58819076D01*
X169238261Y-58819075D01*
X169398675Y-58770414D01*
X169398676Y-58770414D01*
X169398679Y-58770413D01*
X169523696Y-58758100D01*
X169607304Y-58758100D01*
X169732321Y-58770413D01*
X169732321Y-58770413D01*
G37*
G36*
X167273728Y-58790803D02*
X167428600Y-58854953D01*
X167567981Y-58948085D01*
X167686515Y-59066619D01*
X167779647Y-59206000D01*
X167843797Y-59360872D01*
X167876500Y-59525284D01*
X167876500Y-59692916D01*
X167843797Y-59857328D01*
X167779647Y-60012200D01*
X167686515Y-60151581D01*
X167567981Y-60270115D01*
X167428600Y-60363247D01*
X167273728Y-60427397D01*
X167109316Y-60460100D01*
X166941684Y-60460100D01*
X166777272Y-60427397D01*
X166622400Y-60363247D01*
X166483019Y-60270115D01*
X166364485Y-60151581D01*
X166271353Y-60012200D01*
X166207203Y-59857328D01*
X166174500Y-59692916D01*
X166174500Y-59525284D01*
X166207203Y-59360872D01*
X166271353Y-59206000D01*
X166364485Y-59066619D01*
X166483019Y-58948085D01*
X166622400Y-58854953D01*
X166777272Y-58790803D01*
X166941684Y-58758100D01*
X167109316Y-58758100D01*
X167273728Y-58790803D01*
X167273728Y-58790803D01*
G37*
G36*
X160593000Y-60396600D02*
X158091000Y-60396600D01*
X158091000Y-58694600D01*
X160593000Y-58694600D01*
X160593000Y-60396600D01*
X160593000Y-60396600D01*
G37*
G36*
X152288821Y-58706913D02*
X152288824Y-58706914D01*
X152288825Y-58706914D01*
X152449239Y-58755575D01*
X152449241Y-58755576D01*
X152449244Y-58755577D01*
X152597078Y-58834595D01*
X152726659Y-58940941D01*
X152833005Y-59070522D01*
X152912023Y-59218356D01*
X152912024Y-59218359D01*
X152912025Y-59218361D01*
X152926732Y-59266844D01*
X152960687Y-59378779D01*
X152977117Y-59545600D01*
X152960687Y-59712421D01*
X152960686Y-59712424D01*
X152960686Y-59712425D01*
X152941424Y-59775925D01*
X152912023Y-59872844D01*
X152833005Y-60020678D01*
X152726659Y-60150259D01*
X152597078Y-60256605D01*
X152449244Y-60335623D01*
X152449241Y-60335624D01*
X152449239Y-60335625D01*
X152288825Y-60384286D01*
X152288824Y-60384286D01*
X152288821Y-60384287D01*
X152163804Y-60396600D01*
X151280196Y-60396600D01*
X151155179Y-60384287D01*
X151155176Y-60384286D01*
X151155175Y-60384286D01*
X150994761Y-60335625D01*
X150994759Y-60335624D01*
X150994756Y-60335623D01*
X150846922Y-60256605D01*
X150717341Y-60150259D01*
X150610995Y-60020678D01*
X150531977Y-59872844D01*
X150502577Y-59775925D01*
X150483314Y-59712425D01*
X150483314Y-59712424D01*
X150483313Y-59712421D01*
X150466883Y-59545600D01*
X150483313Y-59378779D01*
X150517268Y-59266844D01*
X150531975Y-59218361D01*
X150531976Y-59218359D01*
X150531977Y-59218356D01*
X150610995Y-59070522D01*
X150717341Y-58940941D01*
X150846922Y-58834595D01*
X150994756Y-58755577D01*
X150994759Y-58755576D01*
X150994761Y-58755575D01*
X151155175Y-58706914D01*
X151155176Y-58706914D01*
X151155179Y-58706913D01*
X151280196Y-58694600D01*
X152163804Y-58694600D01*
X152288821Y-58706913D01*
X152288821Y-58706913D01*
G37*
G36*
X56281821Y-58593673D02*
X56281824Y-58593674D01*
X56281825Y-58593674D01*
X56442239Y-58642335D01*
X56442241Y-58642336D01*
X56442244Y-58642337D01*
X56590078Y-58721355D01*
X56719659Y-58827701D01*
X56826005Y-58957282D01*
X56905023Y-59105116D01*
X56905024Y-59105119D01*
X56905025Y-59105121D01*
X56949460Y-59251604D01*
X56953687Y-59265539D01*
X56970117Y-59432360D01*
X56953687Y-59599181D01*
X56953686Y-59599184D01*
X56953686Y-59599185D01*
X56914118Y-59729625D01*
X56905023Y-59759604D01*
X56826005Y-59907438D01*
X56719659Y-60037019D01*
X56590078Y-60143365D01*
X56442244Y-60222383D01*
X56442241Y-60222384D01*
X56442239Y-60222385D01*
X56281825Y-60271046D01*
X56281824Y-60271046D01*
X56281821Y-60271047D01*
X56156804Y-60283360D01*
X56073196Y-60283360D01*
X55948179Y-60271047D01*
X55948176Y-60271046D01*
X55948175Y-60271046D01*
X55787761Y-60222385D01*
X55787759Y-60222384D01*
X55787756Y-60222383D01*
X55639922Y-60143365D01*
X55510341Y-60037019D01*
X55403995Y-59907438D01*
X55324977Y-59759604D01*
X55315883Y-59729625D01*
X55276314Y-59599185D01*
X55276314Y-59599184D01*
X55276313Y-59599181D01*
X55259883Y-59432360D01*
X55276313Y-59265539D01*
X55280540Y-59251604D01*
X55324975Y-59105121D01*
X55324976Y-59105119D01*
X55324977Y-59105116D01*
X55403995Y-58957282D01*
X55510341Y-58827701D01*
X55639922Y-58721355D01*
X55787756Y-58642337D01*
X55787759Y-58642336D01*
X55787761Y-58642335D01*
X55948175Y-58593674D01*
X55948176Y-58593674D01*
X55948179Y-58593673D01*
X56073196Y-58581360D01*
X56156804Y-58581360D01*
X56281821Y-58593673D01*
X56281821Y-58593673D01*
G37*
G36*
X74588821Y-58100913D02*
X74588824Y-58100914D01*
X74588825Y-58100914D01*
X74749239Y-58149575D01*
X74749241Y-58149576D01*
X74749244Y-58149577D01*
X74897078Y-58228595D01*
X75026659Y-58334941D01*
X75133005Y-58464522D01*
X75212023Y-58612356D01*
X75212024Y-58612359D01*
X75212025Y-58612361D01*
X75221118Y-58642337D01*
X75260687Y-58772779D01*
X75277117Y-58939600D01*
X75260687Y-59106421D01*
X75260686Y-59106424D01*
X75260686Y-59106425D01*
X75212421Y-59265535D01*
X75212023Y-59266844D01*
X75133005Y-59414678D01*
X75026659Y-59544259D01*
X74897078Y-59650605D01*
X74749244Y-59729623D01*
X74749241Y-59729624D01*
X74749239Y-59729625D01*
X74588825Y-59778286D01*
X74588824Y-59778286D01*
X74588821Y-59778287D01*
X74463804Y-59790600D01*
X73580196Y-59790600D01*
X73455179Y-59778287D01*
X73455176Y-59778286D01*
X73455175Y-59778286D01*
X73294761Y-59729625D01*
X73294759Y-59729624D01*
X73294756Y-59729623D01*
X73146922Y-59650605D01*
X73017341Y-59544259D01*
X72910995Y-59414678D01*
X72831977Y-59266844D01*
X72831580Y-59265535D01*
X72783314Y-59106425D01*
X72783314Y-59106424D01*
X72783313Y-59106421D01*
X72766883Y-58939600D01*
X72783313Y-58772779D01*
X72822882Y-58642337D01*
X72831975Y-58612361D01*
X72831976Y-58612359D01*
X72831977Y-58612356D01*
X72910995Y-58464522D01*
X73017341Y-58334941D01*
X73146922Y-58228595D01*
X73294756Y-58149577D01*
X73294759Y-58149576D01*
X73294761Y-58149575D01*
X73455175Y-58100914D01*
X73455176Y-58100914D01*
X73455179Y-58100913D01*
X73580196Y-58088600D01*
X74463804Y-58088600D01*
X74588821Y-58100913D01*
X74588821Y-58100913D01*
G37*
G36*
X82208821Y-58100913D02*
X82208824Y-58100914D01*
X82208825Y-58100914D01*
X82369239Y-58149575D01*
X82369241Y-58149576D01*
X82369244Y-58149577D01*
X82517078Y-58228595D01*
X82646659Y-58334941D01*
X82753005Y-58464522D01*
X82832023Y-58612356D01*
X82832024Y-58612359D01*
X82832025Y-58612361D01*
X82841118Y-58642337D01*
X82880687Y-58772779D01*
X82897117Y-58939600D01*
X82880687Y-59106421D01*
X82880686Y-59106424D01*
X82880686Y-59106425D01*
X82832421Y-59265535D01*
X82832023Y-59266844D01*
X82753005Y-59414678D01*
X82646659Y-59544259D01*
X82517078Y-59650605D01*
X82369244Y-59729623D01*
X82369241Y-59729624D01*
X82369239Y-59729625D01*
X82208825Y-59778286D01*
X82208824Y-59778286D01*
X82208821Y-59778287D01*
X82083804Y-59790600D01*
X81200196Y-59790600D01*
X81075179Y-59778287D01*
X81075176Y-59778286D01*
X81075175Y-59778286D01*
X80914761Y-59729625D01*
X80914759Y-59729624D01*
X80914756Y-59729623D01*
X80766922Y-59650605D01*
X80637341Y-59544259D01*
X80530995Y-59414678D01*
X80451977Y-59266844D01*
X80451580Y-59265535D01*
X80403314Y-59106425D01*
X80403314Y-59106424D01*
X80403313Y-59106421D01*
X80386883Y-58939600D01*
X80403313Y-58772779D01*
X80442882Y-58642337D01*
X80451975Y-58612361D01*
X80451976Y-58612359D01*
X80451977Y-58612356D01*
X80530995Y-58464522D01*
X80637341Y-58334941D01*
X80766922Y-58228595D01*
X80914756Y-58149577D01*
X80914759Y-58149576D01*
X80914761Y-58149575D01*
X81075175Y-58100914D01*
X81075176Y-58100914D01*
X81075179Y-58100913D01*
X81200196Y-58088600D01*
X82083804Y-58088600D01*
X82208821Y-58100913D01*
X82208821Y-58100913D01*
G37*
G36*
X51220821Y-58100913D02*
X51220824Y-58100914D01*
X51220825Y-58100914D01*
X51381239Y-58149575D01*
X51381241Y-58149576D01*
X51381244Y-58149577D01*
X51529078Y-58228595D01*
X51658659Y-58334941D01*
X51765005Y-58464522D01*
X51844023Y-58612356D01*
X51844024Y-58612359D01*
X51844025Y-58612361D01*
X51853118Y-58642337D01*
X51892687Y-58772779D01*
X51909117Y-58939600D01*
X51892687Y-59106421D01*
X51892686Y-59106424D01*
X51892686Y-59106425D01*
X51844421Y-59265535D01*
X51844023Y-59266844D01*
X51765005Y-59414678D01*
X51658659Y-59544259D01*
X51529078Y-59650605D01*
X51381244Y-59729623D01*
X51381241Y-59729624D01*
X51381239Y-59729625D01*
X51220825Y-59778286D01*
X51220824Y-59778286D01*
X51220821Y-59778287D01*
X51095804Y-59790600D01*
X50212196Y-59790600D01*
X50087179Y-59778287D01*
X50087176Y-59778286D01*
X50087175Y-59778286D01*
X49926761Y-59729625D01*
X49926759Y-59729624D01*
X49926756Y-59729623D01*
X49778922Y-59650605D01*
X49649341Y-59544259D01*
X49542995Y-59414678D01*
X49463977Y-59266844D01*
X49463580Y-59265535D01*
X49415314Y-59106425D01*
X49415314Y-59106424D01*
X49415313Y-59106421D01*
X49398883Y-58939600D01*
X49415313Y-58772779D01*
X49454882Y-58642337D01*
X49463975Y-58612361D01*
X49463976Y-58612359D01*
X49463977Y-58612356D01*
X49542995Y-58464522D01*
X49649341Y-58334941D01*
X49778922Y-58228595D01*
X49926756Y-58149577D01*
X49926759Y-58149576D01*
X49926761Y-58149575D01*
X50087175Y-58100914D01*
X50087176Y-58100914D01*
X50087179Y-58100913D01*
X50212196Y-58088600D01*
X51095804Y-58088600D01*
X51220821Y-58100913D01*
X51220821Y-58100913D01*
G37*
G36*
X43600821Y-58100913D02*
X43600824Y-58100914D01*
X43600825Y-58100914D01*
X43761239Y-58149575D01*
X43761241Y-58149576D01*
X43761244Y-58149577D01*
X43909078Y-58228595D01*
X44038659Y-58334941D01*
X44145005Y-58464522D01*
X44224023Y-58612356D01*
X44224024Y-58612359D01*
X44224025Y-58612361D01*
X44233118Y-58642337D01*
X44272687Y-58772779D01*
X44289117Y-58939600D01*
X44272687Y-59106421D01*
X44272686Y-59106424D01*
X44272686Y-59106425D01*
X44224421Y-59265535D01*
X44224023Y-59266844D01*
X44145005Y-59414678D01*
X44038659Y-59544259D01*
X43909078Y-59650605D01*
X43761244Y-59729623D01*
X43761241Y-59729624D01*
X43761239Y-59729625D01*
X43600825Y-59778286D01*
X43600824Y-59778286D01*
X43600821Y-59778287D01*
X43475804Y-59790600D01*
X42592196Y-59790600D01*
X42467179Y-59778287D01*
X42467176Y-59778286D01*
X42467175Y-59778286D01*
X42306761Y-59729625D01*
X42306759Y-59729624D01*
X42306756Y-59729623D01*
X42158922Y-59650605D01*
X42029341Y-59544259D01*
X41922995Y-59414678D01*
X41843977Y-59266844D01*
X41843580Y-59265535D01*
X41795314Y-59106425D01*
X41795314Y-59106424D01*
X41795313Y-59106421D01*
X41778883Y-58939600D01*
X41795313Y-58772779D01*
X41834882Y-58642337D01*
X41843975Y-58612361D01*
X41843976Y-58612359D01*
X41843977Y-58612356D01*
X41922995Y-58464522D01*
X42029341Y-58334941D01*
X42158922Y-58228595D01*
X42306756Y-58149577D01*
X42306759Y-58149576D01*
X42306761Y-58149575D01*
X42467175Y-58100914D01*
X42467176Y-58100914D01*
X42467179Y-58100913D01*
X42592196Y-58088600D01*
X43475804Y-58088600D01*
X43600821Y-58100913D01*
X43600821Y-58100913D01*
G37*
G36*
X61812621Y-58085673D02*
X61812624Y-58085674D01*
X61812625Y-58085674D01*
X61973039Y-58134335D01*
X61973041Y-58134336D01*
X61973044Y-58134337D01*
X62120878Y-58213355D01*
X62250459Y-58319701D01*
X62356805Y-58449282D01*
X62435823Y-58597116D01*
X62435824Y-58597119D01*
X62435825Y-58597121D01*
X62449541Y-58642337D01*
X62484487Y-58757539D01*
X62500917Y-58924360D01*
X62484487Y-59091181D01*
X62484486Y-59091184D01*
X62484486Y-59091185D01*
X62445908Y-59218361D01*
X62435823Y-59251604D01*
X62356805Y-59399438D01*
X62250459Y-59529019D01*
X62120878Y-59635365D01*
X61973044Y-59714383D01*
X61973041Y-59714384D01*
X61973039Y-59714385D01*
X61812625Y-59763046D01*
X61812624Y-59763046D01*
X61812621Y-59763047D01*
X61687604Y-59775360D01*
X60803996Y-59775360D01*
X60678979Y-59763047D01*
X60678976Y-59763046D01*
X60678975Y-59763046D01*
X60518561Y-59714385D01*
X60518559Y-59714384D01*
X60518556Y-59714383D01*
X60370722Y-59635365D01*
X60241141Y-59529019D01*
X60134795Y-59399438D01*
X60055777Y-59251604D01*
X60045693Y-59218361D01*
X60007114Y-59091185D01*
X60007114Y-59091184D01*
X60007113Y-59091181D01*
X59990683Y-58924360D01*
X60007113Y-58757539D01*
X60042059Y-58642337D01*
X60055775Y-58597121D01*
X60055776Y-58597119D01*
X60055777Y-58597116D01*
X60134795Y-58449282D01*
X60241141Y-58319701D01*
X60370722Y-58213355D01*
X60518556Y-58134337D01*
X60518559Y-58134336D01*
X60518561Y-58134335D01*
X60678975Y-58085674D01*
X60678976Y-58085674D01*
X60678979Y-58085673D01*
X60803996Y-58073360D01*
X61687604Y-58073360D01*
X61812621Y-58085673D01*
X61812621Y-58085673D01*
G37*
G36*
X69432621Y-58085673D02*
X69432624Y-58085674D01*
X69432625Y-58085674D01*
X69593039Y-58134335D01*
X69593041Y-58134336D01*
X69593044Y-58134337D01*
X69740878Y-58213355D01*
X69870459Y-58319701D01*
X69976805Y-58449282D01*
X70055823Y-58597116D01*
X70055824Y-58597119D01*
X70055825Y-58597121D01*
X70069541Y-58642337D01*
X70104487Y-58757539D01*
X70120917Y-58924360D01*
X70104487Y-59091181D01*
X70104486Y-59091184D01*
X70104486Y-59091185D01*
X70065908Y-59218361D01*
X70055823Y-59251604D01*
X69976805Y-59399438D01*
X69870459Y-59529019D01*
X69740878Y-59635365D01*
X69593044Y-59714383D01*
X69593041Y-59714384D01*
X69593039Y-59714385D01*
X69432625Y-59763046D01*
X69432624Y-59763046D01*
X69432621Y-59763047D01*
X69307604Y-59775360D01*
X68423996Y-59775360D01*
X68298979Y-59763047D01*
X68298976Y-59763046D01*
X68298975Y-59763046D01*
X68138561Y-59714385D01*
X68138559Y-59714384D01*
X68138556Y-59714383D01*
X67990722Y-59635365D01*
X67861141Y-59529019D01*
X67754795Y-59399438D01*
X67675777Y-59251604D01*
X67665693Y-59218361D01*
X67627114Y-59091185D01*
X67627114Y-59091184D01*
X67627113Y-59091181D01*
X67610683Y-58924360D01*
X67627113Y-58757539D01*
X67662059Y-58642337D01*
X67675775Y-58597121D01*
X67675776Y-58597119D01*
X67675777Y-58597116D01*
X67754795Y-58449282D01*
X67861141Y-58319701D01*
X67990722Y-58213355D01*
X68138556Y-58134337D01*
X68138559Y-58134336D01*
X68138561Y-58134335D01*
X68298975Y-58085674D01*
X68298976Y-58085674D01*
X68298979Y-58085673D01*
X68423996Y-58073360D01*
X69307604Y-58073360D01*
X69432621Y-58085673D01*
X69432621Y-58085673D01*
G37*
G36*
X115451000Y-59728600D02*
X112349000Y-59728600D01*
X112349000Y-56626600D01*
X115451000Y-56626600D01*
X115451000Y-59728600D01*
X115451000Y-59728600D01*
G37*
G36*
X106315000Y-59181100D02*
X104213000Y-59181100D01*
X104213000Y-57174100D01*
X106315000Y-57174100D01*
X106315000Y-59181100D01*
X106315000Y-59181100D01*
G37*
G36*
X137810821Y-56293913D02*
X137810824Y-56293914D01*
X137810825Y-56293914D01*
X137971239Y-56342575D01*
X137971241Y-56342576D01*
X137971244Y-56342577D01*
X138119078Y-56421595D01*
X138248659Y-56527941D01*
X138355005Y-56657522D01*
X138434023Y-56805356D01*
X138434024Y-56805359D01*
X138434025Y-56805361D01*
X138444161Y-56838775D01*
X138482687Y-56965779D01*
X138499117Y-57132600D01*
X138482687Y-57299421D01*
X138434023Y-57459844D01*
X138355005Y-57607678D01*
X138248659Y-57737259D01*
X138119078Y-57843605D01*
X137971244Y-57922623D01*
X137971241Y-57922624D01*
X137971239Y-57922625D01*
X137810825Y-57971286D01*
X137810824Y-57971286D01*
X137810821Y-57971287D01*
X137685804Y-57983600D01*
X136802196Y-57983600D01*
X136677179Y-57971287D01*
X136677176Y-57971286D01*
X136677175Y-57971286D01*
X136516761Y-57922625D01*
X136516759Y-57922624D01*
X136516756Y-57922623D01*
X136368922Y-57843605D01*
X136239341Y-57737259D01*
X136132995Y-57607678D01*
X136053977Y-57459844D01*
X136005313Y-57299421D01*
X135988883Y-57132600D01*
X136005313Y-56965779D01*
X136043839Y-56838775D01*
X136053975Y-56805361D01*
X136053976Y-56805359D01*
X136053977Y-56805356D01*
X136132995Y-56657522D01*
X136239341Y-56527941D01*
X136368922Y-56421595D01*
X136516756Y-56342577D01*
X136516759Y-56342576D01*
X136516761Y-56342575D01*
X136677175Y-56293914D01*
X136677176Y-56293914D01*
X136677179Y-56293913D01*
X136802196Y-56281600D01*
X137685804Y-56281600D01*
X137810821Y-56293913D01*
X137810821Y-56293913D01*
G37*
G36*
X145430821Y-56293913D02*
X145430824Y-56293914D01*
X145430825Y-56293914D01*
X145591239Y-56342575D01*
X145591241Y-56342576D01*
X145591244Y-56342577D01*
X145739078Y-56421595D01*
X145868659Y-56527941D01*
X145975005Y-56657522D01*
X146054023Y-56805356D01*
X146054024Y-56805359D01*
X146054025Y-56805361D01*
X146064161Y-56838775D01*
X146102687Y-56965779D01*
X146119117Y-57132600D01*
X146102687Y-57299421D01*
X146054023Y-57459844D01*
X145975005Y-57607678D01*
X145868659Y-57737259D01*
X145739078Y-57843605D01*
X145591244Y-57922623D01*
X145591241Y-57922624D01*
X145591239Y-57922625D01*
X145430825Y-57971286D01*
X145430824Y-57971286D01*
X145430821Y-57971287D01*
X145305804Y-57983600D01*
X144422196Y-57983600D01*
X144297179Y-57971287D01*
X144297176Y-57971286D01*
X144297175Y-57971286D01*
X144136761Y-57922625D01*
X144136759Y-57922624D01*
X144136756Y-57922623D01*
X143988922Y-57843605D01*
X143859341Y-57737259D01*
X143752995Y-57607678D01*
X143673977Y-57459844D01*
X143625313Y-57299421D01*
X143608883Y-57132600D01*
X143625313Y-56965779D01*
X143663839Y-56838775D01*
X143673975Y-56805361D01*
X143673976Y-56805359D01*
X143673977Y-56805356D01*
X143752995Y-56657522D01*
X143859341Y-56527941D01*
X143988922Y-56421595D01*
X144136756Y-56342577D01*
X144136759Y-56342576D01*
X144136761Y-56342575D01*
X144297175Y-56293914D01*
X144297176Y-56293914D01*
X144297179Y-56293913D01*
X144422196Y-56281600D01*
X145305804Y-56281600D01*
X145430821Y-56293913D01*
X145430821Y-56293913D01*
G37*
G36*
X159908821Y-56166913D02*
X159908824Y-56166914D01*
X159908825Y-56166914D01*
X160069239Y-56215575D01*
X160069241Y-56215576D01*
X160069244Y-56215577D01*
X160217078Y-56294595D01*
X160346659Y-56400941D01*
X160453005Y-56530522D01*
X160532023Y-56678356D01*
X160532024Y-56678359D01*
X160532025Y-56678361D01*
X160580686Y-56838775D01*
X160580687Y-56838779D01*
X160597117Y-57005600D01*
X160580687Y-57172421D01*
X160580686Y-57172424D01*
X160580686Y-57172425D01*
X160543364Y-57295460D01*
X160532023Y-57332844D01*
X160453005Y-57480678D01*
X160346659Y-57610259D01*
X160217078Y-57716605D01*
X160069244Y-57795623D01*
X160069241Y-57795624D01*
X160069239Y-57795625D01*
X159908825Y-57844286D01*
X159908824Y-57844286D01*
X159908821Y-57844287D01*
X159783804Y-57856600D01*
X158900196Y-57856600D01*
X158775179Y-57844287D01*
X158775176Y-57844286D01*
X158775175Y-57844286D01*
X158614761Y-57795625D01*
X158614759Y-57795624D01*
X158614756Y-57795623D01*
X158466922Y-57716605D01*
X158337341Y-57610259D01*
X158230995Y-57480678D01*
X158151977Y-57332844D01*
X158140637Y-57295460D01*
X158103314Y-57172425D01*
X158103314Y-57172424D01*
X158103313Y-57172421D01*
X158086883Y-57005600D01*
X158103313Y-56838779D01*
X158103314Y-56838775D01*
X158151975Y-56678361D01*
X158151976Y-56678359D01*
X158151977Y-56678356D01*
X158230995Y-56530522D01*
X158337341Y-56400941D01*
X158466922Y-56294595D01*
X158614756Y-56215577D01*
X158614759Y-56215576D01*
X158614761Y-56215575D01*
X158775175Y-56166914D01*
X158775176Y-56166914D01*
X158775179Y-56166913D01*
X158900196Y-56154600D01*
X159783804Y-56154600D01*
X159908821Y-56166913D01*
X159908821Y-56166913D01*
G37*
G36*
X152288821Y-56166913D02*
X152288824Y-56166914D01*
X152288825Y-56166914D01*
X152449239Y-56215575D01*
X152449241Y-56215576D01*
X152449244Y-56215577D01*
X152597078Y-56294595D01*
X152726659Y-56400941D01*
X152833005Y-56530522D01*
X152912023Y-56678356D01*
X152912024Y-56678359D01*
X152912025Y-56678361D01*
X152960686Y-56838775D01*
X152960687Y-56838779D01*
X152977117Y-57005600D01*
X152960687Y-57172421D01*
X152960686Y-57172424D01*
X152960686Y-57172425D01*
X152923364Y-57295460D01*
X152912023Y-57332844D01*
X152833005Y-57480678D01*
X152726659Y-57610259D01*
X152597078Y-57716605D01*
X152449244Y-57795623D01*
X152449241Y-57795624D01*
X152449239Y-57795625D01*
X152288825Y-57844286D01*
X152288824Y-57844286D01*
X152288821Y-57844287D01*
X152163804Y-57856600D01*
X151280196Y-57856600D01*
X151155179Y-57844287D01*
X151155176Y-57844286D01*
X151155175Y-57844286D01*
X150994761Y-57795625D01*
X150994759Y-57795624D01*
X150994756Y-57795623D01*
X150846922Y-57716605D01*
X150717341Y-57610259D01*
X150610995Y-57480678D01*
X150531977Y-57332844D01*
X150520637Y-57295460D01*
X150483314Y-57172425D01*
X150483314Y-57172424D01*
X150483313Y-57172421D01*
X150466883Y-57005600D01*
X150483313Y-56838779D01*
X150483314Y-56838775D01*
X150531975Y-56678361D01*
X150531976Y-56678359D01*
X150531977Y-56678356D01*
X150610995Y-56530522D01*
X150717341Y-56400941D01*
X150846922Y-56294595D01*
X150994756Y-56215577D01*
X150994759Y-56215576D01*
X150994761Y-56215575D01*
X151155175Y-56166914D01*
X151155176Y-56166914D01*
X151155179Y-56166913D01*
X151280196Y-56154600D01*
X152163804Y-56154600D01*
X152288821Y-56166913D01*
X152288821Y-56166913D01*
G37*
G36*
X56363228Y-56074063D02*
X56518100Y-56138213D01*
X56657481Y-56231345D01*
X56776015Y-56349879D01*
X56869147Y-56489260D01*
X56933297Y-56644132D01*
X56966000Y-56808544D01*
X56966000Y-56976176D01*
X56933297Y-57140588D01*
X56869147Y-57295460D01*
X56776015Y-57434841D01*
X56657481Y-57553375D01*
X56518100Y-57646507D01*
X56363228Y-57710657D01*
X56198816Y-57743360D01*
X56031184Y-57743360D01*
X55866772Y-57710657D01*
X55711900Y-57646507D01*
X55572519Y-57553375D01*
X55453985Y-57434841D01*
X55360853Y-57295460D01*
X55296703Y-57140588D01*
X55264000Y-56976176D01*
X55264000Y-56808544D01*
X55296703Y-56644132D01*
X55360853Y-56489260D01*
X55453985Y-56349879D01*
X55572519Y-56231345D01*
X55711900Y-56138213D01*
X55866772Y-56074063D01*
X56031184Y-56041360D01*
X56198816Y-56041360D01*
X56363228Y-56074063D01*
X56363228Y-56074063D01*
G37*
G36*
X82208821Y-55560913D02*
X82208824Y-55560914D01*
X82208825Y-55560914D01*
X82369239Y-55609575D01*
X82369241Y-55609576D01*
X82369244Y-55609577D01*
X82517078Y-55688595D01*
X82646659Y-55794941D01*
X82753005Y-55924522D01*
X82832023Y-56072356D01*
X82832024Y-56072359D01*
X82832025Y-56072361D01*
X82880686Y-56232775D01*
X82880687Y-56232779D01*
X82897117Y-56399600D01*
X82880687Y-56566421D01*
X82880686Y-56566424D01*
X82880686Y-56566425D01*
X82846731Y-56678361D01*
X82832023Y-56726844D01*
X82753005Y-56874678D01*
X82646659Y-57004259D01*
X82517078Y-57110605D01*
X82369244Y-57189623D01*
X82369241Y-57189624D01*
X82369239Y-57189625D01*
X82208825Y-57238286D01*
X82208824Y-57238286D01*
X82208821Y-57238287D01*
X82083804Y-57250600D01*
X81200196Y-57250600D01*
X81075179Y-57238287D01*
X81075176Y-57238286D01*
X81075175Y-57238286D01*
X80914761Y-57189625D01*
X80914759Y-57189624D01*
X80914756Y-57189623D01*
X80766922Y-57110605D01*
X80637341Y-57004259D01*
X80530995Y-56874678D01*
X80451977Y-56726844D01*
X80437270Y-56678361D01*
X80403314Y-56566425D01*
X80403314Y-56566424D01*
X80403313Y-56566421D01*
X80386883Y-56399600D01*
X80403313Y-56232779D01*
X80403314Y-56232775D01*
X80451975Y-56072361D01*
X80451976Y-56072359D01*
X80451977Y-56072356D01*
X80530995Y-55924522D01*
X80637341Y-55794941D01*
X80766922Y-55688595D01*
X80914756Y-55609577D01*
X80914759Y-55609576D01*
X80914761Y-55609575D01*
X81075175Y-55560914D01*
X81075176Y-55560914D01*
X81075179Y-55560913D01*
X81200196Y-55548600D01*
X82083804Y-55548600D01*
X82208821Y-55560913D01*
X82208821Y-55560913D01*
G37*
G36*
X51220821Y-55560913D02*
X51220824Y-55560914D01*
X51220825Y-55560914D01*
X51381239Y-55609575D01*
X51381241Y-55609576D01*
X51381244Y-55609577D01*
X51529078Y-55688595D01*
X51658659Y-55794941D01*
X51765005Y-55924522D01*
X51844023Y-56072356D01*
X51844024Y-56072359D01*
X51844025Y-56072361D01*
X51892686Y-56232775D01*
X51892687Y-56232779D01*
X51909117Y-56399600D01*
X51892687Y-56566421D01*
X51892686Y-56566424D01*
X51892686Y-56566425D01*
X51858731Y-56678361D01*
X51844023Y-56726844D01*
X51765005Y-56874678D01*
X51658659Y-57004259D01*
X51529078Y-57110605D01*
X51381244Y-57189623D01*
X51381241Y-57189624D01*
X51381239Y-57189625D01*
X51220825Y-57238286D01*
X51220824Y-57238286D01*
X51220821Y-57238287D01*
X51095804Y-57250600D01*
X50212196Y-57250600D01*
X50087179Y-57238287D01*
X50087176Y-57238286D01*
X50087175Y-57238286D01*
X49926761Y-57189625D01*
X49926759Y-57189624D01*
X49926756Y-57189623D01*
X49778922Y-57110605D01*
X49649341Y-57004259D01*
X49542995Y-56874678D01*
X49463977Y-56726844D01*
X49449270Y-56678361D01*
X49415314Y-56566425D01*
X49415314Y-56566424D01*
X49415313Y-56566421D01*
X49398883Y-56399600D01*
X49415313Y-56232779D01*
X49415314Y-56232775D01*
X49463975Y-56072361D01*
X49463976Y-56072359D01*
X49463977Y-56072356D01*
X49542995Y-55924522D01*
X49649341Y-55794941D01*
X49778922Y-55688595D01*
X49926756Y-55609577D01*
X49926759Y-55609576D01*
X49926761Y-55609575D01*
X50087175Y-55560914D01*
X50087176Y-55560914D01*
X50087179Y-55560913D01*
X50212196Y-55548600D01*
X51095804Y-55548600D01*
X51220821Y-55560913D01*
X51220821Y-55560913D01*
G37*
G36*
X43600821Y-55560913D02*
X43600824Y-55560914D01*
X43600825Y-55560914D01*
X43761239Y-55609575D01*
X43761241Y-55609576D01*
X43761244Y-55609577D01*
X43909078Y-55688595D01*
X44038659Y-55794941D01*
X44145005Y-55924522D01*
X44224023Y-56072356D01*
X44224024Y-56072359D01*
X44224025Y-56072361D01*
X44272686Y-56232775D01*
X44272687Y-56232779D01*
X44289117Y-56399600D01*
X44272687Y-56566421D01*
X44272686Y-56566424D01*
X44272686Y-56566425D01*
X44238731Y-56678361D01*
X44224023Y-56726844D01*
X44145005Y-56874678D01*
X44038659Y-57004259D01*
X43909078Y-57110605D01*
X43761244Y-57189623D01*
X43761241Y-57189624D01*
X43761239Y-57189625D01*
X43600825Y-57238286D01*
X43600824Y-57238286D01*
X43600821Y-57238287D01*
X43475804Y-57250600D01*
X42592196Y-57250600D01*
X42467179Y-57238287D01*
X42467176Y-57238286D01*
X42467175Y-57238286D01*
X42306761Y-57189625D01*
X42306759Y-57189624D01*
X42306756Y-57189623D01*
X42158922Y-57110605D01*
X42029341Y-57004259D01*
X41922995Y-56874678D01*
X41843977Y-56726844D01*
X41829270Y-56678361D01*
X41795314Y-56566425D01*
X41795314Y-56566424D01*
X41795313Y-56566421D01*
X41778883Y-56399600D01*
X41795313Y-56232779D01*
X41795314Y-56232775D01*
X41843975Y-56072361D01*
X41843976Y-56072359D01*
X41843977Y-56072356D01*
X41922995Y-55924522D01*
X42029341Y-55794941D01*
X42158922Y-55688595D01*
X42306756Y-55609577D01*
X42306759Y-55609576D01*
X42306761Y-55609575D01*
X42467175Y-55560914D01*
X42467176Y-55560914D01*
X42467179Y-55560913D01*
X42592196Y-55548600D01*
X43475804Y-55548600D01*
X43600821Y-55560913D01*
X43600821Y-55560913D01*
G37*
G36*
X74588821Y-55560913D02*
X74588824Y-55560914D01*
X74588825Y-55560914D01*
X74749239Y-55609575D01*
X74749241Y-55609576D01*
X74749244Y-55609577D01*
X74897078Y-55688595D01*
X75026659Y-55794941D01*
X75133005Y-55924522D01*
X75212023Y-56072356D01*
X75212024Y-56072359D01*
X75212025Y-56072361D01*
X75260686Y-56232775D01*
X75260687Y-56232779D01*
X75277117Y-56399600D01*
X75260687Y-56566421D01*
X75260686Y-56566424D01*
X75260686Y-56566425D01*
X75226731Y-56678361D01*
X75212023Y-56726844D01*
X75133005Y-56874678D01*
X75026659Y-57004259D01*
X74897078Y-57110605D01*
X74749244Y-57189623D01*
X74749241Y-57189624D01*
X74749239Y-57189625D01*
X74588825Y-57238286D01*
X74588824Y-57238286D01*
X74588821Y-57238287D01*
X74463804Y-57250600D01*
X73580196Y-57250600D01*
X73455179Y-57238287D01*
X73455176Y-57238286D01*
X73455175Y-57238286D01*
X73294761Y-57189625D01*
X73294759Y-57189624D01*
X73294756Y-57189623D01*
X73146922Y-57110605D01*
X73017341Y-57004259D01*
X72910995Y-56874678D01*
X72831977Y-56726844D01*
X72817270Y-56678361D01*
X72783314Y-56566425D01*
X72783314Y-56566424D01*
X72783313Y-56566421D01*
X72766883Y-56399600D01*
X72783313Y-56232779D01*
X72783314Y-56232775D01*
X72831975Y-56072361D01*
X72831976Y-56072359D01*
X72831977Y-56072356D01*
X72910995Y-55924522D01*
X73017341Y-55794941D01*
X73146922Y-55688595D01*
X73294756Y-55609577D01*
X73294759Y-55609576D01*
X73294761Y-55609575D01*
X73455175Y-55560914D01*
X73455176Y-55560914D01*
X73455179Y-55560913D01*
X73580196Y-55548600D01*
X74463804Y-55548600D01*
X74588821Y-55560913D01*
X74588821Y-55560913D01*
G37*
G36*
X69432621Y-55545673D02*
X69432624Y-55545674D01*
X69432625Y-55545674D01*
X69593039Y-55594335D01*
X69593041Y-55594336D01*
X69593044Y-55594337D01*
X69740878Y-55673355D01*
X69870459Y-55779701D01*
X69976805Y-55909282D01*
X70055823Y-56057116D01*
X70055824Y-56057119D01*
X70055825Y-56057121D01*
X70080424Y-56138213D01*
X70104487Y-56217539D01*
X70120917Y-56384360D01*
X70104487Y-56551181D01*
X70104486Y-56551184D01*
X70104486Y-56551185D01*
X70065908Y-56678361D01*
X70055823Y-56711604D01*
X69976805Y-56859438D01*
X69870459Y-56989019D01*
X69740878Y-57095365D01*
X69593044Y-57174383D01*
X69593041Y-57174384D01*
X69593039Y-57174385D01*
X69432625Y-57223046D01*
X69432624Y-57223046D01*
X69432621Y-57223047D01*
X69307604Y-57235360D01*
X68423996Y-57235360D01*
X68298979Y-57223047D01*
X68298976Y-57223046D01*
X68298975Y-57223046D01*
X68138561Y-57174385D01*
X68138559Y-57174384D01*
X68138556Y-57174383D01*
X67990722Y-57095365D01*
X67861141Y-56989019D01*
X67754795Y-56859438D01*
X67675777Y-56711604D01*
X67665693Y-56678361D01*
X67627114Y-56551185D01*
X67627114Y-56551184D01*
X67627113Y-56551181D01*
X67610683Y-56384360D01*
X67627113Y-56217539D01*
X67651176Y-56138213D01*
X67675775Y-56057121D01*
X67675776Y-56057119D01*
X67675777Y-56057116D01*
X67754795Y-55909282D01*
X67861141Y-55779701D01*
X67990722Y-55673355D01*
X68138556Y-55594337D01*
X68138559Y-55594336D01*
X68138561Y-55594335D01*
X68298975Y-55545674D01*
X68298976Y-55545674D01*
X68298979Y-55545673D01*
X68423996Y-55533360D01*
X69307604Y-55533360D01*
X69432621Y-55545673D01*
X69432621Y-55545673D01*
G37*
G36*
X61812621Y-55545673D02*
X61812624Y-55545674D01*
X61812625Y-55545674D01*
X61973039Y-55594335D01*
X61973041Y-55594336D01*
X61973044Y-55594337D01*
X62120878Y-55673355D01*
X62250459Y-55779701D01*
X62356805Y-55909282D01*
X62435823Y-56057116D01*
X62435824Y-56057119D01*
X62435825Y-56057121D01*
X62460424Y-56138213D01*
X62484487Y-56217539D01*
X62500917Y-56384360D01*
X62484487Y-56551181D01*
X62484486Y-56551184D01*
X62484486Y-56551185D01*
X62445908Y-56678361D01*
X62435823Y-56711604D01*
X62356805Y-56859438D01*
X62250459Y-56989019D01*
X62120878Y-57095365D01*
X61973044Y-57174383D01*
X61973041Y-57174384D01*
X61973039Y-57174385D01*
X61812625Y-57223046D01*
X61812624Y-57223046D01*
X61812621Y-57223047D01*
X61687604Y-57235360D01*
X60803996Y-57235360D01*
X60678979Y-57223047D01*
X60678976Y-57223046D01*
X60678975Y-57223046D01*
X60518561Y-57174385D01*
X60518559Y-57174384D01*
X60518556Y-57174383D01*
X60370722Y-57095365D01*
X60241141Y-56989019D01*
X60134795Y-56859438D01*
X60055777Y-56711604D01*
X60045693Y-56678361D01*
X60007114Y-56551185D01*
X60007114Y-56551184D01*
X60007113Y-56551181D01*
X59990683Y-56384360D01*
X60007113Y-56217539D01*
X60031176Y-56138213D01*
X60055775Y-56057121D01*
X60055776Y-56057119D01*
X60055777Y-56057116D01*
X60134795Y-55909282D01*
X60241141Y-55779701D01*
X60370722Y-55673355D01*
X60518556Y-55594337D01*
X60518559Y-55594336D01*
X60518561Y-55594335D01*
X60678975Y-55545674D01*
X60678976Y-55545674D01*
X60678979Y-55545673D01*
X60803996Y-55533360D01*
X61687604Y-55533360D01*
X61812621Y-55545673D01*
X61812621Y-55545673D01*
G37*
G36*
X105419764Y-54639908D02*
X105508220Y-54648620D01*
X105697381Y-54706001D01*
X105871712Y-54799183D01*
X106024515Y-54924585D01*
X106149917Y-55077388D01*
X106243099Y-55251719D01*
X106300480Y-55440880D01*
X106319855Y-55637600D01*
X106300480Y-55834320D01*
X106243099Y-56023481D01*
X106149917Y-56197812D01*
X106024515Y-56350615D01*
X105871712Y-56476017D01*
X105697381Y-56569199D01*
X105508220Y-56626580D01*
X105419764Y-56635292D01*
X105360796Y-56641100D01*
X105167204Y-56641100D01*
X105108236Y-56635292D01*
X105019780Y-56626580D01*
X104830619Y-56569199D01*
X104656288Y-56476017D01*
X104503485Y-56350615D01*
X104378083Y-56197812D01*
X104284901Y-56023481D01*
X104227520Y-55834320D01*
X104208145Y-55637600D01*
X104227520Y-55440880D01*
X104284901Y-55251719D01*
X104378083Y-55077388D01*
X104503485Y-54924585D01*
X104656288Y-54799183D01*
X104830619Y-54706001D01*
X105019780Y-54648620D01*
X105108236Y-54639908D01*
X105167204Y-54634100D01*
X105360796Y-54634100D01*
X105419764Y-54639908D01*
X105419764Y-54639908D01*
G37*
G36*
X145430821Y-53753913D02*
X145430824Y-53753914D01*
X145430825Y-53753914D01*
X145591239Y-53802575D01*
X145591241Y-53802576D01*
X145591244Y-53802577D01*
X145739078Y-53881595D01*
X145868659Y-53987941D01*
X145975005Y-54117522D01*
X146054023Y-54265356D01*
X146054024Y-54265359D01*
X146054025Y-54265361D01*
X146070429Y-54319438D01*
X146102687Y-54425779D01*
X146119117Y-54592600D01*
X146102687Y-54759421D01*
X146102686Y-54759424D01*
X146102686Y-54759425D01*
X146090626Y-54799183D01*
X146054023Y-54919844D01*
X145975005Y-55067678D01*
X145868659Y-55197259D01*
X145739078Y-55303605D01*
X145591244Y-55382623D01*
X145591241Y-55382624D01*
X145591239Y-55382625D01*
X145430825Y-55431286D01*
X145430824Y-55431286D01*
X145430821Y-55431287D01*
X145305804Y-55443600D01*
X144422196Y-55443600D01*
X144297179Y-55431287D01*
X144297176Y-55431286D01*
X144297175Y-55431286D01*
X144136761Y-55382625D01*
X144136759Y-55382624D01*
X144136756Y-55382623D01*
X143988922Y-55303605D01*
X143859341Y-55197259D01*
X143752995Y-55067678D01*
X143673977Y-54919844D01*
X143637375Y-54799183D01*
X143625314Y-54759425D01*
X143625314Y-54759424D01*
X143625313Y-54759421D01*
X143608883Y-54592600D01*
X143625313Y-54425779D01*
X143657571Y-54319438D01*
X143673975Y-54265361D01*
X143673976Y-54265359D01*
X143673977Y-54265356D01*
X143752995Y-54117522D01*
X143859341Y-53987941D01*
X143988922Y-53881595D01*
X144136756Y-53802577D01*
X144136759Y-53802576D01*
X144136761Y-53802575D01*
X144297175Y-53753914D01*
X144297176Y-53753914D01*
X144297179Y-53753913D01*
X144422196Y-53741600D01*
X145305804Y-53741600D01*
X145430821Y-53753913D01*
X145430821Y-53753913D01*
G37*
G36*
X137810821Y-53753913D02*
X137810824Y-53753914D01*
X137810825Y-53753914D01*
X137971239Y-53802575D01*
X137971241Y-53802576D01*
X137971244Y-53802577D01*
X138119078Y-53881595D01*
X138248659Y-53987941D01*
X138355005Y-54117522D01*
X138434023Y-54265356D01*
X138434024Y-54265359D01*
X138434025Y-54265361D01*
X138450429Y-54319438D01*
X138482687Y-54425779D01*
X138499117Y-54592600D01*
X138482687Y-54759421D01*
X138482686Y-54759424D01*
X138482686Y-54759425D01*
X138470626Y-54799183D01*
X138434023Y-54919844D01*
X138355005Y-55067678D01*
X138248659Y-55197259D01*
X138119078Y-55303605D01*
X137971244Y-55382623D01*
X137971241Y-55382624D01*
X137971239Y-55382625D01*
X137810825Y-55431286D01*
X137810824Y-55431286D01*
X137810821Y-55431287D01*
X137685804Y-55443600D01*
X136802196Y-55443600D01*
X136677179Y-55431287D01*
X136677176Y-55431286D01*
X136677175Y-55431286D01*
X136516761Y-55382625D01*
X136516759Y-55382624D01*
X136516756Y-55382623D01*
X136368922Y-55303605D01*
X136239341Y-55197259D01*
X136132995Y-55067678D01*
X136053977Y-54919844D01*
X136017375Y-54799183D01*
X136005314Y-54759425D01*
X136005314Y-54759424D01*
X136005313Y-54759421D01*
X135988883Y-54592600D01*
X136005313Y-54425779D01*
X136037571Y-54319438D01*
X136053975Y-54265361D01*
X136053976Y-54265359D01*
X136053977Y-54265356D01*
X136132995Y-54117522D01*
X136239341Y-53987941D01*
X136368922Y-53881595D01*
X136516756Y-53802577D01*
X136516759Y-53802576D01*
X136516761Y-53802575D01*
X136677175Y-53753914D01*
X136677176Y-53753914D01*
X136677179Y-53753913D01*
X136802196Y-53741600D01*
X137685804Y-53741600D01*
X137810821Y-53753913D01*
X137810821Y-53753913D01*
G37*
G36*
X152288821Y-53626913D02*
X152288824Y-53626914D01*
X152288825Y-53626914D01*
X152449239Y-53675575D01*
X152449241Y-53675576D01*
X152449244Y-53675577D01*
X152597078Y-53754595D01*
X152726659Y-53860941D01*
X152833005Y-53990522D01*
X152912023Y-54138356D01*
X152912024Y-54138359D01*
X152912025Y-54138361D01*
X152926732Y-54186844D01*
X152960687Y-54298779D01*
X152977117Y-54465600D01*
X152960687Y-54632421D01*
X152912023Y-54792844D01*
X152833005Y-54940678D01*
X152726659Y-55070259D01*
X152597078Y-55176605D01*
X152449244Y-55255623D01*
X152449241Y-55255624D01*
X152449239Y-55255625D01*
X152288825Y-55304286D01*
X152288824Y-55304286D01*
X152288821Y-55304287D01*
X152163804Y-55316600D01*
X151280196Y-55316600D01*
X151155179Y-55304287D01*
X151155176Y-55304286D01*
X151155175Y-55304286D01*
X150994761Y-55255625D01*
X150994759Y-55255624D01*
X150994756Y-55255623D01*
X150846922Y-55176605D01*
X150717341Y-55070259D01*
X150610995Y-54940678D01*
X150531977Y-54792844D01*
X150483313Y-54632421D01*
X150466883Y-54465600D01*
X150483313Y-54298779D01*
X150517268Y-54186844D01*
X150531975Y-54138361D01*
X150531976Y-54138359D01*
X150531977Y-54138356D01*
X150610995Y-53990522D01*
X150717341Y-53860941D01*
X150846922Y-53754595D01*
X150994756Y-53675577D01*
X150994759Y-53675576D01*
X150994761Y-53675575D01*
X151155175Y-53626914D01*
X151155176Y-53626914D01*
X151155179Y-53626913D01*
X151280196Y-53614600D01*
X152163804Y-53614600D01*
X152288821Y-53626913D01*
X152288821Y-53626913D01*
G37*
G36*
X159908821Y-53626913D02*
X159908824Y-53626914D01*
X159908825Y-53626914D01*
X160069239Y-53675575D01*
X160069241Y-53675576D01*
X160069244Y-53675577D01*
X160217078Y-53754595D01*
X160346659Y-53860941D01*
X160453005Y-53990522D01*
X160532023Y-54138356D01*
X160532024Y-54138359D01*
X160532025Y-54138361D01*
X160546732Y-54186844D01*
X160580687Y-54298779D01*
X160597117Y-54465600D01*
X160580687Y-54632421D01*
X160532023Y-54792844D01*
X160453005Y-54940678D01*
X160346659Y-55070259D01*
X160217078Y-55176605D01*
X160069244Y-55255623D01*
X160069241Y-55255624D01*
X160069239Y-55255625D01*
X159908825Y-55304286D01*
X159908824Y-55304286D01*
X159908821Y-55304287D01*
X159783804Y-55316600D01*
X158900196Y-55316600D01*
X158775179Y-55304287D01*
X158775176Y-55304286D01*
X158775175Y-55304286D01*
X158614761Y-55255625D01*
X158614759Y-55255624D01*
X158614756Y-55255623D01*
X158466922Y-55176605D01*
X158337341Y-55070259D01*
X158230995Y-54940678D01*
X158151977Y-54792844D01*
X158103313Y-54632421D01*
X158086883Y-54465600D01*
X158103313Y-54298779D01*
X158137268Y-54186844D01*
X158151975Y-54138361D01*
X158151976Y-54138359D01*
X158151977Y-54138356D01*
X158230995Y-53990522D01*
X158337341Y-53860941D01*
X158466922Y-53754595D01*
X158614756Y-53675577D01*
X158614759Y-53675576D01*
X158614761Y-53675575D01*
X158775175Y-53626914D01*
X158775176Y-53626914D01*
X158775179Y-53626913D01*
X158900196Y-53614600D01*
X159783804Y-53614600D01*
X159908821Y-53626913D01*
X159908821Y-53626913D01*
G37*
G36*
X74588821Y-53020913D02*
X74588824Y-53020914D01*
X74588825Y-53020914D01*
X74749239Y-53069575D01*
X74749241Y-53069576D01*
X74749244Y-53069577D01*
X74897078Y-53148595D01*
X75026659Y-53254941D01*
X75133005Y-53384522D01*
X75212023Y-53532356D01*
X75212024Y-53532359D01*
X75212025Y-53532361D01*
X75236972Y-53614600D01*
X75260687Y-53692779D01*
X75277117Y-53859600D01*
X75260687Y-54026421D01*
X75260686Y-54026424D01*
X75260686Y-54026425D01*
X75226731Y-54138361D01*
X75212023Y-54186844D01*
X75133005Y-54334678D01*
X75026659Y-54464259D01*
X74897078Y-54570605D01*
X74749244Y-54649623D01*
X74749241Y-54649624D01*
X74749239Y-54649625D01*
X74588825Y-54698286D01*
X74588824Y-54698286D01*
X74588821Y-54698287D01*
X74463804Y-54710600D01*
X73580196Y-54710600D01*
X73455179Y-54698287D01*
X73455176Y-54698286D01*
X73455175Y-54698286D01*
X73294761Y-54649625D01*
X73294759Y-54649624D01*
X73294756Y-54649623D01*
X73146922Y-54570605D01*
X73017341Y-54464259D01*
X72910995Y-54334678D01*
X72831977Y-54186844D01*
X72817270Y-54138361D01*
X72783314Y-54026425D01*
X72783314Y-54026424D01*
X72783313Y-54026421D01*
X72766883Y-53859600D01*
X72783313Y-53692779D01*
X72807028Y-53614600D01*
X72831975Y-53532361D01*
X72831976Y-53532359D01*
X72831977Y-53532356D01*
X72910995Y-53384522D01*
X73017341Y-53254941D01*
X73146922Y-53148595D01*
X73294756Y-53069577D01*
X73294759Y-53069576D01*
X73294761Y-53069575D01*
X73455175Y-53020914D01*
X73455176Y-53020914D01*
X73455179Y-53020913D01*
X73580196Y-53008600D01*
X74463804Y-53008600D01*
X74588821Y-53020913D01*
X74588821Y-53020913D01*
G37*
G36*
X82208821Y-53020913D02*
X82208824Y-53020914D01*
X82208825Y-53020914D01*
X82369239Y-53069575D01*
X82369241Y-53069576D01*
X82369244Y-53069577D01*
X82517078Y-53148595D01*
X82646659Y-53254941D01*
X82753005Y-53384522D01*
X82832023Y-53532356D01*
X82832024Y-53532359D01*
X82832025Y-53532361D01*
X82856972Y-53614600D01*
X82880687Y-53692779D01*
X82897117Y-53859600D01*
X82880687Y-54026421D01*
X82880686Y-54026424D01*
X82880686Y-54026425D01*
X82846731Y-54138361D01*
X82832023Y-54186844D01*
X82753005Y-54334678D01*
X82646659Y-54464259D01*
X82517078Y-54570605D01*
X82369244Y-54649623D01*
X82369241Y-54649624D01*
X82369239Y-54649625D01*
X82208825Y-54698286D01*
X82208824Y-54698286D01*
X82208821Y-54698287D01*
X82083804Y-54710600D01*
X81200196Y-54710600D01*
X81075179Y-54698287D01*
X81075176Y-54698286D01*
X81075175Y-54698286D01*
X80914761Y-54649625D01*
X80914759Y-54649624D01*
X80914756Y-54649623D01*
X80766922Y-54570605D01*
X80637341Y-54464259D01*
X80530995Y-54334678D01*
X80451977Y-54186844D01*
X80437270Y-54138361D01*
X80403314Y-54026425D01*
X80403314Y-54026424D01*
X80403313Y-54026421D01*
X80386883Y-53859600D01*
X80403313Y-53692779D01*
X80427028Y-53614600D01*
X80451975Y-53532361D01*
X80451976Y-53532359D01*
X80451977Y-53532356D01*
X80530995Y-53384522D01*
X80637341Y-53254941D01*
X80766922Y-53148595D01*
X80914756Y-53069577D01*
X80914759Y-53069576D01*
X80914761Y-53069575D01*
X81075175Y-53020914D01*
X81075176Y-53020914D01*
X81075179Y-53020913D01*
X81200196Y-53008600D01*
X82083804Y-53008600D01*
X82208821Y-53020913D01*
X82208821Y-53020913D01*
G37*
G36*
X51220821Y-53020913D02*
X51220824Y-53020914D01*
X51220825Y-53020914D01*
X51381239Y-53069575D01*
X51381241Y-53069576D01*
X51381244Y-53069577D01*
X51529078Y-53148595D01*
X51658659Y-53254941D01*
X51765005Y-53384522D01*
X51844023Y-53532356D01*
X51844024Y-53532359D01*
X51844025Y-53532361D01*
X51868972Y-53614600D01*
X51892687Y-53692779D01*
X51909117Y-53859600D01*
X51892687Y-54026421D01*
X51892686Y-54026424D01*
X51892686Y-54026425D01*
X51858731Y-54138361D01*
X51844023Y-54186844D01*
X51765005Y-54334678D01*
X51658659Y-54464259D01*
X51529078Y-54570605D01*
X51381244Y-54649623D01*
X51381241Y-54649624D01*
X51381239Y-54649625D01*
X51220825Y-54698286D01*
X51220824Y-54698286D01*
X51220821Y-54698287D01*
X51095804Y-54710600D01*
X50212196Y-54710600D01*
X50087179Y-54698287D01*
X50087176Y-54698286D01*
X50087175Y-54698286D01*
X49926761Y-54649625D01*
X49926759Y-54649624D01*
X49926756Y-54649623D01*
X49778922Y-54570605D01*
X49649341Y-54464259D01*
X49542995Y-54334678D01*
X49463977Y-54186844D01*
X49449270Y-54138361D01*
X49415314Y-54026425D01*
X49415314Y-54026424D01*
X49415313Y-54026421D01*
X49398883Y-53859600D01*
X49415313Y-53692779D01*
X49439028Y-53614600D01*
X49463975Y-53532361D01*
X49463976Y-53532359D01*
X49463977Y-53532356D01*
X49542995Y-53384522D01*
X49649341Y-53254941D01*
X49778922Y-53148595D01*
X49926756Y-53069577D01*
X49926759Y-53069576D01*
X49926761Y-53069575D01*
X50087175Y-53020914D01*
X50087176Y-53020914D01*
X50087179Y-53020913D01*
X50212196Y-53008600D01*
X51095804Y-53008600D01*
X51220821Y-53020913D01*
X51220821Y-53020913D01*
G37*
G36*
X43600821Y-53020913D02*
X43600824Y-53020914D01*
X43600825Y-53020914D01*
X43761239Y-53069575D01*
X43761241Y-53069576D01*
X43761244Y-53069577D01*
X43909078Y-53148595D01*
X44038659Y-53254941D01*
X44145005Y-53384522D01*
X44224023Y-53532356D01*
X44224024Y-53532359D01*
X44224025Y-53532361D01*
X44248972Y-53614600D01*
X44272687Y-53692779D01*
X44289117Y-53859600D01*
X44272687Y-54026421D01*
X44272686Y-54026424D01*
X44272686Y-54026425D01*
X44238731Y-54138361D01*
X44224023Y-54186844D01*
X44145005Y-54334678D01*
X44038659Y-54464259D01*
X43909078Y-54570605D01*
X43761244Y-54649623D01*
X43761241Y-54649624D01*
X43761239Y-54649625D01*
X43600825Y-54698286D01*
X43600824Y-54698286D01*
X43600821Y-54698287D01*
X43475804Y-54710600D01*
X42592196Y-54710600D01*
X42467179Y-54698287D01*
X42467176Y-54698286D01*
X42467175Y-54698286D01*
X42306761Y-54649625D01*
X42306759Y-54649624D01*
X42306756Y-54649623D01*
X42158922Y-54570605D01*
X42029341Y-54464259D01*
X41922995Y-54334678D01*
X41843977Y-54186844D01*
X41829270Y-54138361D01*
X41795314Y-54026425D01*
X41795314Y-54026424D01*
X41795313Y-54026421D01*
X41778883Y-53859600D01*
X41795313Y-53692779D01*
X41819028Y-53614600D01*
X41843975Y-53532361D01*
X41843976Y-53532359D01*
X41843977Y-53532356D01*
X41922995Y-53384522D01*
X42029341Y-53254941D01*
X42158922Y-53148595D01*
X42306756Y-53069577D01*
X42306759Y-53069576D01*
X42306761Y-53069575D01*
X42467175Y-53020914D01*
X42467176Y-53020914D01*
X42467179Y-53020913D01*
X42592196Y-53008600D01*
X43475804Y-53008600D01*
X43600821Y-53020913D01*
X43600821Y-53020913D01*
G37*
G36*
X61812621Y-53005673D02*
X61812624Y-53005674D01*
X61812625Y-53005674D01*
X61973039Y-53054335D01*
X61973041Y-53054336D01*
X61973044Y-53054337D01*
X62120878Y-53133355D01*
X62250459Y-53239701D01*
X62356805Y-53369282D01*
X62435823Y-53517116D01*
X62435824Y-53517119D01*
X62435825Y-53517121D01*
X62465395Y-53614600D01*
X62484487Y-53677539D01*
X62500917Y-53844360D01*
X62484487Y-54011181D01*
X62484486Y-54011184D01*
X62484486Y-54011185D01*
X62445908Y-54138361D01*
X62435823Y-54171604D01*
X62356805Y-54319438D01*
X62250459Y-54449019D01*
X62120878Y-54555365D01*
X61973044Y-54634383D01*
X61973041Y-54634384D01*
X61973039Y-54634385D01*
X61812625Y-54683046D01*
X61812624Y-54683046D01*
X61812621Y-54683047D01*
X61687604Y-54695360D01*
X60803996Y-54695360D01*
X60678979Y-54683047D01*
X60678976Y-54683046D01*
X60678975Y-54683046D01*
X60518561Y-54634385D01*
X60518559Y-54634384D01*
X60518556Y-54634383D01*
X60370722Y-54555365D01*
X60241141Y-54449019D01*
X60134795Y-54319438D01*
X60055777Y-54171604D01*
X60045693Y-54138361D01*
X60007114Y-54011185D01*
X60007114Y-54011184D01*
X60007113Y-54011181D01*
X59990683Y-53844360D01*
X60007113Y-53677539D01*
X60026205Y-53614600D01*
X60055775Y-53517121D01*
X60055776Y-53517119D01*
X60055777Y-53517116D01*
X60134795Y-53369282D01*
X60241141Y-53239701D01*
X60370722Y-53133355D01*
X60518556Y-53054337D01*
X60518559Y-53054336D01*
X60518561Y-53054335D01*
X60678975Y-53005674D01*
X60678976Y-53005674D01*
X60678979Y-53005673D01*
X60803996Y-52993360D01*
X61687604Y-52993360D01*
X61812621Y-53005673D01*
X61812621Y-53005673D01*
G37*
G36*
X69432621Y-53005673D02*
X69432624Y-53005674D01*
X69432625Y-53005674D01*
X69593039Y-53054335D01*
X69593041Y-53054336D01*
X69593044Y-53054337D01*
X69740878Y-53133355D01*
X69870459Y-53239701D01*
X69976805Y-53369282D01*
X70055823Y-53517116D01*
X70055824Y-53517119D01*
X70055825Y-53517121D01*
X70085395Y-53614600D01*
X70104487Y-53677539D01*
X70120917Y-53844360D01*
X70104487Y-54011181D01*
X70104486Y-54011184D01*
X70104486Y-54011185D01*
X70065908Y-54138361D01*
X70055823Y-54171604D01*
X69976805Y-54319438D01*
X69870459Y-54449019D01*
X69740878Y-54555365D01*
X69593044Y-54634383D01*
X69593041Y-54634384D01*
X69593039Y-54634385D01*
X69432625Y-54683046D01*
X69432624Y-54683046D01*
X69432621Y-54683047D01*
X69307604Y-54695360D01*
X68423996Y-54695360D01*
X68298979Y-54683047D01*
X68298976Y-54683046D01*
X68298975Y-54683046D01*
X68138561Y-54634385D01*
X68138559Y-54634384D01*
X68138556Y-54634383D01*
X67990722Y-54555365D01*
X67861141Y-54449019D01*
X67754795Y-54319438D01*
X67675777Y-54171604D01*
X67665693Y-54138361D01*
X67627114Y-54011185D01*
X67627114Y-54011184D01*
X67627113Y-54011181D01*
X67610683Y-53844360D01*
X67627113Y-53677539D01*
X67646205Y-53614600D01*
X67675775Y-53517121D01*
X67675776Y-53517119D01*
X67675777Y-53517116D01*
X67754795Y-53369282D01*
X67861141Y-53239701D01*
X67990722Y-53133355D01*
X68138556Y-53054337D01*
X68138559Y-53054336D01*
X68138561Y-53054335D01*
X68298975Y-53005674D01*
X68298976Y-53005674D01*
X68298979Y-53005673D01*
X68423996Y-52993360D01*
X69307604Y-52993360D01*
X69432621Y-53005673D01*
X69432621Y-53005673D01*
G37*
G36*
X114208216Y-51577522D02*
X114352410Y-51606204D01*
X114634674Y-51723121D01*
X114888705Y-51892859D01*
X115104741Y-52108895D01*
X115274479Y-52362926D01*
X115391396Y-52645190D01*
X115404629Y-52711717D01*
X115451000Y-52944838D01*
X115451000Y-53250362D01*
X115442256Y-53294320D01*
X115391396Y-53550010D01*
X115274479Y-53832274D01*
X115104741Y-54086305D01*
X114888705Y-54302341D01*
X114634674Y-54472079D01*
X114352410Y-54588996D01*
X114334291Y-54592600D01*
X114052762Y-54648600D01*
X113747238Y-54648600D01*
X113465709Y-54592600D01*
X113447590Y-54588996D01*
X113165326Y-54472079D01*
X112911295Y-54302341D01*
X112695259Y-54086305D01*
X112525521Y-53832274D01*
X112408604Y-53550010D01*
X112357744Y-53294320D01*
X112349000Y-53250362D01*
X112349000Y-52944838D01*
X112395371Y-52711717D01*
X112408604Y-52645190D01*
X112525521Y-52362926D01*
X112695259Y-52108895D01*
X112911295Y-51892859D01*
X113165326Y-51723121D01*
X113447590Y-51606204D01*
X113591784Y-51577522D01*
X113747238Y-51546600D01*
X114052762Y-51546600D01*
X114208216Y-51577522D01*
X114208216Y-51577522D01*
G37*
G36*
X56363228Y-52467263D02*
X56518100Y-52531413D01*
X56657481Y-52624545D01*
X56776015Y-52743079D01*
X56869147Y-52882460D01*
X56933297Y-53037332D01*
X56966000Y-53201744D01*
X56966000Y-53369376D01*
X56933297Y-53533788D01*
X56869147Y-53688660D01*
X56776015Y-53828041D01*
X56657481Y-53946575D01*
X56518100Y-54039707D01*
X56363228Y-54103857D01*
X56198816Y-54136560D01*
X56031184Y-54136560D01*
X55866772Y-54103857D01*
X55711900Y-54039707D01*
X55572519Y-53946575D01*
X55453985Y-53828041D01*
X55360853Y-53688660D01*
X55296703Y-53533788D01*
X55264000Y-53369376D01*
X55264000Y-53201744D01*
X55296703Y-53037332D01*
X55360853Y-52882460D01*
X55453985Y-52743079D01*
X55572519Y-52624545D01*
X55711900Y-52531413D01*
X55866772Y-52467263D01*
X56031184Y-52434560D01*
X56198816Y-52434560D01*
X56363228Y-52467263D01*
X56363228Y-52467263D01*
G37*
G36*
X105419764Y-52099908D02*
X105508220Y-52108620D01*
X105697381Y-52166001D01*
X105871712Y-52259183D01*
X106024515Y-52384585D01*
X106149917Y-52537388D01*
X106243099Y-52711719D01*
X106300480Y-52900880D01*
X106319855Y-53097600D01*
X106300480Y-53294320D01*
X106243099Y-53483481D01*
X106149917Y-53657812D01*
X106024515Y-53810615D01*
X105871712Y-53936017D01*
X105697381Y-54029199D01*
X105508220Y-54086580D01*
X105419764Y-54095292D01*
X105360796Y-54101100D01*
X105167204Y-54101100D01*
X105108236Y-54095292D01*
X105019780Y-54086580D01*
X104830619Y-54029199D01*
X104656288Y-53936017D01*
X104503485Y-53810615D01*
X104378083Y-53657812D01*
X104284901Y-53483481D01*
X104227520Y-53294320D01*
X104208145Y-53097600D01*
X104227520Y-52900880D01*
X104284901Y-52711719D01*
X104378083Y-52537388D01*
X104503485Y-52384585D01*
X104656288Y-52259183D01*
X104830619Y-52166001D01*
X105019780Y-52108620D01*
X105108236Y-52099908D01*
X105167204Y-52094100D01*
X105360796Y-52094100D01*
X105419764Y-52099908D01*
X105419764Y-52099908D01*
G37*
G36*
X170226000Y-53983100D02*
X168524000Y-53983100D01*
X168524000Y-52281100D01*
X170226000Y-52281100D01*
X170226000Y-53983100D01*
X170226000Y-53983100D01*
G37*
G36*
X128062000Y-53983100D02*
X126360000Y-53983100D01*
X126360000Y-52281100D01*
X128062000Y-52281100D01*
X128062000Y-53983100D01*
X128062000Y-53983100D01*
G37*
G36*
X164623228Y-52313803D02*
X164778100Y-52377953D01*
X164917481Y-52471085D01*
X165036015Y-52589619D01*
X165129147Y-52729000D01*
X165193297Y-52883872D01*
X165226000Y-53048284D01*
X165226000Y-53215916D01*
X165193297Y-53380328D01*
X165129147Y-53535200D01*
X165036015Y-53674581D01*
X164917481Y-53793115D01*
X164778100Y-53886247D01*
X164623228Y-53950397D01*
X164458816Y-53983100D01*
X164291184Y-53983100D01*
X164126772Y-53950397D01*
X163971900Y-53886247D01*
X163832519Y-53793115D01*
X163713985Y-53674581D01*
X163620853Y-53535200D01*
X163556703Y-53380328D01*
X163524000Y-53215916D01*
X163524000Y-53048284D01*
X163556703Y-52883872D01*
X163620853Y-52729000D01*
X163713985Y-52589619D01*
X163832519Y-52471085D01*
X163971900Y-52377953D01*
X164126772Y-52313803D01*
X164291184Y-52281100D01*
X164458816Y-52281100D01*
X164623228Y-52313803D01*
X164623228Y-52313803D01*
G37*
G36*
X132459228Y-52313803D02*
X132614100Y-52377953D01*
X132753481Y-52471085D01*
X132872015Y-52589619D01*
X132965147Y-52729000D01*
X133029297Y-52883872D01*
X133062000Y-53048284D01*
X133062000Y-53215916D01*
X133029297Y-53380328D01*
X132965147Y-53535200D01*
X132872015Y-53674581D01*
X132753481Y-53793115D01*
X132614100Y-53886247D01*
X132459228Y-53950397D01*
X132294816Y-53983100D01*
X132127184Y-53983100D01*
X131962772Y-53950397D01*
X131807900Y-53886247D01*
X131668519Y-53793115D01*
X131549985Y-53674581D01*
X131456853Y-53535200D01*
X131392703Y-53380328D01*
X131360000Y-53215916D01*
X131360000Y-53048284D01*
X131392703Y-52883872D01*
X131456853Y-52729000D01*
X131549985Y-52589619D01*
X131668519Y-52471085D01*
X131807900Y-52377953D01*
X131962772Y-52313803D01*
X132127184Y-52281100D01*
X132294816Y-52281100D01*
X132459228Y-52313803D01*
X132459228Y-52313803D01*
G37*
G36*
X145430821Y-51213913D02*
X145430824Y-51213914D01*
X145430825Y-51213914D01*
X145591239Y-51262575D01*
X145591241Y-51262576D01*
X145591244Y-51262577D01*
X145739078Y-51341595D01*
X145868659Y-51447941D01*
X145975005Y-51577522D01*
X146054023Y-51725356D01*
X146102687Y-51885779D01*
X146119117Y-52052600D01*
X146102687Y-52219421D01*
X146102686Y-52219424D01*
X146102686Y-52219425D01*
X146054597Y-52377954D01*
X146054023Y-52379844D01*
X145975005Y-52527678D01*
X145868659Y-52657259D01*
X145739078Y-52763605D01*
X145591244Y-52842623D01*
X145591241Y-52842624D01*
X145591239Y-52842625D01*
X145430825Y-52891286D01*
X145430824Y-52891286D01*
X145430821Y-52891287D01*
X145305804Y-52903600D01*
X144422196Y-52903600D01*
X144297179Y-52891287D01*
X144297176Y-52891286D01*
X144297175Y-52891286D01*
X144136761Y-52842625D01*
X144136759Y-52842624D01*
X144136756Y-52842623D01*
X143988922Y-52763605D01*
X143859341Y-52657259D01*
X143752995Y-52527678D01*
X143673977Y-52379844D01*
X143673404Y-52377954D01*
X143625314Y-52219425D01*
X143625314Y-52219424D01*
X143625313Y-52219421D01*
X143608883Y-52052600D01*
X143625313Y-51885779D01*
X143673977Y-51725356D01*
X143752995Y-51577522D01*
X143859341Y-51447941D01*
X143988922Y-51341595D01*
X144136756Y-51262577D01*
X144136759Y-51262576D01*
X144136761Y-51262575D01*
X144297175Y-51213914D01*
X144297176Y-51213914D01*
X144297179Y-51213913D01*
X144422196Y-51201600D01*
X145305804Y-51201600D01*
X145430821Y-51213913D01*
X145430821Y-51213913D01*
G37*
G36*
X138495000Y-52903600D02*
X135993000Y-52903600D01*
X135993000Y-51201600D01*
X138495000Y-51201600D01*
X138495000Y-52903600D01*
X138495000Y-52903600D01*
G37*
G36*
X159908821Y-51086913D02*
X159908824Y-51086914D01*
X159908825Y-51086914D01*
X160069239Y-51135575D01*
X160069241Y-51135576D01*
X160069244Y-51135577D01*
X160217078Y-51214595D01*
X160346659Y-51320941D01*
X160453005Y-51450522D01*
X160532023Y-51598356D01*
X160532024Y-51598359D01*
X160532025Y-51598361D01*
X160546732Y-51646844D01*
X160580687Y-51758779D01*
X160597117Y-51925600D01*
X160580687Y-52092421D01*
X160532023Y-52252844D01*
X160453005Y-52400678D01*
X160346659Y-52530259D01*
X160217078Y-52636605D01*
X160069244Y-52715623D01*
X160069241Y-52715624D01*
X160069239Y-52715625D01*
X159908825Y-52764286D01*
X159908824Y-52764286D01*
X159908821Y-52764287D01*
X159783804Y-52776600D01*
X158900196Y-52776600D01*
X158775179Y-52764287D01*
X158775176Y-52764286D01*
X158775175Y-52764286D01*
X158614761Y-52715625D01*
X158614759Y-52715624D01*
X158614756Y-52715623D01*
X158466922Y-52636605D01*
X158337341Y-52530259D01*
X158230995Y-52400678D01*
X158151977Y-52252844D01*
X158103313Y-52092421D01*
X158086883Y-51925600D01*
X158103313Y-51758779D01*
X158137268Y-51646844D01*
X158151975Y-51598361D01*
X158151976Y-51598359D01*
X158151977Y-51598356D01*
X158230995Y-51450522D01*
X158337341Y-51320941D01*
X158466922Y-51214595D01*
X158614756Y-51135577D01*
X158614759Y-51135576D01*
X158614761Y-51135575D01*
X158775175Y-51086914D01*
X158775176Y-51086914D01*
X158775179Y-51086913D01*
X158900196Y-51074600D01*
X159783804Y-51074600D01*
X159908821Y-51086913D01*
X159908821Y-51086913D01*
G37*
G36*
X152288821Y-51086913D02*
X152288824Y-51086914D01*
X152288825Y-51086914D01*
X152449239Y-51135575D01*
X152449241Y-51135576D01*
X152449244Y-51135577D01*
X152597078Y-51214595D01*
X152726659Y-51320941D01*
X152833005Y-51450522D01*
X152912023Y-51598356D01*
X152912024Y-51598359D01*
X152912025Y-51598361D01*
X152926732Y-51646844D01*
X152960687Y-51758779D01*
X152977117Y-51925600D01*
X152960687Y-52092421D01*
X152912023Y-52252844D01*
X152833005Y-52400678D01*
X152726659Y-52530259D01*
X152597078Y-52636605D01*
X152449244Y-52715623D01*
X152449241Y-52715624D01*
X152449239Y-52715625D01*
X152288825Y-52764286D01*
X152288824Y-52764286D01*
X152288821Y-52764287D01*
X152163804Y-52776600D01*
X151280196Y-52776600D01*
X151155179Y-52764287D01*
X151155176Y-52764286D01*
X151155175Y-52764286D01*
X150994761Y-52715625D01*
X150994759Y-52715624D01*
X150994756Y-52715623D01*
X150846922Y-52636605D01*
X150717341Y-52530259D01*
X150610995Y-52400678D01*
X150531977Y-52252844D01*
X150483313Y-52092421D01*
X150466883Y-51925600D01*
X150483313Y-51758779D01*
X150517268Y-51646844D01*
X150531975Y-51598361D01*
X150531976Y-51598359D01*
X150531977Y-51598356D01*
X150610995Y-51450522D01*
X150717341Y-51320941D01*
X150846922Y-51214595D01*
X150994756Y-51135577D01*
X150994759Y-51135576D01*
X150994761Y-51135575D01*
X151155175Y-51086914D01*
X151155176Y-51086914D01*
X151155179Y-51086913D01*
X151280196Y-51074600D01*
X152163804Y-51074600D01*
X152288821Y-51086913D01*
X152288821Y-51086913D01*
G37*
G36*
X82208821Y-50480913D02*
X82208824Y-50480914D01*
X82208825Y-50480914D01*
X82369239Y-50529575D01*
X82369241Y-50529576D01*
X82369244Y-50529577D01*
X82517078Y-50608595D01*
X82646659Y-50714941D01*
X82753005Y-50844522D01*
X82832023Y-50992356D01*
X82832024Y-50992359D01*
X82832025Y-50992361D01*
X82856427Y-51072804D01*
X82880687Y-51152779D01*
X82897117Y-51319600D01*
X82880687Y-51486421D01*
X82880686Y-51486424D01*
X82880686Y-51486425D01*
X82846731Y-51598361D01*
X82832023Y-51646844D01*
X82753005Y-51794678D01*
X82646659Y-51924259D01*
X82517078Y-52030605D01*
X82369244Y-52109623D01*
X82369241Y-52109624D01*
X82369239Y-52109625D01*
X82208825Y-52158286D01*
X82208824Y-52158286D01*
X82208821Y-52158287D01*
X82083804Y-52170600D01*
X81200196Y-52170600D01*
X81075179Y-52158287D01*
X81075176Y-52158286D01*
X81075175Y-52158286D01*
X80914761Y-52109625D01*
X80914759Y-52109624D01*
X80914756Y-52109623D01*
X80766922Y-52030605D01*
X80637341Y-51924259D01*
X80530995Y-51794678D01*
X80451977Y-51646844D01*
X80437270Y-51598361D01*
X80403314Y-51486425D01*
X80403314Y-51486424D01*
X80403313Y-51486421D01*
X80386883Y-51319600D01*
X80403313Y-51152779D01*
X80427573Y-51072804D01*
X80451975Y-50992361D01*
X80451976Y-50992359D01*
X80451977Y-50992356D01*
X80530995Y-50844522D01*
X80637341Y-50714941D01*
X80766922Y-50608595D01*
X80914756Y-50529577D01*
X80914759Y-50529576D01*
X80914761Y-50529575D01*
X81075175Y-50480914D01*
X81075176Y-50480914D01*
X81075179Y-50480913D01*
X81200196Y-50468600D01*
X82083804Y-50468600D01*
X82208821Y-50480913D01*
X82208821Y-50480913D01*
G37*
G36*
X74588821Y-50480913D02*
X74588824Y-50480914D01*
X74588825Y-50480914D01*
X74749239Y-50529575D01*
X74749241Y-50529576D01*
X74749244Y-50529577D01*
X74897078Y-50608595D01*
X75026659Y-50714941D01*
X75133005Y-50844522D01*
X75212023Y-50992356D01*
X75212024Y-50992359D01*
X75212025Y-50992361D01*
X75236427Y-51072804D01*
X75260687Y-51152779D01*
X75277117Y-51319600D01*
X75260687Y-51486421D01*
X75260686Y-51486424D01*
X75260686Y-51486425D01*
X75226731Y-51598361D01*
X75212023Y-51646844D01*
X75133005Y-51794678D01*
X75026659Y-51924259D01*
X74897078Y-52030605D01*
X74749244Y-52109623D01*
X74749241Y-52109624D01*
X74749239Y-52109625D01*
X74588825Y-52158286D01*
X74588824Y-52158286D01*
X74588821Y-52158287D01*
X74463804Y-52170600D01*
X73580196Y-52170600D01*
X73455179Y-52158287D01*
X73455176Y-52158286D01*
X73455175Y-52158286D01*
X73294761Y-52109625D01*
X73294759Y-52109624D01*
X73294756Y-52109623D01*
X73146922Y-52030605D01*
X73017341Y-51924259D01*
X72910995Y-51794678D01*
X72831977Y-51646844D01*
X72817270Y-51598361D01*
X72783314Y-51486425D01*
X72783314Y-51486424D01*
X72783313Y-51486421D01*
X72766883Y-51319600D01*
X72783313Y-51152779D01*
X72807573Y-51072804D01*
X72831975Y-50992361D01*
X72831976Y-50992359D01*
X72831977Y-50992356D01*
X72910995Y-50844522D01*
X73017341Y-50714941D01*
X73146922Y-50608595D01*
X73294756Y-50529577D01*
X73294759Y-50529576D01*
X73294761Y-50529575D01*
X73455175Y-50480914D01*
X73455176Y-50480914D01*
X73455179Y-50480913D01*
X73580196Y-50468600D01*
X74463804Y-50468600D01*
X74588821Y-50480913D01*
X74588821Y-50480913D01*
G37*
G36*
X51220821Y-50480913D02*
X51220824Y-50480914D01*
X51220825Y-50480914D01*
X51381239Y-50529575D01*
X51381241Y-50529576D01*
X51381244Y-50529577D01*
X51529078Y-50608595D01*
X51658659Y-50714941D01*
X51765005Y-50844522D01*
X51844023Y-50992356D01*
X51844024Y-50992359D01*
X51844025Y-50992361D01*
X51868427Y-51072804D01*
X51892687Y-51152779D01*
X51909117Y-51319600D01*
X51892687Y-51486421D01*
X51892686Y-51486424D01*
X51892686Y-51486425D01*
X51858731Y-51598361D01*
X51844023Y-51646844D01*
X51765005Y-51794678D01*
X51658659Y-51924259D01*
X51529078Y-52030605D01*
X51381244Y-52109623D01*
X51381241Y-52109624D01*
X51381239Y-52109625D01*
X51220825Y-52158286D01*
X51220824Y-52158286D01*
X51220821Y-52158287D01*
X51095804Y-52170600D01*
X50212196Y-52170600D01*
X50087179Y-52158287D01*
X50087176Y-52158286D01*
X50087175Y-52158286D01*
X49926761Y-52109625D01*
X49926759Y-52109624D01*
X49926756Y-52109623D01*
X49778922Y-52030605D01*
X49649341Y-51924259D01*
X49542995Y-51794678D01*
X49463977Y-51646844D01*
X49449270Y-51598361D01*
X49415314Y-51486425D01*
X49415314Y-51486424D01*
X49415313Y-51486421D01*
X49398883Y-51319600D01*
X49415313Y-51152779D01*
X49439573Y-51072804D01*
X49463975Y-50992361D01*
X49463976Y-50992359D01*
X49463977Y-50992356D01*
X49542995Y-50844522D01*
X49649341Y-50714941D01*
X49778922Y-50608595D01*
X49926756Y-50529577D01*
X49926759Y-50529576D01*
X49926761Y-50529575D01*
X50087175Y-50480914D01*
X50087176Y-50480914D01*
X50087179Y-50480913D01*
X50212196Y-50468600D01*
X51095804Y-50468600D01*
X51220821Y-50480913D01*
X51220821Y-50480913D01*
G37*
G36*
X43600821Y-50480913D02*
X43600824Y-50480914D01*
X43600825Y-50480914D01*
X43761239Y-50529575D01*
X43761241Y-50529576D01*
X43761244Y-50529577D01*
X43909078Y-50608595D01*
X44038659Y-50714941D01*
X44145005Y-50844522D01*
X44224023Y-50992356D01*
X44224024Y-50992359D01*
X44224025Y-50992361D01*
X44248427Y-51072804D01*
X44272687Y-51152779D01*
X44289117Y-51319600D01*
X44272687Y-51486421D01*
X44272686Y-51486424D01*
X44272686Y-51486425D01*
X44238731Y-51598361D01*
X44224023Y-51646844D01*
X44145005Y-51794678D01*
X44038659Y-51924259D01*
X43909078Y-52030605D01*
X43761244Y-52109623D01*
X43761241Y-52109624D01*
X43761239Y-52109625D01*
X43600825Y-52158286D01*
X43600824Y-52158286D01*
X43600821Y-52158287D01*
X43475804Y-52170600D01*
X42592196Y-52170600D01*
X42467179Y-52158287D01*
X42467176Y-52158286D01*
X42467175Y-52158286D01*
X42306761Y-52109625D01*
X42306759Y-52109624D01*
X42306756Y-52109623D01*
X42158922Y-52030605D01*
X42029341Y-51924259D01*
X41922995Y-51794678D01*
X41843977Y-51646844D01*
X41829270Y-51598361D01*
X41795314Y-51486425D01*
X41795314Y-51486424D01*
X41795313Y-51486421D01*
X41778883Y-51319600D01*
X41795313Y-51152779D01*
X41819573Y-51072804D01*
X41843975Y-50992361D01*
X41843976Y-50992359D01*
X41843977Y-50992356D01*
X41922995Y-50844522D01*
X42029341Y-50714941D01*
X42158922Y-50608595D01*
X42306756Y-50529577D01*
X42306759Y-50529576D01*
X42306761Y-50529575D01*
X42467175Y-50480914D01*
X42467176Y-50480914D01*
X42467179Y-50480913D01*
X42592196Y-50468600D01*
X43475804Y-50468600D01*
X43600821Y-50480913D01*
X43600821Y-50480913D01*
G37*
G36*
X69432621Y-50465673D02*
X69432624Y-50465674D01*
X69432625Y-50465674D01*
X69593039Y-50514335D01*
X69593041Y-50514336D01*
X69593044Y-50514337D01*
X69740878Y-50593355D01*
X69870459Y-50699701D01*
X69976805Y-50829282D01*
X70055823Y-50977116D01*
X70055824Y-50977119D01*
X70055825Y-50977121D01*
X70084850Y-51072804D01*
X70104487Y-51137539D01*
X70120917Y-51304360D01*
X70104487Y-51471181D01*
X70104486Y-51471184D01*
X70104486Y-51471185D01*
X70065908Y-51598361D01*
X70055823Y-51631604D01*
X69976805Y-51779438D01*
X69870459Y-51909019D01*
X69740878Y-52015365D01*
X69593044Y-52094383D01*
X69593041Y-52094384D01*
X69593039Y-52094385D01*
X69432625Y-52143046D01*
X69432624Y-52143046D01*
X69432621Y-52143047D01*
X69307604Y-52155360D01*
X68423996Y-52155360D01*
X68298979Y-52143047D01*
X68298976Y-52143046D01*
X68298975Y-52143046D01*
X68138561Y-52094385D01*
X68138559Y-52094384D01*
X68138556Y-52094383D01*
X67990722Y-52015365D01*
X67861141Y-51909019D01*
X67754795Y-51779438D01*
X67675777Y-51631604D01*
X67665693Y-51598361D01*
X67627114Y-51471185D01*
X67627114Y-51471184D01*
X67627113Y-51471181D01*
X67610683Y-51304360D01*
X67627113Y-51137539D01*
X67646750Y-51072804D01*
X67675775Y-50977121D01*
X67675776Y-50977119D01*
X67675777Y-50977116D01*
X67754795Y-50829282D01*
X67861141Y-50699701D01*
X67990722Y-50593355D01*
X68138556Y-50514337D01*
X68138559Y-50514336D01*
X68138561Y-50514335D01*
X68298975Y-50465674D01*
X68298976Y-50465674D01*
X68298979Y-50465673D01*
X68423996Y-50453360D01*
X69307604Y-50453360D01*
X69432621Y-50465673D01*
X69432621Y-50465673D01*
G37*
G36*
X62496800Y-52155360D02*
X59994800Y-52155360D01*
X59994800Y-50453360D01*
X62496800Y-50453360D01*
X62496800Y-52155360D01*
X62496800Y-52155360D01*
G37*
G36*
X56281821Y-49906873D02*
X56281824Y-49906874D01*
X56281825Y-49906874D01*
X56442239Y-49955535D01*
X56442241Y-49955536D01*
X56442244Y-49955537D01*
X56590078Y-50034555D01*
X56719659Y-50140901D01*
X56826005Y-50270482D01*
X56905023Y-50418316D01*
X56953687Y-50578739D01*
X56970117Y-50745560D01*
X56953687Y-50912381D01*
X56953686Y-50912384D01*
X56953686Y-50912385D01*
X56929426Y-50992361D01*
X56905023Y-51072804D01*
X56826005Y-51220638D01*
X56719659Y-51350219D01*
X56590078Y-51456565D01*
X56442244Y-51535583D01*
X56442241Y-51535584D01*
X56442239Y-51535585D01*
X56281825Y-51584246D01*
X56281824Y-51584246D01*
X56281821Y-51584247D01*
X56156804Y-51596560D01*
X56073196Y-51596560D01*
X55948179Y-51584247D01*
X55948176Y-51584246D01*
X55948175Y-51584246D01*
X55787761Y-51535585D01*
X55787759Y-51535584D01*
X55787756Y-51535583D01*
X55639922Y-51456565D01*
X55510341Y-51350219D01*
X55403995Y-51220638D01*
X55324977Y-51072804D01*
X55300575Y-50992361D01*
X55276314Y-50912385D01*
X55276314Y-50912384D01*
X55276313Y-50912381D01*
X55259883Y-50745560D01*
X55276313Y-50578739D01*
X55324977Y-50418316D01*
X55403995Y-50270482D01*
X55510341Y-50140901D01*
X55639922Y-50034555D01*
X55787756Y-49955537D01*
X55787759Y-49955536D01*
X55787761Y-49955535D01*
X55948175Y-49906874D01*
X55948176Y-49906874D01*
X55948179Y-49906873D01*
X56073196Y-49894560D01*
X56156804Y-49894560D01*
X56281821Y-49906873D01*
X56281821Y-49906873D01*
G37*
G36*
X43600821Y-47940913D02*
X43600824Y-47940914D01*
X43600825Y-47940914D01*
X43761239Y-47989575D01*
X43761241Y-47989576D01*
X43761244Y-47989577D01*
X43909078Y-48068595D01*
X44038659Y-48174941D01*
X44145005Y-48304522D01*
X44224023Y-48452356D01*
X44224024Y-48452359D01*
X44224025Y-48452361D01*
X44272686Y-48612775D01*
X44272687Y-48612779D01*
X44289117Y-48779600D01*
X44272687Y-48946421D01*
X44224023Y-49106844D01*
X44145005Y-49254678D01*
X44038659Y-49384259D01*
X43909078Y-49490605D01*
X43761244Y-49569623D01*
X43761241Y-49569624D01*
X43761239Y-49569625D01*
X43600825Y-49618286D01*
X43600824Y-49618286D01*
X43600821Y-49618287D01*
X43475804Y-49630600D01*
X42592196Y-49630600D01*
X42467179Y-49618287D01*
X42467176Y-49618286D01*
X42467175Y-49618286D01*
X42306761Y-49569625D01*
X42306759Y-49569624D01*
X42306756Y-49569623D01*
X42158922Y-49490605D01*
X42029341Y-49384259D01*
X41922995Y-49254678D01*
X41843977Y-49106844D01*
X41795313Y-48946421D01*
X41778883Y-48779600D01*
X41795313Y-48612779D01*
X41795314Y-48612775D01*
X41843975Y-48452361D01*
X41843976Y-48452359D01*
X41843977Y-48452356D01*
X41922995Y-48304522D01*
X42029341Y-48174941D01*
X42158922Y-48068595D01*
X42306756Y-47989577D01*
X42306759Y-47989576D01*
X42306761Y-47989575D01*
X42467175Y-47940914D01*
X42467176Y-47940914D01*
X42467179Y-47940913D01*
X42592196Y-47928600D01*
X43475804Y-47928600D01*
X43600821Y-47940913D01*
X43600821Y-47940913D01*
G37*
G36*
X82208821Y-47940913D02*
X82208824Y-47940914D01*
X82208825Y-47940914D01*
X82369239Y-47989575D01*
X82369241Y-47989576D01*
X82369244Y-47989577D01*
X82517078Y-48068595D01*
X82646659Y-48174941D01*
X82753005Y-48304522D01*
X82832023Y-48452356D01*
X82832024Y-48452359D01*
X82832025Y-48452361D01*
X82880686Y-48612775D01*
X82880687Y-48612779D01*
X82897117Y-48779600D01*
X82880687Y-48946421D01*
X82832023Y-49106844D01*
X82753005Y-49254678D01*
X82646659Y-49384259D01*
X82517078Y-49490605D01*
X82369244Y-49569623D01*
X82369241Y-49569624D01*
X82369239Y-49569625D01*
X82208825Y-49618286D01*
X82208824Y-49618286D01*
X82208821Y-49618287D01*
X82083804Y-49630600D01*
X81200196Y-49630600D01*
X81075179Y-49618287D01*
X81075176Y-49618286D01*
X81075175Y-49618286D01*
X80914761Y-49569625D01*
X80914759Y-49569624D01*
X80914756Y-49569623D01*
X80766922Y-49490605D01*
X80637341Y-49384259D01*
X80530995Y-49254678D01*
X80451977Y-49106844D01*
X80403313Y-48946421D01*
X80386883Y-48779600D01*
X80403313Y-48612779D01*
X80403314Y-48612775D01*
X80451975Y-48452361D01*
X80451976Y-48452359D01*
X80451977Y-48452356D01*
X80530995Y-48304522D01*
X80637341Y-48174941D01*
X80766922Y-48068595D01*
X80914756Y-47989577D01*
X80914759Y-47989576D01*
X80914761Y-47989575D01*
X81075175Y-47940914D01*
X81075176Y-47940914D01*
X81075179Y-47940913D01*
X81200196Y-47928600D01*
X82083804Y-47928600D01*
X82208821Y-47940913D01*
X82208821Y-47940913D01*
G37*
G36*
X74588821Y-47940913D02*
X74588824Y-47940914D01*
X74588825Y-47940914D01*
X74749239Y-47989575D01*
X74749241Y-47989576D01*
X74749244Y-47989577D01*
X74897078Y-48068595D01*
X75026659Y-48174941D01*
X75133005Y-48304522D01*
X75212023Y-48452356D01*
X75212024Y-48452359D01*
X75212025Y-48452361D01*
X75260686Y-48612775D01*
X75260687Y-48612779D01*
X75277117Y-48779600D01*
X75260687Y-48946421D01*
X75212023Y-49106844D01*
X75133005Y-49254678D01*
X75026659Y-49384259D01*
X74897078Y-49490605D01*
X74749244Y-49569623D01*
X74749241Y-49569624D01*
X74749239Y-49569625D01*
X74588825Y-49618286D01*
X74588824Y-49618286D01*
X74588821Y-49618287D01*
X74463804Y-49630600D01*
X73580196Y-49630600D01*
X73455179Y-49618287D01*
X73455176Y-49618286D01*
X73455175Y-49618286D01*
X73294761Y-49569625D01*
X73294759Y-49569624D01*
X73294756Y-49569623D01*
X73146922Y-49490605D01*
X73017341Y-49384259D01*
X72910995Y-49254678D01*
X72831977Y-49106844D01*
X72783313Y-48946421D01*
X72766883Y-48779600D01*
X72783313Y-48612779D01*
X72783314Y-48612775D01*
X72831975Y-48452361D01*
X72831976Y-48452359D01*
X72831977Y-48452356D01*
X72910995Y-48304522D01*
X73017341Y-48174941D01*
X73146922Y-48068595D01*
X73294756Y-47989577D01*
X73294759Y-47989576D01*
X73294761Y-47989575D01*
X73455175Y-47940914D01*
X73455176Y-47940914D01*
X73455179Y-47940913D01*
X73580196Y-47928600D01*
X74463804Y-47928600D01*
X74588821Y-47940913D01*
X74588821Y-47940913D01*
G37*
G36*
X51220821Y-47940913D02*
X51220824Y-47940914D01*
X51220825Y-47940914D01*
X51381239Y-47989575D01*
X51381241Y-47989576D01*
X51381244Y-47989577D01*
X51529078Y-48068595D01*
X51658659Y-48174941D01*
X51765005Y-48304522D01*
X51844023Y-48452356D01*
X51844024Y-48452359D01*
X51844025Y-48452361D01*
X51892686Y-48612775D01*
X51892687Y-48612779D01*
X51909117Y-48779600D01*
X51892687Y-48946421D01*
X51844023Y-49106844D01*
X51765005Y-49254678D01*
X51658659Y-49384259D01*
X51529078Y-49490605D01*
X51381244Y-49569623D01*
X51381241Y-49569624D01*
X51381239Y-49569625D01*
X51220825Y-49618286D01*
X51220824Y-49618286D01*
X51220821Y-49618287D01*
X51095804Y-49630600D01*
X50212196Y-49630600D01*
X50087179Y-49618287D01*
X50087176Y-49618286D01*
X50087175Y-49618286D01*
X49926761Y-49569625D01*
X49926759Y-49569624D01*
X49926756Y-49569623D01*
X49778922Y-49490605D01*
X49649341Y-49384259D01*
X49542995Y-49254678D01*
X49463977Y-49106844D01*
X49415313Y-48946421D01*
X49398883Y-48779600D01*
X49415313Y-48612779D01*
X49415314Y-48612775D01*
X49463975Y-48452361D01*
X49463976Y-48452359D01*
X49463977Y-48452356D01*
X49542995Y-48304522D01*
X49649341Y-48174941D01*
X49778922Y-48068595D01*
X49926756Y-47989577D01*
X49926759Y-47989576D01*
X49926761Y-47989575D01*
X50087175Y-47940914D01*
X50087176Y-47940914D01*
X50087179Y-47940913D01*
X50212196Y-47928600D01*
X51095804Y-47928600D01*
X51220821Y-47940913D01*
X51220821Y-47940913D01*
G37*
G36*
X65278628Y-47053263D02*
X65433500Y-47117413D01*
X65572881Y-47210545D01*
X65691415Y-47329079D01*
X65784547Y-47468460D01*
X65848697Y-47623332D01*
X65881400Y-47787744D01*
X65881400Y-47955376D01*
X65848697Y-48119788D01*
X65784547Y-48274660D01*
X65691415Y-48414041D01*
X65572881Y-48532575D01*
X65433500Y-48625707D01*
X65278628Y-48689857D01*
X65114216Y-48722560D01*
X64946584Y-48722560D01*
X64782172Y-48689857D01*
X64627300Y-48625707D01*
X64487919Y-48532575D01*
X64369385Y-48414041D01*
X64276253Y-48274660D01*
X64212103Y-48119788D01*
X64179400Y-47955376D01*
X64179400Y-47787744D01*
X64212103Y-47623332D01*
X64276253Y-47468460D01*
X64369385Y-47329079D01*
X64487919Y-47210545D01*
X64627300Y-47117413D01*
X64782172Y-47053263D01*
X64946584Y-47020560D01*
X65114216Y-47020560D01*
X65278628Y-47053263D01*
X65278628Y-47053263D01*
G37*
G36*
X56363228Y-46726863D02*
X56518100Y-46791013D01*
X56657481Y-46884145D01*
X56776015Y-47002679D01*
X56869147Y-47142060D01*
X56933297Y-47296932D01*
X56966000Y-47461344D01*
X56966000Y-47628976D01*
X56933297Y-47793388D01*
X56869147Y-47948260D01*
X56776015Y-48087641D01*
X56657481Y-48206175D01*
X56518100Y-48299307D01*
X56363228Y-48363457D01*
X56198816Y-48396160D01*
X56031184Y-48396160D01*
X55866772Y-48363457D01*
X55711900Y-48299307D01*
X55572519Y-48206175D01*
X55453985Y-48087641D01*
X55360853Y-47948260D01*
X55296703Y-47793388D01*
X55264000Y-47628976D01*
X55264000Y-47461344D01*
X55296703Y-47296932D01*
X55360853Y-47142060D01*
X55453985Y-47002679D01*
X55572519Y-46884145D01*
X55711900Y-46791013D01*
X55866772Y-46726863D01*
X56031184Y-46694160D01*
X56198816Y-46694160D01*
X56363228Y-46726863D01*
X56363228Y-46726863D01*
G37*
G36*
X97683821Y-46670913D02*
X97683824Y-46670914D01*
X97683825Y-46670914D01*
X97844239Y-46719575D01*
X97844241Y-46719576D01*
X97844244Y-46719577D01*
X97992078Y-46798595D01*
X98121659Y-46904941D01*
X98228005Y-47034522D01*
X98307023Y-47182356D01*
X98307024Y-47182359D01*
X98307025Y-47182361D01*
X98350953Y-47327174D01*
X98355687Y-47342779D01*
X98372117Y-47509600D01*
X98355687Y-47676421D01*
X98355686Y-47676424D01*
X98355686Y-47676425D01*
X98309501Y-47828678D01*
X98307023Y-47836844D01*
X98228005Y-47984678D01*
X98121659Y-48114259D01*
X97992078Y-48220605D01*
X97844244Y-48299623D01*
X97844241Y-48299624D01*
X97844239Y-48299625D01*
X97683825Y-48348286D01*
X97683824Y-48348286D01*
X97683821Y-48348287D01*
X97558804Y-48360600D01*
X97475196Y-48360600D01*
X97350179Y-48348287D01*
X97350176Y-48348286D01*
X97350175Y-48348286D01*
X97189761Y-48299625D01*
X97189759Y-48299624D01*
X97189756Y-48299623D01*
X97041922Y-48220605D01*
X96912341Y-48114259D01*
X96805995Y-47984678D01*
X96726977Y-47836844D01*
X96724500Y-47828678D01*
X96678314Y-47676425D01*
X96678314Y-47676424D01*
X96678313Y-47676421D01*
X96661883Y-47509600D01*
X96678313Y-47342779D01*
X96683047Y-47327174D01*
X96726975Y-47182361D01*
X96726976Y-47182359D01*
X96726977Y-47182356D01*
X96805995Y-47034522D01*
X96912341Y-46904941D01*
X97041922Y-46798595D01*
X97189756Y-46719577D01*
X97189759Y-46719576D01*
X97189761Y-46719575D01*
X97350175Y-46670914D01*
X97350176Y-46670914D01*
X97350179Y-46670913D01*
X97475196Y-46658600D01*
X97558804Y-46658600D01*
X97683821Y-46670913D01*
X97683821Y-46670913D01*
G37*
G36*
X95225228Y-46691303D02*
X95380100Y-46755453D01*
X95519481Y-46848585D01*
X95638015Y-46967119D01*
X95731147Y-47106500D01*
X95795297Y-47261372D01*
X95828000Y-47425784D01*
X95828000Y-47593416D01*
X95795297Y-47757828D01*
X95731147Y-47912700D01*
X95638015Y-48052081D01*
X95519481Y-48170615D01*
X95380100Y-48263747D01*
X95225228Y-48327897D01*
X95060816Y-48360600D01*
X94893184Y-48360600D01*
X94728772Y-48327897D01*
X94573900Y-48263747D01*
X94434519Y-48170615D01*
X94315985Y-48052081D01*
X94222853Y-47912700D01*
X94158703Y-47757828D01*
X94126000Y-47593416D01*
X94126000Y-47425784D01*
X94158703Y-47261372D01*
X94222853Y-47106500D01*
X94315985Y-46967119D01*
X94434519Y-46848585D01*
X94573900Y-46755453D01*
X94728772Y-46691303D01*
X94893184Y-46658600D01*
X95060816Y-46658600D01*
X95225228Y-46691303D01*
X95225228Y-46691303D01*
G37*
G36*
X137410821Y-46514913D02*
X137410824Y-46514914D01*
X137410825Y-46514914D01*
X137571239Y-46563575D01*
X137571241Y-46563576D01*
X137571244Y-46563577D01*
X137719078Y-46642595D01*
X137848659Y-46748941D01*
X137955005Y-46878522D01*
X138034023Y-47026356D01*
X138034024Y-47026359D01*
X138034025Y-47026361D01*
X138081347Y-47182361D01*
X138082687Y-47186779D01*
X138099117Y-47353600D01*
X138082687Y-47520421D01*
X138082686Y-47520424D01*
X138082686Y-47520425D01*
X138035364Y-47676425D01*
X138034023Y-47680844D01*
X137955005Y-47828678D01*
X137848659Y-47958259D01*
X137719078Y-48064605D01*
X137571244Y-48143623D01*
X137571241Y-48143624D01*
X137571239Y-48143625D01*
X137410825Y-48192286D01*
X137410824Y-48192286D01*
X137410821Y-48192287D01*
X137285804Y-48204600D01*
X137202196Y-48204600D01*
X137077179Y-48192287D01*
X137077176Y-48192286D01*
X137077175Y-48192286D01*
X136916761Y-48143625D01*
X136916759Y-48143624D01*
X136916756Y-48143623D01*
X136768922Y-48064605D01*
X136639341Y-47958259D01*
X136532995Y-47828678D01*
X136453977Y-47680844D01*
X136452637Y-47676425D01*
X136405314Y-47520425D01*
X136405314Y-47520424D01*
X136405313Y-47520421D01*
X136388883Y-47353600D01*
X136405313Y-47186779D01*
X136406653Y-47182361D01*
X136453975Y-47026361D01*
X136453976Y-47026359D01*
X136453977Y-47026356D01*
X136532995Y-46878522D01*
X136639341Y-46748941D01*
X136768922Y-46642595D01*
X136916756Y-46563577D01*
X136916759Y-46563576D01*
X136916761Y-46563575D01*
X137077175Y-46514914D01*
X137077176Y-46514914D01*
X137077179Y-46514913D01*
X137202196Y-46502600D01*
X137285804Y-46502600D01*
X137410821Y-46514913D01*
X137410821Y-46514913D01*
G37*
G36*
X157050228Y-46535303D02*
X157205100Y-46599453D01*
X157344481Y-46692585D01*
X157463015Y-46811119D01*
X157556147Y-46950500D01*
X157620297Y-47105372D01*
X157653000Y-47269784D01*
X157653000Y-47437416D01*
X157620297Y-47601828D01*
X157556147Y-47756700D01*
X157463015Y-47896081D01*
X157344481Y-48014615D01*
X157205100Y-48107747D01*
X157050228Y-48171897D01*
X156885816Y-48204600D01*
X156718184Y-48204600D01*
X156553772Y-48171897D01*
X156398900Y-48107747D01*
X156259519Y-48014615D01*
X156140985Y-47896081D01*
X156047853Y-47756700D01*
X155983703Y-47601828D01*
X155951000Y-47437416D01*
X155951000Y-47269784D01*
X155983703Y-47105372D01*
X156047853Y-46950500D01*
X156140985Y-46811119D01*
X156259519Y-46692585D01*
X156398900Y-46599453D01*
X156553772Y-46535303D01*
X156718184Y-46502600D01*
X156885816Y-46502600D01*
X157050228Y-46535303D01*
X157050228Y-46535303D01*
G37*
G36*
X159508821Y-46514913D02*
X159508824Y-46514914D01*
X159508825Y-46514914D01*
X159669239Y-46563575D01*
X159669241Y-46563576D01*
X159669244Y-46563577D01*
X159817078Y-46642595D01*
X159946659Y-46748941D01*
X160053005Y-46878522D01*
X160132023Y-47026356D01*
X160132024Y-47026359D01*
X160132025Y-47026361D01*
X160179347Y-47182361D01*
X160180687Y-47186779D01*
X160197117Y-47353600D01*
X160180687Y-47520421D01*
X160180686Y-47520424D01*
X160180686Y-47520425D01*
X160133364Y-47676425D01*
X160132023Y-47680844D01*
X160053005Y-47828678D01*
X159946659Y-47958259D01*
X159817078Y-48064605D01*
X159669244Y-48143623D01*
X159669241Y-48143624D01*
X159669239Y-48143625D01*
X159508825Y-48192286D01*
X159508824Y-48192286D01*
X159508821Y-48192287D01*
X159383804Y-48204600D01*
X159300196Y-48204600D01*
X159175179Y-48192287D01*
X159175176Y-48192286D01*
X159175175Y-48192286D01*
X159014761Y-48143625D01*
X159014759Y-48143624D01*
X159014756Y-48143623D01*
X158866922Y-48064605D01*
X158737341Y-47958259D01*
X158630995Y-47828678D01*
X158551977Y-47680844D01*
X158550637Y-47676425D01*
X158503314Y-47520425D01*
X158503314Y-47520424D01*
X158503313Y-47520421D01*
X158486883Y-47353600D01*
X158503313Y-47186779D01*
X158504653Y-47182361D01*
X158551975Y-47026361D01*
X158551976Y-47026359D01*
X158551977Y-47026356D01*
X158630995Y-46878522D01*
X158737341Y-46748941D01*
X158866922Y-46642595D01*
X159014756Y-46563577D01*
X159014759Y-46563576D01*
X159014761Y-46563575D01*
X159175175Y-46514914D01*
X159175176Y-46514914D01*
X159175179Y-46514913D01*
X159300196Y-46502600D01*
X159383804Y-46502600D01*
X159508821Y-46514913D01*
X159508821Y-46514913D01*
G37*
G36*
X140032228Y-46535303D02*
X140187100Y-46599453D01*
X140326481Y-46692585D01*
X140445015Y-46811119D01*
X140538147Y-46950500D01*
X140602297Y-47105372D01*
X140635000Y-47269784D01*
X140635000Y-47437416D01*
X140602297Y-47601828D01*
X140538147Y-47756700D01*
X140445015Y-47896081D01*
X140326481Y-48014615D01*
X140187100Y-48107747D01*
X140032228Y-48171897D01*
X139867816Y-48204600D01*
X139700184Y-48204600D01*
X139535772Y-48171897D01*
X139380900Y-48107747D01*
X139241519Y-48014615D01*
X139122985Y-47896081D01*
X139029853Y-47756700D01*
X138965703Y-47601828D01*
X138933000Y-47437416D01*
X138933000Y-47269784D01*
X138965703Y-47105372D01*
X139029853Y-46950500D01*
X139122985Y-46811119D01*
X139241519Y-46692585D01*
X139380900Y-46599453D01*
X139535772Y-46535303D01*
X139700184Y-46502600D01*
X139867816Y-46502600D01*
X140032228Y-46535303D01*
X140032228Y-46535303D01*
G37*
G36*
X167596239Y-41625067D02*
X167910282Y-41687534D01*
X168501926Y-41932601D01*
X169016972Y-42276744D01*
X169034395Y-42288386D01*
X169487214Y-42741205D01*
X169487216Y-42741208D01*
X169842999Y-43273674D01*
X170088066Y-43865318D01*
X170124340Y-44047678D01*
X170213000Y-44493403D01*
X170213000Y-45133797D01*
X170162316Y-45388600D01*
X170088066Y-45761882D01*
X169842999Y-46353526D01*
X169574439Y-46755454D01*
X169487214Y-46885995D01*
X169034395Y-47338814D01*
X169034392Y-47338816D01*
X168501926Y-47694599D01*
X167910282Y-47939666D01*
X167683991Y-47984678D01*
X167282197Y-48064600D01*
X166641803Y-48064600D01*
X166240009Y-47984678D01*
X166013718Y-47939666D01*
X165422074Y-47694599D01*
X164889608Y-47338816D01*
X164889605Y-47338814D01*
X164436786Y-46885995D01*
X164349561Y-46755454D01*
X164081001Y-46353526D01*
X163835934Y-45761882D01*
X163761684Y-45388600D01*
X163711000Y-45133797D01*
X163711000Y-44493403D01*
X163799660Y-44047678D01*
X163835934Y-43865318D01*
X164081001Y-43273674D01*
X164436784Y-42741208D01*
X164436786Y-42741205D01*
X164889605Y-42288386D01*
X164907028Y-42276744D01*
X165422074Y-41932601D01*
X166013718Y-41687534D01*
X166327761Y-41625067D01*
X166641803Y-41562600D01*
X167282197Y-41562600D01*
X167596239Y-41625067D01*
X167596239Y-41625067D01*
G37*
G36*
X130258239Y-41625067D02*
X130572282Y-41687534D01*
X131163926Y-41932601D01*
X131678972Y-42276744D01*
X131696395Y-42288386D01*
X132149214Y-42741205D01*
X132149216Y-42741208D01*
X132504999Y-43273674D01*
X132750066Y-43865318D01*
X132786340Y-44047678D01*
X132875000Y-44493403D01*
X132875000Y-45133797D01*
X132824316Y-45388600D01*
X132750066Y-45761882D01*
X132504999Y-46353526D01*
X132236439Y-46755454D01*
X132149214Y-46885995D01*
X131696395Y-47338814D01*
X131696392Y-47338816D01*
X131163926Y-47694599D01*
X130572282Y-47939666D01*
X130345991Y-47984678D01*
X129944197Y-48064600D01*
X129303803Y-48064600D01*
X128902009Y-47984678D01*
X128675718Y-47939666D01*
X128084074Y-47694599D01*
X127551608Y-47338816D01*
X127551605Y-47338814D01*
X127098786Y-46885995D01*
X127011561Y-46755454D01*
X126743001Y-46353526D01*
X126497934Y-45761882D01*
X126423684Y-45388600D01*
X126373000Y-45133797D01*
X126373000Y-44493403D01*
X126461660Y-44047678D01*
X126497934Y-43865318D01*
X126743001Y-43273674D01*
X127098784Y-42741208D01*
X127098786Y-42741205D01*
X127551605Y-42288386D01*
X127569028Y-42276744D01*
X128084074Y-41932601D01*
X128675718Y-41687534D01*
X128989761Y-41625067D01*
X129303803Y-41562600D01*
X129944197Y-41562600D01*
X130258239Y-41625067D01*
X130258239Y-41625067D01*
G37*
G36*
X27158239Y-41613427D02*
X27472282Y-41675894D01*
X28063926Y-41920961D01*
X28592802Y-42274345D01*
X28596395Y-42276746D01*
X29049214Y-42729565D01*
X29049216Y-42729568D01*
X29404999Y-43262034D01*
X29650066Y-43853678D01*
X29659248Y-43899839D01*
X29775000Y-44481763D01*
X29775000Y-45122157D01*
X29746386Y-45266009D01*
X29650066Y-45750242D01*
X29404999Y-46341886D01*
X29066433Y-46848585D01*
X29049214Y-46874355D01*
X28596395Y-47327174D01*
X28596392Y-47327176D01*
X28063926Y-47682959D01*
X27472282Y-47928026D01*
X27334784Y-47955376D01*
X26844197Y-48052960D01*
X26203803Y-48052960D01*
X25713216Y-47955376D01*
X25575718Y-47928026D01*
X24984074Y-47682959D01*
X24451608Y-47327176D01*
X24451605Y-47327174D01*
X23998786Y-46874355D01*
X23981567Y-46848585D01*
X23643001Y-46341886D01*
X23397934Y-45750242D01*
X23301614Y-45266009D01*
X23273000Y-45122157D01*
X23273000Y-44481763D01*
X23388752Y-43899839D01*
X23397934Y-43853678D01*
X23643001Y-43262034D01*
X23998784Y-42729568D01*
X23998786Y-42729565D01*
X24451605Y-42276746D01*
X24455198Y-42274345D01*
X24984074Y-41920961D01*
X25575718Y-41675894D01*
X25889761Y-41613427D01*
X26203803Y-41550960D01*
X26844197Y-41550960D01*
X27158239Y-41613427D01*
X27158239Y-41613427D01*
G37*
G36*
X115232739Y-41613427D02*
X115546782Y-41675894D01*
X116138426Y-41920961D01*
X116667302Y-42274345D01*
X116670895Y-42276746D01*
X117123714Y-42729565D01*
X117123716Y-42729568D01*
X117479499Y-43262034D01*
X117724566Y-43853678D01*
X117733748Y-43899839D01*
X117849500Y-44481763D01*
X117849500Y-45122157D01*
X117820886Y-45266009D01*
X117724566Y-45750242D01*
X117479499Y-46341886D01*
X117140933Y-46848585D01*
X117123714Y-46874355D01*
X116670895Y-47327174D01*
X116670892Y-47327176D01*
X116138426Y-47682959D01*
X115546782Y-47928026D01*
X115409284Y-47955376D01*
X114918697Y-48052960D01*
X114278303Y-48052960D01*
X113787716Y-47955376D01*
X113650218Y-47928026D01*
X113058574Y-47682959D01*
X112526108Y-47327176D01*
X112526105Y-47327174D01*
X112073286Y-46874355D01*
X112056067Y-46848585D01*
X111717501Y-46341886D01*
X111472434Y-45750242D01*
X111376114Y-45266009D01*
X111347500Y-45122157D01*
X111347500Y-44481763D01*
X111463252Y-43899839D01*
X111472434Y-43853678D01*
X111717501Y-43262034D01*
X112073284Y-42729568D01*
X112073286Y-42729565D01*
X112526105Y-42276746D01*
X112529698Y-42274345D01*
X113058574Y-41920961D01*
X113650218Y-41675894D01*
X113964261Y-41613427D01*
X114278303Y-41550960D01*
X114918697Y-41550960D01*
X115232739Y-41613427D01*
X115232739Y-41613427D01*
G37*
G36*
X89002228Y-46143303D02*
X89157100Y-46207453D01*
X89296481Y-46300585D01*
X89415015Y-46419119D01*
X89508147Y-46558500D01*
X89572297Y-46713372D01*
X89605000Y-46877784D01*
X89605000Y-47045416D01*
X89572297Y-47209828D01*
X89508147Y-47364700D01*
X89415015Y-47504081D01*
X89296481Y-47622615D01*
X89157100Y-47715747D01*
X89002228Y-47779897D01*
X88837816Y-47812600D01*
X88670184Y-47812600D01*
X88505772Y-47779897D01*
X88350900Y-47715747D01*
X88211519Y-47622615D01*
X88092985Y-47504081D01*
X87999853Y-47364700D01*
X87935703Y-47209828D01*
X87903000Y-47045416D01*
X87903000Y-46877784D01*
X87935703Y-46713372D01*
X87999853Y-46558500D01*
X88092985Y-46419119D01*
X88211519Y-46300585D01*
X88350900Y-46207453D01*
X88505772Y-46143303D01*
X88670184Y-46110600D01*
X88837816Y-46110600D01*
X89002228Y-46143303D01*
X89002228Y-46143303D01*
G37*
G36*
X74588821Y-45400913D02*
X74588824Y-45400914D01*
X74588825Y-45400914D01*
X74749239Y-45449575D01*
X74749241Y-45449576D01*
X74749244Y-45449577D01*
X74897078Y-45528595D01*
X75026659Y-45634941D01*
X75133005Y-45764522D01*
X75212023Y-45912356D01*
X75212024Y-45912359D01*
X75212025Y-45912361D01*
X75260686Y-46072775D01*
X75260687Y-46072779D01*
X75277117Y-46239600D01*
X75260687Y-46406421D01*
X75260686Y-46406424D01*
X75260686Y-46406425D01*
X75213015Y-46563577D01*
X75212023Y-46566844D01*
X75133005Y-46714678D01*
X75026659Y-46844259D01*
X74897078Y-46950605D01*
X74749244Y-47029623D01*
X74749241Y-47029624D01*
X74749239Y-47029625D01*
X74588825Y-47078286D01*
X74588824Y-47078286D01*
X74588821Y-47078287D01*
X74463804Y-47090600D01*
X73580196Y-47090600D01*
X73455179Y-47078287D01*
X73455176Y-47078286D01*
X73455175Y-47078286D01*
X73294761Y-47029625D01*
X73294759Y-47029624D01*
X73294756Y-47029623D01*
X73146922Y-46950605D01*
X73017341Y-46844259D01*
X72910995Y-46714678D01*
X72831977Y-46566844D01*
X72830986Y-46563577D01*
X72783314Y-46406425D01*
X72783314Y-46406424D01*
X72783313Y-46406421D01*
X72766883Y-46239600D01*
X72783313Y-46072779D01*
X72783314Y-46072775D01*
X72831975Y-45912361D01*
X72831976Y-45912359D01*
X72831977Y-45912356D01*
X72910995Y-45764522D01*
X73017341Y-45634941D01*
X73146922Y-45528595D01*
X73294756Y-45449577D01*
X73294759Y-45449576D01*
X73294761Y-45449575D01*
X73455175Y-45400914D01*
X73455176Y-45400914D01*
X73455179Y-45400913D01*
X73580196Y-45388600D01*
X74463804Y-45388600D01*
X74588821Y-45400913D01*
X74588821Y-45400913D01*
G37*
G36*
X51220821Y-45400913D02*
X51220824Y-45400914D01*
X51220825Y-45400914D01*
X51381239Y-45449575D01*
X51381241Y-45449576D01*
X51381244Y-45449577D01*
X51529078Y-45528595D01*
X51658659Y-45634941D01*
X51765005Y-45764522D01*
X51844023Y-45912356D01*
X51844024Y-45912359D01*
X51844025Y-45912361D01*
X51892686Y-46072775D01*
X51892687Y-46072779D01*
X51909117Y-46239600D01*
X51892687Y-46406421D01*
X51892686Y-46406424D01*
X51892686Y-46406425D01*
X51845015Y-46563577D01*
X51844023Y-46566844D01*
X51765005Y-46714678D01*
X51658659Y-46844259D01*
X51529078Y-46950605D01*
X51381244Y-47029623D01*
X51381241Y-47029624D01*
X51381239Y-47029625D01*
X51220825Y-47078286D01*
X51220824Y-47078286D01*
X51220821Y-47078287D01*
X51095804Y-47090600D01*
X50212196Y-47090600D01*
X50087179Y-47078287D01*
X50087176Y-47078286D01*
X50087175Y-47078286D01*
X49926761Y-47029625D01*
X49926759Y-47029624D01*
X49926756Y-47029623D01*
X49778922Y-46950605D01*
X49649341Y-46844259D01*
X49542995Y-46714678D01*
X49463977Y-46566844D01*
X49462986Y-46563577D01*
X49415314Y-46406425D01*
X49415314Y-46406424D01*
X49415313Y-46406421D01*
X49398883Y-46239600D01*
X49415313Y-46072779D01*
X49415314Y-46072775D01*
X49463975Y-45912361D01*
X49463976Y-45912359D01*
X49463977Y-45912356D01*
X49542995Y-45764522D01*
X49649341Y-45634941D01*
X49778922Y-45528595D01*
X49926756Y-45449577D01*
X49926759Y-45449576D01*
X49926761Y-45449575D01*
X50087175Y-45400914D01*
X50087176Y-45400914D01*
X50087179Y-45400913D01*
X50212196Y-45388600D01*
X51095804Y-45388600D01*
X51220821Y-45400913D01*
X51220821Y-45400913D01*
G37*
G36*
X43600821Y-45400913D02*
X43600824Y-45400914D01*
X43600825Y-45400914D01*
X43761239Y-45449575D01*
X43761241Y-45449576D01*
X43761244Y-45449577D01*
X43909078Y-45528595D01*
X44038659Y-45634941D01*
X44145005Y-45764522D01*
X44224023Y-45912356D01*
X44224024Y-45912359D01*
X44224025Y-45912361D01*
X44272686Y-46072775D01*
X44272687Y-46072779D01*
X44289117Y-46239600D01*
X44272687Y-46406421D01*
X44272686Y-46406424D01*
X44272686Y-46406425D01*
X44225015Y-46563577D01*
X44224023Y-46566844D01*
X44145005Y-46714678D01*
X44038659Y-46844259D01*
X43909078Y-46950605D01*
X43761244Y-47029623D01*
X43761241Y-47029624D01*
X43761239Y-47029625D01*
X43600825Y-47078286D01*
X43600824Y-47078286D01*
X43600821Y-47078287D01*
X43475804Y-47090600D01*
X42592196Y-47090600D01*
X42467179Y-47078287D01*
X42467176Y-47078286D01*
X42467175Y-47078286D01*
X42306761Y-47029625D01*
X42306759Y-47029624D01*
X42306756Y-47029623D01*
X42158922Y-46950605D01*
X42029341Y-46844259D01*
X41922995Y-46714678D01*
X41843977Y-46566844D01*
X41842986Y-46563577D01*
X41795314Y-46406425D01*
X41795314Y-46406424D01*
X41795313Y-46406421D01*
X41778883Y-46239600D01*
X41795313Y-46072779D01*
X41795314Y-46072775D01*
X41843975Y-45912361D01*
X41843976Y-45912359D01*
X41843977Y-45912356D01*
X41922995Y-45764522D01*
X42029341Y-45634941D01*
X42158922Y-45528595D01*
X42306756Y-45449577D01*
X42306759Y-45449576D01*
X42306761Y-45449575D01*
X42467175Y-45400914D01*
X42467176Y-45400914D01*
X42467179Y-45400913D01*
X42592196Y-45388600D01*
X43475804Y-45388600D01*
X43600821Y-45400913D01*
X43600821Y-45400913D01*
G37*
G36*
X82208821Y-45400913D02*
X82208824Y-45400914D01*
X82208825Y-45400914D01*
X82369239Y-45449575D01*
X82369241Y-45449576D01*
X82369244Y-45449577D01*
X82517078Y-45528595D01*
X82646659Y-45634941D01*
X82753005Y-45764522D01*
X82832023Y-45912356D01*
X82832024Y-45912359D01*
X82832025Y-45912361D01*
X82880686Y-46072775D01*
X82880687Y-46072779D01*
X82897117Y-46239600D01*
X82880687Y-46406421D01*
X82880686Y-46406424D01*
X82880686Y-46406425D01*
X82833015Y-46563577D01*
X82832023Y-46566844D01*
X82753005Y-46714678D01*
X82646659Y-46844259D01*
X82517078Y-46950605D01*
X82369244Y-47029623D01*
X82369241Y-47029624D01*
X82369239Y-47029625D01*
X82208825Y-47078286D01*
X82208824Y-47078286D01*
X82208821Y-47078287D01*
X82083804Y-47090600D01*
X81200196Y-47090600D01*
X81075179Y-47078287D01*
X81075176Y-47078286D01*
X81075175Y-47078286D01*
X80914761Y-47029625D01*
X80914759Y-47029624D01*
X80914756Y-47029623D01*
X80766922Y-46950605D01*
X80637341Y-46844259D01*
X80530995Y-46714678D01*
X80451977Y-46566844D01*
X80450986Y-46563577D01*
X80403314Y-46406425D01*
X80403314Y-46406424D01*
X80403313Y-46406421D01*
X80386883Y-46239600D01*
X80403313Y-46072779D01*
X80403314Y-46072775D01*
X80451975Y-45912361D01*
X80451976Y-45912359D01*
X80451977Y-45912356D01*
X80530995Y-45764522D01*
X80637341Y-45634941D01*
X80766922Y-45528595D01*
X80914756Y-45449577D01*
X80914759Y-45449576D01*
X80914761Y-45449575D01*
X81075175Y-45400914D01*
X81075176Y-45400914D01*
X81075179Y-45400913D01*
X81200196Y-45388600D01*
X82083804Y-45388600D01*
X82208821Y-45400913D01*
X82208821Y-45400913D01*
G37*
G36*
X103391618Y-44901380D02*
X103473427Y-44926197D01*
X103514333Y-44938605D01*
X103592600Y-44980440D01*
X103627426Y-44999055D01*
X103726553Y-45080407D01*
X103807905Y-45179534D01*
X103807906Y-45179536D01*
X103868355Y-45292627D01*
X103880419Y-45332399D01*
X103905580Y-45415342D01*
X103915000Y-45510987D01*
X103915000Y-46124933D01*
X103905580Y-46220578D01*
X103868355Y-46343292D01*
X103807905Y-46456386D01*
X103726553Y-46555513D01*
X103726551Y-46555515D01*
X103691595Y-46584202D01*
X103627425Y-46636865D01*
X103575699Y-46664513D01*
X103514332Y-46697315D01*
X103473426Y-46709723D01*
X103391617Y-46734540D01*
X103264000Y-46747109D01*
X103136382Y-46734540D01*
X103054573Y-46709723D01*
X103013667Y-46697315D01*
X102900576Y-46636866D01*
X102900574Y-46636865D01*
X102801447Y-46555513D01*
X102768128Y-46514913D01*
X102720096Y-46456386D01*
X102720095Y-46456384D01*
X102671035Y-46364600D01*
X102659645Y-46343292D01*
X102628191Y-46239600D01*
X102622420Y-46220577D01*
X102613000Y-46124932D01*
X102613000Y-45510987D01*
X102622420Y-45415342D01*
X102647581Y-45332399D01*
X102659645Y-45292627D01*
X102679795Y-45254930D01*
X102720095Y-45179534D01*
X102801448Y-45080407D01*
X102900575Y-44999055D01*
X102935401Y-44980440D01*
X103013668Y-44938605D01*
X103054574Y-44926197D01*
X103136383Y-44901380D01*
X103264000Y-44888811D01*
X103391618Y-44901380D01*
X103391618Y-44901380D01*
G37*
G36*
X105755242Y-44896364D02*
X105792339Y-44907617D01*
X105826520Y-44925887D01*
X105856482Y-44950478D01*
X105881073Y-44980440D01*
X105899343Y-45014621D01*
X105910596Y-45051718D01*
X105915000Y-45096433D01*
X105915000Y-46539487D01*
X105910596Y-46584202D01*
X105899343Y-46621299D01*
X105881073Y-46655480D01*
X105856482Y-46685442D01*
X105826520Y-46710033D01*
X105792339Y-46728303D01*
X105755242Y-46739556D01*
X105710527Y-46743960D01*
X104817473Y-46743960D01*
X104772758Y-46739556D01*
X104735661Y-46728303D01*
X104701480Y-46710033D01*
X104671518Y-46685442D01*
X104646927Y-46655480D01*
X104628657Y-46621299D01*
X104617404Y-46584202D01*
X104613000Y-46539487D01*
X104613000Y-45096433D01*
X104617404Y-45051718D01*
X104628657Y-45014621D01*
X104646927Y-44980440D01*
X104671518Y-44950478D01*
X104701480Y-44925887D01*
X104735661Y-44907617D01*
X104772758Y-44896364D01*
X104817473Y-44891960D01*
X105710527Y-44891960D01*
X105755242Y-44896364D01*
X105755242Y-44896364D01*
G37*
G36*
X152511000Y-46364600D02*
X149409000Y-46364600D01*
X149409000Y-43262600D01*
X152511000Y-43262600D01*
X152511000Y-46364600D01*
X152511000Y-46364600D01*
G37*
G36*
X146232527Y-43302336D02*
X146332410Y-43322204D01*
X146614674Y-43439121D01*
X146868705Y-43608859D01*
X147084741Y-43824895D01*
X147254479Y-44078926D01*
X147357129Y-44326747D01*
X147371396Y-44361191D01*
X147431000Y-44660838D01*
X147431000Y-44966362D01*
X147414021Y-45051718D01*
X147371396Y-45266010D01*
X147254479Y-45548274D01*
X147084741Y-45802305D01*
X146868705Y-46018341D01*
X146614674Y-46188079D01*
X146332410Y-46304996D01*
X146232527Y-46324864D01*
X146032762Y-46364600D01*
X145727238Y-46364600D01*
X145527473Y-46324864D01*
X145427590Y-46304996D01*
X145145326Y-46188079D01*
X144891295Y-46018341D01*
X144675259Y-45802305D01*
X144505521Y-45548274D01*
X144388604Y-45266010D01*
X144345979Y-45051718D01*
X144329000Y-44966362D01*
X144329000Y-44660838D01*
X144388604Y-44361191D01*
X144402871Y-44326747D01*
X144505521Y-44078926D01*
X144675259Y-43824895D01*
X144891295Y-43608859D01*
X145145326Y-43439121D01*
X145427590Y-43322204D01*
X145527473Y-43302336D01*
X145727238Y-43262600D01*
X146032762Y-43262600D01*
X146232527Y-43302336D01*
X146232527Y-43302336D01*
G37*
G36*
X56281821Y-44166473D02*
X56281824Y-44166474D01*
X56281825Y-44166474D01*
X56442239Y-44215135D01*
X56442241Y-44215136D01*
X56442244Y-44215137D01*
X56590078Y-44294155D01*
X56719659Y-44400501D01*
X56826005Y-44530082D01*
X56905023Y-44677916D01*
X56953687Y-44838339D01*
X56970117Y-45005160D01*
X56953687Y-45171981D01*
X56953686Y-45171984D01*
X56953686Y-45171985D01*
X56917090Y-45292627D01*
X56905023Y-45332404D01*
X56826005Y-45480238D01*
X56719659Y-45609819D01*
X56590078Y-45716165D01*
X56442244Y-45795183D01*
X56442241Y-45795184D01*
X56442239Y-45795185D01*
X56281825Y-45843846D01*
X56281824Y-45843846D01*
X56281821Y-45843847D01*
X56156804Y-45856160D01*
X56073196Y-45856160D01*
X55948179Y-45843847D01*
X55948176Y-45843846D01*
X55948175Y-45843846D01*
X55787761Y-45795185D01*
X55787759Y-45795184D01*
X55787756Y-45795183D01*
X55639922Y-45716165D01*
X55510341Y-45609819D01*
X55403995Y-45480238D01*
X55324977Y-45332404D01*
X55312911Y-45292627D01*
X55276314Y-45171985D01*
X55276314Y-45171984D01*
X55276313Y-45171981D01*
X55259883Y-45005160D01*
X55276313Y-44838339D01*
X55324977Y-44677916D01*
X55403995Y-44530082D01*
X55510341Y-44400501D01*
X55639922Y-44294155D01*
X55787756Y-44215137D01*
X55787759Y-44215136D01*
X55787761Y-44215135D01*
X55948175Y-44166474D01*
X55948176Y-44166474D01*
X55948179Y-44166473D01*
X56073196Y-44154160D01*
X56156804Y-44154160D01*
X56281821Y-44166473D01*
X56281821Y-44166473D01*
G37*
G36*
X89605000Y-45312600D02*
X87903000Y-45312600D01*
X87903000Y-43610600D01*
X89605000Y-43610600D01*
X89605000Y-45312600D01*
X89605000Y-45312600D01*
G37*
G36*
X44285000Y-44550600D02*
X41783000Y-44550600D01*
X41783000Y-42848600D01*
X44285000Y-42848600D01*
X44285000Y-44550600D01*
X44285000Y-44550600D01*
G37*
G36*
X51220821Y-42860913D02*
X51220824Y-42860914D01*
X51220825Y-42860914D01*
X51381239Y-42909575D01*
X51381241Y-42909576D01*
X51381244Y-42909577D01*
X51529078Y-42988595D01*
X51658659Y-43094941D01*
X51765005Y-43224522D01*
X51844023Y-43372356D01*
X51892687Y-43532779D01*
X51909117Y-43699600D01*
X51892687Y-43866421D01*
X51892686Y-43866424D01*
X51892686Y-43866425D01*
X51859538Y-43975700D01*
X51844023Y-44026844D01*
X51765005Y-44174678D01*
X51658659Y-44304259D01*
X51529078Y-44410605D01*
X51381244Y-44489623D01*
X51381241Y-44489624D01*
X51381239Y-44489625D01*
X51220825Y-44538286D01*
X51220824Y-44538286D01*
X51220821Y-44538287D01*
X51095804Y-44550600D01*
X50212196Y-44550600D01*
X50087179Y-44538287D01*
X50087176Y-44538286D01*
X50087175Y-44538286D01*
X49926761Y-44489625D01*
X49926759Y-44489624D01*
X49926756Y-44489623D01*
X49778922Y-44410605D01*
X49649341Y-44304259D01*
X49542995Y-44174678D01*
X49463977Y-44026844D01*
X49448463Y-43975700D01*
X49415314Y-43866425D01*
X49415314Y-43866424D01*
X49415313Y-43866421D01*
X49398883Y-43699600D01*
X49415313Y-43532779D01*
X49463977Y-43372356D01*
X49542995Y-43224522D01*
X49649341Y-43094941D01*
X49778922Y-42988595D01*
X49926756Y-42909577D01*
X49926759Y-42909576D01*
X49926761Y-42909575D01*
X50087175Y-42860914D01*
X50087176Y-42860914D01*
X50087179Y-42860913D01*
X50212196Y-42848600D01*
X51095804Y-42848600D01*
X51220821Y-42860913D01*
X51220821Y-42860913D01*
G37*
G36*
X75273000Y-44550600D02*
X72771000Y-44550600D01*
X72771000Y-42848600D01*
X75273000Y-42848600D01*
X75273000Y-44550600D01*
X75273000Y-44550600D01*
G37*
G36*
X82208821Y-42860913D02*
X82208824Y-42860914D01*
X82208825Y-42860914D01*
X82369239Y-42909575D01*
X82369241Y-42909576D01*
X82369244Y-42909577D01*
X82517078Y-42988595D01*
X82646659Y-43094941D01*
X82753005Y-43224522D01*
X82832023Y-43372356D01*
X82880687Y-43532779D01*
X82897117Y-43699600D01*
X82880687Y-43866421D01*
X82880686Y-43866424D01*
X82880686Y-43866425D01*
X82847538Y-43975700D01*
X82832023Y-44026844D01*
X82753005Y-44174678D01*
X82646659Y-44304259D01*
X82517078Y-44410605D01*
X82369244Y-44489623D01*
X82369241Y-44489624D01*
X82369239Y-44489625D01*
X82208825Y-44538286D01*
X82208824Y-44538286D01*
X82208821Y-44538287D01*
X82083804Y-44550600D01*
X81200196Y-44550600D01*
X81075179Y-44538287D01*
X81075176Y-44538286D01*
X81075175Y-44538286D01*
X80914761Y-44489625D01*
X80914759Y-44489624D01*
X80914756Y-44489623D01*
X80766922Y-44410605D01*
X80637341Y-44304259D01*
X80530995Y-44174678D01*
X80451977Y-44026844D01*
X80436463Y-43975700D01*
X80403314Y-43866425D01*
X80403314Y-43866424D01*
X80403313Y-43866421D01*
X80386883Y-43699600D01*
X80403313Y-43532779D01*
X80451977Y-43372356D01*
X80530995Y-43224522D01*
X80637341Y-43094941D01*
X80766922Y-42988595D01*
X80914756Y-42909577D01*
X80914759Y-42909576D01*
X80914761Y-42909575D01*
X81075175Y-42860914D01*
X81075176Y-42860914D01*
X81075179Y-42860913D01*
X81200196Y-42848600D01*
X82083804Y-42848600D01*
X82208821Y-42860913D01*
X82208821Y-42860913D01*
G37*
G36*
X97765228Y-42754303D02*
X97920100Y-42818453D01*
X98059481Y-42911585D01*
X98178015Y-43030119D01*
X98271147Y-43169500D01*
X98335297Y-43324372D01*
X98368000Y-43488784D01*
X98368000Y-43656416D01*
X98335297Y-43820828D01*
X98271147Y-43975700D01*
X98178015Y-44115081D01*
X98059481Y-44233615D01*
X97920100Y-44326747D01*
X97765228Y-44390897D01*
X97600816Y-44423600D01*
X97433184Y-44423600D01*
X97268772Y-44390897D01*
X97113900Y-44326747D01*
X96974519Y-44233615D01*
X96855985Y-44115081D01*
X96762853Y-43975700D01*
X96698703Y-43820828D01*
X96666000Y-43656416D01*
X96666000Y-43488784D01*
X96698703Y-43324372D01*
X96762853Y-43169500D01*
X96855985Y-43030119D01*
X96974519Y-42911585D01*
X97113900Y-42818453D01*
X97268772Y-42754303D01*
X97433184Y-42721600D01*
X97600816Y-42721600D01*
X97765228Y-42754303D01*
X97765228Y-42754303D01*
G37*
G36*
X95143821Y-42733913D02*
X95143824Y-42733914D01*
X95143825Y-42733914D01*
X95304239Y-42782575D01*
X95304241Y-42782576D01*
X95304244Y-42782577D01*
X95452078Y-42861595D01*
X95581659Y-42967941D01*
X95688005Y-43097522D01*
X95767023Y-43245356D01*
X95767024Y-43245359D01*
X95767025Y-43245361D01*
X95805548Y-43372356D01*
X95815687Y-43405779D01*
X95832117Y-43572600D01*
X95815687Y-43739421D01*
X95815686Y-43739424D01*
X95815686Y-43739425D01*
X95777497Y-43865319D01*
X95767023Y-43899844D01*
X95688005Y-44047678D01*
X95581659Y-44177259D01*
X95452078Y-44283605D01*
X95304244Y-44362623D01*
X95304241Y-44362624D01*
X95304239Y-44362625D01*
X95143825Y-44411286D01*
X95143824Y-44411286D01*
X95143821Y-44411287D01*
X95018804Y-44423600D01*
X94935196Y-44423600D01*
X94810179Y-44411287D01*
X94810176Y-44411286D01*
X94810175Y-44411286D01*
X94649761Y-44362625D01*
X94649759Y-44362624D01*
X94649756Y-44362623D01*
X94501922Y-44283605D01*
X94372341Y-44177259D01*
X94265995Y-44047678D01*
X94186977Y-43899844D01*
X94176504Y-43865319D01*
X94138314Y-43739425D01*
X94138314Y-43739424D01*
X94138313Y-43739421D01*
X94121883Y-43572600D01*
X94138313Y-43405779D01*
X94148452Y-43372356D01*
X94186975Y-43245361D01*
X94186976Y-43245359D01*
X94186977Y-43245356D01*
X94265995Y-43097522D01*
X94372341Y-42967941D01*
X94501922Y-42861595D01*
X94649756Y-42782577D01*
X94649759Y-42782576D01*
X94649761Y-42782575D01*
X94810175Y-42733914D01*
X94810176Y-42733914D01*
X94810179Y-42733913D01*
X94935196Y-42721600D01*
X95018804Y-42721600D01*
X95143821Y-42733913D01*
X95143821Y-42733913D01*
G37*
G36*
X65881400Y-43722560D02*
X64179400Y-43722560D01*
X64179400Y-42020560D01*
X65881400Y-42020560D01*
X65881400Y-43722560D01*
X65881400Y-43722560D01*
G37*
M02*
